<svg id="Layer_1" data-name="Layer 1" xmlns="http://www.w3.org/2000/svg" xmlns:xlink="http://www.w3.org/1999/xlink" viewBox="0 0 100.67 99.67"><defs><style>.cls-1{fill:none;}.cls-2{clip-path:url(#clip-path);}</style><clipPath id="clip-path" transform="translate(4.29 4.59)"><path class="cls-1" d="M38.1,6.8c-3.2.6-4.5-4.2-1.4-4.8a54.6,54.6,0,0,1,25.1.7c3.1.8,1.8,5.6-1.3,4.8A48.47,48.47,0,0,0,38.1,6.8ZM83,19.6c3-3,5.7-8.3,1.7-11.6-3.6-3-8.2-2-11.6.5ZM67.3,7c5.2-5.9,16.9-8.9,22-1.2,4.7,7.1.8,14.9-5.4,19.4a2.44,2.44,0,0,1-3-.4l-12-13.5A2.66,2.66,0,0,1,67.3,7ZM9.7,7.3c-5.9,3.3-4.5,8.6-1,12.8A157.53,157.53,0,0,0,24.3,8.5C20.7,4.3,14.8,4.4,9.7,7.3ZM9.5,25.5a2.44,2.44,0,0,1-3-.4C.2,18.8-2.8,7.7,7.2,3c8.6-4,18.5-4.2,23,5.5a2.69,2.69,0,0,1-2.7,3.8A166.28,166.28,0,0,1,9.5,25.5Zm40.8.8c.3,3.8.7,7.6,1,11.3.2,2.1.6,4.5-.8,6.3-3.5,4.5-10.3,7.4-15,10.5-2.7,1.8-5.2-2.5-2.5-4.3,4.2-2.7,8.5-5.3,12.5-8.2,2.6-1.9.1-12.7-.2-15.6C45,23.1,50,23.1,50.3,26.3Zm1.8,45.8C66.5,71,76.3,56.7,75.5,42.3c-.5-7.9-2.7-19-11.4-21.8-6.3-2.1-13.2-2.1-19.8-1.6-7.1.6-15.3,2-20.5,7.3-5.6,5.7-7.3,13.8-7.6,21.5-.4,8.8,2,15.8,10.4,19.6a48.11,48.11,0,0,0,24.2,4.6A1.81,1.81,0,0,1,52.1,72.1ZM71.5,19c6.6,5.8,9.1,16.4,8.9,24.9C80.2,55.1,75,66,66.3,72.2a112.91,112.91,0,0,0,6,13.3c1.5,2.8-2.8,5.3-4.3,2.5a99.3,99.3,0,0,1-6.1-13.3A27.17,27.17,0,0,1,47.8,77h-.2a53.26,53.26,0,0,1-15.2-1.9c-1.8,4.8-4.5,9.1-6.7,13.7-1.4,2.9-5.7.4-4.3-2.5,2.1-4.2,4.6-8.3,6.3-12.7a33.64,33.64,0,0,1-7.5-4.1c-7.9-5.8-9.9-14-9-23.5s3.2-18.9,11.1-25.1c6.5-5.2,15.4-6.8,23.4-7.1C54,13.5,64.8,13.1,71.5,19Z"/></clipPath></defs><title>1</title><g class="cls-2"><rect fill="#ffffff" width="100.67" height="99.67"/></g></svg>