<svg id="Layer_1" data-name="Layer 1" xmlns="http://www.w3.org/2000/svg" xmlns:xlink="http://www.w3.org/1999/xlink" viewBox="0 0 100.03 95.94"><defs><style>.cls-1{fill:none;}.cls-2{clip-path:url(#clip-path);}</style><clipPath id="clip-path" transform="translate(4.89 4.14)"><path class="cls-1" d="M46.1,40.2c1.8-2.2.4-4.3-2.2-4.4-2-.1-4.6.1-6.1,1.7-1,1.1-1.6,4.1.7,4.2a2.13,2.13,0,0,1,1.2.3C42,42.1,44.6,41.9,46.1,40.2ZM32.3,36.8c1.8-4.7,7.7-6.5,12.3-6,5,.6,8.6,4.7,6.9,9.8-2,5.9-8.8,6.5-14,6.3a2.27,2.27,0,0,1-1.8-.9A7.6,7.6,0,0,1,32.3,36.8Zm39.1,45c-.7-17.6-2.1-35.1-2.9-52.6C60.6,21.5,53,13.5,44.4,6.6A205.88,205.88,0,0,0,16.7,31.7c-.1,16.7-.4,33.4-.4,50.1H35.9c-.7-6.8-1.5-14-.9-20.8.4-4.8,6.3-4.1,9.7-4.3,4.1-.2,8.5-.4,8.6,4.8.2,6.5.2,13,.1,19.5a2,2,0,0,1-.1.8ZM40.1,69.4c.1,4.1.4,8.3.9,12.5h7.6a2.2,2.2,0,0,1-.1-.8c.1-4.7.1-9.5,0-14.2,0-.8.1-5.3-.4-5.3l-4.9.3C40.4,62,40,61.1,40,64,40,65.8,40,67.6,40.1,69.4ZM89.3,41.1c2.5,1.9-1.1,5.4-3.5,3.5-4.2-3.3-8.2-6.8-12-10.4.8,16.7,2.1,33.4,2.7,50.1A2.54,2.54,0,0,1,74,86.8H13.8a2.48,2.48,0,0,1-2.5-2.5c0-15.7.2-31.3.3-47-2.5,2.9-5,5.9-7.4,9-1.9,2.6-5.5-1-3.5-3.5A220.93,220.93,0,0,1,43.3,1.2c.9-.7,2.2-.2,3,.4,7.9,6.1,14.9,13.2,22,20.2C68.1,16.9,68,11.9,68,7c0-3.2,5-3.2,5,0,0,6.7.2,13.3.5,20A162.34,162.34,0,0,0,89.3,41.1Z"/></clipPath></defs><title>2</title><g class="cls-2"><rect fill="#ffffff" width="100.03" height="95.94"/></g></svg>