<svg id="Layer_1" data-name="Layer 1" xmlns="http://www.w3.org/2000/svg" xmlns:xlink="http://www.w3.org/1999/xlink" viewBox="0 0 46.21 59.05"><defs><style>.cls-1{fill:none;clip-rule:evenodd;}.cls-2{clip-path:url(#clip-path);}</style><clipPath id="clip-path" transform="translate(4.1 4.9)"><path class="cls-1" d="M10.25,24c-.62-1.47,1.53-2.74,2.16-1.27.87,2,1.14,4.28,2.35,6.17a24.55,24.55,0,0,0,4.83,5C20.8,35,19,36.76,17.82,35.71a28.46,28.46,0,0,1-4.83-5C11.5,28.63,11.24,26.31,10.25,24Zm19-11.76c.41.42-5.11-.07-9.24-3-1.3-.92-.48-3,.83-2C24.6,9.87,25.67,10,30.4,10.25a1.27,1.27,0,0,1,1.25,1.25c-.25,8.44.73,16.16-5.18,22.79-1.68,1.88-3.51,3.62-5.28,5.41-.65.66-1.68,2.28-2.71,2.49-1.94.4-3.08-1.5-4.29-2.74-5.65-5.79-9.28-12-9.26-20.29,0-2.12-1-6.55.57-8.25.79-.84,2.64-.87,3.68-1.08C12,9.28,14.61,8.9,16.88,7c1.22-1,3,.73,1.77,1.77a12.75,12.75,0,0,1-5.12,2.75c-1.18.34-2.55.32-3.68.75-2.43.93-2.17,1.27-2.42,4a24.46,24.46,0,0,0,5.78,18.61,24.08,24.08,0,0,0,3.42,3.56c1.85,1.24,1.1,1.49,2.79-.44s4-3.85,5.77-6C30,26.24,29,19.29,29.25,12.24ZM19.77,2.33,19,2.06c-1.44-.73-.88-2.51.56-1.79A48.12,48.12,0,0,0,29.92,4.56c1.59.39,4.62.53,5.85,1.78,2.31,2.39.91,9.26.94,12.3.06,5.49-.25,9.32-2.86,14.14s-5.43,9.38-9.58,13c-2.07,1.81-4.28,4.45-7.13,2.91-2.64-1.42-4.87-4.85-6.79-7.08C8.69,39.68,7,37.76,5.54,35.68A22.83,22.83,0,0,1,1,22.79c-.12-3.33,0-6.69,0-10,0-2.43-.42-5.2.31-7.53a1.26,1.26,0,0,1,.88-.88c4.71-.74,11.5,1.22,15.58-2,1.24-1,3,.77,1.77,1.77C17,6.17,13.28,6.4,10,6.68c-2,.17-5.52-.65-6.53,1.58-.87,1.92,0,6,0,8.11,0,6-.14,11.48,3.27,16.74,2.42,3.73,6.14,9,9.75,11.66,1.89,1.4,2.54,1.57,4.72.29a15,15,0,0,0,2.45-2.14,33,33,0,0,0,5-6.27c3.07-4.81,5.5-9.37,5.51-15.2,0-2.81-.06-5.62-.08-8.43,0-3.32-.76-5-4.09-5.85C25.87,6.12,23.65,4.3,19.77,2.33Z"/></clipPath></defs><title>3</title><g class="cls-2"><rect fill="#ffffff" width="46.21" height="59.05"/></g></svg>