<svg id="Layer_1" data-name="Layer 1" xmlns="http://www.w3.org/2000/svg" xmlns:xlink="http://www.w3.org/1999/xlink" viewBox="0 0 71.93 100.43"><defs><style>.cls-1{fill:none;}.cls-2{clip-path:url(#clip-path);}</style><clipPath id="clip-path" transform="translate(4.93 4.04)"><path class="cls-1" d="M30.2,28.3a59.89,59.89,0,0,0,.6-19.8,4.88,4.88,0,0,1-.7.3A6.13,6.13,0,0,0,27.9,14a45.2,45.2,0,0,0-.2,5.2c.1,2.1.5,4.4-.6,6.3-1.6,2.7-6.2,3.1-7.4-.1-.9-2.4-.3-5.3-.3-7.8,0-1.8.2-3.7.1-5.5,0-2.7-2.3-3.3-2.7,1.1-.5,5.4.6,11.1-1.1,16.3a2.56,2.56,0,0,1-3.1,1.7c-.2-.1-.5-.1-.7-.2a2.58,2.58,0,0,1-1.8-2.4c.1-4.9-1.2-9.6-1-14.4.6-2.2-.6-2.6-3.5-1.2a15.39,15.39,0,0,0-.7,4.2,33.46,33.46,0,0,0,.5,6.3A53.18,53.18,0,0,0,7,30.4c1.4,3.7,3.8,2.8,6.8,3.8a7.54,7.54,0,0,1,4.5,3.7c1.5,2.5,1.4,6,1.4,8.8V59.6c.1,8.8.1,17.5.1,26.3,5.4,2.6,4.7-18.2,4.6-21.3-.3-7.7-1.2-15.3-1.4-22.9,0-3.1-.4-6.2,1.5-8.8C26.1,30.8,29.6,31.3,30.2,28.3ZM24.4,7.5C26.7,4.1,34.1-.4,35.8,6c1.2,4.4.3,10.3.1,14.8-.1,3.3-.1,6.7-1.2,9.9A8.29,8.29,0,0,1,32,34.4c-1.2,1-4,1.4-4,3.5,0,5.1.3,10.2.6,15.3.5,6.8,5.3,45.4-11.4,37a2.33,2.33,0,0,1-1.1-1.1,2.44,2.44,0,0,1-1.3-2.2c0-12.8-.1-25.5-.1-38.3,0-2.5.4-5.4-.5-7.8-1.1-2.7-4.8-1.4-6.8-2.6-3.8-2.4-5-5.7-6-10C0,22-2.6,5.5,8.1,5.5a6.05,6.05,0,0,1,5.1,2.9,10.92,10.92,0,0,1,2.4-2.9c3.8-3.1,7-.6,8.4,2.8A2,2,0,0,1,24.4,7.5ZM51.2,76.9c.2,3.1-.1,8,3.8,8,1-15.3,1.7-30.7,1.9-46,.1-7.7.3-15.5-.1-23.3-.1-2-.2-3.9-.4-5.8-.3-3.4-1.5-3.6-4.4-3.6-3.9,0-5.6,2.4-6.1,6-1,7.4-.9,15.1-1.2,22.5-.2,2.9-.5,1.4,1,2.2a10,10,0,0,1,2.6,2c1.4,1.4,1.8,3.5,2.1,5.4.5,3.2-.1,6.7-.1,10,0,3.7,0,7.5.2,11.3S50.9,73.1,51.2,76.9Zm7-74.6c2.6,1.9,2.9,4.3,3.2,7.5.5,5.1.6,10.3.6,15.4,0,20.2-.6,40.4-2,60.6a2,2,0,0,1-.6,1.5,2.15,2.15,0,0,1-1.8,2.4c-6,1.1-10.5-.5-11-7.1-.8-10-1.6-20.1-1.3-30.2.1-2.5.8-6.2,0-8.6-.6-1.6-3.5-3-4.9-4.2-2.2-1.8-.6-8.4-.5-10.8.2-4.9.2-9.9.7-14.8.3-2.8.6-6.3,2.3-8.6a9.69,9.69,0,0,1,6.9-4.3C52,.8,56.3.9,58.2,2.3Z"/></clipPath></defs><title>4</title><g class="cls-2"><rect fill="#ffffff" width="71.93" height="100.43"/></g></svg>