<svg id="Layer_1" data-name="Layer 1" xmlns="http://www.w3.org/2000/svg" xmlns:xlink="http://www.w3.org/1999/xlink" viewBox="0 0 100 94.58"><defs><style>.cls-1{fill:none;}.cls-2{clip-path:url(#clip-path);}</style><clipPath id="clip-path" transform="translate(4 4.29)"><path class="cls-1" d="M87.14,44c-.25,3.07-2.11,7.17-4.39,8.16-.66.28-1.72.51-3.38-.81A8,8,0,0,1,78,49.62c-1.12-1.69-3-4.52-6.92-3.2s-4,5.27-4,7.91c0,.33,0,.66,0,1,0,.59,0,1.17,0,1.75a79.29,79.29,0,0,0,1.63,14c.35,2,.71,4,1,6.05-1.45.18-2.8.4-3.85.64a27.31,27.31,0,0,0-4,1.43c-4.52,1.88-8.72,3.37-10.27,1.06-.86-1.26-.23-2.42,1.39-4.77,1.25-1.83,2.68-3.9,2.13-6.26-.38-1.59-1.57-2.93-3.65-4.09-3.25-1.81-8.27-1.69-11.94.29A7.84,7.84,0,0,0,35,71.74a8.33,8.33,0,0,0,.83,4c.58,1.41.64,1.56-.67,2.6-.93.74-3.31,1-6.35.59-1.91-.23-3.76-.48-5.58-.73C18.51,77.55,14.06,77,9.54,76.7,9.41,76,9.28,75.47,9.15,75,8.62,72.94,8,71,7.47,69.17c-.84-2.77-2.6-8.53-1.76-9.12,1.72-1.2,2.85-.53,5.44,1.54l.41.33c5,3.93,8.63,2.6,10.37,1.45,5-3.25,6.6-12.5,4.94-18.75-1.2-4.54-4-7.27-7.63-7.5-2.34-.14-4.6,1.42-7,3.07C10.42,41.42,8.18,43,7,42.7c-.35-.08-.7-.44-1-1-1.7-3.08-1.23-8.09-.45-12.51,5.62.1,12.39-.18,18-2.31,5-1.89,7.26-3.9,6.7-10.19A22.85,22.85,0,0,0,29.49,13c-.56-2.26-1.09-4.39-.23-6,1.24-2.25,4.82-3.2,7.38-1.95,3.41,1.66,3.48,3.89,2.83,8.25-.56,3.76.24,6.57,2.38,8.35,3.81,3.18,10.53,1.8,15.5.09a60.74,60.74,0,0,1,9.81-2.47c0,.83,0,1.67-.09,2.54-.07,1.64-.14,3.34-.07,5,0,.44,0,.94,0,1.49,0,3,.08,6.82,1.87,9.06,3.08,3.87,6.1,1.92,7.91.76.47-.3,1-.62,1.47-.89a5.7,5.7,0,0,1,5.94.16A7.07,7.07,0,0,1,87.14,44ZM91,43.34a10.77,10.77,0,0,0-4.66-9.08,9.54,9.54,0,0,0-9.84-.35c-.65.34-1.24.72-1.76,1.05-1.91,1.24-1.91,1.24-2.83.08s-1-4.67-1-6.73c0-.59,0-1.14,0-1.6-.07-1.52,0-3.06.07-4.7S71,18.7,71,17l-.09-2.08-2.06.26a63.53,63.53,0,0,0-12.71,3c-5.47,1.87-10,2.1-11.82.58-1-.86-1.38-2.49-1-4.85.54-3.65,1.37-9.18-4.94-12.25C33.92-.49,28.12,1.17,25.9,5.2c-1.58,2.88-.81,6-.13,8.72A20.61,20.61,0,0,1,26.39,17c.34,4-.17,4.72-4.25,6.28-5.5,2.09-12.58,2.18-18.13,2l-1.63-.05-.31,1.59C1,32.56.14,39,2.64,43.52a5.46,5.46,0,0,0,3.51,2.91c2.79.66,5.57-1.24,8.25-3.08C16,42.25,18,40.88,19,41c2.47.15,3.63,2.61,4.17,4.65,1.4,5.33-.24,12.55-3.34,14.57-1.57,1-3.55.61-5.89-1.25l-.4-.32c-2.31-1.85-5.8-4.64-10-1.69C.39,59.1,1.9,64,3.81,70.29c.55,1.82,1.13,3.7,1.63,5.63.2.77.4,1.73.59,2.93l.26,1.54,1.56.06c4.88.19,9.71.84,14.83,1.53q2.75.38,5.62.74c4.28.52,7.38,0,9.21-1.4,3.56-2.84,2.51-5.38,1.82-7.06A4.75,4.75,0,0,1,38.78,72a4.21,4.21,0,0,1,2.48-3.19c2.52-1.36,6.14-1.5,8.25-.33,1,.58,1.68,1.17,1.79,1.63.17.71-.75,2-1.56,3.2-1.51,2.21-3.81,5.53-1.41,9.09,3.44,5.09,10.35,2.23,14.92.34a24.82,24.82,0,0,1,3.34-1.23,42.37,42.37,0,0,1,5.32-.78l2-.18-.22-1.94c-.31-2.76-.8-5.52-1.27-8.2-.86-4.87-1.76-9.9-1.54-15,0-.34,0-.69,0-1,.07-2.9.29-4,1.41-4.37s1.25-.23,2.52,1.69A11.15,11.15,0,0,0,77,54.37c3,2.39,5.62,2,7.28,1.32C88.15,54,90.61,48.58,91,44.33h0C91,44,91,43.67,91,43.34Z"/></clipPath></defs><title>5</title><g class="cls-2"><rect fill="#ffffff" width="100" height="94.58"/></g></svg>