<svg xmlns="http://www.w3.org/2000/svg" width="1920" height="685.25" viewBox="0 0 1920 685.25">
  <defs>
    <style>
      .cls-1 {
        fill: #e7d46f;
      }

      .cls-1, .cls-2, .cls-3, .cls-4 {
        fill-rule: evenodd;
      }

      .cls-2 {
        fill: #ea4548;
      }

      .cls-3 {
        fill: #76c8eb;
      }

      .cls-4 {
        fill: #7056df;
      }
    </style>
  </defs>
  <path id="bg_copy_2" data-name="bg copy 2" class="cls-1" d="M1970.01,703.592a546.689,546.689,0,0,0-65.02-55.4q-16.86-12.257-34.17-23.242-17.325-10.926-35-20.75a800.478,800.478,0,0,0-146-62.352,876.605,876.605,0,0,0-152.5-33.741,847.874,847.874,0,0,0-155.71-5.925q-39,2.165-77.77,8.151a760.976,760.976,0,0,0-76.74,16.12,713.222,713.222,0,0,0-74.72,24.385c-6.09,2.443-12.21,4.8-18.22,7.426l-9.05,3.869-8.97,4.062-4.47,2.036-4.18,2.043-8.28,4.086c-5.51,2.744-11.05,5.41-16.53,8.218-43.9,22.316-86.9,46.585-128.387,72.853q-31.106,19.693-61.148,40.53c-19.983,13.882-39.577,28.055-58.835,42.262-38.554,28.4-75.6,56.985-112.968,82.627-37.361,25.693-75.355,48.2-115.792,65.9a653.723,653.723,0,0,1-62.22,23.461,565.563,565.563,0,0,1-64.44,16.7c-43.36,8.477-87.624,11.189-130.591,5a287.7,287.7,0,0,1-62.7-16.427,265.757,265.757,0,0,1-57.344-31.066c-35.9-25.439-65.843-60.207-89.536-99.351C115.042,745.8,97.182,702.431,83.455,657.676c-12.7-41.492-27.843-84.093-35.694-127.264C47.33,377.558,46.758,264,46,250c7.157,46.734,78.02,246.132,97,289,305.156,688.04,728.539,27.959,1020.31-116.423,5.49-2.808,11.04-5.474,16.56-8.218l8.29-4.086,4.18-2.043,4.49-2.036,8.98-4.062,9.06-3.869c6.02-2.628,12.15-4.983,18.25-7.426a715.287,715.287,0,0,1,74.84-24.385,763.251,763.251,0,0,1,76.86-16.12q38.76-5.946,77.9-8.152a850.515,850.515,0,0,1,155.95,5.926,879.22,879.22,0,0,1,152.74,33.741A802.247,802.247,0,0,1,1917.64,444.2q17.7,9.849,35.06,20.75c4.81,3.054,16.36,9.377,16.36,9.377Z" transform="translate(-49 -250)"/>
  <path id="bg_copy_3" data-name="bg copy 3" class="cls-2" d="M1970.01,703.592a546.689,546.689,0,0,0-65.02-55.4q-16.86-12.257-34.17-23.242-17.325-10.926-35-20.75a800.478,800.478,0,0,0-146-62.352,876.605,876.605,0,0,0-152.5-33.741,847.874,847.874,0,0,0-155.71-5.925q-39,2.165-77.77,8.151a760.976,760.976,0,0,0-76.74,16.12,713.222,713.222,0,0,0-74.72,24.385c-6.09,2.443-12.21,4.8-18.22,7.426l-9.05,3.869-8.97,4.062-4.47,2.036-4.18,2.043-8.28,4.086c-5.51,2.744-11.05,5.41-16.53,8.218-43.9,22.316-86.9,46.585-128.387,72.853q-31.106,19.693-61.148,40.53c-19.983,13.882-39.577,28.055-58.835,42.262-38.554,28.4-75.6,56.985-112.968,82.627-37.361,25.693-75.355,48.2-115.792,65.9a653.723,653.723,0,0,1-62.22,23.461,565.563,565.563,0,0,1-64.44,16.7c-43.36,8.477-87.624,11.189-130.591,5a287.7,287.7,0,0,1-62.7-16.427,265.757,265.757,0,0,1-57.344-31.066c-35.9-25.439-65.843-60.207-89.536-99.351C115.042,745.8,97.182,702.431,83.455,657.676c-12-39.225-26.209-79.441-34.359-120.193-0.1-123.6-.423-212.059-1.1-224.483,7.157,46.733,66.769,219.852,80.507,264.675,13.75,44.756,31.638,88.128,55.356,127.383,23.731,39.144,53.724,73.912,89.677,99.351a266.3,266.3,0,0,0,57.435,31.066A288.519,288.519,0,0,0,393.77,851.9c43.035,6.193,87.368,3.48,130.8-5a567.02,567.02,0,0,0,64.542-16.7,655.2,655.2,0,0,0,62.318-23.46c40.5-17.7,78.555-40.206,115.975-65.9,37.427-25.642,74.531-54.226,113.147-82.627,19.287-14.207,38.913-28.38,58.927-42.262q30.063-20.792,61.244-40.53c41.56-26.269,84.62-50.537,128.59-72.853,5.49-2.808,11.04-5.474,16.56-8.218l8.29-4.086,4.18-2.043,4.49-2.036,8.98-4.062,9.06-3.869c6.02-2.628,12.15-4.983,18.25-7.426a715.287,715.287,0,0,1,74.84-24.385,763.251,763.251,0,0,1,76.86-16.12q38.76-5.946,77.9-8.152a850.515,850.515,0,0,1,155.95,5.926,879.22,879.22,0,0,1,152.74,33.741A802.247,802.247,0,0,1,1883.64,524.2q17.7,9.849,35.06,20.75,17.325,11,34.22,23.242c4.94,3.592,15.72,11.06,15.72,11.06Z" transform="translate(-49 -250)"/>
  <path id="bg_copy_4" data-name="bg copy 4" class="cls-3" d="M1904.99,648.191q-16.86-12.257-34.17-23.242-17.325-10.926-35-20.75a800.478,800.478,0,0,0-146-62.352,876.605,876.605,0,0,0-152.5-33.741,847.874,847.874,0,0,0-155.71-5.925q-39,2.165-77.77,8.151a760.976,760.976,0,0,0-76.74,16.12,713.222,713.222,0,0,0-74.72,24.385c-6.09,2.443-12.21,4.8-18.22,7.426l-9.05,3.869-8.97,4.062-4.47,2.036-4.18,2.043-8.28,4.086c-5.51,2.744-11.05,5.41-16.53,8.218-43.9,22.316-86.9,46.585-128.387,72.853q-31.106,19.693-61.148,40.53c-19.983,13.882-39.577,28.055-58.835,42.262-38.554,28.4-75.6,56.985-112.968,82.627-37.361,25.693-75.355,48.2-115.792,65.9a653.723,653.723,0,0,1-62.22,23.461,565.563,565.563,0,0,1-64.44,16.7c-43.36,8.477-87.624,11.189-130.591,5a287.7,287.7,0,0,1-62.7-16.427,265.757,265.757,0,0,1-57.344-31.066c-35.9-25.439-65.843-60.207-89.536-99.351C115.042,745.8,97.182,702.431,83.455,657.676,71.231,617.73,56.742,576.755,48.671,535.235c-0.171-28.449-.4-46.956-0.695-52.416A975.6,975.6,0,0,0,79.508,620.675c13.749,44.756,31.638,88.128,55.356,127.383,23.731,39.144,53.724,73.912,89.677,99.351a266.26,266.26,0,0,0,57.435,31.066A288.519,288.519,0,0,0,344.77,894.9c43.035,6.193,87.368,3.481,130.8-5a567.02,567.02,0,0,0,64.542-16.7,655.2,655.2,0,0,0,62.318-23.46c40.5-17.7,78.555-40.206,115.975-65.9,37.427-25.642,74.531-54.226,113.147-82.627,19.287-14.207,38.913-28.38,58.927-42.262q30.063-20.792,61.245-40.53c41.557-26.269,84.619-50.537,128.589-72.853,5.49-2.808,11.04-5.474,16.56-8.219l8.29-4.085,4.18-2.044,4.49-2.035,8.98-4.062,9.06-3.869c6.02-2.628,12.15-4.983,18.25-7.426a715.287,715.287,0,0,1,74.84-24.385,763.251,763.251,0,0,1,76.86-16.12q38.76-5.946,77.9-8.152a850.6,850.6,0,0,1,155.95,5.926,879.22,879.22,0,0,1,152.74,33.741A802.177,802.177,0,0,1,1834.64,567.2q17.7,9.849,35.06,20.75,17.325,11,34.22,23.242a546.73,546.73,0,0,1,65.12,55.4v36.049A546.591,546.591,0,0,0,1904.99,648.191Z" transform="translate(-49 -250)"/>
  <path id="bg" class="cls-4" d="M1970.01,704.592a546.689,546.689,0,0,0-65.02-55.4q-16.86-12.257-34.17-23.242-17.325-10.926-35-20.75a800.478,800.478,0,0,0-146-62.352,876.605,876.605,0,0,0-152.5-33.741,847.874,847.874,0,0,0-155.71-5.926q-39,2.166-77.77,8.152a760.976,760.976,0,0,0-76.74,16.12,713.222,713.222,0,0,0-74.72,24.385c-6.09,2.443-12.21,4.8-18.22,7.426l-9.05,3.869-8.97,4.062-4.47,2.036-4.18,2.043-8.28,4.086c-5.51,2.744-11.05,5.41-16.53,8.218-43.9,22.316-86.9,46.584-128.387,72.853q-31.106,19.693-61.148,40.53c-19.983,13.882-39.577,28.055-58.835,42.262-30.652,22.58-60.35,45.27-90.015,66.51C755.082,796.07,765.681,787.085,776,780c37.427-25.642,65.933-55.377,104.549-83.778,19.287-14.207,38.913-28.38,58.927-42.262q30.063-20.792,61.244-40.53c41.56-26.268,84.62-50.537,128.59-72.853,5.49-2.808,11.04-5.474,16.56-8.218l8.29-4.085,4.18-2.044,4.49-2.036,8.98-4.062,9.06-3.869c6.02-2.627,12.15-4.983,18.25-7.426a715.287,715.287,0,0,1,74.84-24.385,763.251,763.251,0,0,1,76.86-16.12q38.76-5.946,77.9-8.152a850.515,850.515,0,0,1,155.95,5.926,879.22,879.22,0,0,1,152.74,33.741A802.177,802.177,0,0,1,1883.64,562.2q17.7,9.849,35.06,20.75,17.325,11,34.22,23.242c5.44,3.955,16.19,12.207,16.19,12.207Z" transform="translate(-49 -250)"/>
</svg>
