<svg id="Layer_1" data-name="Layer 1" xmlns="http://www.w3.org/2000/svg" viewBox="0 0 65.42 97.38"><defs><style>.cls-1{fill:#f7ca24;}.cls-2{fill:#3c3c3b;}</style></defs><title>1_pic</title><path class="cls-1" d="M49.56,18c-.21-.77-.4-1.53-.57-2.3a3.06,3.06,0,0,0,.14-1A15.51,15.51,0,0,0,45.88,6a4.38,4.38,0,0,0-6.66-.47,4,4,0,0,0-4.6,1.6C32.77,4.23,28.4,5.27,27.55,8c-2-2.48-6.65-1-6.54,2.06-1.91-.48-4.16,1.46-2.87,3.65,2.08,3.54,1.9,7.39,2.8,11.28.4,1.75,2.56,1.4,3.09.06.75,1.49,1.51,3,2.24,4.48a3.18,3.18,0,0,0,4.88.87l.23.46a3.32,3.32,0,0,0,1,1.2,3.93,3.93,0,0,0-2.54,3.31,4,4,0,0,0-2.15,4.51c.22,1.05.39,2.11.54,3.18-.48-.54-.95-1.08-1.38-1.65-2.79-3.72-9.12-.28-6.38,3.73a22.41,22.41,0,0,1,1.19,2c-2.4-2.64-6.79.51-5.92,3.72a27.2,27.2,0,0,1,.58,2.68c-1.54-1.25-3.09-2.51-4.55-3.88a3.33,3.33,0,0,0-5.66,1.82q-.78-.6-1.53-1.23c-2.14-1.83-5.83.54-4.1,3.16,1.45,2.19,2.05,4.77,3.34,7a1.3,1.3,0,0,0,2.36-1c-.08-.35-.12-.71-.18-1.07a65.61,65.61,0,0,1,5.44,4.83,3.08,3.08,0,0,0,4.35.11,2.65,2.65,0,0,0,.48-.58,31.62,31.62,0,0,1,2.66,2.89c2.31,2.9,6.74-.25,5.9-3.43a26.65,26.65,0,0,1-.64-3.32,16.94,16.94,0,0,1,2.38,2.41c2.4,3,6.82-.3,6.06-3.52-.08-.33-.16-.66-.23-1a3.81,3.81,0,0,0,4.77-4.56,52.9,52.9,0,0,1-1.32-8.68c2.6.43,5.88-1.41,4.66-4.54a8.61,8.61,0,0,0-1.8-2.63,3,3,0,0,0-.3-2.33,4.61,4.61,0,0,0-1.85-1.89A3.66,3.66,0,0,0,38.42,29v-.6C41,31.2,46,28.62,45,24.62c-.14-.6-.26-1.21-.39-1.81C47.37,23.48,50.53,21.42,49.56,18Z" transform="translate(-0.03)"/><path class="cls-2" d="M64.3,18.07A64.37,64.37,0,0,0,55,15.13c-1.43-.35-3.76-1.14-5.58-1C48.15,5.41,40.79-2.87,32.09,1c-16.43-3.22-20.15,27.27-5.8,33.91C24.06,44.6,13.94,50.12,5.65,41.65a1.74,1.74,0,0,0-2.45.06,1.77,1.77,0,0,0-.4.69C.33,49.4-1,58.12,5.25,63.55c3.2,2.77,7.45,3.67,11.68,3.58,1.91,9.6,4.74,19,5.95,28.71.24,2,3.24,2.11,3.19,0-.07-3-.33-6-.5-9,3.09,1.85,6.22,4.55,9.61,4.8a1.35,1.35,0,0,0,.94-2.28,1.78,1.78,0,0,0-.38-.28A60.91,60.91,0,0,0,24.26,82.6a1.27,1.27,0,0,0-.86,0C22.07,77.33,20.48,72.12,18.71,67a35,35,0,0,0,5.39-.87,30.15,30.15,0,0,0,3.36-1c3.71,7.27,6.79,14.94,10.94,22,.45.82.93,1.63,1.47,2.42,1.18,1.71,4,.14,2.81-1.64-.41-.63-.79-1.27-1.18-1.9a25.74,25.74,0,0,1-1.7-3.65,74.34,74.34,0,0,0,9.88.9A1.65,1.65,0,0,0,51.2,81.5a1.62,1.62,0,0,0-.7-1.23,11.49,11.49,0,0,0-3.06-1.13,1.22,1.22,0,0,0-1.49.7c-2.71-.22-5.4-.59-8.11-1a1.77,1.77,0,0,0-.46,0c-.52-1-1-2-1.54-3-1-2.07-2-4.15-3.08-6.22-.51-1-1-2-1.6-3l-.39-.69a.34.34,0,1,0,.34-.6l-1.4-.92C41.64,59,48.09,46.58,39.08,34.67A19.77,19.77,0,0,0,48.28,24a28.25,28.25,0,0,0,16.41-2.86A1.73,1.73,0,0,0,64.3,18.07ZM24,62.67c-5,1.49-11,1.76-15.59-1C2.88,58.4,3.63,51.36,5.23,45.84c9.49,7.24,21.52,1.16,23.22-10.2l.48.14a14.81,14.81,0,0,0,6.91-.08,1.72,1.72,0,0,0,.31.6C45.62,48.07,36.23,59.05,24,62.67ZM45.86,21.4a10.1,10.1,0,0,1-1.36-.14c-1.06-.14-1.23,1.55-.25,1.82.32.08.64.14,1,.21-2.7,6.3-9.87,11.14-16.55,9v-.43A1,1,0,0,0,27.55,31a1,1,0,0,0-.69.46c-5.58-3-7-11.19-6.16-16.88.84-6,4-9.14,8.79-10.73A1.53,1.53,0,0,0,31.33,5a1.44,1.44,0,0,0,.46-.19c9.33-5.58,14.7,5.51,14.57,13.48A12.87,12.87,0,0,1,45.86,21.4Zm3.11.2a20.1,20.1,0,0,0,.6-4.08c1.48.38,3.2.39,4.57.7a59.33,59.33,0,0,1,5.73,1.61A27.81,27.81,0,0,1,49,21.6Z" transform="translate(-0.03)"/><path class="cls-2" d="M30.88,12.12a6.2,6.2,0,0,0,.22,4.56,1.28,1.28,0,0,0,.11.2,6.65,6.65,0,0,0,.1,1.43.91.91,0,0,0,1.82,0c0-.46.08-.93.1-1.39a.88.88,0,0,0,.11-.24c.39-1.29-.12-2.52.22-3.82a1.39,1.39,0,0,0-2.68-.74Z" transform="translate(-0.03)"/></svg>