<svg id="Layer_1" data-name="Layer 1" xmlns="http://www.w3.org/2000/svg" viewBox="0 0 710.46 124.68"><defs><style>.cls-1{fill:#3c3c3b;}.cls-2{fill:#009ee2;}.cls-3{fill:#e20613;}.cls-4{fill:#9a5ea2;}</style></defs><title>bottom_pic</title><path class="cls-1" d="M6.27,94.44c24.07-15,53.87-9,78.77.55,26.25,10.05,51.45,23.86,80.16,24.94a114,114,0,0,0,37.74-5q4.94-1.53,9.71-3.5c2.24-.93,6.47-2,8.16-3.75,1.9-2,1.43-4.9-.23-6.88-5.56-6.65-14.17-1-13.14,6.63,1.48,11.11,14.41,12.22,23.23,13.28,26.32,3.15,53.12,5.89,79.51,2a123.67,123.67,0,0,0,37.42-11.44c11.73-5.87,22.19-13.88,32.42-22,10.94-8.7,21.73-17.68,33.87-24.68a146.88,146.88,0,0,1,36-14.62c26.24-6.9,53.85-7.22,80.69-4.31,62.17,6.75,119.95,34.19,182.47,38.7,1.93.14,1.92-2.86,0-3-51.79-3.74-99.94-23.72-150.5-33.75C517,38.63,467.28,36.31,424.1,56,401.29,66.42,383.63,84,363.36,98.23c-21.12,14.87-44.83,22-70.53,23.2a282.41,282.41,0,0,1-38-1.1c-5.76-.5-11.52-1.11-17.27-1.77-6.83-.78-15.32-.65-21.51-4-3.13-1.69-5.62-4.64-5.7-8.36-.06-2.56,1.37-5,4.09-5.12,1.43,0,4.62,1,4.59,2.91-.05,2.69-6.75,4.44-8.74,5.23q-4.8,1.9-9.76,3.35a110.91,110.91,0,0,1-38.73,4.17c-30.12-2.11-56.2-18.25-84.25-27.66C54.07,81.21,26.7,78.19,4.75,91.85c-1.63,1-.13,3.61,1.52,2.59Z" transform="translate(-4.05)"/><path class="cls-2" d="M383.06,46.79a40.42,40.42,0,0,0-5.46-2c-1.8-.54-2.84,1-2.67,2.49-.7-.13-1.4-.25-2.11-.34a2.27,2.27,0,0,0-2.68,2.37,16,16,0,0,0-4.64.38,2.11,2.11,0,0,0-1.21,3.13l-1.47-.16a2.21,2.21,0,0,0-2.46,3c-.6-.16-1.2-.32-1.81-.46a2.23,2.23,0,0,0-2.12,3.66,14.8,14.8,0,0,0-3.65-.09A2.31,2.31,0,0,0,350.7,61c-1.68-.69-3.38-1.33-5.13-1.88s-2.79,1.39-2.19,2.84a17.24,17.24,0,0,0-4.54-.16,2,2,0,0,0-1.27,3.36l.46.57a7.73,7.73,0,0,0-3.29.69,1.65,1.65,0,0,0-.79,1.08,7.22,7.22,0,0,0-3.8,2.11,1.71,1.71,0,0,0,.08,2.39,17.53,17.53,0,0,1,1.69,2.24L330.34,74c-1.09-.19-2,1.23-1.08,2l4.23,3.49a.85.85,0,0,0,1.16-1.23l-.82-.87c.31.11.61.22.91.36,1.21.55,3-.87,2-2.13s-2-3-3-4.52a4.28,4.28,0,0,1,2.51-.27,1.75,1.75,0,0,0,2-1.19c1.23,0,2.48-.23,3.71-.29a1.88,1.88,0,0,0,1.22-3.22l-.25-.3A35.28,35.28,0,0,1,351.65,69a1.93,1.93,0,0,0,2.82-1.66c1.82.93,3.61,1.92,5.4,2.93,2.08,1.18,4.09-1.76,2.4-3.37l-3-2.81a50.89,50.89,0,0,1,5.75,2.7,2.18,2.18,0,0,0,2.73-3.24c2,.68,3.7-2.16,2.09-3.75-.72-.71-1.4-1.45-2.08-2.21a7.06,7.06,0,0,1,.87.33,2.13,2.13,0,0,0,2.44-3.43c-.25-.27-.49-.55-.72-.83a22.61,22.61,0,0,1,6.89,2.1,2.21,2.21,0,0,0,3.14-2.31c.7.24,1.4.49,2.1.76a2.27,2.27,0,0,0,2.11-4c-.21-.13-.4-.27-.59-.41A2.08,2.08,0,0,0,383.06,46.79Z" transform="translate(-4.05)"/><path class="cls-1" d="M379.67,44.79c-6.4-1.55-13,1.59-19.22,5.21,0,0,0,0,0,0-1.83-6.08-4.74-12.25-7.42-18a1.08,1.08,0,0,0-1.14-.63A57.54,57.54,0,0,0,340.44,36c-1.92,1-6.17,3-6.33,5.65-.34,5.53,5.94,13.6,10.71,16.46-7.08,2.81-15.7,6.54-17.16,14.36-1.07,5.72,6.12,10.65,10.62,7.8a9.66,9.66,0,0,0,4.31,3c7,2.35,11.5-4.24,10.82-10.27,3.8-1.12,12.73-5,16.48-8.17.66,2.51,2,4.92,4.14,6.07,4.55,2.43,9.47-3,10.39-7a5.76,5.76,0,0,0-1-4.74C388.63,55.58,385.94,46.3,379.67,44.79Zm-37.52,8.1a42.7,42.7,0,0,1-4.31-6.18c-1.14-2-2.45-4.31-.48-6.16a24.76,24.76,0,0,1,6-3.63,64.22,64.22,0,0,1,6.11-2.58c2.66-1,2.49.45,3.5,2.84,1.9,4.49,3.23,9.63,5.84,13.77h0c-2.2,1.3-4.35,2.62-6.45,3.76a66.19,66.19,0,0,1-3.48-7.18c-1.51-3.23-2.89-6.52-4.1-9.86-.35-1-2-.51-1.74.5,1,4.29,3.18,8.49,5,12.45a35,35,0,0,0,2.48,5c-.87.43-1.72.83-2.56,1.17l-1.57.63a7.27,7.27,0,0,1,.3-1.53c0-.17-.19-.21-.28-.11C345.05,57.34,343.26,54.19,342.15,52.89Zm2.16,28.71a6.75,6.75,0,0,1-4.57-2.68c.08-.11.17-.21.24-.32s0-.5-.26-.44l-.41.11a7.06,7.06,0,0,1-.71-5.71c1.44-4.61,6.73-4.08,10.73-3.82l.05.07a7,7,0,0,1,1.93,3.31.77.77,0,0,0,.21,1.08C352,77.47,349.2,82.2,344.31,81.6Zm37.81-17c-.93,2.77-4.89,6.42-7.81,4.14-1.63-1.28-2.45-3.61-2.86-5.7a1.18,1.18,0,0,0-.24-1.41c-.18-1.45-.45-5,1.87-4.5.16,0,.25-.14.21-.27a12.33,12.33,0,0,1,5.11.95,8.18,8.18,0,0,1,2,1.26.83.83,0,0,0,1,1.07A4.75,4.75,0,0,1,382.12,64.55Zm-.15-7c-3.1-2.66-8.26-3.82-11.39-2.42a.86.86,0,0,0,0,1.58,7.07,7.07,0,0,0-1.21,4.06,15.51,15.51,0,0,0,.2,2.39c-2.08,2.08-12.32,6.52-16.46,8.16A9.08,9.08,0,0,0,351.36,68a.44.44,0,0,0-.12-.15,8.18,8.18,0,0,0-.64-.68.84.84,0,0,0-1.34.18c-4.81-.93-10.35-.64-12.52,4.45a7.89,7.89,0,0,0,.53,7,7.23,7.23,0,0,1-5.89-.77c-5-3,0-9.69,2.66-11.89,4.48-3.73,10.51-5.69,15.86-7.84.77-.31,1.53-.65,2.29-1a1.53,1.53,0,0,0,1.12.18,1,1,0,0,0,.75-1.07c4.28-2.11,8.35-4.61,12.6-6.83,3.59-1.88,7.43-3.35,11.54-3,2.57.23,4.35,2.33,5.41,4.41C385,53.7,383.77,55.83,382,57.57Z" transform="translate(-4.05)"/><path class="cls-3" d="M419.92,20.17a8.18,8.18,0,0,0-2.45-1.44l-1.65-.93a1.87,1.87,0,0,0-1.94.17c-.66-.59-1.31-1.2-1.93-1.84a1.68,1.68,0,0,0-2.87,1.05A19.8,19.8,0,0,0,407.4,16c-1.32-.79-3.14.85-2.28,2.19a1.51,1.51,0,0,0-1.86,2.16c.24.45.45.91.66,1.37l-.11-.08a1.53,1.53,0,0,0-1.58-.22c.63-1.2-1.38-2.78-2-3.51a1.51,1.51,0,0,0-2.53,1c-.23-.18-.46-.35-.69-.54-.87-.71-2.5,0-2.06,1.23a10.84,10.84,0,0,0,2.6,3.95.93.93,0,0,0,1.46-.21,2.12,2.12,0,0,0,.11-.29q.36.3.69.63a1.27,1.27,0,0,0,1.9-.06,6.19,6.19,0,0,1,.47,1.81l-1-.55a1.15,1.15,0,0,0-1.36,1.82c.71.79,1.27,1.65,2,2.42a.78.78,0,0,0,1.16,0c1,1,2.3-.15,2.13-1.31-.1-.64-.14-1.28-.19-1.91.56.35,1.12.68,1.69,1a1.49,1.49,0,0,0,2-2c.34.28.67.56,1,.83a1.52,1.52,0,0,0,2.54-1.37c.06,0,.11.11.16.16a1.61,1.61,0,0,0,2.74-1.22,2,2,0,0,0,2.76-.39C419.55,24,421.44,21.54,419.92,20.17Z" transform="translate(-4.05)"/><path class="cls-1" d="M425.34,30.87c-.76-2.1-1.66-5.85-3.64-7.19-.83-.55-1.59.8-.77,1.35,1.57,1.06,2.31,4.63,2.91,6.26A80.92,80.92,0,0,1,426.75,41c.71,3,1.62,5.59-1.66,6.92a61.86,61.86,0,0,1-9.78,2.72,66.23,66.23,0,0,1-8.26,1.5c-2.63.26-4.5-9.74-5.17-11.87a17,17,0,0,1-1-8c.36-2,4.12-2.64,5.7-3.25,4.73-1.83,9.67-3.12,13.88-6.05a.76.76,0,0,0,0-1.3c-5.09-2.74-9.73-6.63-15.52-7.77a.76.76,0,0,0-.9.52c-.63,1.68-1.19,3.37-1.71,5.08-2.33-.7-4.39-2-6.73-2.67a.71.71,0,0,0-.88.68,9.27,9.27,0,0,1-.61,4.78.68.68,0,0,0,.41,1,34.21,34.21,0,0,0,6.28,1.59c-.58,2.22-1.13,4.45-1.67,6.68a.53.53,0,0,0,.24.58c-.61,2.23.05,5,.58,7.21.89,3.69,2.42,7.22,3.42,10.89.3,1.08.58,2.62,1.67,3.24,2.13,1.2,6.67-.41,8.89-.87,4.13-.87,8.55-1.71,12.41-3.47,2.55-1.16,2.81-2.54,2.49-5.25A60.33,60.33,0,0,0,425.34,30.87Zm-29.74-8.7a10.26,10.26,0,0,0,.57-3.77c1.24.47,2.42,1.11,3.62,1.66a5.75,5.75,0,0,0,2.15.67c-.32,1.11-.63,2.22-.93,3.34A48.83,48.83,0,0,1,395.6,22.17Zm10.17-6.7c4.64.91,8.8,4.38,12.9,6.81-5.26,3.19-11.48,4-16.91,6.8a5.73,5.73,0,0,0-.64.39C402.43,25.93,403.63,15,405.77,15.47Z" transform="translate(-4.05)"/><path class="cls-1" d="M420.68,34.56c-.36-1.5-.76-3-1.26-4.46a.79.79,0,0,0-1-.54c-3.85.79-7.64,1.74-11.59,1.74a.76.76,0,0,0-.72.95c.66,1.89,1.28,3.8,1.84,5.72l-.08,0c-.62.21-.34,1.2.27,1l.1,0c.55,1.95,1,3.92,1.44,5.9l-1.62.48c-1,.29-.51,1.86.42,1.5,4.36-1.17,8.59-2.58,13.14-2.74a.8.8,0,0,0,.76-1c-.52-2.57-1-5.15-1.55-7.7A.67.67,0,0,0,420.68,34.56Zm-2.55-3.34c.35,1.12.65,2.25.92,3.39-1.39.33-2.89,1-4.15,1.4l-.6.16a25.77,25.77,0,0,0-1.25-4C414.75,31.92,416.44,31.56,418.13,31.22ZM407.8,32.78a37,37,0,0,0,4.09-.39,36.3,36.3,0,0,0,.82,4.21c-1.23.33-2.45.66-3.66,1C408.62,36,408.18,34.41,407.8,32.78Zm2.8,11.82a59.57,59.57,0,0,0-1.27-5.9l.44-.09h.43a.12.12,0,0,0,.1-.13l2.73-.64c.53,1.93,1.16,3.84,1.78,5.65C413.4,43.82,412,44.2,410.6,44.6Zm5.08-1.3c-.36-1.88-.67-3.88-1.09-5.84l.66-.17a31.76,31.76,0,0,0,4.19-1c.46,2.08.86,4.17,1.27,6.27A36.72,36.72,0,0,0,415.68,43.3Z" transform="translate(-4.05)"/><path class="cls-4" d="M513,19.22a10.62,10.62,0,0,0-1.79-2.61,1.33,1.33,0,0,0-1.14-.4,19.35,19.35,0,0,1-1.61-1.89,1.51,1.51,0,0,0-2.73.9c-.4-.53-.8-1.08-1.18-1.63a1.41,1.41,0,0,0-2.57.79c-.54-.72-1.09-1.44-1.66-2.13a1.44,1.44,0,0,0-2.54,1.26,13.45,13.45,0,0,1,.54,2.44c-.21-.23-.41-.47-.6-.71a1.53,1.53,0,0,0-2.51.16,12.93,12.93,0,0,0-2-1.75c-1.06-.74-2.73.07-2.22,1.49l.42,1.25c-.84-1.06-1.71-2.1-2.64-3.1s-2.68.24-2.19,1.46c.43,1.07.85,2.12,1.23,3.19a42,42,0,0,0-2.45-3.63,1.39,1.39,0,0,0-2.46,1.23l0,0c-.82-1-1.65-2-2.53-2.95s-2.7.24-2.18,1.46a10.65,10.65,0,0,1,.72,2.68,27.36,27.36,0,0,0-3.64-3.66,1.37,1.37,0,0,0-2.18,1.47,13.74,13.74,0,0,1,.4,1.43c-.81-.71-1.61-1.43-2.36-2.21-1-1-2.63.23-2.18,1.45a19.13,19.13,0,0,1,.63,2.08c-.48-.38-.95-.75-1.44-1.12A1.36,1.36,0,0,0,466,17.66c.21.75.43,1.49.64,2.24-.54-.48-1.09-1-1.62-1.46a1,1,0,0,0-1.42,1.24c.86,1.23,1.58,2.55,2.45,3.78a.63.63,0,0,0,1.05,0,10.39,10.39,0,0,1,1.19,1.8c.68,1.33,2.44.16,2.16-1.07s-.55-2.27-.85-3.4c.52.43,1,.87,1.51,1.33a1.34,1.34,0,0,0,2.14-1.43,16.9,16.9,0,0,1-.55-1.84c.74.65,1.47,1.31,2.16,2,.95,1,2.58-.23,2.15-1.44-.13-.38-.23-.76-.33-1.15.94,1.07,1.84,2.18,2.76,3.29a1.36,1.36,0,0,0,2.47-.84c0-.76-.06-1.52-.11-2.27,1.41,1.8,2.76,3.64,4.18,5.42a1.45,1.45,0,0,0,2.35-.13c.3.43.61.86.93,1.28a1.36,1.36,0,0,0,2.47-.85,17,17,0,0,0-.28-3.35c.7,1,1.37,2,2,3s2.74.53,2.48-.85q-.28-1.44-.63-2.85c.35.58.68,1.18,1,1.79.78,1.49,2.82.2,2.46-1.23l-.12-.52.65.6c1.13,1.09,2.61-.25,2.31-1.54-.06-.25-.11-.51-.16-.77.67.95,1.32,1.91,2,2.88a1.41,1.41,0,0,0,2.54-1c.3.41.6.82.89,1.24a1.45,1.45,0,0,0,2.57-1.27c-.07-.22-.12-.45-.17-.67.49.49,1,1,1.45,1.5C512,22.52,513.83,20.62,513,19.22Z" transform="translate(-4.05)"/><path class="cls-1" d="M509.26,13.27c-3.32-2-7.22-2.26-11-2.17-.21-2.75.16-6.59-1.2-8.88C495.08-1.07,489.88.15,486.81.58c-3.6.5-7.78,0-10.88,2.19-2.65,1.88-1.53,5.8-.52,8.63-5.63.19-11.76,1.49-13,7.1-1.18,5.1,6.15,12.23,10.62,7.86.25-.23-.06-.7-.37-.55-3.09,1.39-5.73-.12-7.6-2.67-2.68-3.65-.48-7.38,3.2-8.89a21.67,21.67,0,0,1,7.72-1.39.37.37,0,0,0,.68,0c2.41,0,4.82.14,7,.24,2.07.09,4.11,0,6.16-.06a.58.58,0,0,0,.18.08.56.56,0,0,0,.46-.11c2.82-.14,5.65-.35,8.51-.4,3.49,0,7.42.27,10.23,2.56,3.93,3.19,1.11,7.28-2.52,8.41a4.86,4.86,0,0,0-2.26-3.39,4,4,0,0,0-3.46-.31c-2.09-.4-3.63,1.73-4,4.09a.53.53,0,0,0-.25-.12,29.21,29.21,0,0,0-4.45.35,36.17,36.17,0,0,0-3.76.29,34.55,34.55,0,0,0-3.85.58,6.1,6.1,0,0,0-.33-1.68c-.37-1.05-1.48-2.65-2.74-2.51a.59.59,0,0,0-.27.11,5,5,0,0,0-5.93,1.77,5.06,5.06,0,0,0,2,7.77,4.87,4.87,0,0,0,7-2.92,6.72,6.72,0,0,0,.28-1.46l.23,0c1.36-.1,2.73-.28,4.08-.44a39.14,39.14,0,0,1,4.06-.16c1.17,0,2.83.12,3.84-.6-.07,1.9.62,3.76,2.38,4.39,2.75,1,6.74-1.28,7.43-4.15C512.09,23.85,515.3,16.83,509.26,13.27Zm-14.21-2c-1.55.09-3.08.16-4.61.22-.09-.21-.2-.43-.28-.64-.49-1.25-.94-2.51-1.36-3.79-.14-.42-1.64-4.84-1.79-4.68.13-.14-.07-.37-.22-.25-.92.67.2,3.37.41,4.15.4,1.47.84,2.93,1.32,4.37.09.25.17.57.28.9-2.36.07-4.73.08-7.16,0-1.5-.06-3.31-.15-5.22-.12-.61-3.57-1.65-7.7,3.44-8.66,2.3-.44,4.73-.36,7.05-.67,3.53-.47,8.74-1.74,9.33,3.49.21,1.87.29,3.74.5,5.61ZM478.37,29.37a3.65,3.65,0,0,1-2-5.56,4.06,4.06,0,0,1,5.06-1.68c.45.49,1.06.81,1.39,1.47a4.82,4.82,0,0,1,.31,2.9A3.47,3.47,0,0,1,478.37,29.37Zm20.9-1.57c-1.59-1.08-1.5-4.17-.3-5.92a.6.6,0,0,0,.91.17c1.21-.88,2.51-1.35,3.89-.59a3.11,3.11,0,0,1,1.49,2.39l-.28,0c-1,0-.86,1.49.08,1.49C504.22,27.18,501,29,499.27,27.8Z" transform="translate(-4.05)"/></svg>