<svg id="Layer_1" data-name="Layer 1" xmlns="http://www.w3.org/2000/svg" viewBox="0 0 99.18 59.09"><defs><style>.cls-1{fill:#3aa935;}.cls-2{fill:#3c3c3b;}</style></defs><title>5_pic</title><path class="cls-1" d="M31.28,46a2.59,2.59,0,0,0-.68-.09,2,2,0,0,0-1.36-.11H28.16c-.76,0-1.51,0-2.27-.07l-2.25-.09h-.71a2.19,2.19,0,0,0-2,.5,1.84,1.84,0,0,0-.29,2.19,2.37,2.37,0,0,0,.56.58c-2,1.47-.67,5.13,1.89,5.08,3.35-.06,9.58-1.57,9.89-5.7A2.28,2.28,0,0,0,31.28,46Z"/><path class="cls-2" d="M99.11,49.29a17.15,17.15,0,0,0-6-10.32,13.52,13.52,0,0,0-.64-3.22c-1.64-5.23-7.38-8-12.58-8.2l-.33-.35a.68.68,0,0,0-.7-.21c-1.76-4.11-5.46-8.78-9.73-4.8-3.11,2.91-1.17,5.34,1.71,7-4.1.83-8,2.88-8,7.26,0,5.53,6.29,3.53,10.69,1.37-.47.93-.94,1.9-1.32,2.88C67.74,39,52.42,49.78,48.9,53.17a99.28,99.28,0,0,1,1-10.49c.09-.62,1.08-9,.61-8.77a1.15,1.15,0,0,0,.74-1.44,1.12,1.12,0,0,0-.74-.73l-.37-.09a8.65,8.65,0,0,0,1.55-1.47l.18.5c1.38,3.38,4.41,5.19,8,4.36,5.69-1.32,5.78-7.79,3.37-12.42a8.54,8.54,0,0,0,5.88-2.33c2.73-2.45,2.81-7.53.46-10.22-2.61-3-8.18-4.63-11.65-3-.44-4-2.4-7.6-7.2-7C46.42.59,45.29,4,45.6,7.57,42.18,5.06,38,4.57,34.77,9a7,7,0,0,0-.26,7.54c1.4,2.43,4.23,3.36,7,3.69-3.36,4.46-4.94,12.2,2.13,13.14a9.07,9.07,0,0,0,4.47-.56,4.37,4.37,0,0,0-.29,1.64c-.17,2.53-.28,5-.69,7.5s-.69,5.13-.86,7.72A60.41,60.41,0,0,0,41.16,41a25.72,25.72,0,0,0-5.37-5.7c-1.8-1.37-3.76-1.24-5.74-2h0a1,1,0,0,0-.85,0,10.6,10.6,0,0,0-2.77-4c3.53-.43,6.41-2.49,6.41-6.93,0-3-1.57-4.4-3.61-4.84,2.11-2.75,2.24-6.34-.88-9.84-4.42-4.95-8.68-2-11.19,2.23-.81-2.52-2.49-4.51-5.58-3.78C8.07,7,6.85,9.71,7,12.67c-1.75-.73-3.49-.68-4.9,1.6-2.16,3.5.94,6.39,4.17,7.81C3.31,24.16-.77,27,.12,30.24c.82,3,3.45,3,5.93,2.22C3.43,38.87,1.51,49.55,8.76,50.71c6.42,1,8.6-7.21,9-13.26,2.77,2.58,6.33,3.72,9.86.86a4.65,4.65,0,0,0,1.81-2.64c1.14.65,2.38.48,3.65,1,2.7,1.2,4.73,4.13,6.34,6.46a55.42,55.42,0,0,1,6.66,13.22,1.46,1.46,0,0,0,1.82.93,1.44,1.44,0,0,0,1-1.31v-.72a.9.9,0,0,0,.9-.25c3-2.94,7-5.08,10.68-7.14,1.58-.89,9.75-5.86,11.1-5-.46,2.26-.11,4.38,2.09,5.83,3.33,2.19,6.69.21,9.19-2.52.22,6.25,3,13.76,9.6,12.85C96.5,58.49,99.66,53,99.11,49.29ZM25.34,8.89c4.76,2.56,2.66,7.19-.89,9.26a9,9,0,0,0-1.54.72c-1.29.76-.43,3,1,2.48l.32-.13h0a14.24,14.24,0,0,0,1.31-.61c2.43-.86,4.95-.31,4.46,3.1-.55,3.8-5.12,3.42-7.76,2.79a1,1,0,0,0-.35,0,15.74,15.74,0,0,0-2-8.76,5.45,5.45,0,0,0-2.16-2.1c.87-3.83,2.85-9.35,7.61-6.79Zm-8.08,10.2a6.1,6.1,0,0,0-3.44-.19c1.13-1,2.3-1.41,3.44.15ZM11.14,9.26c3.53-2.53,4,3.65,3.9,5.9a6.42,6.42,0,0,0-2.69,1,30.74,30.74,0,0,1-2.57-1.69c-.52-1.93-.55-3.89,1.36-5.25Zm-6,9.21,2.29-3a15.17,15.17,0,0,0,.68,1.85c.54,1.18,2.41.54,2.44-.57L11,17l.17.11a8,8,0,0,0-2,3.11h0a7.7,7.7,0,0,1-4-1.79Zm0,11.62q-2.67-1.86-.32-3.15a54.69,54.69,0,0,1,4.4-3.52,10.73,10.73,0,0,0-.7,4.83H8.44a13.22,13.22,0,0,1-3.25,1.8Zm6.35,17.57C7.27,52.49,6.63,40.52,6.85,39a21.62,21.62,0,0,1,2.63-7.52A6.58,6.58,0,0,0,15,34.77c.21,4.3-.58,9.58-3.47,12.85Zm.78-17.07C9,27.33,12.55,19,17.36,19.8a.39.39,0,0,0,.26,0,13.15,13.15,0,0,1,.91,8.92c-.71,3.06-3.65,4.39-6.21,1.83Zm13.36,5.95c-2.45,3-5.84-.3-7.5-2.47a5.9,5.9,0,0,0,2.48-2.54,11,11,0,0,0,.86-2.41c2.47,1.25,7,3.88,4.21,7.38Zm35.91-6.75c-.95,3.67-5.14,3.1-6.81.53-.25-.38-1.66-3.72-1.13-4.09a1.49,1.49,0,0,0,.32-2.09,1.07,1.07,0,0,0-.18-.19h0a8.75,8.75,0,0,0,4.92-2.65,8,8,0,0,1,2.93,8.45Zm-4-17.13a15.25,15.25,0,0,0,.26-1.76c1-2.94,5.69-1.77,8-.45,6.28,3.6.19,11.69-6,8.21a4.85,4.85,0,0,0-.31-2.23,8,8,0,0,0-2.21-3.21,1.25,1.25,0,0,0,.34-.6Zm-1,6.93a6,6,0,0,1-3.11,1.66,1.9,1.9,0,0,0-.87-1,.47.47,0,0,0-.64.64,1.23,1.23,0,0,1,0,.54,2.82,2.82,0,0,1-2.19-2,7.43,7.43,0,0,1-.3-2.14,11,11,0,0,1,.89-2.19.81.81,0,0,1,.18.19c.27.3.78-.1.56-.43l-.25-.33c.09-.07.16-.15.26-.22a2.94,2.94,0,0,1,2.9,0c1.78.85,4.17,3.43,2.64,5.24ZM51.13,2.72c4-.49,4.31,4.25,4,7.44a8.08,8.08,0,0,0-.27,1.56,6.92,6.92,0,0,0-3.65-.5,4.09,4.09,0,0,0-1.67.69c-1.3-2.8-3-8.62,1.66-9.23Zm-5.24,27.9c-2.85.79-4.47-1.38-4.64-3.87-.18-2.81,1.81-5.19,4-6.61a1.41,1.41,0,0,0,.44-1.95,1.39,1.39,0,0,0-1.14-.65c-3.88,0-10.41-1.46-7.8-6.73,2.83-5.7,8.46-.6,10.48,2.74a1.78,1.78,0,0,0,.32.35,4.78,4.78,0,0,0-.74,4.22,2.39,2.39,0,0,0,.21.34c.28,2.65,1.94,5.1,4.55,5.53a.87.87,0,0,1-.06.3,1.44,1.44,0,0,0,0,.21,3.62,3.62,0,0,0-.62,2.1,7.14,7.14,0,0,1-4.93,4Zm24.89-6.49c2.14-3.94,5.91,2.42,7.1,4.83a1.19,1.19,0,0,0-.63-.24c-1.92-.23-8.28-1.16-6.4-4.63ZM83.43,41a19.39,19.39,0,0,1-2.58,3.6l-.9.86q-3.18,3.45-5.61-2.67c.63-2.69,2.48-5.16,3.6-7.67.49-1.07-.6-2.64-1.8-1.8-1,.68-11.26,6.86-10.58,2.51.71-4.6,8.57-4.72,11.8-4.51a1.17,1.17,0,0,0,.75-.2,15.9,15.9,0,0,0,3.67,7.56,21.37,21.37,0,0,0,1.92,2A1.69,1.69,0,0,0,83.43,41ZM80.05,30.29c3.87.27,8.6,2.18,9.8,6.14A2.37,2.37,0,0,0,90,37a1.36,1.36,0,0,0-.62,2.47,8.23,8.23,0,0,1,1,.76c-.18.49-.6.76-1.48.56C84.5,39.75,81,34.85,80.05,30.29ZM91.72,56.51c-5.73,2-6.62-11.06-6-14.32a7.28,7.28,0,0,0,4.43,1.26,3,3,0,0,0,2.31-1.3C96.56,46.68,99.21,53.94,91.72,56.51Z"/><path class="cls-2" d="M37.14,42.72A.67.67,0,0,0,37,42.1c-.09-.13-.32,0-.22.13-.68-.92-3.71-.1-4.63,0a16.73,16.73,0,0,0-6.69,2.37c-2.21,1.46-5.82,6.29-3.72,9,1.77,2.27,6.5-.77,8.11-1.75a37.85,37.85,0,0,0,5-3.71c1.14-1,3.24-2.64,3.14-4.33A1.22,1.22,0,0,0,37.14,42.72Zm-3.3,2.62a29.9,29.9,0,0,1-4.26,3.41,27.07,27.07,0,0,1-4,2.26,7.63,7.63,0,0,1-1.7.53c.15-1.38,1.61-3.32,2.43-4.18,1.49-1.58,4-2.17,6-2.7.27-.07,1.54-.27,2.72-.63-.42.44-.79.91-1.19,1.31Z"/></svg>