<svg id="Layer_1" data-name="Layer 1" xmlns="http://www.w3.org/2000/svg" viewBox="0 0 140.33 142.43"><defs><style>.cls-1{fill:#9c9c9b;}.cls-2{fill:#3c3c3b;}</style></defs><title>3_pic</title><path class="cls-1" d="M123.7,89.3c-.4-1.59-1.22-3-1.69-4.55a3.59,3.59,0,0,0-.61-1.14c-1.21-2.76-2.53-5.48-3.88-8.18a3.5,3.5,0,0,0-4.64-1.72l-.12.06c-.22-.7-.43-1.39-.66-2.09-1.37-4.27-8-3.61-7.94,1.08q0,3.39.2,6.78a68.31,68.31,0,0,0-7.42-11.93c-2.72-3.41-7.26.4-6.62,3.85,1,5.51,2.23,11,3.38,16.47-3.25-6.58-6.45-13.2-10.33-19.45-2.37-3.81-7.77-1.24-7,3,.64,3.39,1.35,6.76,2.08,10.13a78.36,78.36,0,0,0-4.56-8.34,3.74,3.74,0,0,0-6.8,2.87c.81,3.64,1.62,7.28,2.33,10.94a67.31,67.31,0,0,0-9.18-12,3.2,3.2,0,0,0-1.84-1C57.2,67.35,56,60.62,54.81,53.89a103.31,103.31,0,0,0,6.9,18.41c1.91,3.69,7.61,1.1,6.57-2.77-2-7.68-4.27-15.37-6.12-23.13,1.59,4.47,3.18,9,4.93,13.35,1.43,3.63,7.56,3.52,7.31-1a166.6,166.6,0,0,0-6.81-37.57A3.71,3.71,0,0,0,70.73,17a3.58,3.58,0,0,0-.37-1.16c-1.67-3.88-1.42-11.34-5-14.14a3.69,3.69,0,0,0-4.31-.55,3.73,3.73,0,0,0-1.8,2.44c-2.39-.16-4.84,1.65-3.85,4.54q1.64,4.75,3.1,9.57c-.32-.64-.63-1.27-1-1.9-1.74-3.34-7-1.73-6.94,1.88,0,1.38,0,2.74.12,4.11-.45-.83-.91-1.65-1.41-2.46-1.77-2.9-7.33-2-6.89,1.87,1.11,9.87,2.65,19.68,4.38,29.45-3.36-8.52-6.54-17.14-10.51-25.38-1.51-3.14-6.91-1.69-6.62,1.79,1,11.65,4.58,22.72,7.88,33.87-3.86-8.61-7-17.64-10.87-26.15a2.36,2.36,0,0,0-.6-.83,2.64,2.64,0,0,0,1.32-1.54c1.17-3.74-2.9-7.51-4.12-10.85a3.37,3.37,0,0,0-4.41-1.8,3.48,3.48,0,0,0-.9.56c-.48-.81-.94-1.62-1.39-2.43-1-2.65-5.54-.9-4.11,2.13a64,64,0,0,0,8.22,12.54,2.29,2.29,0,0,0,2.16.81,3,3,0,0,0-2.29,3.07,73.86,73.86,0,0,0,1.29,7.83c-.54-1.09-1.07-2.19-1.64-3.27-1.18-2.27-4.91-1.24-4.81,1.3.27,6.24,2.38,15.2,8.09,18.74,2.65,6,5.36,12,8.41,17.88,1.64,3.14,5.74.78,5.28-2.22-.14-.93-.31-1.86-.49-2.78a80.9,80.9,0,0,0,7,10.66c1.77,2.25,6.25.46,5.86-2.43a115.48,115.48,0,0,0-2.85-13.91,115.94,115.94,0,0,0,5.74,11A3.29,3.29,0,0,0,55.1,81q1.35,5.3,2.62,10.6-2.59-3.24-5.25-6.45c-1.67-2-4.47.19-4,2.34.48,2.37,1.87,4.1,3.3,6a1.77,1.77,0,0,0,1.6.68,104,104,0,0,1,7.75,11.74c1.37,2.48,5.79,1.5,5.53-1.49a107.57,107.57,0,0,0-1.61-11c2.71,4.87,5,10,7.28,15.13,1.49,3.37,6.69,1.54,6.66-1.8,0-2.42-.16-4.82-.37-7.21a73.54,73.54,0,0,0,6.53,11.4,3.68,3.68,0,0,0,6.69-2.82c-.7-3.9-1.5-7.78-2.33-11.66A134.25,134.25,0,0,0,97.89,111c1.94,2.85,7.45,2.16,7.08-1.91-.44-5-1.17-9.86-2-14.74,1.71,4.09,3.41,8.17,5.47,12,1.54,2.87,5,2.2,6.48,0a.58.58,0,0,0,.08.22c1.48,3.79,8.34,3.71,7.75-1-.48-3.9-1-7.79-1.53-11.68a3.64,3.64,0,0,0,2.57-4.46Z" transform="translate(0 -0.02)"/><path class="cls-1" d="M133.79,43.71c-.43-2.92-3.06-4.75-5-6.72a4.37,4.37,0,0,0-6.17.32,4,4,0,0,0-.63.9A4.37,4.37,0,0,0,117,41.86a4.19,4.19,0,0,0-4.45,3.92,4.33,4.33,0,0,0,0,.72,3.32,3.32,0,0,0-1.69,3.69c1.3,5,1.69,10.12,3.06,15a2.43,2.43,0,0,0,3,1.77,1.7,1.7,0,0,0,.32-.1c.11.32.24.64.34,1,1.57,4.6,7.75,2.65,7.1-2-.38-2.67-.92-5.32-1.51-8a4.08,4.08,0,0,0,4.2-4,4,4,0,0,0-.07-.91,4.47,4.47,0,0,0,2.62-3.72c0-.45.06-.9.1-1.36a3.45,3.45,0,0,0,3.84-3A3.67,3.67,0,0,0,133.79,43.71Z" transform="translate(0 -0.02)"/><path class="cls-2" d="M131.38,116.94c-5.28-.81-8.36,4.24-7.84,9a70.32,70.32,0,0,1-4.58-7.46c-.86-1.48-2-4.24-3.56-5.52a19.63,19.63,0,0,0,1.78-1c13.4-8,15.59-23.78,4.62-34.41a36.22,36.22,0,0,0-3.28-2.78c5.53-3,9.43-13.41,11.46-18.44,2.41-6,6.44-16.42-.1-21.38s-11.59,4.31-13.79,9.29c-3.87,8.72-3.38,18.11-2.38,27.38-10-5.65-23-8.06-33.85-6a32.26,32.26,0,0,0,1-5.77h.75a.89.89,0,0,0,1,.67,5.57,5.57,0,0,0,1.62-.28c.83-.33,1.57-1.39.92-2.27-.81-1.09-2.41-1.37-4.17-1.38a46.49,46.49,0,0,0-.53-7.17h.14c.84-.06,5.14-.19,4.16-.64a1.29,1.29,0,0,0,1.55-2c-1.19-1.41-4.23-.68-5.71-.53l-.66.08a58.59,58.59,0,0,0-3.09-10.1,67.73,67.73,0,0,0-9-15.23,1.36,1.36,0,0,0-.26-1.92,1,1,0,0,0-.24-.15c.58.27.58.72.42-.39-.11-.8-.24-1.6-.34-2.4-.23-1.84-.4-3.68-.6-5.51-.37-3.3-.63-6.82-2-9.86A1.66,1.66,0,0,0,62.59.22c-5,3.07-10,7.57-11.77,13.33-.22.11-.44.21-.67.34a1.55,1.55,0,0,0-.73.88c-8.54-1.94-16.41.75-22.6,6a1.18,1.18,0,0,0-.33-.71c-2-2-5.16-3-7.71-4.14a33.1,33.1,0,0,0-8.57-2.74,1.65,1.65,0,0,0-2,1.2,1.55,1.55,0,0,0,0,.8,48.72,48.72,0,0,0,3.38,8.89c.77,1.61,1.67,3.16,2.56,4.71.26.45.95,1.26,1.57,2.08a.51.51,0,0,0-.07.72h0a10.93,10.93,0,0,0,1.49,2.14,37.22,37.22,0,0,0-3.12,22c.13.7.28,1.39.45,2.08-4.29.62-8.59,1.22-12.91,1.44-2.07.11-2.09,3.3,0,3.23a51.16,51.16,0,0,1,6.19.12.87.87,0,0,0,1-.72.66.66,0,0,0,0-.28c2.18-.3,4.36-.64,6.53-1,.41,1.23.87,2.44,1.4,3.63-3,1.09-5.95,2.29-8.65,3.34-1.9.74-1.14,3.78.85,3.1,3.23-1,6.34-2.11,9.44-3.23A36.49,36.49,0,0,0,43.32,85c.06,8.36,6.23,15.29,13.4,20.38a86.1,86.1,0,0,1-2.89,16.08c-4.25-2.75-10.91-4.48-13.7,1-3.81,7.54,8.93,8.48,13,8.13a1.78,1.78,0,0,0,1.63-1.24,66.78,66.78,0,0,0,4.32-22.44,69.2,69.2,0,0,0,9.14,4.9c1.64.73,3.35,1.39,5.1,2-1.22,2-1.16,5.38-1.31,7.39-.2,2.6-.24,5.22-.32,7.85-5-1.83-11.8-.71-16,1.85a1.7,1.7,0,0,0-.59,2.29c3.55,6.11,10.45,8.37,17.26,7.64a1.63,1.63,0,0,0,1.55-1.18,56.69,56.69,0,0,0,.6-6.88,1.4,1.4,0,0,0,.27-1.95,2,2,0,0,0-.2-.21c0-2.73,0-5.47.09-8.18a36.71,36.71,0,0,1,.76-7.68.3.3,0,0,1,.06-.21,66.06,66.06,0,0,0,17.25,3c.1,5.4-.09,12,1.46,17.5a2.56,2.56,0,0,0,.51,1.53,17.15,17.15,0,0,0,1.54,3.31c2.1,3.35,7,2.89,10.16,1.66a13.56,13.56,0,0,0,8.13-9.47,1.71,1.71,0,0,0-1.15-2.06c-4.76-1.53-10.62-.82-15.25.88a7.79,7.79,0,0,0-1.53.76c-.93-4.64-.88-9.43-1.74-14.07A45.24,45.24,0,0,0,113.24,114a12.42,12.42,0,0,0,1.64,3.2c1.28,2.12,2.41,4.33,3.62,6.49,2,3.53,4.37,7.41,8.17,9.18,4.75,2.22,13.75-1.07,13.66-7.07C140.27,121.31,135.44,117.57,131.38,116.94ZM51.91,127.27c-3.15.11-10.38,0-8.64-3.52s7.38-.62,9.53,1C52.52,125.58,52.22,126.43,51.91,127.27ZM71,137.62c-4.63,0-9-1-12-4.68,4.14-1.88,8.16-1.19,12.5-.32a45.51,45.51,0,0,1-.5,5ZM110.75,133a11.12,11.12,0,0,1-7.38,6.09c-3.45.95-5-1.3-5.86-3.9C97.83,133.11,106.74,132.76,110.75,133Zm5.84-80.23c.64-3.92,8.78-22.79,12.89-12.6,2.27,5.61-2.45,14.5-4.79,19.34s-5.85,8.8-8.68,13.33C116.33,66.12,115.59,59.52,116.59,52.77Zm-39.43-3a39.07,39.07,0,0,1,.51,7,15.75,15.75,0,0,1-3.07,0l-1.4-.18a10.64,10.64,0,0,0-1.53-6.42c1.92-.09,3.7-.23,5.53-.38ZM62.59,4.12c1.14,3.8,1,8.24,1.46,12.07a2.87,2.87,0,0,0,.08.76c-3.2-2.91-6.74-4.74-10.35-4.29A27.23,27.23,0,0,1,62.59,4.12Zm-46,23.25a58.4,58.4,0,0,1-4.45-10.46,40.06,40.06,0,0,1,6.18,2.34c2.29,1.06,4.49,2.59,7,2.88a37,37,0,0,0-6.73,8.67C18,29.55,17,28.32,16.53,27.37Zm1.53,29.85A32.36,32.36,0,0,1,20.76,33C27,21.63,41.67,13.73,54.23,18.43c1,.38,1.74-1.32.75-1.78-.32-.15-.64-.26-.95-.39,7.56-1.06,15.56,13.4,18.09,18.24a53,53,0,0,1,4.47,12.27c-2.29.29-4.57.59-6.85.94-5.84-6.1-17.38-7.9-22.27,1.8a1.84,1.84,0,0,0-2.28,1.28,1.78,1.78,0,0,0-.07.39v.54c-1.21-4.07-6.25-4.37-10.68-3.15a11,11,0,0,0-8,7.62c-2.79.26-5.59.62-8.38,1Zm35.67.6,2.13.12a.52.52,0,0,0,.32-.11c1.58.19,3.31.6,4.43.69,2.67.21,5.33.45,8,.73a10.93,10.93,0,0,1-2.22,3.24c-3.14,3.21-8.67,2.42-12.25.66a9.08,9.08,0,0,1-3.41-2.89,17.78,17.78,0,0,0-1.23-8,1.51,1.51,0,0,0,1-.87c3.31-6.59,10.09-6.25,14.52-3-4,.71-11.42,2.31-10.11,4.26a.28.28,0,1,0,.49-.29c.27.53,7.45-.68,12.08-1.47a8.71,8.71,0,0,1,1.76,5.34c-2.12-.16-4.26-.26-6.38-.36-2.73-.13-7.16-1.16-9.72-.17a1.09,1.09,0,1,0,.48,2.12h.06ZM37.48,61.73A23,23,0,0,0,29,61.12a7.75,7.75,0,0,1,.13-2.88c1.45-.24,2.9-.49,4.36-.72,1-.15.72-1.71-.24-1.71s-2.1.06-3.14.11c3.49-5.7,13.45-7.82,14.35-1.17.07.47.6.43.85.14a15.4,15.4,0,0,0,1.55,4.81c-1.08,8-9,15-15.79,6.07a12.12,12.12,0,0,1-1.24-2,44.81,44.81,0,0,1,7.55-1.12.47.47,0,0,0,.37-.57.48.48,0,0,0-.3-.35ZM19,59.94l7-1.19a14.24,14.24,0,0,0,0,2.77A51.64,51.64,0,0,0,20.3,63,31.87,31.87,0,0,1,19,59.94ZM44.77,81.29a.57.57,0,0,0-.71-.38.6.6,0,0,0-.38.38v.14a38,38,0,0,1-21.32-15c-.08-.11-.14-.24-.21-.36,1.5-.51,3-1,4.55-1.44.09.3.16.6.27.89C29.7,73.11,38.4,75,44.86,71.22A12,12,0,0,0,50,64c5.69,5.37,15,6.45,20.77-1.29a12.89,12.89,0,0,0,1.7-3c.44.06.88.09,1.32.16a20.34,20.34,0,0,0,3.66,0,28.3,28.3,0,0,1-1.69,6.78,1.84,1.84,0,0,0-1,2.17,23.11,23.11,0,0,1-2.42,3.83c-7.15,9.12-17.64,11.3-27.54,9a1.75,1.75,0,0,1-.11-.36Zm1.1,4a37.2,37.2,0,0,0,21.72-4.08,23.75,23.75,0,0,0,10.8-11.43c12.22-3.24,26,.62,36.46,7.06,15.16,9.3,12.28,26.06-2.8,33.75-21.68,11.06-58.18-2-66.24-25.3Zm87.32,44.21c-2.85,1-5,.73-7-.82a1.11,1.11,0,0,0,.48-.79c.52-3-.17-8.59,4.58-7.61,2.42.51,6.22,3.18,5.78,6.07C136.75,128.13,134.67,129,133.19,129.5Z" transform="translate(0 -0.02)"/><path class="cls-2" d="M48.74,35.37c-.07-1.35.19-3.62-1.77-3.66a1.63,1.63,0,0,0-1.41.81,1.67,1.67,0,0,0,0,1.65h0c-.48-.78,0,.17,0,.13a2,2,0,0,1,.11.35c.11.54.21,1.09.3,1.64s.18,1.15.28,1.72a5,5,0,0,0,.1.66v.14a1.22,1.22,0,0,0,2.44,0A32.86,32.86,0,0,0,48.74,35.37Z" transform="translate(0 -0.02)"/><path class="cls-2" d="M37.21,30.42c-1.48.24-1.4,2.18-1.14,3.22a1.14,1.14,0,0,0,.35.56v.39c.13,1.63.18,3.27.31,4.9a1.21,1.21,0,0,0,2.42,0c.18-2.19.16-4.39.18-6.58C39.38,31.55,38.89,30.14,37.21,30.42Z" transform="translate(0 -0.02)"/></svg>