<svg id="Layer_1" data-name="Layer 1" xmlns="http://www.w3.org/2000/svg" viewBox="0 0 580.75 234.19"><defs><style>.cls-1{fill:#683c11;}.cls-2,.cls-5{fill:#3c3c3b;}.cls-3{fill:#9c9c9b;}.cls-4{fill:#f7ca24;}.cls-5{stroke:#e5007e;stroke-linecap:round;stroke-linejoin:round;stroke-width:0;}.cls-6{fill:#3aa935;}</style></defs><title>top_pic</title><path class="cls-1" d="M203.62,107.45c-.54-.43-4.12-1.33-2.31-.37a3.27,3.27,0,0,0-4.65,3.75,3.09,3.09,0,0,0-1.65,3.34s0,0,0,.08l-1-.06a3.15,3.15,0,0,0-3.3,2.93c0,.24,0,.49,0,.74l-1.11.47a3.09,3.09,0,0,0-1.72,2.42c-3.05-1.18-6.08-2.41-9.19-3.45a3.11,3.11,0,0,0-2,0,44.23,44.23,0,0,0-13-6.73c-2.6-.77-5.28,2.37-3.62,4.6a72,72,0,0,0-7.11-3.79c-2.78-1.27-5,2.75-3.15,4.8l.29.31a42,42,0,0,0-4-1.47c-2.47-.75-4.94,2.21-3.43,4.32a60,60,0,0,0-5.32-2.82c-2.61-1.21-5.09,2.75-3.07,4.68,1.16,1.11,2.3,2.24,3.44,3.37a67.24,67.24,0,0,0-8.61-4.44,2.22,2.22,0,0,0-1.64,0,44.9,44.9,0,0,0-5.8-6.81,78.16,78.16,0,0,0,8.21,3.67c2.8,1,4.55-2.44,3-4.53a79.2,79.2,0,0,0-11.63-11.88c2.7,1.07,5.38,2.17,8.1,3.12s4.68-2.48,3-4.64a59.19,59.19,0,0,0-4.88-5.59,3.25,3.25,0,0,0,.86-4.67c-.42-.54-.82-1.09-1.21-1.65a2.51,2.51,0,0,0,.08-3.64,7.06,7.06,0,0,0-5.8-2.54,2.83,2.83,0,0,0-2.56,4.22c-.93-.47-1.84-1-2.73-1.55-2.56-2-5.15-3.92-7.69-5.88-3.11-2.41-6.11,2.58-3.26,5a64.15,64.15,0,0,0,6.36,4.86c2.59,2,5.15,3.95,7.6,6.06a61,61,0,0,0-10.29-2.95c-2.47-.44-4.21,3.24-2.38,4.91,3.83,3.51,7.93,6.7,11.85,10.07a65.1,65.1,0,0,0-8.77-3.43,2.88,2.88,0,0,0-3,4.62,85.55,85.55,0,0,0,8.14,7.64,78.31,78.31,0,0,0-12.92-4.1c-3-.67-5.49,3.4-2.48,5.19a85.48,85.48,0,0,1,8.94,6.18c-4.25-1.58-8.52-3.08-12.91-4.27-3.14-.84-4.67,3-2.34,4.89,1.56,1.3,3.15,2.55,4.75,3.79a52.75,52.75,0,0,0-5.66-1.58c-2.2-.47-3.92,2.39-1.79,3.73,2.93,1.83,5.85,4.87,9.29,5.64,1.67.37,2.32-.39,2.41-1.44,2.75,1,5.51,1.93,8.3,2.79,2.11.66,4.29-2.13,2.5-3.82-1.47-1.39-3-2.71-4.57-4,4.28,1.58,8.53,3.24,12.81,4.83a2.67,2.67,0,0,0,3.06-1.09,45.81,45.81,0,0,0,12.76,8.89,1.28,1.28,0,0,0,1.6-.4c2.17,1.47,4.35,2.94,6.59,4.31a2.64,2.64,0,0,0,3.4-3.95l-3.75-4.28c4.07,3,8.06,6.16,12.21,9.07,2.61,1.84,5.65-1.85,3.6-4.18l-3.79-4.31a120.65,120.65,0,0,0,10.82,7.9c2.88,1.81,5.71-1.82,3.76-4.37a97.29,97.29,0,0,0-7.27-8.4c4.1,3,8.14,6,12.38,8.69a3,3,0,0,0,4.59-2.64q2.29,1.68,4.66,3.26c3,2,5.94-1.93,3.94-4.59-1.14-1.51-2.34-3-3.58-4.4l.75.5c2.77,1.79,5.27-1,4.63-3.52l.33.12c3.21,1,5.08-2.68,3.35-5.11l-.35-.87.38-.16a3.07,3.07,0,0,0,1.67-2.16l2.23.14a3.15,3.15,0,0,0,3.16-2.15,4.4,4.4,0,0,0,0-2.3,9.45,9.45,0,0,0,2.65-1,3.18,3.18,0,0,0,1.42-4.15A7.6,7.6,0,0,0,203.62,107.45Zm-78.91,18.18a3,3,0,0,0,2.67.09q2.07,1.95,4.08,4a54.87,54.87,0,0,0-5.55-2.58,2,2,0,0,0-2.23.55c-2.12-2-4.27-4-6.45-5.87Q121,123.55,124.71,125.63Z"/><path class="cls-2" d="M199.93,104.35c-3.76,5.25-4.61,12.76-11,15.67a1.28,1.28,0,0,0-.51.42c-4.86-4.58-12.54-7.46-17.55-8.89-10.42-3-25-4.43-34.79,1.48.1-4.78-1-9.85-1.78-14.16a131.18,131.18,0,0,0-6.82-23.93,1.48,1.48,0,0,0-2.56-.15c-2,4-3.24,8.2-4.92,12.29-5-3.58-9.18-8.12-13.86-12.16a1.49,1.49,0,0,0-2.43,1.63c1.68,4.48,1.52,9.13,1.91,13.79a.76.76,0,0,0-.12.44,52.08,52.08,0,0,0,1.15,9c1.41,7.89-6.29,8.23-10.22,11.34a35.46,35.46,0,0,0-3.83,3.5,2.66,2.66,0,0,0-2.53,1.85A4,4,0,0,0,90,118a11.52,11.52,0,0,0-1.68,5.26c-.53,9.95,8.78,14.68,17.78,13.9,12.18-1,24.64-5.72,29-18.08a16.77,16.77,0,0,0,.75-3.24,1.13,1.13,0,0,0,1.12-.11c13-8.18,47.39-4.34,52.71,12.42C193.7,140.84,171.06,144,163,145c-13.8,1.67-27.92-4.08-39.06-11.68-1-.65-1.84.79-1,1.47,11.35,8.81,25.54,14,40,12.9-.72,2.84,1,5.66,2.09,8.3a8.92,8.92,0,0,1,.55,2c-4-1-10.5-1.39-12.43,3.05-1.35,3.11,1.77,6.21,4.52,6.93,4.44,1.18,9.48-2.5,10.53-6.75,1.21-4.89-3.07-9-3.89-13.66l.81-.07a70.84,70.84,0,0,0,14.08-2.93.67.67,0,0,0-.41.58c-.23,5.15,5.58,12.58.63,16.78a3.52,3.52,0,0,1-5.13-.74c-1.75-2.64,3.49-2.33,4.72-2.21,1.66.16,1.8-2.41.15-2.58-2.86-.3-7.74-.14-7.85,3.79-.08,3,3,5,5.69,5.18,3.95.24,6.94-3.59,6.82-7.24-.13-4.35-1.89-9.31-3.7-13.25a.67.67,0,0,0-.75-.37c6.62-2.29,12.44-6.17,13.45-13.05,0-.26.06-.5.08-.75,10.32-5,13.68-15.72,9.2-26.21A1.28,1.28,0,0,0,199.93,104.35Zm-106,12.87a12,12,0,0,1,2.1,1,2.73,2.73,0,0,1,.78,2.55,4.36,4.36,0,0,0-1-1.61,2.64,2.64,0,0,0-.74-.49,1.15,1.15,0,0,0-1.36-.22,2.55,2.55,0,0,0-.81.21A12.85,12.85,0,0,1,93.94,117.22Zm39-2.91c-.26,14.52-17.79,19.84-29.54,20-5,.06-9.68-2.33-11.43-6.43a6.77,6.77,0,0,0,2.46-.32c2.41-.9,4.2-3.59,4.72-6A5.3,5.3,0,0,0,96,115.29l-.07,0c2.89-2.45,6.66-4.14,9.84-5.72,6.18-3.1,3.19-11,2.08-16.62a1.48,1.48,0,0,0,.86-1.55c-.46-3.84-.46-7.5-1-11.15,3.91,3.66,7.69,7.4,12.23,10.35a1.5,1.5,0,0,0,2.2-.78c1.55-3.36,2.59-6.89,4-10.3C130,90.52,133.18,102.65,133,114.31Zm27.54,51.18c-2.07.53-5.12-.71-5-3.19.14-3.69,8.11-2.14,10.12-1.92A6.48,6.48,0,0,1,160.51,165.49Zm32.39-37a12.18,12.18,0,0,0-2.77-6.21c6.15-2.56,7.64-9,10.59-14.36C203.42,116.32,200.29,123.66,192.9,128.48Z"/><path class="cls-2" d="M118.74,107.65A2.28,2.28,0,0,0,118,107a.93.93,0,0,1,0-.1,1.23,1.23,0,0,0-1.89-.38h-.32a1.25,1.25,0,0,0-.32,0l-.46-.09a1.25,1.25,0,0,0-1.19,1.79c.1.17.22.34.32.5a2.92,2.92,0,0,0-.47,2.46,3.17,3.17,0,0,0,.94,2,1.13,1.13,0,0,0,1.57.09c.79-.65,2.1-1.27,2.68-2.21a2.38,2.38,0,0,0,.63-1.83,2,2,0,0,0-.26-.78A2.77,2.77,0,0,0,118.74,107.65Z"/><path class="cls-2" d="M131.6,143.12c-.12,6.6,4.7,21.66-5.93,22.18-2.9.15-7.61-1.37-6.72-5.14,1.12-4.78,8.89-2.38,11.68-1.3,1.66.63,2.5-2,.86-2.62-4.66-1.82-11.37-3.19-14.66,1.75-2.22,3.34.11,7.67,3.44,9.12,4.68,2,11.64,1.27,13.68-4.1,2.27-6,.71-14-.95-20C132.79,142.28,131.61,142.28,131.6,143.12Z"/><path class="cls-2" d="M146.87,147.55c.12,2.81,1.4,7.54,1.29,11.39a.89.89,0,0,0-1-.51c-1.63.22-3.8-.36-5.53-.29a8.49,8.49,0,0,0-5.13,1.6c-3.88,3,.68,7.09,3.76,7.74,3.41.73,9.05.09,9.54-4.29.58-5.22-.81-10.68-2.14-15.7C147.57,147.06,146.85,147.05,146.87,147.55Zm-3.76,17.54c-1.62.08-4.15-.16-5.12-1.68-1.49-2.34,3.18-2.67,4.23-2.71,1.72-.07,4.36.66,5.74-.73a1.37,1.37,0,0,0,.15-.21C147.84,162.68,146.6,164.91,143.11,165.09Z"/><path class="cls-3" d="M331.11,89.3c-.4-1.59-1.22-3-1.69-4.55a3.46,3.46,0,0,0-.61-1.14c-1.21-2.76-2.53-5.48-3.88-8.18a3.5,3.5,0,0,0-4.76-1.66c-.22-.7-.43-1.39-.66-2.09-1.37-4.27-8-3.61-7.94,1.08q0,3.39.2,6.78a68.07,68.07,0,0,0-7.42-11.93c-2.72-3.41-7.26.4-6.62,3.85,1,5.51,2.23,11,3.38,16.47-3.25-6.58-6.45-13.2-10.33-19.45-2.37-3.81-7.77-1.24-7,3,.64,3.39,1.35,6.76,2.08,10.13a78.36,78.36,0,0,0-4.56-8.34,3.74,3.74,0,0,0-6.8,2.87c.81,3.64,1.62,7.28,2.33,10.94a66.77,66.77,0,0,0-9.18-12,3.2,3.2,0,0,0-1.84-1c-1.2-6.73-2.42-13.46-3.59-20.19a102.64,102.64,0,0,0,6.9,18.41c1.91,3.69,7.61,1.1,6.57-2.77-2-7.68-4.27-15.37-6.12-23.13,1.59,4.47,3.18,9,4.93,13.35,1.43,3.63,7.56,3.52,7.31-1A166.43,166.43,0,0,0,275,21.18a3.71,3.71,0,0,0,2.77-5.36c-1.67-3.88-1.42-11.34-5-14.14a3.68,3.68,0,0,0-4.31-.55,3.75,3.75,0,0,0-1.8,2.44c-2.39-.16-4.84,1.65-3.85,4.54q1.64,4.75,3.1,9.57c-.32-.64-.63-1.27-1-1.9-1.74-3.34-7-1.73-6.94,1.88,0,1.38,0,2.74.12,4.11-.45-.83-.91-1.65-1.41-2.46-1.77-2.9-7.33-2-6.89,1.87,1.11,9.87,2.65,19.68,4.38,29.45-3.36-8.52-6.54-17.14-10.51-25.38-1.51-3.14-6.91-1.69-6.62,1.79,1,11.65,4.58,22.72,7.88,33.87-3.86-8.61-7-17.64-10.87-26.15a2.47,2.47,0,0,0-.6-.83,2.65,2.65,0,0,0,1.32-1.54c1.17-3.74-2.9-7.51-4.12-10.85a3.37,3.37,0,0,0-5.31-1.24c-.48-.81-.94-1.62-1.39-2.43-1-2.65-5.54-.9-4.11,2.13a64,64,0,0,0,8.22,12.54,2.27,2.27,0,0,0,2.16.81,3,3,0,0,0-2.29,3.07,72.62,72.62,0,0,0,1.29,7.83c-.54-1.09-1.07-2.19-1.64-3.27-1.18-2.27-4.91-1.24-4.81,1.3.27,6.24,2.38,15.2,8.09,18.74,2.65,6,5.36,12,8.41,17.88,1.64,3.14,5.74.78,5.28-2.22-.14-.93-.31-1.86-.49-2.78a79.84,79.84,0,0,0,7,10.66c1.77,2.25,6.25.46,5.86-2.43a115.88,115.88,0,0,0-2.85-13.91,117.43,117.43,0,0,0,5.74,11,3.3,3.3,0,0,0,2.7,1.74q1.35,5.3,2.62,10.6-2.6-3.24-5.25-6.45c-1.67-2-4.47.19-4,2.34.48,2.37,1.87,4.1,3.3,6a1.75,1.75,0,0,0,1.6.68,104,104,0,0,1,7.75,11.74c1.37,2.48,5.79,1.5,5.53-1.49a107.38,107.38,0,0,0-1.61-11c2.71,4.87,5,10,7.28,15.13,1.49,3.37,6.69,1.54,6.66-1.8,0-2.42-.16-4.82-.37-7.21a74,74,0,0,0,6.53,11.4,3.68,3.68,0,0,0,6.69-2.82c-.7-3.9-1.5-7.78-2.33-11.66A135,135,0,0,0,305.3,111c1.94,2.85,7.45,2.16,7.08-1.91-.44-5-1.17-9.86-2.05-14.74,1.71,4.09,3.41,8.17,5.47,12,1.54,2.87,5,2.2,6.48,0,0,.08.05.15.08.22,1.48,3.79,8.34,3.71,7.75-1-.48-3.9-1-7.79-1.53-11.68A3.64,3.64,0,0,0,331.11,89.3Z"/><path class="cls-3" d="M341.2,43.71c-.43-2.92-3.06-4.75-5.05-6.72a4.37,4.37,0,0,0-6.8,1.22,4.36,4.36,0,0,0-4.92,3.65A4.19,4.19,0,0,0,320,46.5a3.32,3.32,0,0,0-1.69,3.69c1.3,5,1.69,10.12,3.06,15a2.44,2.44,0,0,0,3.28,1.67c.11.32.24.64.34,1,1.57,4.6,7.75,2.65,7.1-2-.38-2.67-.92-5.32-1.51-8A4.08,4.08,0,0,0,334.71,53a4.47,4.47,0,0,0,2.62-3.72c0-.45.06-.9.1-1.36A3.45,3.45,0,0,0,341.2,43.71Z"/><path class="cls-2" d="M338.79,116.94c-5.28-.81-8.36,4.24-7.84,9a70.7,70.7,0,0,1-4.58-7.46c-.86-1.48-2-4.24-3.56-5.52.6-.31,1.2-.62,1.78-1,13.4-8,15.59-23.78,4.62-34.41a35.59,35.59,0,0,0-3.28-2.78c5.53-3,9.43-13.41,11.46-18.44,2.41-6,6.44-16.42-.1-21.38s-11.59,4.31-13.79,9.29c-3.87,8.72-3.38,18.11-2.38,27.38-10-5.65-23-8.06-33.85-6a32.58,32.58,0,0,0,1-5.77l.75,0a.9.9,0,0,0,1,.67,5.73,5.73,0,0,0,1.62-.28c.83-.33,1.57-1.39.92-2.27-.81-1.09-2.41-1.37-4.17-1.38a46.86,46.86,0,0,0-.53-7.17H288c.84-.06,5.14-.19,4.16-.64a1.29,1.29,0,0,0,1.55-2c-1.19-1.41-4.23-.68-5.71-.53l-.66.08a58.14,58.14,0,0,0-3.09-10.1,67.54,67.54,0,0,0-9-15.23,1.37,1.37,0,0,0-.5-2.07c.58.27.58.72.42-.39-.11-.8-.24-1.6-.34-2.4-.23-1.84-.4-3.68-.6-5.51-.37-3.3-.63-6.82-2.05-9.86A1.66,1.66,0,0,0,270,.22c-5,3.07-10,7.57-11.77,13.33-.22.11-.44.21-.67.34a1.57,1.57,0,0,0-.73.88c-8.54-1.94-16.41.75-22.6,6a1.17,1.17,0,0,0-.33-.71c-2.05-2-5.16-3-7.71-4.14a33.1,33.1,0,0,0-8.57-2.74,1.65,1.65,0,0,0-2,2A48.81,48.81,0,0,0,219,24.07c.77,1.61,1.67,3.16,2.56,4.71.26.45.95,1.26,1.57,2.08a.51.51,0,0,0-.07.72,11.15,11.15,0,0,0,1.49,2.14,37.22,37.22,0,0,0-3.12,22c.13.7.28,1.39.45,2.08-4.29.62-8.59,1.22-12.91,1.44-2.07.11-2.09,3.3,0,3.23a51.16,51.16,0,0,1,6.19.12.87.87,0,0,0,1-1c2.18-.3,4.36-.64,6.53-1a38.42,38.42,0,0,0,1.4,3.63c-3,1.09-5.95,2.29-8.65,3.34-1.9.74-1.14,3.78.85,3.1,3.23-1,6.34-2.11,9.44-3.23a36.49,36.49,0,0,0,25,17.56c.06,8.36,6.23,15.29,13.4,20.38a86.41,86.41,0,0,1-2.89,16.08c-4.25-2.75-10.91-4.48-13.7,1-3.81,7.54,8.93,8.48,13,8.13a1.78,1.78,0,0,0,1.63-1.24,66.56,66.56,0,0,0,4.32-22.44,69.32,69.32,0,0,0,9.14,4.9c1.64.73,3.35,1.39,5.1,2-1.22,2-1.16,5.38-1.31,7.39-.2,2.6-.24,5.22-.32,7.85-5-1.83-11.8-.71-16,1.85a1.7,1.7,0,0,0-.59,2.29c3.55,6.11,10.45,8.37,17.26,7.64a1.62,1.62,0,0,0,1.55-1.18,56.35,56.35,0,0,0,.6-6.88,1.39,1.39,0,0,0,.07-2.16c.05-2.73,0-5.47.09-8.18a36.71,36.71,0,0,1,.76-7.68c0-.06,0-.14.06-.21a65.93,65.93,0,0,0,17.25,3c.1,5.4-.09,12,1.46,17.5a2.6,2.6,0,0,0,.51,1.53,17.23,17.23,0,0,0,1.54,3.31c2.1,3.35,7,2.89,10.16,1.66a13.57,13.57,0,0,0,8.13-9.47A1.71,1.71,0,0,0,320.8,130c-4.76-1.53-10.62-.82-15.25.88a7.79,7.79,0,0,0-1.53.76c-.93-4.64-.88-9.43-1.74-14.07A45.25,45.25,0,0,0,320.65,114a12.57,12.57,0,0,0,1.64,3.2c1.28,2.12,2.41,4.33,3.62,6.49,2,3.53,4.37,7.41,8.17,9.18,4.75,2.22,13.75-1.07,13.66-7.07C347.68,121.31,342.85,117.57,338.79,116.94Zm-79.47,10.33c-3.15.11-10.38,0-8.64-3.52,1.83-3.66,7.38-.62,9.53,1C259.93,125.58,259.63,126.43,259.32,127.27Zm19.09,10.35c-4.63,0-9.05-1-12-4.68,4.14-1.88,8.16-1.19,12.5-.32C278.83,134.3,278.67,136,278.41,137.62ZM318.16,133a11.11,11.11,0,0,1-7.38,6.09c-3.45.95-5-1.3-5.86-3.9C305.24,133.11,314.15,132.76,318.16,133ZM324,52.77c.64-3.92,8.78-22.79,12.89-12.6,2.27,5.61-2.45,14.5-4.79,19.34s-5.85,8.8-8.68,13.33C323.74,66.12,323,59.52,324,52.77Zm-39.43-3a38.8,38.8,0,0,1,.51,7,15.24,15.24,0,0,1-3.07,0l-1.4-.18a10.67,10.67,0,0,0-1.53-6.42C281,50.08,282.78,49.94,284.61,49.79ZM270,4.12c1.14,3.8,1,8.24,1.46,12.07,0,.19,0,.45.08.76-3.2-2.91-6.74-4.74-10.35-4.29A27.34,27.34,0,0,1,270,4.12Zm-46,23.25a57.88,57.88,0,0,1-4.45-10.46,40.34,40.34,0,0,1,6.18,2.34c2.29,1.06,4.49,2.59,7,2.88A37.32,37.32,0,0,0,226,30.8C225.42,29.55,224.44,28.32,223.94,27.37Zm1.53,29.85A32.33,32.33,0,0,1,228.17,33c6.19-11.37,20.91-19.27,33.47-14.57,1,.38,1.74-1.32.75-1.78-.32-.15-.64-.26-.95-.39C269,15.2,277,29.66,279.53,34.5A52.78,52.78,0,0,1,284,46.77c-2.29.29-4.57.59-6.85.94-5.84-6.1-17.38-7.9-22.27,1.8a1.85,1.85,0,0,0-2.35,1.67c0,.18,0,.36,0,.54-1.21-4.07-6.25-4.37-10.68-3.15a11,11,0,0,0-8,7.62C231.06,56.45,228.26,56.81,225.47,57.22Zm35.67.6,2.13.12a.5.5,0,0,0,.32-.11c1.58.19,3.31.6,4.43.69q4,.31,8,.73a10.79,10.79,0,0,1-2.22,3.24c-3.14,3.21-8.67,2.42-12.25.66a9.09,9.09,0,0,1-3.41-2.89,17.72,17.72,0,0,0-1.23-8,1.51,1.51,0,0,0,1.05-.87c3.31-6.59,10.09-6.25,14.52-3-4,.71-11.42,2.31-10.11,4.26a.28.28,0,0,0,.49-.29c.27.53,7.45-.68,12.08-1.47a8.69,8.69,0,0,1,1.76,5.34c-2.12-.16-4.26-.26-6.38-.36-2.73-.13-7.16-1.16-9.72-.17A1.07,1.07,0,0,0,261.14,57.82Zm-16.31,3.91a23.11,23.11,0,0,0-8.51-.61,7.67,7.67,0,0,1,.13-2.88c1.45-.24,2.9-.49,4.36-.72,1-.15.72-1.71-.24-1.71s-2.1.06-3.14.11c3.49-5.7,13.45-7.82,14.35-1.17.07.47.6.43.85.14a15.33,15.33,0,0,0,1.55,4.81c-1.08,8-9,15-15.79,6.07a12.17,12.17,0,0,1-1.24-2,45.18,45.18,0,0,1,7.55-1.12A.48.48,0,0,0,244.83,61.73Zm-18.46-1.79,7-1.19a14.3,14.3,0,0,0,0,2.77A50.71,50.71,0,0,0,227.71,63,32.13,32.13,0,0,1,226.37,59.94Zm25.75,21.35a.57.57,0,0,0-1.09,0,.66.66,0,0,0,0,.14,38,38,0,0,1-21.32-15c-.08-.11-.14-.24-.21-.36,1.5-.51,3-1,4.55-1.44.09.3.16.6.27.89,2.73,7.59,11.43,9.48,17.89,5.7A12,12,0,0,0,257.43,64c5.69,5.37,15,6.45,20.77-1.29a13.21,13.21,0,0,0,1.7-3c.44.06.88.09,1.32.16a20.9,20.9,0,0,0,3.66,0,28.07,28.07,0,0,1-1.69,6.78,1.83,1.83,0,0,0-1,2.17,23.21,23.21,0,0,1-2.42,3.83c-7.15,9.12-17.64,11.3-27.54,9C252.2,81.59,252.15,81.44,252.12,81.29Zm1.1,4A37.16,37.16,0,0,0,275,81.21a23.74,23.74,0,0,0,10.8-11.43c12.22-3.24,26,.62,36.46,7.06,15.16,9.3,12.28,26.06-2.8,33.75C297.78,121.65,261.28,108.57,253.22,85.29ZM340.6,129.5c-2.85,1-5,.73-7-.82a1.13,1.13,0,0,0,.48-.79c.52-3-.17-8.59,4.58-7.61,2.42.51,6.22,3.18,5.78,6.07C344.16,128.13,342.08,129,340.6,129.5Z"/><path class="cls-2" d="M256.15,35.37c-.07-1.35.19-3.62-1.77-3.66a1.63,1.63,0,0,0-1.41.81,1.69,1.69,0,0,0,0,1.65h0c-.48-.78,0,.17,0,.13a2,2,0,0,1,.11.35c.11.54.21,1.09.3,1.64s.18,1.15.28,1.72c0,.22.07.44.1.66v.14a1.22,1.22,0,0,0,2.44,0A32.67,32.67,0,0,0,256.15,35.37Z"/><path class="cls-2" d="M244.62,30.42c-1.48.24-1.4,2.18-1.14,3.22a1.17,1.17,0,0,0,.35.56c0,.12,0,.24,0,.39.13,1.63.18,3.27.31,4.9a1.21,1.21,0,0,0,2.42,0c.18-2.19.16-4.39.18-6.58C246.79,31.55,246.3,30.14,244.62,30.42Z"/><path class="cls-4" d="M445.2,79.94a2.94,2.94,0,0,0-3.12-3A3.14,3.14,0,0,0,439.61,78c-1.78-.53-4,.48-4.14,2.49A2.69,2.69,0,0,0,433.31,82a6.19,6.19,0,0,0-.25.62,3.06,3.06,0,0,0-4.48,2.58l-.39-.54c-1.65-2.38-5.6-1.63-5.62,1.53v.76c-.85-1.27-1.73-2.53-2.68-3.75-1.2-1.56-2.87-1.15-3.95,0-1.69-3.56-3.35-7.12-5.23-10.58a2.57,2.57,0,0,0-.43-.58c-.19-2-.49-4.08-.87-6.08.21.31.4.62.62.92a3,3,0,0,0,5.48-1.49c.06-.63.1-1.25.12-1.87.44.83.9,1.66,1.36,2.48,1.74,3.1,5.81.83,5.34-2.25-.3-2-.63-3.91-1-5.84a3,3,0,0,0,.72-3.53,27.6,27.6,0,0,0-3.86-6.73,2.83,2.83,0,0,0-4.34.19c-.94-1.63-1.92-3.24-3-4.81-1.82-2.73-6.76-1.07-5.55,2.34.72,2,1.46,4.06,2.13,6.08-1.95-3.44-3.91-6.88-6.16-10.14-1.83-2.66-6.64-1.09-5.49,2.31.49,1.44,1,2.87,1.52,4.29-2-.82-4.71.75-4.2,3.23a3.44,3.44,0,0,0-2.31,2.75c-.36-.41-.73-.81-1.12-1.19-1.75-1.66-4,.43-3.12,2.41,1.58,3.72,2.89,7.41,5.06,10.86a1.19,1.19,0,0,0,1.38.47c.25.39.51.79.77,1.17a2.58,2.58,0,0,0,4.43.09c.48.88,1,1.75,1.48,2.62a2.61,2.61,0,0,0,1.45,1.2,3,3,0,0,0-1.76,2.85c-.26-.35-.52-.7-.8-1-1.56-1.92-4.26.19-3.82,2.22A66.7,66.7,0,0,0,400.9,93a1.23,1.23,0,0,0,1.73.59c.68,1.83,1.37,3.65,2.12,5.47,1.2,2.88,5.14,2.21,5.28-.58.58,1.31,1.18,2.61,1.81,3.9,1.26,2.61,5.37,1.29,5.32-1.44,0-1-.08-2.08-.17-3.12q.83,1.45,1.71,2.88a3.17,3.17,0,0,0,5.15,0c1.85,3.09,6.1.91,5.53-2.35-.11-.62-.2-1.24-.28-1.86,1.54,2.55,5.62,1.26,5.63-1.67,0-1,0-2,0-3a3.1,3.1,0,0,0,3.4-2.21c0-.12.06-.25.09-.38a3.09,3.09,0,0,0,3.4-2.22c0-.11.05-.21.07-.31a3.21,3.21,0,0,0,3.53-3.13C445.23,82.35,445.22,81.14,445.2,79.94Z"/><path class="cls-5" d="M408,46.83h0"/><path class="cls-2" d="M441.78,75.17a1.36,1.36,0,0,0-2.46.32c-2.72,7.54-12.69,10.84-19.63,7.23-3.21-1.67-4.77-5.57-7.07-8.24,5.57-1.62,10.47-5.2,12.35-10.76,3.09-9.13-8-17.59-14.73-21.13-1.55-.82-2.93,1.54-1.38,2.36,5.63,2.94,11.25,7.22,13.36,13.46,3.24,9.63-11,14.76-18.05,14.47a15,15,0,0,1-14.18-18,16.19,16.19,0,0,1,4.36-7.82A1.16,1.16,0,0,0,395.46,46c4.77-4.25,11.63-6.3,16.8-2.7.65.45,1.4-.55.84-1.08-6.05-5.57-13.65-2.79-19.15,2.11-4.61-1.47-9.48-1.94-14.1-3.37a1.29,1.29,0,0,0-1.45,1.89c2.36,4,5.29,7.71,7.91,11.58-3.72,1.74-7.55,3.26-11,5.57a1.22,1.22,0,0,0,.61,2.25,60,60,0,0,1,12.05,2s0,0,.05,0a17.75,17.75,0,0,0,8.25,9.15C391.74,77,394.17,86.7,396,90.9c2.77,6.37,6.41,11.35,12.35,13.44a1,1,0,0,0-.18.3c-1,2.49-2,4.94-2.92,7.45-3.63-.36-7.26-.39-10.91-.39a1.33,1.33,0,0,0,0,2.66c3.06,0,6.11,0,9.15.21-3.11,2.64-6.81,4.52-10.38,6.49-1.28.71-.4,2.94,1,2.41a63.5,63.5,0,0,1,11.2-3.59,1.28,1.28,0,0,0,.95-1.25,13.86,13.86,0,0,1,.24-3.22c.31-.3.63-.61.93-.93a1.27,1.27,0,0,0-.18-2c.8-2.5,1.91-4.94,2.68-7.38a1.05,1.05,0,0,0,0-.3,20.71,20.71,0,0,0,3.39.54,24.45,24.45,0,0,0,6.28-.45c-1.47,2-.54,6.54-.43,8.59.05.9.12,1.8.18,2.7h0c-1.46,1.51-2.84,3.07-4.16,4.68a10.58,10.58,0,0,0-3.31,4.53c-.53,1.42,1.56,2.09,2.32,1a65.09,65.09,0,0,1,5-6.33c.27,2.92.71,5.82.84,8.75.07,1.58,2.51,1.6,2.47,0-.06-2.64-.28-5.28-.52-7.91.84,1,1.7,2.06,2.57,3.07,1.09,1.25,2.95,4,4.87,3.77.77-.07,1.38-1,.68-1.66-1.49-1.31-3.05-2.46-4.45-3.91s-2.58-2.82-3.94-4.16l-.21-2.34c-.2-2.32-.39-4.64-.54-7,0-.59-.61-3.09-.29-3.59a.42.42,0,0,0,0-.42C434.33,101.63,449.81,88.88,441.78,75.17ZM379.26,60.52c2.45-1.33,5-2.41,7.58-3.57a16.09,16.09,0,0,0,.64,5.69A46,46,0,0,0,379.26,60.52Zm8.65-8.14c-1.85-2.7-3.8-5.34-5.6-8.08,3.18.74,6.42,1.24,9.57,2.11a26.5,26.5,0,0,0-2.65,3.4A15.24,15.24,0,0,0,387.91,52.38Zm28.44,50.24c-7.17.84-12-2.39-15.68-8.24-4.23-6.63-5.47-13.24-2.54-20.15l.05,0A23.81,23.81,0,0,0,410.6,75a.49.49,0,0,0,0,.12c4.18,13.74,23.16,15.44,30,3.88C445.25,91.72,427,101.37,416.35,102.62Z"/><path class="cls-2" d="M406.35,56.08h0a3.4,3.4,0,0,0,.07-.34,1,1,0,0,0-.2-.67,8.37,8.37,0,0,0,0-1.12h-.06a1.19,1.19,0,0,0-2.38,0c-.19,1.46-.42,2.93-.54,4.41,0,.41-.06.82-.07,1.2-.05,1.7,2.57,1.69,2.64,0a12.72,12.72,0,0,1,.3-1.94c.06-.35.14-.71.21-1.06C406.32,56.43,406.47,55.41,406.35,56.08Z"/><path class="cls-2" d="M422.56,86.58c-.9-.32-1.55.77-1.16,1.5.61,1.15,1.89,2,1.24,3.45a5.2,5.2,0,0,1-3.09,2.33c-4.09,1.47-6.4-1.34-6.24-5.28.08-1.56-2.32-1.54-2.42,0-.17,6.43-6.78,2.35-4.88-.19.4-.53-.34-1.13-.84-.85-3.11,1.73-.78,5.17,1.55,6.3a3.84,3.84,0,0,0,5-.78c1.49,3.07,4.89,4.52,8.95,3.08C424.47,94.79,428.08,88.54,422.56,86.58Z"/><path class="cls-6" d="M512.85,102.71a3.26,3.26,0,0,0-.68-.09,2.09,2.09,0,0,0-1.36-.11h-.08l-1,0c-.76,0-1.51,0-2.27-.07l-2.25-.09c-.23,0-.47,0-.71,0a2.22,2.22,0,0,0-2,.5,1.83,1.83,0,0,0-.29,2.19,2.21,2.21,0,0,0,.56.58c-2,1.47-.67,5.13,1.89,5.08,3.35-.06,9.58-1.57,9.89-5.7A2.3,2.3,0,0,0,512.85,102.71Z"/><path class="cls-2" d="M580.68,106a17.23,17.23,0,0,0-6-10.32,14.23,14.23,0,0,0-.64-3.22c-1.64-5.23-7.38-8-12.58-8.2a3.68,3.68,0,0,1-.33-.35.71.71,0,0,0-.7-.21c-1.76-4.11-5.46-8.78-9.73-4.8-3.11,2.91-1.17,5.34,1.71,7-4.1.83-8,2.88-8,7.26,0,5.53,6.29,3.53,10.69,1.37-.47.93-.94,1.9-1.32,2.88-4.47-1.74-19.79,9.08-23.31,12.47a97.32,97.32,0,0,1,1-10.49c.09-.62,1.08-9,.61-8.77a1.14,1.14,0,0,0,0-2.17l-.37-.09a8.31,8.31,0,0,0,1.55-1.47l.18.5c1.38,3.38,4.41,5.19,8,4.36,5.69-1.32,5.78-7.79,3.37-12.42a8.51,8.51,0,0,0,5.88-2.33c2.73-2.45,2.81-7.53.46-10.22-2.61-3-8.18-4.63-11.65-3-.44-4-2.4-7.6-7.2-7-4.31.52-5.44,3.94-5.13,7.5-3.42-2.51-7.61-3-10.83,1.43a7,7,0,0,0-.26,7.54c1.4,2.43,4.23,3.36,7,3.69-3.36,4.46-4.94,12.2,2.13,13.14a9,9,0,0,0,4.47-.56,4.34,4.34,0,0,0-.29,1.64c-.17,2.53-.28,5-.69,7.5s-.69,5.13-.86,7.72a60.79,60.79,0,0,0-5.11-8.68A26,26,0,0,0,517.36,92c-1.8-1.37-3.76-1.24-5.74-2l0,0a1.09,1.09,0,0,0-.85,0,10.64,10.64,0,0,0-2.77-4c3.53-.43,6.41-2.49,6.41-6.93,0-3-1.57-4.4-3.61-4.84,2.11-2.75,2.24-6.34-.88-9.84-4.42-4.95-8.68-2-11.19,2.23-.81-2.52-2.49-4.51-5.58-3.78-3.51.84-4.73,3.58-4.62,6.54-1.75-.73-3.49-.68-4.9,1.6-2.16,3.5.94,6.39,4.17,7.81-2.92,2.08-7,4.93-6.11,8.16.82,3,3.45,3,5.93,2.22-2.62,6.41-4.54,17.09,2.71,18.25,6.42,1,8.6-7.21,9-13.26,2.77,2.58,6.33,3.72,9.86.86A4.62,4.62,0,0,0,511,92.38c1.14.65,2.38.48,3.65,1,2.7,1.2,4.73,4.13,6.34,6.46a55.61,55.61,0,0,1,6.66,13.22,1.44,1.44,0,0,0,2.81-.38c0-.24,0-.48,0-.72a.88.88,0,0,0,.9-.25c3-2.94,7-5.08,10.68-7.14,1.58-.89,9.75-5.86,11.1-5-.46,2.26-.11,4.38,2.09,5.83,3.33,2.19,6.69.21,9.19-2.52.22,6.25,3,13.76,9.6,12.85C578.07,115.2,581.23,109.74,580.68,106Zm-73.77-40.4c4.76,2.56,2.66,7.19-.89,9.26a9.45,9.45,0,0,0-1.54.72c-1.29.76-.43,3,1,2.48l.32-.13h0a13.11,13.11,0,0,0,1.31-.61c2.43-.86,4.95-.31,4.46,3.1-.55,3.8-5.12,3.42-7.76,2.79a1.37,1.37,0,0,0-.35,0,15.8,15.8,0,0,0-2-8.76,5.53,5.53,0,0,0-2.16-2.1C500.17,68.52,502.15,63,506.91,65.56Zm-8.08,10.2a6.14,6.14,0,0,0-3.44-.19C496.52,74.61,497.69,74.2,498.83,75.76Zm-6.12-9.83c3.53-2.53,4,3.65,3.9,5.9a6.5,6.5,0,0,0-2.69,1,27.91,27.91,0,0,1-2.57-1.69C490.83,69.25,490.8,67.29,492.71,65.93Zm-6,9.21L489,72.2a13.67,13.67,0,0,0,.68,1.85c.54,1.18,2.41.54,2.44-.57l.42.23.17.11a8,8,0,0,0-2,3.11v0A7.59,7.59,0,0,1,486.73,75.14Zm0,11.62q-2.68-1.85-.32-3.15a53.82,53.82,0,0,1,4.4-3.52,10.6,10.6,0,0,0-.7,4.83l-.08,0A13.24,13.24,0,0,1,486.76,86.76Zm6.35,17.57c-4.22,4.83-4.86-7.14-4.64-8.63a21.43,21.43,0,0,1,2.63-7.52,6.55,6.55,0,0,0,5.53,3.26C496.79,95.78,496,101.06,493.11,104.33Zm.78-17.07c-3.25-3.26.28-11.63,5.09-10.79a.33.33,0,0,0,.26,0,13.21,13.21,0,0,1,.91,8.92C499.39,88.49,496.45,89.82,493.89,87.26Zm13.36,5.95c-2.45,3-5.84-.3-7.5-2.47a5.91,5.91,0,0,0,2.48-2.54,11.11,11.11,0,0,0,.86-2.41C505.51,87.08,510.06,89.71,507.25,93.21Zm35.91-6.75c-.95,3.67-5.14,3.1-6.81.53-.25-.38-1.66-3.72-1.13-4.09a1.49,1.49,0,0,0,.14-2.28v0a8.72,8.72,0,0,0,4.92-2.65A8,8,0,0,1,543.16,86.46Zm-4-17.13a17.67,17.67,0,0,0,.26-1.76c1-2.94,5.69-1.77,8-.45,6.28,3.6.19,11.69-6,8.21a5,5,0,0,0-.31-2.23,8,8,0,0,0-2.21-3.21A1.25,1.25,0,0,0,539.19,69.33Zm-1,6.93a5.91,5.91,0,0,1-3.11,1.66,2,2,0,0,0-.87-1,.47.47,0,0,0-.64.64,1.31,1.31,0,0,1,0,.54,2.8,2.8,0,0,1-2.19-2A7.06,7.06,0,0,1,531,74a10.58,10.58,0,0,1,.89-2.19,1.66,1.66,0,0,1,.18.19c.27.3.78-.1.56-.43l-.25-.33c.09-.07.16-.15.26-.22a2.94,2.94,0,0,1,2.9,0C537.32,71.87,539.71,74.45,538.18,76.26Zm-5.41-16.87c4-.49,4.31,4.25,4,7.44a7.24,7.24,0,0,0-.27,1.56,7,7,0,0,0-3.65-.5,4.21,4.21,0,0,0-1.67.69C529.81,65.82,528.1,60,532.77,59.39Zm-5.24,27.9c-2.85.79-4.47-1.38-4.64-3.87-.18-2.81,1.81-5.19,4-6.61a1.41,1.41,0,0,0-.7-2.6c-3.88,0-10.41-1.46-7.8-6.73,2.83-5.7,8.46-.6,10.48,2.74a1.21,1.21,0,0,0,.32.35,4.75,4.75,0,0,0-.74,4.22,1.36,1.36,0,0,0,.21.34c.28,2.65,1.94,5.1,4.55,5.53,0,.15-.05.27-.06.3s0,.14,0,.21a3.56,3.56,0,0,0-.62,2.1A7.17,7.17,0,0,1,527.53,87.29Zm24.89-6.49c2.14-3.94,5.91,2.42,7.1,4.83a1.26,1.26,0,0,0-.63-.24C556.9,85.2,550.54,84.27,552.42,80.8ZM565,97.66a19.87,19.87,0,0,1-2.58,3.6l-.9.86q-3.18,3.45-5.61-2.67c.63-2.69,2.48-5.16,3.6-7.67.49-1.07-.6-2.64-1.8-1.8-1,.68-11.26,6.86-10.58,2.51.71-4.6,8.57-4.72,11.8-4.51a1.17,1.17,0,0,0,.75-.2,15.76,15.76,0,0,0,3.67,7.56,19.59,19.59,0,0,0,1.92,2A1.29,1.29,0,0,0,565,97.66ZM561.62,87c3.87.27,8.6,2.18,9.8,6.14,0,.15.1.33.16.53a1.35,1.35,0,0,0-.62,2.47,11.42,11.42,0,0,1,1,.76c-.18.49-.6.76-1.48.56C566.07,96.46,562.52,91.56,561.62,87Zm11.67,26.22c-5.73,2-6.62-11.06-6-14.32a7.19,7.19,0,0,0,4.43,1.26,3,3,0,0,0,2.31-1.3C578.13,103.39,580.78,110.65,573.29,113.22Z"/><path class="cls-2" d="M518.71,99.43a.69.69,0,0,0-.15-.62c-.09-.13-.32,0-.22.13-.68-.92-3.71-.1-4.63,0a16.78,16.78,0,0,0-6.69,2.37c-2.21,1.46-5.82,6.29-3.72,9,1.77,2.27,6.5-.77,8.11-1.75a37.72,37.72,0,0,0,5-3.71c1.14-1,3.24-2.64,3.14-4.33A1.25,1.25,0,0,0,518.71,99.43Zm-3.3,2.62a29.76,29.76,0,0,1-4.26,3.41,26.88,26.88,0,0,1-4,2.26,7.29,7.29,0,0,1-1.7.53c.15-1.38,1.61-3.32,2.43-4.18,1.49-1.58,4-2.17,6-2.7.27-.07,1.54-.27,2.72-.63C516.18,101.18,515.81,101.65,515.41,102.05Z"/><path class="cls-4" d="M49.56,154.77c-.21-.77-.4-1.53-.57-2.3a3.11,3.11,0,0,0,.14-1,15.5,15.5,0,0,0-3.25-8.68,4.36,4.36,0,0,0-6.66-.47,4,4,0,0,0-4.6,1.6c-1.85-2.89-6.22-1.85-7.07.91-2-2.48-6.65-1-6.54,2.06-1.91-.48-4.16,1.46-2.87,3.65,2.08,3.54,1.9,7.39,2.8,11.28.4,1.75,2.56,1.4,3.09.06.75,1.49,1.51,3,2.24,4.48,1,2,3.37,2,4.88.87l.23.46a3.35,3.35,0,0,0,1,1.2,3.93,3.93,0,0,0-2.54,3.31,4,4,0,0,0-2.15,4.51c.22,1.05.39,2.11.54,3.18-.48-.54-.95-1.08-1.38-1.65-2.79-3.72-9.12-.28-6.38,3.73a22.72,22.72,0,0,1,1.19,2c-2.4-2.64-6.79.51-5.92,3.72a27.2,27.2,0,0,1,.58,2.68c-1.54-1.25-3.09-2.51-4.55-3.88a3.33,3.33,0,0,0-5.66,1.82q-.78-.6-1.53-1.23c-2.14-1.83-5.83.54-4.1,3.16,1.45,2.19,2.05,4.77,3.34,7a1.3,1.3,0,0,0,2.36-1c-.08-.35-.12-.71-.18-1.07A63.77,63.77,0,0,1,11.44,200a3.08,3.08,0,0,0,4.83-.47,31.73,31.73,0,0,1,2.66,2.89c2.31,2.9,6.74-.25,5.9-3.43a27.37,27.37,0,0,1-.64-3.32,17,17,0,0,1,2.38,2.41c2.4,3,6.82-.3,6.06-3.52-.08-.33-.16-.66-.23-1A3.8,3.8,0,0,0,37.17,189a53.49,53.49,0,0,1-1.32-8.68c2.6.43,5.88-1.41,4.66-4.54a8.71,8.71,0,0,0-1.8-2.63,3,3,0,0,0-.3-2.33,4.62,4.62,0,0,0-1.85-1.89,3.65,3.65,0,0,0,1.86-3.16c0-.2,0-.4,0-.6C41,168,46,165.42,45,161.42c-.14-.6-.26-1.21-.39-1.81C47.37,160.28,50.53,158.22,49.56,154.77Z"/><path class="cls-2" d="M64.3,154.87A64.5,64.5,0,0,0,55,151.93c-1.43-.35-3.76-1.14-5.58-1-1.27-8.72-8.63-17-17.33-13.17-16.43-3.22-20.15,27.27-5.8,33.91-2.23,9.73-12.35,15.25-20.64,6.78a1.73,1.73,0,0,0-2.85.75c-2.47,7-3.79,15.72,2.45,21.15,3.2,2.77,7.45,3.67,11.68,3.58,1.91,9.6,4.74,18.95,5.95,28.71.24,2,3.24,2.11,3.19,0-.07-3-.33-6-.5-9,3.09,1.85,6.22,4.55,9.61,4.8a1.35,1.35,0,0,0,.94-2.28,1.85,1.85,0,0,0-.38-.28,60.36,60.36,0,0,0-11.48-6.48,1.27,1.27,0,0,0-.86,0c-1.33-5.27-2.92-10.48-4.69-15.59a35.26,35.26,0,0,0,5.39-.87,30.4,30.4,0,0,0,3.36-1c3.71,7.27,6.79,14.94,10.94,22,.45.82.93,1.63,1.47,2.42,1.18,1.71,4,.14,2.81-1.64-.41-.63-.79-1.27-1.18-1.9a26.27,26.27,0,0,1-1.7-3.65,75.73,75.73,0,0,0,9.88.9,1.65,1.65,0,0,0,.82-3,11.58,11.58,0,0,0-3.06-1.13,1.22,1.22,0,0,0-1.49.7c-2.71-.22-5.4-.59-8.11-1a1.79,1.79,0,0,0-.46,0c-.52-1-1-2-1.54-3-1-2.07-2-4.15-3.08-6.22-.51-1-1.05-2-1.6-3l-.39-.69a.34.34,0,0,0,.34-.6l-1.4-.92c11.93-5.41,18.38-17.83,9.37-29.74a19.77,19.77,0,0,0,9.2-10.69,28.3,28.3,0,0,0,16.41-2.86C66,157.06,65.46,155.35,64.3,154.87ZM24,199.47c-5,1.49-11,1.76-15.59-1-5.53-3.27-4.78-10.31-3.18-15.83,9.49,7.24,21.52,1.16,23.22-10.2l.48.14a14.89,14.89,0,0,0,6.91-.08,1.64,1.64,0,0,0,.31.6C45.62,184.87,36.23,195.85,24,199.47ZM45.86,158.2c-.46,0-.92-.08-1.36-.14-1.06-.14-1.23,1.55-.25,1.82.32.08.64.14,1,.21-2.7,6.3-9.87,11.14-16.55,9v-.43a1,1,0,0,0-1.84-.36c-5.58-3-7-11.19-6.16-16.88.84-6,4-9.14,8.79-10.73a1.53,1.53,0,0,0,2.3.94c9.33-5.58,14.7,5.51,14.57,13.48A12.88,12.88,0,0,1,45.86,158.2Zm3.11.2a20.2,20.2,0,0,0,.6-4.08c1.48.38,3.2.39,4.57.7a58.1,58.1,0,0,1,5.73,1.61A27.94,27.94,0,0,1,49,158.4Z"/><path class="cls-2" d="M30.88,148.92a6.19,6.19,0,0,0,.22,4.56,1,1,0,0,0,.11.2c0,.48,0,1,.1,1.43a.91.91,0,0,0,1.82,0c0-.46.08-.93.1-1.39a1,1,0,0,0,.11-.24c.39-1.29-.12-2.52.22-3.82A1.39,1.39,0,0,0,30.88,148.92Z"/></svg>