<svg id="Layer_1" data-name="Layer 1" xmlns="http://www.w3.org/2000/svg" viewBox="0 0 118.19 94.07"><defs><style>.cls-1{fill:#683c11;}.cls-2{fill:#3c3c3b;}</style></defs><title>2_pic</title><path class="cls-1" d="M115.32,33.33C114.78,32.9,111.2,32,113,33a3.27,3.27,0,0,0-4.65,3.75,3.09,3.09,0,0,0-1.65,3.34v.08l-1-.06a3.15,3.15,0,0,0-3.3,2.93v.74l-1.11.47a3.08,3.08,0,0,0-1.72,2.42c-3-1.18-6.08-2.41-9.19-3.45a3.11,3.11,0,0,0-2,0,44.06,44.06,0,0,0-13-6.73c-2.6-.77-5.28,2.37-3.62,4.6a71.21,71.21,0,0,0-7.11-3.79c-2.78-1.27-5,2.75-3.15,4.8l.29.31a40.75,40.75,0,0,0-4-1.47c-2.47-.75-4.94,2.21-3.43,4.32a58.74,58.74,0,0,0-5.32-2.82C46.44,41.19,44,45.15,46,47.08c1.16,1.11,2.3,2.24,3.44,3.37A66.71,66.71,0,0,0,40.81,46a2.21,2.21,0,0,0-1.64,0,44.34,44.34,0,0,0-5.8-6.81,80.28,80.28,0,0,0,8.21,3.67c2.8,1,4.55-2.44,3-4.53A79.18,79.18,0,0,0,33,26.46c2.7,1.07,5.38,2.17,8.1,3.12s4.68-2.48,3-4.64a59,59,0,0,0-4.88-5.59,3.26,3.26,0,0,0,1-4.49L40,14.68c-.42-.54-.82-1.09-1.21-1.65A2.51,2.51,0,0,0,39,9.48l-.09-.09a7,7,0,0,0-5.8-2.54,2.82,2.82,0,0,0-2.92,2.73,2.88,2.88,0,0,0,.36,1.49c-.93-.47-1.84-1-2.73-1.55-2.56-2-5.15-3.92-7.69-5.88C17,1.23,14,6.22,16.86,8.64a65.17,65.17,0,0,0,6.36,4.86c2.59,2,5.15,3.95,7.6,6.06a60.44,60.44,0,0,0-10.29-2.95c-2.47-.44-4.21,3.24-2.38,4.91C22,25,26.08,28.22,30,31.59a64.52,64.52,0,0,0-8.77-3.43,2.87,2.87,0,0,0-3.56,2,2.92,2.92,0,0,0,.56,2.65,86.45,86.45,0,0,0,8.14,7.64,77.92,77.92,0,0,0-12.92-4.1c-3-.67-5.49,3.4-2.48,5.19a84.56,84.56,0,0,1,8.94,6.18C15.66,46.11,11.39,44.61,7,43.42a2.75,2.75,0,0,0-2.34,4.89c1.56,1.3,3.15,2.55,4.75,3.79a52.11,52.11,0,0,0-5.66-1.58C1.55,50.05-.17,52.91,2,54.25c2.93,1.83,5.85,4.87,9.29,5.64,1.67.37,2.32-.39,2.41-1.44,2.75,1,5.51,1.93,8.3,2.79,2.11.66,4.29-2.13,2.5-3.82-1.47-1.39-3-2.71-4.57-4,4.28,1.58,8.53,3.24,12.81,4.83a2.67,2.67,0,0,0,3.06-1.09,46,46,0,0,0,12.76,8.89,1.29,1.29,0,0,0,1.6-.4c2.17,1.47,4.35,2.94,6.59,4.31A2.64,2.64,0,0,0,60.11,66l-3.75-4.28c4.07,3,8.06,6.16,12.21,9.07,2.61,1.84,5.65-1.85,3.6-4.18l-3.79-4.31a121.19,121.19,0,0,0,10.82,7.9C82.08,72,84.91,68.39,83,65.84a96.83,96.83,0,0,0-7.27-8.4c4.1,3,8.14,6,12.38,8.69a3,3,0,0,0,4.14-.95,3.07,3.07,0,0,0,.45-1.69c1.53,1.12,3.08,2.2,4.66,3.26,3,2,5.94-1.93,3.94-4.59-1.14-1.51-2.34-3-3.58-4.4l.75.5c2.77,1.79,5.27-1,4.63-3.52l.33.12c3.21,1,5.08-2.68,3.35-5.11l-.35-.87.38-.16a3.06,3.06,0,0,0,1.67-2.16l2.23.14a3.17,3.17,0,0,0,3.16-2.15,4.28,4.28,0,0,0,0-2.3,9.65,9.65,0,0,0,2.65-1,3.18,3.18,0,0,0,1.42-4.15A7.55,7.55,0,0,0,115.32,33.33ZM36.41,51.51a3,3,0,0,0,2.67.09q2.07,1.95,4.08,4A51.72,51.72,0,0,0,37.61,53a2,2,0,0,0-2.23.55c-2.12-2-4.27-4-6.45-5.87C31.44,48.85,33.94,50.12,36.41,51.51Z"/><path class="cls-2" d="M111.63,30.23c-3.76,5.25-4.61,12.76-11,15.67a1.3,1.3,0,0,0-.51.42c-4.86-4.58-12.54-7.46-17.55-8.89-10.42-3-25-4.43-34.79,1.48.1-4.78-1-9.85-1.78-14.16A130.72,130.72,0,0,0,39.18.82a1.47,1.47,0,0,0-2-.66,1.37,1.37,0,0,0-.58.51c-2,4-3.24,8.2-4.92,12.29C26.7,9.38,22.52,4.84,17.84.8a1.49,1.49,0,0,0-2.43,1.63c1.68,4.48,1.52,9.13,1.91,13.79a.83.83,0,0,0-.12.44,52.4,52.4,0,0,0,1.15,9C19.76,33.55,12.06,33.89,8.13,37A35.24,35.24,0,0,0,4.3,40.5a2.66,2.66,0,0,0-2.53,1.85,4.15,4.15,0,0,0-.07,1.53A11.52,11.52,0,0,0,0,49.14C-.51,59.09,8.8,63.82,17.8,63,30,62,42.44,57.32,46.8,45a16.55,16.55,0,0,0,.75-3.24,1.15,1.15,0,0,0,1.12-.11c13-8.18,47.39-4.34,52.71,12.42,4,12.69-18.62,15.85-26.68,16.85C60.9,72.55,46.78,66.8,35.64,59.2c-1-.65-1.84.79-1,1.47,11.35,8.81,25.54,14,40,12.9-.72,2.84,1,5.66,2.09,8.3a8.59,8.59,0,0,1,.55,2c-4-1-10.5-1.39-12.43,3-1.35,3.11,1.77,6.21,4.52,6.93,4.44,1.18,9.48-2.5,10.53-6.75,1.21-4.89-3.07-9-3.89-13.66l.81-.07A71.2,71.2,0,0,0,90.9,70.44a.69.69,0,0,0-.41.58c-.23,5.15,5.58,12.58.63,16.78a3.51,3.51,0,0,1-5-.51L86,87.06c-1.75-2.64,3.49-2.33,4.72-2.21,1.66.16,1.8-2.41.15-2.58C88,82,83.12,82.13,83,86.06c-.08,3,3,5,5.69,5.18,4,.24,6.94-3.59,6.82-7.24-.13-4.35-1.89-9.31-3.7-13.25a.65.65,0,0,0-.75-.37c6.62-2.29,12.44-6.17,13.45-13,0-.26.06-.5.08-.75,10.32-5,13.68-15.72,9.2-26.21a1.28,1.28,0,0,0-1.73-.53A1.49,1.49,0,0,0,111.63,30.23ZM5.63,43.1a11.55,11.55,0,0,1,2.1,1,2.72,2.72,0,0,1,.78,2.55,4.21,4.21,0,0,0-1-1.61,2.58,2.58,0,0,0-.74-.49,1.14,1.14,0,0,0-1.36-.22,2.31,2.31,0,0,0-.81.21,11.46,11.46,0,0,1,1-1.44Zm39-2.91c-.26,14.52-17.79,19.84-29.54,20-5,.06-9.68-2.33-11.43-6.43a7.06,7.06,0,0,0,2.46-.32c2.41-.9,4.2-3.59,4.72-6A5.3,5.3,0,0,0,7.7,41.17H7.63c2.89-2.45,6.66-4.14,9.84-5.72,6.18-3.1,3.19-11,2.08-16.62a1.48,1.48,0,0,0,.86-1.55c-.46-3.84-.46-7.5-1-11.15,3.91,3.66,7.69,7.4,12.23,10.35A1.5,1.5,0,0,0,33.7,16a1,1,0,0,0,.14-.28c1.55-3.36,2.59-6.89,4-10.3,3.86,11,7,23.13,6.86,34.79ZM72.17,91.37c-2.07.53-5.12-.71-5-3.19.14-3.69,8.11-2.14,10.12-1.92a6.49,6.49,0,0,1-5.08,5.11Zm32.39-37a12.08,12.08,0,0,0-2.77-6.21c6.15-2.56,7.64-9,10.59-14.36,2.74,8.4-.39,15.74-7.78,20.56Z"/><path class="cls-2" d="M30.44,33.53a2.2,2.2,0,0,0-.74-.65v-.1a1.22,1.22,0,0,0-1.65-.54,1,1,0,0,0-.24.16h-.32a.86.86,0,0,0-.32,0l-.46-.09a1.24,1.24,0,0,0-1.31,1.18,1.28,1.28,0,0,0,.12.61c.1.17.22.34.32.5a2.92,2.92,0,0,0-.47,2.46,3.16,3.16,0,0,0,.94,2,1.13,1.13,0,0,0,1.57.09c.79-.65,2.1-1.27,2.68-2.21a2.39,2.39,0,0,0,.63-1.83,2,2,0,0,0-.26-.78A2.61,2.61,0,0,0,30.44,33.53Z"/><path class="cls-2" d="M43.3,69c-.12,6.6,4.7,21.66-5.93,22.18-2.9.15-7.61-1.37-6.72-5.14,1.12-4.78,8.89-2.38,11.68-1.3,1.66.63,2.5-2,.86-2.62-4.66-1.82-11.37-3.19-14.66,1.75-2.22,3.34.11,7.67,3.44,9.12,4.68,2,11.64,1.27,13.68-4.1,2.27-6,.71-14-.95-20C44.49,68.16,43.31,68.16,43.3,69Z"/><path class="cls-2" d="M58.57,73.43c.12,2.81,1.4,7.54,1.29,11.39a.88.88,0,0,0-1-.51c-1.63.22-3.8-.36-5.53-.29a8.42,8.42,0,0,0-5.13,1.6c-3.88,3,.68,7.09,3.76,7.74,3.41.73,9,.09,9.54-4.29.58-5.22-.81-10.68-2.14-15.7C59.27,72.94,58.55,72.93,58.57,73.43ZM54.81,91c-1.62.08-4.15-.16-5.12-1.68-1.49-2.34,3.18-2.67,4.23-2.71,1.72-.07,4.36.66,5.74-.73a1.37,1.37,0,0,0,.15-.21C59.54,88.56,58.3,90.79,54.81,91Z"/></svg>