<svg id="Layer_1" data-name="Layer 1" xmlns="http://www.w3.org/2000/svg" viewBox="0 0 70.48 90.86"><defs><style>.cls-1{fill:#f7ca24;}.cls-2{fill:#3c3c3b;}</style></defs><title>4_pic</title><path class="cls-1" d="M70.46,40a2.94,2.94,0,0,0-2.88-3h-.24A3.17,3.17,0,0,0,64.87,38c-1.78-.53-4,.48-4.14,2.49A2.68,2.68,0,0,0,58.57,42a4.73,4.73,0,0,0-.25.62,3.07,3.07,0,0,0-4.48,2.58l-.39-.54c-1.65-2.38-5.6-1.63-5.62,1.53V47c-.85-1.27-1.73-2.53-2.68-3.75-1.2-1.56-2.87-1.15-3.95,0-1.69-3.56-3.35-7.12-5.23-10.58a2.73,2.73,0,0,0-.43-.58c-.19-2-.49-4.08-.87-6.08.21.31.4.62.62.92a3,3,0,0,0,5.48-1.49c.06-.63.1-1.25.12-1.87.44.83.9,1.66,1.36,2.48,1.74,3.1,5.81.83,5.34-2.25-.3-2-.63-3.91-1-5.84a3,3,0,0,0,.72-3.53,28.12,28.12,0,0,0-3.86-6.73,2.83,2.83,0,0,0-4-.18,2.37,2.37,0,0,0-.34.37c-.94-1.63-1.92-3.24-3-4.81C34.29.33,29.35,2,30.56,5.4c.72,2,1.46,4.06,2.13,6.08C30.74,8,28.78,4.6,26.53,1.34,24.7-1.32,19.89.25,21,3.65c.49,1.44,1,2.87,1.52,4.29-2-.82-4.71.75-4.2,3.23a3.43,3.43,0,0,0-2.31,2.75c-.36-.41-.73-.81-1.12-1.19-1.75-1.66-4,.43-3.12,2.41,1.58,3.72,2.89,7.41,5.06,10.86a1.19,1.19,0,0,0,1.38.47c.25.39.51.79.77,1.17a2.58,2.58,0,0,0,3.52,1,2.74,2.74,0,0,0,.91-.88c.48.88,1,1.75,1.48,2.62a2.54,2.54,0,0,0,1.45,1.2,3,3,0,0,0-1.76,2.85,11.67,11.67,0,0,0-.8-1c-1.56-1.92-4.26.19-3.82,2.22A66.52,66.52,0,0,0,26.16,53a1.22,1.22,0,0,0,1.61.65l.12-.06c.68,1.83,1.37,3.65,2.12,5.47,1.2,2.88,5.14,2.21,5.28-.58.58,1.31,1.18,2.61,1.81,3.9C38.36,65,42.47,63.7,42.42,61c0-1-.08-2.08-.17-3.12q.82,1.45,1.71,2.88a3.17,3.17,0,0,0,5.15,0c1.85,3.09,6.1.91,5.53-2.35-.11-.62-.2-1.24-.28-1.86C55.9,59.07,60,57.78,60,54.85v-3a3.1,3.1,0,0,0,3.4-2.21,1.89,1.89,0,0,1,.09-.38A3.09,3.09,0,0,0,66.88,47a1.55,1.55,0,0,1,.07-.31,3.2,3.2,0,0,0,3.51-2.87,2.28,2.28,0,0,0,0-.26C70.49,42.38,70.48,41.17,70.46,40Z" transform="translate(0 0.82)"/><path class="cls-2" d="M33.26,6.86h0" transform="translate(0 0.82)"/><path class="cls-2" d="M67,35.2a1.35,1.35,0,0,0-1.87-.44,1.28,1.28,0,0,0-.59.76C61.86,43.06,51.89,46.36,45,42.75c-3.21-1.67-4.77-5.57-7.07-8.24,5.57-1.62,10.47-5.2,12.35-10.76,3.09-9.13-8-17.59-14.73-21.13C34,1.8,32.57,4.16,34.12,5c5.63,2.94,11.25,7.22,13.36,13.46,3.24,9.63-11,14.76-18,14.47a15,15,0,0,1-14.18-18,16.24,16.24,0,0,1,4.36-7.82A1.16,1.16,0,0,0,20.72,6c4.77-4.25,11.63-6.3,16.8-2.7.65.45,1.4-.55.84-1.08-6-5.57-13.65-2.79-19.15,2.11C14.6,2.89,9.73,2.42,5.11,1a1.29,1.29,0,0,0-1.58.92,1.26,1.26,0,0,0,.13,1C6,6.88,9,10.59,11.57,14.46,7.85,16.2,4,17.72.57,20a1.22,1.22,0,0,0-.38,1.68,1.18,1.18,0,0,0,1,.57,60.78,60.78,0,0,1,12.05,2h0a17.73,17.73,0,0,0,8.25,9.15c-4.53,3.6-2.1,13.3-.27,17.5C24,57.3,27.67,62.28,33.61,64.37a.92.92,0,0,0-.18.3c-1,2.49-2,4.94-2.92,7.45-3.63-.36-7.26-.39-10.91-.39a1.33,1.33,0,0,0,0,2.66c3.06,0,6.11,0,9.15.21-3.11,2.64-6.81,4.52-10.38,6.49-1.28.71-.4,2.94,1,2.41a63.54,63.54,0,0,1,11.2-3.59,1.29,1.29,0,0,0,.95-1.25,13.38,13.38,0,0,1,.24-3.22c.31-.3.63-.61.93-.93a1.27,1.27,0,0,0,.06-1.79,1.21,1.21,0,0,0-.24-.21c.8-2.5,1.91-4.94,2.68-7.38a1.5,1.5,0,0,0,0-.3,20.29,20.29,0,0,0,3.39.54,24.54,24.54,0,0,0,6.28-.45c-1.47,2-.54,6.54-.43,8.59,0,.9.12,1.8.18,2.7h0c-1.46,1.51-2.84,3.07-4.16,4.68a10.58,10.58,0,0,0-3.31,4.53c-.53,1.42,1.56,2.09,2.32,1a64.65,64.65,0,0,1,5-6.33c.27,2.92.71,5.82.84,8.75.07,1.58,2.51,1.6,2.47,0-.06-2.64-.28-5.28-.52-7.91.84,1,1.7,2.06,2.57,3.07,1.09,1.25,3,4,4.87,3.77a1,1,0,0,0,.68-1.66c-1.49-1.31-3-2.46-4.45-3.91S48.34,79.38,47,78l-.21-2.34c-.2-2.32-.39-4.64-.54-7,0-.59-.61-3.09-.29-3.59a.45.45,0,0,0,0-.42C59.59,61.66,75.07,48.91,67,35.2ZM4.52,20.55C7,19.22,9.52,18.14,12.1,17a16.09,16.09,0,0,0,.64,5.69A45.74,45.74,0,0,0,4.52,20.55Zm8.65-8.14c-1.85-2.7-3.8-5.34-5.6-8.08,3.18.74,6.42,1.24,9.57,2.11a26.3,26.3,0,0,0-2.65,3.4A15.2,15.2,0,0,0,13.17,12.41ZM41.61,62.65c-7.17.84-12-2.39-15.68-8.24-4.23-6.63-5.47-13.24-2.54-20.15h.05A23.83,23.83,0,0,0,35.86,35a.24.24,0,0,0,0,.12C40,48.89,59,50.59,65.86,39,70.51,51.75,52.26,61.4,41.61,62.65Z" transform="translate(0 0.82)"/><path class="cls-2" d="M31.61,16.11h0a3.4,3.4,0,0,0,.07-.34,1.06,1.06,0,0,0-.2-.67,10.46,10.46,0,0,0,0-1.12h-.06A1.19,1.19,0,0,0,29,14h0c-.19,1.46-.42,2.93-.54,4.41,0,.41-.06.82-.07,1.2-.05,1.7,2.57,1.69,2.64,0a12.82,12.82,0,0,1,.3-1.94c.06-.35.14-.71.21-1.06C31.58,16.46,31.73,15.44,31.61,16.11Z" transform="translate(0 0.82)"/><path class="cls-2" d="M47.82,46.61c-.9-.32-1.55.77-1.16,1.5.61,1.15,1.89,2,1.24,3.45a5.18,5.18,0,0,1-3.09,2.33c-4.09,1.47-6.4-1.34-6.24-5.28.08-1.56-2.32-1.54-2.42,0C36,55,29.37,51,31.27,48.42c.4-.53-.34-1.13-.84-.85-3.11,1.73-.78,5.17,1.55,6.3a3.84,3.84,0,0,0,5-.78c1.49,3.07,4.89,4.52,9,3.08C49.73,54.82,53.34,48.57,47.82,46.61Z" transform="translate(0 0.82)"/></svg>