<svg id="Layer_1" data-name="Layer 1" xmlns="http://www.w3.org/2000/svg" viewBox="0 0 410.96 228.47"><defs><style>.cls-1{fill:#683c11;}.cls-2{fill:#3c3c3b;}.cls-3{fill:#3aa935;}.cls-4{fill:#f7ca24;}.cls-5{fill:#ef66b2;}.cls-6{fill:#e20613;}</style></defs><title>bottom_pic</title><path class="cls-1" d="M51.91,183.07c-.34-.07-2.15.33-1.12.35a1.63,1.63,0,0,0-1.23,2.72,1.56,1.56,0,0,0,0,1.87l0,0-.45.19a1.58,1.58,0,0,0-.82,2.06c0,.11.1.22.14.33l-.39.47a1.55,1.55,0,0,0-.22,1.47c-1.63.15-3.26.28-4.89.51a1.58,1.58,0,0,0-.89.42,22.4,22.4,0,0,0-7.31-.1c-1.34.24-1.84,2.25-.59,2.87a36.09,36.09,0,0,0-4-.09c-1.53.05-1.63,2.35-.33,2.85l.2.07c-.71,0-1.43.13-2.14.25a1.49,1.49,0,0,0-.56,2.7c-1-.07-2-.1-3-.07-1.44.05-1.66,2.38-.32,2.79.77.23,1.53.48,2.3.73a34.11,34.11,0,0,0-4.85-.05,1.14,1.14,0,0,0-.75.34A22.33,22.33,0,0,0,16.55,204a39.75,39.75,0,0,0,4.5-.2,1.41,1.41,0,0,0,.31-2.69,39.6,39.6,0,0,0-7.87-2.71c1.45-.13,2.89-.24,4.32-.42a1.45,1.45,0,0,0,.32-2.76,31,31,0,0,0-3.44-1.4,1.63,1.63,0,0,0-.66-2.29c-.31-.14-.61-.3-.91-.46a1.26,1.26,0,0,0-.78-1.65,3.54,3.54,0,0,0-3.17.17,1.41,1.41,0,0,0-.2,2.46c-.52,0-1,0-1.57-.08-1.58-.32-3.18-.6-4.76-.91-1.93-.38-2.15,2.53-.33,3a32.5,32.5,0,0,0,3.94.75c1.6.3,3.19.61,4.76,1a31,31,0,0,0-5.27,1,1.49,1.49,0,0,0,0,2.73c2.5.71,5.05,1.22,7.56,1.85a32.32,32.32,0,0,0-4.69.43,1.45,1.45,0,0,0-.32,2.75,44.1,44.1,0,0,0,5.36,1.59A39.41,39.41,0,0,0,7,207.23c-1.5.38-1.69,2.76.06,2.88a42,42,0,0,1,5.38.76c-2.25.25-4.5.53-6.73,1a1.37,1.37,0,0,0,0,2.71c1,.23,2,.43,3,.63a28.34,28.34,0,0,0-2.89.56c-1.09.29-1.22,2,0,2.07,1.71.17,3.71.87,5.42.44.83-.21.95-.69.75-1.18,1.45-.18,2.9-.38,4.34-.62,1.1-.18,1.44-1.91.26-2.27-1-.29-1.95-.54-2.94-.76,2.27-.25,4.55-.47,6.81-.72a1.33,1.33,0,0,0,1.13-1.17,22.85,22.85,0,0,0,7.7,1.11.65.65,0,0,0,.63-.54c1.3.18,2.61.35,3.91.46a1.33,1.33,0,0,0,.64-2.54L31.89,209c2.5.43,5,.95,7.5,1.32a1.4,1.4,0,0,0,.67-2.68l-2.66-1.08A62,62,0,0,0,44,207.64a1.46,1.46,0,0,0,.7-2.8,48,48,0,0,0-5.14-2.13c2.51.41,5,.88,7.49,1.11a1.53,1.53,0,0,0,1.47-2.21c.93.16,1.87.3,2.81.41,1.79.22,2.23-2.2.74-2.94-.86-.42-1.72-.8-2.59-1.16l.44.05a1.55,1.55,0,0,0,1.29-2.61l.17,0a1.59,1.59,0,0,0,.35-3l-.35-.32.13-.16a1.5,1.5,0,0,0,.27-1.33l1-.44a1.59,1.59,0,0,0,.93-1.67,2.25,2.25,0,0,0-.5-1,5,5,0,0,0,1-1,1.59,1.59,0,0,0-.3-2.17A3.72,3.72,0,0,0,51.91,183.07ZM20.69,208.92a1.52,1.52,0,0,0,1.21-.56c.91.27,1.82.55,2.72.85a28.69,28.69,0,0,0-3.07.09,1,1,0,0,0-.87.75c-1.4-.41-2.8-.81-4.2-1.18C17.87,208.83,19.28,208.85,20.69,208.92Z"/><path class="cls-2" d="M49.56,182.51c-.5,3.19.8,6.74-1.4,9.48a.5.5,0,0,0-.13.3c-3.21-1-7.29-.52-9.85,0-5.33,1-12.19,3.64-15.24,8.47a36.7,36.7,0,0,0-4-5.93,66.55,66.55,0,0,0-8.42-9.18.74.74,0,0,0-1.18.51c0,2.23.39,4.4.55,6.61-3-.48-5.92-1.58-8.92-2.33a.74.74,0,0,0-.72,1.27c1.75,1.63,2.72,3.74,4,5.74a.35.35,0,0,0,0,.22,25.67,25.67,0,0,0,2.53,3.75c2.4,3.21-1,5.1-2,7.37a17.36,17.36,0,0,0-.93,2.42,1.35,1.35,0,0,0-.72,1.4,2.22,2.22,0,0,0,.31.74A5.82,5.82,0,0,0,3.86,216c2,4.57,7.23,4.59,11.08,2.23,5.22-3.21,9.74-8.09,8.93-14.61a9.31,9.31,0,0,0-.39-1.62.57.57,0,0,0,.48-.3c4-6.58,20.22-12.58,26.36-6.27,4.65,4.76-4.77,11.26-8.16,13.51-5.79,3.84-13.4,4.44-20.09,3.54-.57-.08-.65.77-.1.87a29.31,29.31,0,0,0,20.78-3.2c.32,1.43,1.72,2.31,2.8,3.24a4.66,4.66,0,0,1,.7.78c-2,.45-5,1.73-4.88,4.15.09,1.7,2.19,2.38,3.58,2.09,2.25-.47,3.68-3.25,3.19-5.39-.56-2.46-3.4-3.35-4.8-5.23l.34-.22a35.45,35.45,0,0,0,5.65-4.47.32.32,0,0,0-.06.35c1,2.36,5.32,4.38,4,7.37a1.76,1.76,0,0,1-2.46.82c-1.38-.79,1-1.83,1.61-2.05.78-.3.27-1.48-.51-1.19-1.34.51-3.49,1.68-2.66,3.46.63,1.34,2.49,1.56,3.71,1a3.46,3.46,0,0,0,1.43-4.77,18.48,18.48,0,0,0-4.64-5.1.32.32,0,0,0-.41,0c2.45-2.51,4.17-5.56,3.09-8.86a3.65,3.65,0,0,0-.14-.35c3.5-4.55,2.59-10.11-1.76-13.8A.65.65,0,0,0,49.56,182.51ZM5,212.06a5.5,5.5,0,0,1,1.16,0,1.35,1.35,0,0,1,.92,1,2.35,2.35,0,0,0-.8-.5,1.77,1.77,0,0,0-.45,0,.59.59,0,0,0-.66.21,1.58,1.58,0,0,0-.31.27A7.93,7.93,0,0,1,5,212.06ZM21.84,202c3.14,6.55-3.51,12.86-8.73,15.56-2.21,1.14-4.86,1.13-6.56-.31a3.29,3.29,0,0,0,1-.69,4.26,4.26,0,0,0,.76-3.76,2.65,2.65,0,0,0-2.84-2.06h0A25.31,25.31,0,0,1,8.58,206c2.07-2.77-1-5.65-2.8-7.9a.73.73,0,0,0,0-.88c-1.07-1.62-1.89-3.26-3-4.76a45.15,45.15,0,0,0,7.79,1.89.75.75,0,0,0,.81-.84c-.06-1.86-.39-3.67-.54-5.5C15.16,192,19.32,196.73,21.84,202Zm23.81,16.71c-.81.7-2.45.84-3-.29-.77-1.69,3.15-2.78,4.09-3.14A3.24,3.24,0,0,1,45.65,218.71Zm6.18-23.83a6,6,0,0,0-2.63-2.15c2.18-2.53,1.4-5.74,1.51-8.8C53.81,187.08,54.06,191.07,51.83,194.88Z"/><path class="cls-2" d="M14,202.21a1.3,1.3,0,0,0-.48-.11l0,0a.62.62,0,0,0-.93.26l-.15.06a.6.6,0,0,0-.13.09l-.23.07a.63.63,0,0,0-.13,1.07l.26.15a1.45,1.45,0,0,0,.34,1.21,1.56,1.56,0,0,0,.86.65.55.55,0,0,0,.72-.3,5.85,5.85,0,0,0,.7-1.6,1.17,1.17,0,0,0-.13-1,1.14,1.14,0,0,0-.29-.29A1.41,1.41,0,0,0,14,202.21Z"/><path class="cls-2" d="M27.69,215.2c1.43,3,7,8.63,2.33,11.25-1.26.71-3.71,1.09-4.16-.79-.57-2.39,3.44-3.07,4.93-3.21.89-.09.68-1.44-.2-1.36-2.5.23-5.8,1.12-6.16,4.07-.25,2,1.77,3.41,3.58,3.31,2.55-.14,5.5-2.05,5.2-4.91-.33-3.19-2.82-6.42-4.91-8.72C28,214.55,27.51,214.81,27.69,215.2Z"/><path class="cls-2" d="M35.52,213.75c.68,1.23,2.32,3.06,3.13,4.8a.45.45,0,0,0-.54,0c-.69.47-1.79.7-2.54,1.11a4.24,4.24,0,0,0-1.94,1.87c-1.05,2.24,1.9,3,3.42,2.62,1.69-.44,4.07-2,3.3-4.06a21.64,21.64,0,0,0-4.48-6.54C35.73,213.37,35.4,213.53,35.52,213.75Zm2.25,8.69c-.7.4-1.89.86-2.66.4-1.19-.72.82-1.91,1.28-2.17.75-.41,2.1-.68,2.4-1.61a.32.32,0,0,0,0-.13C39.35,220.3,39.3,221.58,37.77,222.44Z"/><path class="cls-3" d="M117,144.4c-4.84-2.93-8.51-7.64-12.82-11.26A3.44,3.44,0,0,0,98.52,135c-1.34-1.29-2.7-2.55-4.11-3.77A3.26,3.26,0,0,0,89.25,135c-1.8-1.94-3.65-3.83-5.61-5.63-2.47-2.28-7,.78-4.85,3.74q1.67,2.31,3.28,4.64c-1.27-1-2.58-2-3.95-3-2.2-1.5-4.55.68-4.42,2.89-1.84.08-3.53,2.15-2.27,3.93,3.16,4.47,6.36,8.91,9.49,13.39,1.81,2.57,3.58,5.17,5.24,7.85.57.92,3,3.49,2.94,4.56a1.09,1.09,0,0,0,2,.55,5.74,5.74,0,0,0-.21-4.52c1.3,1.73,2.62,3.43,4,5.05s4.11.61,4.82-1.16l.94,1.21c2.2,2.79,6.1-.75,4.67-3.59-.52-1-1.06-2.07-1.6-3.1.56.65,1.11,1.31,1.68,2,2.45,2.76,6.41-.75,4.88-3.77-1.67-3.3-3.45-6.54-5.25-9.77.74.67,1.48,1.33,2.24,2,2.5,2.15,6.3-.19,5.35-3.17.38.24.76.48,1.15.69C117.35,151.69,120.4,146.49,117,144.4Z"/><path class="cls-2" d="M140.11,163.41c-1.69-3.74-6.36-5-8.91-1.64-2.11,2.77-2.71,7.09-2.2,10.79-6.67-2.95-12.21-7.41-18-11.85a18.21,18.21,0,0,0-.78-18.72,31.57,31.57,0,0,0-9.21-8.82c4.09-1.65,7.84-6.23,10.14-9.41,1.56-2.13,3.23-6.66,2.39-9.72,3.29-1.35,5.28-5,3.2-8.4a9,9,0,0,0-6.37-3.83.31.31,0,0,0-.26-.18,4.63,4.63,0,0,0-4.44,1.34,5.35,5.35,0,0,0-.89.89,1,1,0,0,0-.14.91c-1.25,3.73.81,9.4,5.57,9.8a4.53,4.53,0,0,1,.78,3.59c-.44,2.35-2.06,4.56-3.49,6.4a43,43,0,0,1-8,7.67,70.41,70.41,0,0,0-15.75-6.76A33.64,33.64,0,0,0,95,110.9c.12-.34.23-.69.33-1a6.75,6.75,0,0,0,6.48-7.6c-.33-3.92-3.91-7.28-7.71-6.45-4.26-9.4-14.66-16.6-24.72-14.48a1.31,1.31,0,0,0-.82.53,5,5,0,0,0-1.38-.11c.54-2,1.1-4,1.52-6.08.21-1,.61-2.36-.2-3.24a1.43,1.43,0,0,0-2.22.14,1.1,1.1,0,0,0,.22,1.58c0,.3,0,.6,0,.9A26.59,26.59,0,0,1,66,78.59c-.2,1.14-.49,2.35-.68,3.56a27,27,0,0,0-6.1,2.59c-.19-2-.6-4-.83-6-.12-1.13.06-2.59-.85-3.44a.92.92,0,0,0-1.43.19c-.67,1.06-.08,2.46.15,3.56A25,25,0,0,0,58,85.43a84.41,84.41,0,0,0-8.1,5.73c-.3.23-.59.48-.88.72A16.75,16.75,0,0,0,46.1,88.4c-1.61-1.52-3.26-3-4.84-4.56-.55-.55-1.09-1.12-1.59-1.73a1,1,0,0,0-.39-1.77c-1.25-.34-2.59,0-2.63,1.52s1.84,2.91,2.81,3.8c1.72,1.59,3.55,3.07,5.31,4.61.73.64,1.44,1.3,2.15,2a8.6,8.6,0,0,0,.84.76c-9.9,9.56-8.1,23.61,1.76,32.62-.08.06-.18.09-.26.15a5.77,5.77,0,0,0-2,3.06,7.2,7.2,0,0,0,1.9,6.51,6,6,0,0,0,6,2,6,6,0,0,0,3.08-2.37,10.52,10.52,0,0,0,1.68-3.44,24.05,24.05,0,0,0,11.47,0,24.73,24.73,0,0,0-.63,6.47c-6.79,3.4-21.08,21.3-13.08,27.06A7.17,7.17,0,0,0,59,172a9,9,0,0,0,13.43.41c3.37-3.56,2-8.46-1.63-11.15a7.69,7.69,0,0,0-5.73-1.36,6.66,6.66,0,0,0-3.38,1.73,6.87,6.87,0,0,0-2.17,1c-4.25-6.53,5.73-17,11.35-22,1.21,11.75,8.37,25.57,18.06,29.72-.49,7.91.21,15.79.86,23.68-5.07-1.38-10.83,3.15-8.31,8.9,3.67,8.36,13.78.19,14-5.77.06-1.56-2.09-1.6-2.55-.31A27.34,27.34,0,0,1,91.7,200c-3.08,6.31-8.36-8.17-1.26-2.47.86.69,2.68.36,2.49-1.07q-.86-6.56-1.44-13.13c-.3-3.23.36-9.55-.42-12.22,4.09,1.1,8.55.45,13.16-2.75a21.86,21.86,0,0,0,5.28-5.18l.55,1.74c0,.18.28.18.27,0,0-.75,0-1.5,0-2.24a56.85,56.85,0,0,0,20.34,13.77,1.2,1.2,0,0,0,.32.06c1.11.63,3.63-.69,4.46-1.37C139,172.23,142.22,168.05,140.11,163.41Zm-28.17-51.68a4.72,4.72,0,0,0-2.16-.73.77.77,0,0,0-.84.69c-2.08-.94-2.94-3.86-2.29-6.18a8.65,8.65,0,0,1,3.51-.82,6,6,0,0,1,3.7,1.85C116,108.68,114.25,111,111.94,111.73Zm-51,53.21a1.2,1.2,0,0,0,1.36.17A14.84,14.84,0,0,1,63,168s0,0,0,0c-.07-1.08-.22-2.17-.25-3.25a7.39,7.39,0,0,1,2.47-1.86,4.74,4.74,0,0,1,3.55.61c2.5,1.35,3.5,4.17,1.91,6.59-2.15,3.28-6.64,3-9.28.62a5.46,5.46,0,0,1-1.87-3.8,2.75,2.75,0,0,1,.14-.88A1.17,1.17,0,0,0,60.9,164.94ZM97.28,99a5.12,5.12,0,0,1,2,3.36c.66,3-1.13,4.71-3.5,5.42a19.72,19.72,0,0,0-.72-9.24A3.43,3.43,0,0,1,97.28,99Zm-41.1,34a3.85,3.85,0,0,1-1.67,1.63c-1.26.51-2.53-.11-3.55-1.14a4.86,4.86,0,0,1-1.42-4.06,4.31,4.31,0,0,1,1.18-2.21,4,4,0,0,0,.28-.3c.76.6,1.55,1.18,2.39,1.72a22.52,22.52,0,0,0,3.7,1.93A12.9,12.9,0,0,1,56.18,133Zm-1.27-7c-.62-.33-1.2-.7-1.77-1.08a.13.13,0,0,0-.16-.17l-.08,0c-10.41-7.09-12-22.28-2.19-30.48.82-.69,9.32-6.63,14.41-9.51a.64.64,0,0,0,1.25.09c.07-.29.15-.58.22-.87a8.17,8.17,0,0,1,1.79-.74,1.55,1.55,0,0,0,1.8,1c14.11-3,25,13.51,21.83,25.85-1.63,6.26-6.05,11.23-11.59,14.42a1.35,1.35,0,0,0-1.37.74C71.47,129.15,62.13,129.78,54.91,126Zm48.86,38.8c-4.15,4.24-8.76,4.4-13,2.58a.85.85,0,0,0-.73-.36,28.6,28.6,0,0,1-10-9c-5.42-7.62-8.31-17.94-6.29-27.16a32.37,32.37,0,0,0,6.8-3.13C96.92,132.33,121.71,146.47,103.77,164.79Zm31.06,7a14.26,14.26,0,0,1-2.45,1.93l0,0c-.43-3.36-.11-13.55,4-10.24C139.56,166.12,137,169.59,134.83,171.79Z"/><path class="cls-2" d="M51.86,88.42c-.59-3.74-2.65-7.37-4.22-10.77a.85.85,0,0,0-1.33-.17c-1,1.3.08,2.83.76,4a37.79,37.79,0,0,1,3.55,7.29A.64.64,0,0,0,51.86,88.42Z"/><path class="cls-2" d="M86,100.8c-.58-1.14-2.17-.48-2.23.63-.38,7.39-4,14.48-11.64,16.73-4.19,1.24-8.65-.41-12.32-2.31a41.82,41.82,0,0,1-4-2.58c-1.77-1.19-2.47-1.2.38-.83a.69.69,0,0,0,.55.65.76.76,0,0,0,.38-1.47.7.7,0,0,0-.86.45c-1.16-.17-3.06-.46-3.23-.5a.36.36,0,0,0-.4.52A19.69,19.69,0,0,0,76,119.87C81.89,117.55,89.18,107.13,86,100.8Z"/><path class="cls-2" d="M64.74,104.65l-.48.17-.11.05s0,0,0,0a.15.15,0,0,0,0-.06c-.08-.14-.16-.29-.23-.44a9,9,0,0,1-.37-1.06c-.28-.91-.51-3.71-1.67-4.09-.45-.39-.93.09-1,.66,0,0,0,0,0,0a5.56,5.56,0,0,0,.06,1.78,18.91,18.91,0,0,0,.57,3.25A3.87,3.87,0,0,0,63,107.38a2.15,2.15,0,0,0,3-1.45A1.07,1.07,0,0,0,64.74,104.65Z"/><path class="cls-2" d="M71,100.65c-.5-1.05-1-2.11-1.46-3.18A11.78,11.78,0,0,0,69,96.34a1.27,1.27,0,0,0-.44-.48l-.08,0a.6.6,0,0,0-.16-.19.76.76,0,0,0-1,.28.62.62,0,0,0-.12.34,2.68,2.68,0,0,0-.11.5,2.64,2.64,0,0,0,.13.68,26.45,26.45,0,0,0,1.07,3c.37,1,.76,2,1.15,3s.66,2.13,1.86,2.11C73.84,105.44,71.43,101.65,71,100.65Z"/><path class="cls-4" d="M151.93,1.79c-2-1.06-4.56.1-4.69,2.16-.93-.63-1.85-1.29-2.74-2C142.07,0,139.09,3,140.11,5.6c.46,1.15.87,2.32,1.28,3.49-2-.91-4-1.72-6.06-2.48a2.9,2.9,0,0,0-3.22,4.55,17.28,17.28,0,0,1,1.63,2.47c-1.19-.35-2.39-.69-3.58-1.06-2.92-.92-4.57,3.36-1.67,4.48A34.83,34.83,0,0,1,133,19.46a1.9,1.9,0,0,0,2-.11,23.92,23.92,0,0,1,3.11,1.48A2.65,2.65,0,0,0,141.69,17a17,17,0,0,1-1.24-2,28.23,28.23,0,0,1,4.67,2.81c2.36,1.79,5.27-1,4.24-3.51-.36-.87-.67-1.76-1-2.65a36,36,0,0,1,3.83,2.93c2.23,2,5.31-1.11,4.25-3.52l0-.08a2.21,2.21,0,0,0,.34-2.2C155.67,5.85,154.79,3.3,151.93,1.79Z"/><path class="cls-4" d="M233,16.13c-2.86-3.45-5.61-7-8.63-10.31a3.28,3.28,0,0,0-4.71-.48c-.68-.55-1.36-1.08-2.07-1.6A3.47,3.47,0,0,0,212.5,8l.33.72c-.78-.56-1.57-1.11-2.36-1.66a3.18,3.18,0,0,0-4.29.47c-.67-.55-1.34-1.09-2-1.61-2.19-1.66-5.76,1-4.29,3.56.71,1.22,1.46,2.44,2.29,3.6a3.24,3.24,0,0,0-3.54,1.85c-1.17-1.39-2.28-2.83-3.33-4.34-1.88-2.68-5.74-.64-5.87,2.09-.62-.5-1.24-1-1.84-1.55-1.92-1.74-4.37-.12-4.94,2a28.48,28.48,0,0,0-4.33-3.56,2.2,2.2,0,0,0-3.39,1.9A3.27,3.27,0,0,0,170.72,13c-.83-.49-1.65-1-2.45-1.54a3.16,3.16,0,0,0-4.91,2.24c0,.09,0,.18,0,.27l-.6-.14c-2.37-.45-4.08,2.37-3.15,4.38.17.35.32.7.47,1-.66-.18-1.31-.37-2-.59a3.09,3.09,0,0,0-3.86,4.14c.19.48.36,1,.53,1.45-2.25-.57-4.27,2.54-2.72,4.66,1.23,1.7,5.24,5.46,7.58,4.14l0-.07a2.17,2.17,0,0,0,1.16-1.43,3,3,0,0,0,1.78-4.83A6.12,6.12,0,0,1,162,26c.44.12.87.23,1.3.36A3.08,3.08,0,0,0,167.37,23a1.64,1.64,0,0,0,0-.22c1.66.54,3.18-.81,3.6-2.39q.41.32.78.66A3.16,3.16,0,0,0,177,17.74c-.41-1.28-.37-2.66-.66-4,4,4.48,7.71,9.13,11.44,13.86,2.18,2.77,6.05-.12,5-3.13-.19-.53-.37-1.06-.55-1.59,1,.74,2,1.49,3,2.28a3,3,0,0,0,3.88-.13A47.8,47.8,0,0,0,203,28.13c2.79,2,6.24-1.12,5-4.14-.93-2.24-1.46-4.68-2.3-7a1.63,1.63,0,0,0,1.81,0c1.88,1.85,3.75,3.73,5.63,5.59a3.23,3.23,0,0,0,4.84-.07c.22.28.44.55.65.85,1.84,2.56,6.35.69,6-2.31.31.43.61.87.92,1.31a2.84,2.84,0,0,0,4.12.85c.33.38.66.75,1,1.12,2.59,2.84,8-.11,6-3.76A15.3,15.3,0,0,0,233,16.13Z"/><path class="cls-5" d="M206.24,99.21a3.59,3.59,0,0,0,2.83-4.95,61.78,61.78,0,0,0-11-15.44,3.4,3.4,0,0,0-1.63-5.09,47.45,47.45,0,0,1-7.33-3.43A3.43,3.43,0,0,0,184,71.6c-1.06-1-2.12-1.93-3.2-2.87-2.59-2.28-7,1.37-5.23,4.33q1.4,2.39,2.94,4.63c-2.3.28-3.85,3.41-2.29,5.73,2,3,4.16,6,6.35,8.94-1.53-.9-3.09-1.75-4.73-2.51-3.08-1.43-5.64,2.76-3.66,5.18,3.08,3.74,6.2,7.45,9.32,11.16a49.23,49.23,0,0,0-5.84-3.69c-3.16-1.68-6.49,1.58-4.29,4.67,3.16,4.44,6.7,8.66,10,13a111.22,111.22,0,0,0-10.53-6.87c-3-1.69-6.38,1.6-4.17,4.53,2,2.7,4,5.45,5.91,8.2a43.6,43.6,0,0,0-6.81-3.38c-2.5-.94-5.25,2.4-3.16,4.45a46.64,46.64,0,0,1,5.76,7.2,13.17,13.17,0,0,0-5.08,1.84c-1.61,1-.55,3.5,1.23,2.69,2.76-1.25,5-1.62,7.56.6,2.31,2,4.78-1.47,3.34-3.63-.46-.68-.9-1.37-1.34-2.07,2.78,1.77,5.55,3.55,8.49,5.05s4.95-2.52,3.3-4.66-3.2-4.29-4.74-6.48c3.17,2.31,6.33,4.63,9.59,6.82,2.47,1.65,5.88-.95,4.54-3.76a71.82,71.82,0,0,0-4.81-8.37,102.32,102.32,0,0,0,12.06,10.05c3.12,2.11,6.32-1.76,4.28-4.65-4-5.64-8.19-11.07-12.53-16.42,6.28,6.27,12.2,13,18.78,18.46,2.13,1.75,4.81-.18,5.1-2.42,2.61.51,5.56-1.6,4-4.61C219.52,113.84,213,106.41,206.24,99.21Z"/><path class="cls-2" d="M218.88,1.92c-7.84-2.17-20,2.59-17.09,12.22C197,10.19,191,8.3,184.16,7.4c-1.21-.16-16-1.57-14.77,2.55a11.27,11.27,0,0,0-9.07,3.58C158.67,2,148.22-3,137.22,1.88c-4.32,1.94-8.65,5.79-9.57,10.63-1.12,5.92,3,10.45,7.65,13.45a1.5,1.5,0,0,0,2.33-1.07,17.62,17.62,0,0,1,1.86-6.38,14.11,14.11,0,0,0,2.73,6.41,1.5,1.5,0,0,0,2.52-.43c2-4.29,5.46-10.39,10.56-5.77a1.12,1.12,0,0,0,1.28.23c-3.62,7.38-4.68,18.17-2.64,28-3.05,0-6.77.87-8.44,3.53-1.4,2.23-.75,4.84.59,6.91A8.16,8.16,0,0,0,151.81,61a4.84,4.84,0,0,0,3.29-.92c.85-.6,2.26-2.46,1.76-3.57a1.25,1.25,0,0,1-.2-1s0-.08,0-.12c3.66,8.08,10.08,14.17,19.71,14.83-.49,7.42-.81,14.8-1.42,22.07-5.53-.78-11.39.73-16.93.8a18,18,0,0,1-9.16-1.86c-3.83-2.19-3.85-6.31-4.71-10.08a6.78,6.78,0,0,0,3.76-4.26c1-3.58-2-7-5.3-8A5.76,5.76,0,0,0,137.41,70a.71.71,0,0,0-1.17,0,6.21,6.21,0,0,0-1,3,6,6,0,0,0-.25,2.93,1,1,0,0,0,1,.9,10.36,10.36,0,0,0,2.66,3.67,4.93,4.93,0,0,0,2.86,1.19c-1,7.41,4.82,12.95,11.76,14.12s14.45-.73,21.53-1.52c-1.29,14.17-3.85,28-11.12,41.05a1.56,1.56,0,0,0,.72,2.33,64.16,64.16,0,0,0,22.68,2.15,131.53,131.53,0,0,0,.34,18.51c-6.09-.21-14.91.18-15.63,6.33-1.08,9.18,14.75,5.26,19.14,4.69a1.47,1.47,0,0,0,1.21-1.69,48.7,48.7,0,0,1-1.41-6.57,4.66,4.66,0,0,0,.77-.47,1.21,1.21,0,0,0-.65-2.12l-.46,0c-.69-6.24-.68-12.53-1.51-18.8a87,87,0,0,0,13.31-2.47s0,0,0,.07c-.68,3.07,1,7,1.77,9.9,1.33,5.41,2.75,10.8,4,16.23a1.45,1.45,0,0,0,1.63,1.19c6.36-.72,23-3.74,22.61-12.45-.22-5.11-7-5.21-10.46-4.56a33.21,33.21,0,0,0-13.44,6c-.62-2.27-1.26-4.54-1.9-6.81-.84-2.94-1.32-7.39-3.48-9.73l0,0a148.61,148.61,0,0,0,25.88-10,1.58,1.58,0,0,0,.77-2c-2-5.43-5.55-9.41-9.33-13.71C215,105.37,211.65,97.83,207.8,91c-4.25-7.53-8.82-17.73-15.24-23.86a33.63,33.63,0,0,0,15.13-13.77c3.88,1.08,8.33-.78,9.58-4.89a6.06,6.06,0,0,0-.89-5.54,4.86,4.86,0,0,0-4.63-1.52,31.69,31.69,0,0,0-.95-12.81c1.27-.36.95-2.26-.32-2.52-.18,0-.37-.05-.55-.09a33,33,0,0,0-1.44-3.32,26.22,26.22,0,0,0-6.1-8A.6.6,0,0,0,203,14c-1.85-9.2,10.45-11.37,16.88-8.88,7.39,2.85,11.77,14.3,11,22.25-4-3.94-8.06-7.75-12.4-11.31a1.42,1.42,0,0,0-2.21,1.37,12.87,12.87,0,0,1,.08,4.37c-3.1-4.45-8.84-11.42-12.41-7.74A1.16,1.16,0,0,0,205.13,16c3.67-1.11,8.83,7.16,10.42,9.71a1.43,1.43,0,0,0,2.61-.09,12.9,12.9,0,0,0,1.19-5.11c3.93,3.39,7.68,7,11.33,10.67.67.68,2.11.7,2.41-.41C235.82,20.47,229.83,5,218.88,1.92ZM156.34,54.64c-.06.32-.13.65-.22,1-.14.51-.68.34-.94.77a7.36,7.36,0,0,1-.88,1.22,2.66,2.66,0,0,1-.9.68l-.21.09h0l-.07,0c-.08,0-.42,0-.49.06a5.23,5.23,0,0,1-4-2.37,6,6,0,0,1-1-2.06,2.92,2.92,0,0,1,.14-1.87,3.8,3.8,0,0,1,2.18-1.7,17.23,17.23,0,0,1,4.68-.89A40.54,40.54,0,0,0,156.34,54.64ZM139.73,78.25a7.09,7.09,0,0,1-2.15-3.18c.78-2,1.34-4,4.11-3.61A4.57,4.57,0,0,1,145.41,76C145.15,78.84,141.77,79.82,139.73,78.25Zm49.16,88.39c-1.95.29-3.9.63-5.86.85a23.87,23.87,0,0,1-5.14,0c-3.14-.3-4.19-3.52-1.16-5s7.55-.41,11.15-.76C188.15,163.43,188.48,165,188.89,166.64Zm20.38-10.07a30.67,30.67,0,0,1,8.27-4.58c1.61-.68,14.45-4,11.35,1.84-2.62,4.91-12.77,6.88-18.53,7.72q-.62-2.45-1.28-4.87C209.14,156.63,209.21,156.62,209.27,156.57ZM143.25,21c-1.08-2.19-1.16-4.28-1.13-7a1.5,1.5,0,0,0-2.69-1,23.39,23.39,0,0,0-4.36,9.12c-3-2.33-5.42-5.49-4.4-9.49,1-3.76,4.48-6.46,7.77-8.1,9.88-4.95,18.44.48,20.44,10.63a20.32,20.32,0,0,0-1.4,2.11,1.52,1.52,0,0,0-.49-1C151.16,11,146.32,15.73,143.25,21Zm28-9a10.91,10.91,0,0,0,3.27,5.53c-.17,7.87-12.65,14.24-19.25,17C155.55,22.86,160.43,12.39,171.29,12ZM205,92.29c5.79,9.83,11.05,18.46,18.19,27.34,5.08,6.32.05,6.67-5.17,8.93A126.59,126.59,0,0,1,201,134.47a66.15,66.15,0,0,1-33.78.69c10.44-20.19,11.45-42.45,11-64.87h0a34.85,34.85,0,0,0,11.41-2,1.63,1.63,0,0,0,.42.61C196.18,74.36,200.89,85.3,205,92.29Zm9.46-47.45a3.59,3.59,0,0,1,.27,3.24,5,5,0,0,1-2.83,3.07,5.57,5.57,0,0,1-3.19.31,32.67,32.67,0,0,0,2.54-7.23C212.4,44,213.64,43.85,214.47,44.84Zm-5.35-10a25.37,25.37,0,0,1-3.19,16.07h0a.76.76,0,0,0-.72,1.3c-7.1,11.34-22,18.43-34.88,13.78-9.14-3.3-14.68-16.77-15-29.42,4-.78,19.33-9.54,22.36-16.23,1.83,1.43,3.69,2.64,5,3.57,6.77,4.68,16.64,5.57,25,5.06A35.79,35.79,0,0,1,209.12,34.8ZM191,24.31a36.77,36.77,0,0,1-12.84-6.93A4.11,4.11,0,0,0,176,14.81a1,1,0,0,0-.54-.14,10.3,10.3,0,0,1-2.27-4.49c3.61.27,17.69,1.43,19.32,1.84,6.42,1.63,11.1,7.31,13.88,13.55C201.28,25.17,196.09,25.61,191,24.31Z"/><path class="cls-2" d="M196.8,40.42c-.19,9-5.71,13.19-14.27,15.21a24.15,24.15,0,0,1-11.37,0c-3.9-1-4.42-3.41-6.34-6.34a.45.45,0,0,0-.73,0c-4.91,9,13.43,10.16,17.74,9.53C190,57.66,203.64,50.3,199.27,40A1.3,1.3,0,0,0,196.8,40.42Z"/><path class="cls-2" d="M176.24,36.78c-1.55.7-.22,2.73.18,3.74a34.09,34.09,0,0,0,2,4.6.92.92,0,0,0,1.68-.77q-.77-2.4-1.5-4.81C178.27,38.51,177.92,36,176.24,36.78Z"/><path class="cls-2" d="M182.26,33.6a1.12,1.12,0,0,0-1.89.32c-.5,1.14.36,2.81.74,3.92A21.88,21.88,0,0,0,183,42.41c.43.71,1.81.49,1.53-.46-.41-1.42-.9-2.82-1.26-4.26C182.91,36.45,183.07,34.62,182.26,33.6Z"/><path class="cls-2" d="M223.66,47.9c-3.26,1.48-7.37,6.81-5.36,10.49a1.15,1.15,0,0,0,1.63.39,5.12,5.12,0,0,0,1,.87.32.32,0,0,0,0,.09c-1.17,5.19-.44,10.05-2.69,15.17-.59,1.36-9.84,13-11.21,10.62a.37.37,0,0,0-.67.31c.1.31.19.63.29.94a.9.9,0,0,0,.77.74c4.69,1,10.5-6.85,12.54-10.18,2.72-4.44,4.49-11.57,3.26-16.87,4,.64,9.16-2.18,8.76-7.57A5.75,5.75,0,0,0,223.66,47.9ZM225.88,58c-2.47.95-4.1-.29-5-2.17.1-.4.22-.78.35-1.16a4.52,4.52,0,0,1,1.71.45c.15.06.23-.17.09-.24-.56-.26-1-.57-1.53-.85a7.66,7.66,0,0,1,1.91-2.65c2.1-1.9,4.5-1.93,5.67.85C230.12,54.84,228.2,57.13,225.88,58Z"/><path class="cls-6" d="M324.3,105.1l-2.35-.16a2.4,2.4,0,0,0-1,.16c-.85-1.18-1.69-2.36-2.49-3.58-1.2-1.83-3.95-.61-4.27,1.24a84.32,84.32,0,0,1-10.49-19.18c-1.1-2.9-5.41-.78-4.33,2.1.69,1.82,1.44,3.6,2.24,5.38C300.31,89,299,87,297.67,85s-4.68-.21-4.14,2a113.59,113.59,0,0,0,5.34,16.12,85.25,85.25,0,0,0-6-7.45c-1.43-1.58-4.85-.4-4.07,2,1,3,2.09,6,3.27,8.9a45.24,45.24,0,0,0-8.21-8,1.23,1.23,0,0,0-.72-.25c-.6-.52-1.21-1-1.85-1.48-1.81-1.33-4.59.87-3.4,2.91.23.41.45.82.65,1.24l-1.24.78h0a2.29,2.29,0,0,0-1.78,3.69,44.82,44.82,0,0,1,4.68,7.7c1.22,2.31,4.8.66,3.8-1.66a2.35,2.35,0,0,0,2.06-2.5,76.28,76.28,0,0,1,5,9.79c.77,1.75,1.48,3.52,2.15,5.3a45.45,45.45,0,0,0-5.94-6.77c-1.57-1.45-4.55-.54-4,1.93a78.7,78.7,0,0,0,2.82,9.85c-1.45-.9-2.94-1.74-4.5-2.51-1.79-.89-3.57,1.44-2.74,3a16.46,16.46,0,0,1,.8,1.89c-1.07-.9-2.13-1.82-3.13-2.81s-2.92-.63-3,1a29,29,0,0,0,.16,3.63,4.38,4.38,0,0,0-.91-.41c-.7-.2-1.28.76-.61,1.18.86.54,1.68,2.1,2.41,2.83a1.22,1.22,0,0,0,2.11-1c-.06-.73-.08-1.43-.07-2.13,1.71,1.68,3.5,3.27,5.08,5.08a2.06,2.06,0,0,0,3.56-1.71c-.25-1.2-.46-2.39-.7-3.58a60.4,60.4,0,0,1,5.39,4.11c1.83,1.57,4.26-.94,3.36-2.88s-1.81-4.15-2.59-6.26c2.73,3.89,5.19,8,8,11.82,1.31,1.79,4.66.26,4-1.92-1.74-5.58-3.4-11.63-5.52-17.51,3.78,6.54,7.48,13.12,12.68,18.66,1.36,1.45,4,.31,4-1.38l.33.57a2.37,2.37,0,0,0,4.27-2.07c-3.72-10.78-9-21-13.52-31.44,1.7,2.63,3.45,5.23,5.32,7.75,1.46,2,4.65.26,4.17-2h0q1,1.27,2.07,2.52a2.48,2.48,0,0,0,4-.52l.27.4c1.38,2.15,5.55,1.38,4.67-1.55-.18-.58-.31-1.17-.44-1.76C327.19,109.25,327.16,105.33,324.3,105.1Zm-23.93,8.84c3.95,6.53,7.45,13.37,11.11,20.06A202.71,202.71,0,0,1,300.37,113.94Z"/><path class="cls-2" d="M310,40.72a.34.34,0,0,0-.41-.26.49.49,0,0,0-.24.18c-.08,0-.19,0-.32.13a9.11,9.11,0,0,0-.72.92c-.8,1.09-1.59,2.18-2.4,3.26s-1.56,2.06-2.38,3c-.22.27-.48.52-.71.79a.69.69,0,0,0-.35.25c-.61.82-.14,2.14,1,1.63,1-.44,1.69-1.79,2.3-2.64,1.1-1.52,2.14-3.08,3.15-4.66C309.49,42.58,310.27,41.63,310,40.72Z"/><path class="cls-2" d="M312.46,50.51c.73-1.19,4.54-7,2.66-8.14a.36.36,0,0,0-.44,0,4,4,0,0,0-.65,1.38,24.37,24.37,0,0,1-1.6,3.24c-.6,1.08-1.27,2.12-2,3.14a13,13,0,0,1-.78,1c-.11.11-.2.22-.3.34l0,0a.82.82,0,0,0-.57.51,1,1,0,0,0,1.23,1.3C311.17,53,311.86,51.49,312.46,50.51Z"/><path class="cls-2" d="M321.31,68.58c-.1-1-1.58-.9-1.82,0-1.77,6.4-9.67,7.51-15.15,6.13A13.84,13.84,0,0,1,298,70.55a18.19,18.19,0,0,1-2.31-3.4c-.11-1.14-.45-1.57-1-1.3,0-.34.07-.69.1-1a.77.77,0,0,0-.9-1l-.38,0a.81.81,0,0,0-.6,1c1.82,6.37,6.8,12.07,13.79,12.61C312.19,77.92,322.06,75.75,321.31,68.58Z"/><path class="cls-2" d="M306,63.29c-1.35-1.07,1.12-4.18,1.7-5.1a.6.6,0,0,0-.92-.76c-1.36,1.21-5,6.85-1.19,7.25C306.36,64.76,306.47,63.7,306,63.29Z"/><path class="cls-2" d="M311.49,65.49a11.45,11.45,0,0,0,0-2.68,23.35,23.35,0,0,1,.35-3.34.71.71,0,0,0-1.37-.4,12.74,12.74,0,0,0-.73,3.4c-.11.92-.45,2.35,0,3.2A1,1,0,0,0,311.49,65.49Z"/><path class="cls-2" d="M335.83,84.56c-2.06-.36-4-3.5-5.21-5-1.05-1.26-2.59-3.85-4.48-3.88a.43.43,0,0,0-.13.83c.78.19,1.74,1.91,2.19,2.5,1.07,1.39,2.08,2.82,3.17,4.2s2.91,3.9,4.75,2.55A.73.73,0,0,0,335.83,84.56Z"/><path class="cls-2" d="M339.36,77a49.12,49.12,0,0,0-4.18-4.67c-.48-.51-2.73-3.4-3.7-2.84-.36.21-.16.85.27.71-.26.08-.16,0,.08.33s.56.73.85,1.08q1.24,1.47,2.46,3c1,1.22,2,3,3.46,3.64C339.37,78.53,339.72,77.51,339.36,77Z"/><path class="cls-2" d="M282.55,67.93c-1.22-1.43-3.06.18-4.11,1s-1.95,1.68-2.88,2.56a11.07,11.07,0,0,0-1.15,1.12c-.16.22-.55.63-.3.48a.94.94,0,0,0-.23.77.82.82,0,0,0,.95.58c1.21-.14,2.34-2.15,3.07-2.94.5-.55,3.79-4.15,4.47-3.41A.12.12,0,0,0,282.55,67.93Z"/><path class="cls-2" d="M345.56,106.53a4.23,4.23,0,0,0-6.91-2.72,6.12,6.12,0,0,0-2.39,2.26,4.12,4.12,0,0,0-.5,2.9c-1.32-.22-2.64-.47-3.95-.73s-2.34-.48-3.52-.68a4.19,4.19,0,0,0-.48-.06,51.42,51.42,0,0,0-1.83-5.94,1.22,1.22,0,0,0-1.13-.92c-1.69,0-13.44.16-13.73-1.88-.61-4.2-.73-8.44-1.78-12.55a25.35,25.35,0,0,0,10.47-4.58,20.6,20.6,0,0,0,2,4.1c1.38,2.23,6.08,8.94,9.45,7.06a.84.84,0,0,0,.05-1.44c-.89-.68-2.13-.82-3.11-1.45a17.27,17.27,0,0,1-3.77-3.72c-.4-.49-2.51-4.15-3.36-5.55,11-9,15.55-26.38,2.24-37.31-2.91-4.88-10.85-5.83-18.12-4.82a0,0,0,0,1,0,0,.29.29,0,0,0-.34-.06,1.38,1.38,0,0,0-.25.17c-4.8.74-9.23,2.31-11.64,4.15A25.79,25.79,0,0,0,285,73a.31.31,0,0,0-.12,0c-2.08,1.32-4.12,2.71-6.12,4.15-.85.6-1.66,1.26-2.45,1.93a.69.69,0,0,0-1.13.3c-.17.63-.85.74-.87,1.49a.91.91,0,0,0,.63.87l.32.12a.87.87,0,0,0,.87-.2c2.8-3,6.22-5.2,9.24-7.92A24,24,0,0,0,287,76.68a3.28,3.28,0,0,1-.24.37c-1.2,1.68-2.43,3.31-3.76,4.89a41.6,41.6,0,0,1-7.55,6.84c-1,.85.37,2.32,1.41,1.52a47.68,47.68,0,0,0,7.36-7,60.46,60.46,0,0,0,3.67-5.36,22.28,22.28,0,0,0,6.28,5.47c.58.34,1.17.65,1.76.93-1.89,1.46-1.21,6.6-1.32,8.55-.23,4.18-1.71,2.82-5.61,2.72a105.07,105.07,0,0,1-10.93-.63,1.18,1.18,0,0,0-1.17.85c-.56,2.06-1.52,4.46-2.22,6.9a.66.66,0,0,0-.2,0,5.66,5.66,0,0,1-3.61-1.45c-.75-2.8-3.78-5-6.67-4.28a1,1,0,0,0-.56.38,5.08,5.08,0,0,0-3,2c-2,2.57-.65,5.75,2.17,6.91,3.27,1.33,7.69,1.12,8.22-3.08a5.58,5.58,0,0,0,.52.32c.76.43,1.71.56,2.43,1a.94.94,0,0,0,.24.13,11.61,11.61,0,0,0,.1,6.44c1.14,3.09,6.93,2.39,10.62,2.19-4.91,7.48-10.38,14.57-14.86,22.32a1.22,1.22,0,0,0,1,1.84,91.26,91.26,0,0,1,12.2,1.55c-4.06,6.3-7.56,13-11.48,19.34-.31,0-.64,0-1,0-2.77-6-9.75-14.68-13.71-8.64-4.9,7.48,5,10.36,12.16,10.87a5.37,5.37,0,0,1,.43,1.44c.07,1.06,1.51,1.71,2.12.63.39-.67.76-1.35,1.14-2l.88-.08c1.16-.13,1.09-1.51.32-2.07,3.54-6.38,7-12.83,10.51-19.22,13,2.48,26.16,6.12,39.07,1.92a1.24,1.24,0,0,0,.79-1.74,141.34,141.34,0,0,0-11.34-22.27c4.86-.23,10.45,1,14.3-2.43,1.12-1,1.11-3.29.68-5.71a36.91,36.91,0,0,0,3.61,1.08c1.07.27,3.4,1.25,5,1.21a5.94,5.94,0,0,0,5.27,2.61C345.21,113.45,346,109.06,345.56,106.53Zm-82.17-2.39c-2.9-1.14-1.52-4.43.6-5.23a1.08,1.08,0,0,0,.42.11,4.47,4.47,0,0,1,3.15.94,3.76,3.76,0,0,1,1.21,2.74C268.81,105.62,265.12,104.82,263.39,104.14Zm-5.13,48.15c1.17-5,6.83,1.12,9.7,5.84C263.14,157.71,257.34,156.21,258.26,152.29Zm30.86-102c2.16-3.68,7.61-7,13.59-8.78a9.3,9.3,0,0,1-.61,1.1,25.41,25.41,0,0,1-5.36,5.78c-1,.81.37,2.27,1.33,1.45a30.25,30.25,0,0,0,5.41-6.37A19.14,19.14,0,0,0,305,41c6.18-1.37,12.56-.93,16.21,2.63a1.27,1.27,0,0,0,.41,1.41c.56.46,1.08.93,1.58,1.41.14.3.27.6.39.93a.49.49,0,0,0,.71.25C337.69,62.7,321,87.35,301.15,83.42,285.64,80.35,281.9,62.57,289.12,50.31Zm21.73,64.59a1.2,1.2,0,0,0-.79,1.73,153.33,153.33,0,0,1,11.72,22.48c-16.07,4.53-32.49-2.72-48.67-4,4.65-7.72,10.19-14.85,15-22.46a1.21,1.21,0,0,0-1-1.83,67.14,67.14,0,0,0-7.9-.06c-5.26-.05-2.25-6.84-1.54-9.32,1.07-3.8.71-4,4.71-3.71,4.28.31,8.57.09,12.85.43a1.1,1.1,0,0,0,1.12-1.06c.19-2.27-1.1-10.24.5-11.81a.65.65,0,0,0,.22-.48A21.69,21.69,0,0,0,307,86.48c1.28,4.79,1.41,9.81,2.13,14.7a1.16,1.16,0,0,0,1.12.92c4.07,0,8.07.6,12.12.9,1.25-.72,1.88-.46,1.88.77.41,1.4.69,2.85,1,4.28C327,117.06,316.62,114.07,310.85,114.9Zm31.27-3.33c-2,1.28-4.86-2.23-4.36-4.09a3.36,3.36,0,0,1,1.43-1.9c1.76-.54,3.54-1.28,4.19,1.1C343.78,108.16,343.56,110.67,342.12,111.57Z"/><path class="cls-2" d="M339.88,155.39c.34-4-4.42-4.84-7.15-3.85a16.44,16.44,0,0,0-8,7c-1.35-2.9-2.79-5.78-4.24-8.63-1.17-2.27-2.13-4.84-4.2-6.39a.45.45,0,0,0-.62.14l0,.05c-.32.4.33.91.68.57-1.21,1.19,2.18,6.07,2.88,7.53,1.59,3.3,3.16,6.61,4.56,10,.41,1,1.8.65,2.09-.21,1.2-3.58,5.52-7.9,9.39-8.26,2.67-.25,2.18,3,1,4.27a11.37,11.37,0,0,1-2.64,1.92c-.53.32-4.81,2.38-5,1.17a1,1,0,0,0-1.91,0C325.37,166.18,339.38,161.13,339.88,155.39Z"/><path class="cls-1" d="M400,167.06c.06-.41.09-.83.12-1.24a10.59,10.59,0,0,0,.2-3.14,2.88,2.88,0,0,0-.34-1c0-.25,0-.5-.08-.75a2.89,2.89,0,0,0-3.67-2.4c0-.21.07-.42.11-.63.58-2.84-3.33-4.18-5-2.11l-1.57,2c.59-2-1.86-4-3.66-2.58-3,2.37-6.21,5.77-5.78,9.9a1.53,1.53,0,0,0,.95,1.26l.35.57a.37.37,0,0,0,.1.16,1.34,1.34,0,0,0-.07.18c-1.05,2.31,2,4.87,4,3.14a53.59,53.59,0,0,0,3.92-3.77,2.28,2.28,0,0,0,0,.26,2.8,2.8,0,0,0,5.26,1.62A2.92,2.92,0,0,0,400,167.06Z"/><path class="cls-3" d="M402.77,154.63c.14-1.61,0-3.55-1.71-4.28a2.9,2.9,0,0,0-2.89.37,9.23,9.23,0,0,1-.75-1.51,2.61,2.61,0,0,0-3.93-1.12,5.34,5.34,0,0,0-1.08,1.25,1.29,1.29,0,0,1-.06-.12,2.14,2.14,0,0,0-1.66-1c.1-.45.19-.9.29-1.36a2.9,2.9,0,0,0,3.42-2c.19-.8.42-1.58.66-2.35a2,2,0,0,0,2.61-.15c1.19-1.13,2.73-1.48,4.1-2.31,2.31-1.38.37-4.28-1.71-4.29h-.22a1.85,1.85,0,0,0-1.55.79c-.4.19-.8.35-1.19.52a18.43,18.43,0,0,0-1.49-1.33,2.21,2.21,0,0,0-1.22-.48,27.33,27.33,0,0,1,.33-3,2.6,2.6,0,0,0-3.15-2.81,2.49,2.49,0,0,0,1.32-1.77c.35-2.15.71-4.29,1.08-6.44,1.13,1.86,4.35,1.77,4.65-.84,0-.27.07-.53.11-.79a6.56,6.56,0,0,0,3.71,2.94,2.36,2.36,0,0,0,1.81-4.35c-2.12-1-2.77-5.18-3.08-7.13a2.59,2.59,0,0,0-4-1.77c-.23-3-.34-6-.42-9.06-.08-2.82-4.66-2.8-4.9,0h0c0-.59-.07-1.18-.12-1.76-.24-2.57-3.69-2.76-4.71-.64a32.25,32.25,0,0,0-2,5.45,2.43,2.43,0,0,0-3.2,1.8,81.87,81.87,0,0,1-2.13,8.67c-.08-.4-.16-.8-.23-1.21-.34-2-3.63-2.9-4.28-.59-.21.73-.46,1.42-.73,2.11,0,0,0,0-.05,0a5.14,5.14,0,0,1-.9-.42,1.73,1.73,0,0,0-1.78.22c-2.45,2.17-.06,5.52,1.2,7.68.92,1.56,3,.78,3.57-.59.06.31.12.61.16.91a2.3,2.3,0,0,0,4.37.6,35.48,35.48,0,0,0,1.57-3.3c0,1.11,0,2.23,0,3.34a3.21,3.21,0,0,0-.24.45c-.6,1.42-1.15,2.86-1.68,4.3,0-.36,0-.72-.07-1.09-.23-2.39-3.46-2.6-4.41-.6-.67,1.41-1.44,2.77-2.22,4.12-.42-1.17-1.79-2.06-2.93-1-1.7,1.52-3.39,3.25-3.06,5.71a1,1,0,0,0,1.77.53l.55-.53a13.54,13.54,0,0,1,0,2.11c-.27,2.56,3,3.18,4.13,1.11.49-.89,1-1.77,1.56-2.64-.15,2.27-.32,4.55-.34,6.83a2.15,2.15,0,0,0,0,.45,2,2,0,0,0-.14.16c-.66.86-1.29,1.72-1.91,2.59-.05-.59-.09-1.18-.09-1.77,0-2.14-3.31-2.42-4-.55-1.1,2.91-2.78,2.87-5.19,4-1.29.59-.88,2.89.65,2.53,1.37-.33,2.78.25,4.15-.31.17-.07.32-.16.48-.24a11.07,11.07,0,0,1-.32,3.52,2.33,2.33,0,0,0,4.29,1.79c.83-1.46,1.72-2.84,2.67-4.2a61.12,61.12,0,0,1,1.36,6.14c.41,2.74,4.9,3,5,0a4.93,4.93,0,0,1,.75-2.29c.26.5.53,1,.78,1.51a2.61,2.61,0,0,0,3.9,1.11,11.9,11.9,0,0,0,1.25-1.09,2.62,2.62,0,0,0,1.63,1.32c1.95.68,2.92-.45,3.77-1.78a15.21,15.21,0,0,0,1.64,1.94,2.53,2.53,0,0,0,3.31-.11A2.17,2.17,0,0,0,402.77,154.63Zm-22.66-10.26c-.05-.25-.1-.49-.14-.74a2.39,2.39,0,0,0-.12-.46A2.12,2.12,0,0,0,380,143l.36-1C380.24,142.79,380.18,143.58,380.11,144.37Z"/><path class="cls-2" d="M410.4,158.22l-1.37-.86a1.28,1.28,0,0,0-.92-1.14c-.38-.08-.77-.13-1.15-.2-5.06-3.38-9.27-7.07-12.07-12.69,4.55.66,8.83.94,13.37-.54a1.33,1.33,0,0,0,0-2.45,32.34,32.34,0,0,1-15.41-16.17,36.59,36.59,0,0,0,15.49,2.15,1.33,1.33,0,0,0,.9-2.1c-8.56-9-12.56-19.84-13.59-32.08a1.33,1.33,0,0,0-2.53-.35c-5.65,10.94-14.36,18.68-26.22,22.19-1.11.33-.63,2.23.5,2a6,6,0,0,1,.61-.14,21.31,21.31,0,0,0,10.63,10.62,54.82,54.82,0,0,1-14.93,5.23,1.27,1.27,0,0,0-.86,2c3,3.91,6,6.67,10.28,8.39a22.85,22.85,0,0,1-15.4,4.06,1.29,1.29,0,0,0-1,2.28c6.54,5.26,14.19,8,22.23,9.33a59.94,59.94,0,0,1-1.44,10.42,1.16,1.16,0,0,0,.72,1.26c5.83,1.79,11.84,2.48,17.87,3.24a1.25,1.25,0,0,0,1.32-1.69,31.5,31.5,0,0,1-1.09-5.55c-.15-1.1-.25-2.22-.34-3.33,0-.44,0-.88,0-1.32h0a1.09,1.09,0,0,0,.3-1.21,1.92,1.92,0,0,0-.42-.66c3.4,0,6.78-.16,10.1-.32.9.59,1.83,1.16,2.79,1.72C410.21,161.11,411.84,159.1,410.4,158.22Zm-15.83,11.72a92.36,92.36,0,0,1-14.5-2.5,78.79,78.79,0,0,0,.57-9.47,98,98,0,0,0,13.41.89C392.24,160.89,393.54,166.52,394.57,169.94Zm-5.79-14.11c-10.12-.51-18.93-1.75-27.21-7.15a26.14,26.14,0,0,0,15-6c.67-.55.73-1.91-.27-2.19a20,20,0,0,1-10.19-6.76,58.61,58.61,0,0,0,16.25-6.56c1-.59.36-2-.56-2.17-5.57-1.18-9.07-5.21-12.05-9.68,10.24-3.16,18.11-9.9,23.73-18.88,1.43,10.2,5.08,19.51,11.84,27.39a36.25,36.25,0,0,1-14.22-3.11,1.33,1.33,0,0,0-1.73,1.71A34.29,34.29,0,0,0,404.15,141c-3.75.53-7.44-.08-11.28-.69a1.33,1.33,0,0,0-1.41,1.79,31.37,31.37,0,0,0,10.31,13.43C397.42,155.52,392.88,156,388.78,155.83Z"/></svg>