<svg id="Layer_1" data-name="Layer 1" xmlns="http://www.w3.org/2000/svg" viewBox="0 0 110.13 170.65"><defs><style>.cls-1{fill:#f7ca24;}.cls-2{fill:#ef66b2;}.cls-3{fill:#3c3c3b;}</style></defs><title>3_pic</title><path class="cls-1" d="M24.47,1.79c-2-1.06-4.56.1-4.69,2.16-.93-.63-1.85-1.29-2.74-2C14.61,0,11.63,3,12.65,5.6c.46,1.15.87,2.32,1.28,3.49-2-.91-4-1.72-6.06-2.48a2.9,2.9,0,0,0-3.22,4.55,18.5,18.5,0,0,1,1.63,2.47c-1.19-.35-2.39-.69-3.58-1.06C-.22,11.65-1.87,15.93,1,17.05a35.49,35.49,0,0,1,4.51,2.41,1.9,1.9,0,0,0,2-.11,23.92,23.92,0,0,1,3.11,1.48A2.65,2.65,0,0,0,14.23,17,16.6,16.6,0,0,1,13,15a28.09,28.09,0,0,1,4.67,2.81c2.36,1.79,5.27-1,4.24-3.51-.36-.87-.67-1.76-1-2.65a36.26,36.26,0,0,1,3.83,2.93C27,16.58,30,13.47,29,11.06V11a2.22,2.22,0,0,0,.34-2.2C28.21,5.85,27.33,3.3,24.47,1.79Z" transform="translate(0.49 -0.02)"/><path class="cls-1" d="M105.54,16.13c-2.86-3.45-5.61-7-8.63-10.31a3.29,3.29,0,0,0-4.61-.57l-.1.09c-.68-.55-1.36-1.08-2.07-1.6A3.47,3.47,0,0,0,85,8l.33.72C84.59,8.16,83.8,7.61,83,7.06a3.18,3.18,0,0,0-4.29.47c-.67-.55-1.34-1.09-2-1.61-2.19-1.66-5.76,1-4.29,3.56.71,1.22,1.46,2.44,2.29,3.6a3.23,3.23,0,0,0-3.54,1.85C70,13.54,68.9,12.1,67.85,10.59,66,7.91,62.11,10,62,12.68c-.62-.5-1.24-1-1.84-1.55-1.92-1.74-4.37-.12-4.94,2a28.86,28.86,0,0,0-4.33-3.56,2.2,2.2,0,0,0-3.39,1.9A3.26,3.26,0,0,0,43.26,13c-.83-.49-1.65-1-2.45-1.54a3.16,3.16,0,0,0-4.39.84,3.1,3.1,0,0,0-.52,1.4V14l-.6-.14c-2.37-.45-4.08,2.37-3.15,4.38.17.35.32.7.47,1-.66-.18-1.31-.37-2-.59a3.09,3.09,0,0,0-3.86,4.14c.19.48.36,1,.53,1.45C25,23.64,23,26.75,24.57,28.87c1.23,1.7,5.24,5.46,7.58,4.14v-.07a2.17,2.17,0,0,0,1.16-1.43A3,3,0,0,0,35.7,28a3,3,0,0,0-.61-1.33,5.11,5.11,0,0,1-.55-.68c.44.12.87.23,1.3.36a3.07,3.07,0,0,0,3.92-1.88A3.11,3.11,0,0,0,39.91,23v-.22c1.66.54,3.18-.81,3.6-2.39q.41.32.78.66a3.16,3.16,0,0,0,5.25-3.31c-.41-1.28-.37-2.66-.66-4,4,4.48,7.71,9.13,11.44,13.86,2.18,2.77,6.05-.12,5-3.13-.19-.53-.37-1.06-.55-1.59,1,.74,2,1.49,3,2.28A3,3,0,0,0,71.65,25a48.48,48.48,0,0,0,3.89,3.1c2.79,2,6.24-1.12,5-4.14-.93-2.24-1.46-4.68-2.3-7a1.61,1.61,0,0,0,1.81,0c1.88,1.85,3.75,3.73,5.63,5.59a3.23,3.23,0,0,0,4.56.22,3.83,3.83,0,0,0,.28-.29c.22.28.44.55.65.85,1.84,2.56,6.35.69,6-2.31.31.43.61.87.92,1.31a2.83,2.83,0,0,0,3.89,1l.23-.15c.33.38.66.75,1,1.12,2.59,2.84,8-.11,6-3.76A15.43,15.43,0,0,0,105.54,16.13Z" transform="translate(0.49 -0.02)"/><path class="cls-2" d="M78.78,99.21a3.62,3.62,0,0,0,2.83-4.95,62,62,0,0,0-11-15.44,3.4,3.4,0,0,0-.92-4.72,3.2,3.2,0,0,0-.71-.37,47,47,0,0,1-7.33-3.43,3.43,3.43,0,0,0-4.79.76,3,3,0,0,0-.32.54c-1.06-1-2.12-1.93-3.2-2.87-2.59-2.28-7,1.37-5.23,4.33C49,74.65,50,76.2,51.05,77.69c-2.3.28-3.85,3.41-2.29,5.73,2,3,4.16,6,6.35,8.94-1.53-.9-3.09-1.75-4.73-2.51-3.08-1.43-5.64,2.76-3.66,5.18,3.08,3.74,6.2,7.45,9.32,11.16a48.63,48.63,0,0,0-5.84-3.69c-3.16-1.68-6.49,1.58-4.29,4.67,3.16,4.44,6.7,8.66,10,13a111.82,111.82,0,0,0-10.53-6.87c-3-1.69-6.38,1.6-4.17,4.53,2,2.7,4,5.45,5.91,8.2a44.49,44.49,0,0,0-6.81-3.38c-2.5-.94-5.25,2.4-3.16,4.45a47,47,0,0,1,5.76,7.2,13.11,13.11,0,0,0-5.08,1.84c-1.61,1-.55,3.5,1.23,2.69,2.76-1.25,5-1.62,7.56.6,2.31,2,4.78-1.47,3.34-3.63-.46-.68-.9-1.37-1.34-2.07,2.78,1.77,5.55,3.55,8.49,5.05s5-2.52,3.3-4.66-3.2-4.29-4.74-6.48c3.17,2.31,6.33,4.63,9.59,6.82,2.47,1.65,5.88-1,4.54-3.76A73.1,73.1,0,0,0,65,122.33a101.83,101.83,0,0,0,12.06,10c3.12,2.11,6.32-1.76,4.28-4.65-4-5.64-8.19-11.07-12.53-16.42,6.28,6.27,12.2,13,18.78,18.46,2.13,1.75,4.81-.18,5.1-2.42,2.61.51,5.56-1.6,4-4.61C92.06,113.84,85.54,106.41,78.78,99.21Z" transform="translate(0.49 -0.02)"/><path class="cls-3" d="M91.42,1.92c-7.84-2.17-20,2.59-17.09,12.22-4.79-4-10.79-5.84-17.63-6.74-1.21-.16-16-1.57-14.77,2.55a11.27,11.27,0,0,0-9.07,3.58C31.21,2,20.76-3,9.76,1.88,5.44,3.82,1.11,7.67.19,12.51-.93,18.43,3.19,23,7.84,26a1.51,1.51,0,0,0,2.08-.4,1.6,1.6,0,0,0,.25-.67A17.58,17.58,0,0,1,12,18.51a14,14,0,0,0,2.73,6.41,1.49,1.49,0,0,0,2.11.14,1.54,1.54,0,0,0,.41-.57c2-4.29,5.46-10.39,10.56-5.77a1.13,1.13,0,0,0,1.28.23c-3.62,7.38-4.68,18.17-2.64,28-3.05,0-6.77.87-8.44,3.53-1.4,2.23-.75,4.84.59,6.91A8.16,8.16,0,0,0,24.35,61a4.84,4.84,0,0,0,3.29-.92c.85-.6,2.26-2.46,1.76-3.57a1.23,1.23,0,0,1-.2-1v-.12c3.66,8.08,10.08,14.17,19.71,14.83-.49,7.42-.81,14.8-1.42,22.07-5.53-.78-11.39.73-16.93.8a17.9,17.9,0,0,1-9.16-1.86c-3.83-2.19-3.85-6.31-4.71-10.08a6.8,6.8,0,0,0,3.76-4.26c1-3.58-2-7-5.3-8A5.74,5.74,0,0,0,10,70a.72.72,0,0,0-1-.18.62.62,0,0,0-.18.18,6.09,6.09,0,0,0-1,3,5.84,5.84,0,0,0-.25,2.93,1,1,0,0,0,1,.9,10.28,10.28,0,0,0,2.66,3.67,5,5,0,0,0,2.86,1.19c-1,7.41,4.82,13,11.76,14.12s14.45-.73,21.53-1.52c-1.29,14.17-3.85,28-11.12,41.05a1.56,1.56,0,0,0,.41,2.17,1.51,1.51,0,0,0,.31.16,64.29,64.29,0,0,0,22.68,2.15A130,130,0,0,0,60,158.33c-6.09-.21-14.91.18-15.63,6.33-1.08,9.18,14.75,5.26,19.14,4.69a1.47,1.47,0,0,0,1.21-1.69,47.42,47.42,0,0,1-1.41-6.57,5.12,5.12,0,0,0,.77-.47,1.23,1.23,0,0,0,.13-1.71,1.2,1.2,0,0,0-.78-.41h-.46c-.69-6.24-.68-12.53-1.51-18.8a87.36,87.36,0,0,0,13.31-2.47v.07c-.68,3.07,1,7,1.77,9.9,1.33,5.41,2.75,10.8,4,16.23a1.45,1.45,0,0,0,1.63,1.19c6.36-.72,23-3.74,22.61-12.45-.22-5.11-7-5.21-10.46-4.56a33.14,33.14,0,0,0-13.44,6c-.62-2.27-1.26-4.54-1.9-6.81-.84-2.94-1.32-7.39-3.48-9.73h0a149.05,149.05,0,0,0,25.88-10,1.59,1.59,0,0,0,.77-2c-2-5.43-5.55-9.41-9.33-13.71-5.24-6-8.59-13.53-12.44-20.36-4.25-7.53-8.82-17.73-15.24-23.86A33.69,33.69,0,0,0,80.23,53.37c3.88,1.08,8.33-.78,9.58-4.89a6.1,6.1,0,0,0-.89-5.54,4.86,4.86,0,0,0-4.63-1.52,31.85,31.85,0,0,0-1-12.81c1.27-.36,1-2.26-.32-2.52a2.63,2.63,0,0,1-.55-.09A33.61,33.61,0,0,0,81,22.68a26.23,26.23,0,0,0-6.1-8,.59.59,0,0,0,.61-.58V14C73.69,4.8,86,2.63,92.42,5.12c7.39,2.85,11.77,14.3,11,22.25-4-3.94-8.06-7.75-12.4-11.31a1.43,1.43,0,0,0-2,.37,1.41,1.41,0,0,0-.23,1,13.08,13.08,0,0,1,.08,4.37c-3.1-4.45-8.84-11.42-12.41-7.74a1.17,1.17,0,0,0-.07,1.64,1.18,1.18,0,0,0,1.26.3c3.67-1.11,8.83,7.16,10.42,9.71a1.43,1.43,0,0,0,1.91.66,1.51,1.51,0,0,0,.7-.75,13,13,0,0,0,1.19-5.11c3.93,3.39,7.68,7,11.33,10.67.67.68,2.11.7,2.41-.41C108.36,20.47,102.37,5,91.42,1.92ZM28.88,54.64c-.06.32-.13.65-.22,1-.14.51-.68.34-.94.77a8.23,8.23,0,0,1-.88,1.22,2.71,2.71,0,0,1-.9.68l-.21.09h-.07a1.35,1.35,0,0,0-.49.06,5.23,5.23,0,0,1-4-2.37,5.8,5.8,0,0,1-1-2.06,2.86,2.86,0,0,1,.14-1.87,3.75,3.75,0,0,1,2.18-1.7,17.3,17.3,0,0,1,4.68-.89A37.77,37.77,0,0,0,28.88,54.64ZM12.27,78.25a7,7,0,0,1-2.15-3.18c.78-2,1.34-4,4.11-3.61A4.58,4.58,0,0,1,18,76C17.69,78.84,14.31,79.82,12.27,78.25Zm49.16,88.39c-2,.29-3.9.63-5.86.85a23.25,23.25,0,0,1-5.14,0c-3.14-.3-4.19-3.52-1.16-5s7.55-.41,11.15-.76C60.69,163.43,61,165,61.43,166.64Zm20.38-10.07A30.7,30.7,0,0,1,90.08,152c1.61-.68,14.45-4,11.35,1.84-2.62,4.91-12.77,6.88-18.53,7.72-.42-1.63-.84-3.26-1.28-4.87C81.68,156.63,81.75,156.62,81.81,156.57ZM15.79,21c-1.08-2.19-1.16-4.28-1.13-7a1.5,1.5,0,0,0-1.41-1.59A1.49,1.49,0,0,0,12,13a23.42,23.42,0,0,0-4.36,9.12c-3-2.33-5.42-5.49-4.4-9.49,1-3.76,4.48-6.46,7.77-8.1C20.86-.42,29.42,5,31.42,15.16A19.78,19.78,0,0,0,30,17.27a1.59,1.59,0,0,0-.49-1C23.7,11,18.86,15.73,15.79,21Zm28-9a10.9,10.9,0,0,0,3.27,5.53c-.17,7.87-12.65,14.24-19.25,17C28.09,22.86,33,12.39,43.83,12ZM77.54,92.29c5.79,9.83,11,18.46,18.19,27.34,5.08,6.32,0,6.67-5.17,8.93a126.9,126.9,0,0,1-17,5.91,66.13,66.13,0,0,1-33.78.69C50.2,115,51.21,92.71,50.76,70.29h0a35,35,0,0,0,11.41-2,1.59,1.59,0,0,0,.42.61C68.72,74.36,73.43,85.3,77.54,92.29ZM87,44.84a3.6,3.6,0,0,1,.27,3.24,5,5,0,0,1-2.83,3.07,5.61,5.61,0,0,1-3.19.31,33,33,0,0,0,2.54-7.23c1.15-.23,2.39-.38,3.22.61Zm-5.35-10a25.41,25.41,0,0,1-3.19,16.07h0a.76.76,0,0,0-.95.51.75.75,0,0,0,.23.79c-7.1,11.34-22,18.43-34.88,13.78-9.14-3.3-14.68-16.77-15-29.42,4-.78,19.33-9.54,22.36-16.23,1.83,1.43,3.69,2.64,5,3.57,6.77,4.68,16.64,5.57,25,5.06a36.51,36.51,0,0,1,1.44,5.83ZM63.54,24.31A36.82,36.82,0,0,1,50.7,17.38a4.13,4.13,0,0,0-2.16-2.57,1,1,0,0,0-.54-.14,10.25,10.25,0,0,1-2.27-4.49c3.61.27,17.69,1.43,19.32,1.84,6.42,1.63,11.1,7.31,13.88,13.55C73.82,25.17,68.63,25.61,63.54,24.31Z" transform="translate(0.49 -0.02)"/><path class="cls-3" d="M69.34,40.42c-.19,9-5.71,13.19-14.27,15.21a24.28,24.28,0,0,1-11.37,0c-3.9-1-4.42-3.41-6.34-6.34a.45.45,0,0,0-.63-.1.32.32,0,0,0-.1.1c-4.91,9,13.43,10.16,17.74,9.53C62.54,57.66,76.18,50.3,71.81,40a1.3,1.3,0,0,0-1.73-.62A1.27,1.27,0,0,0,69.34,40.42Z" transform="translate(0.49 -0.02)"/><path class="cls-3" d="M48.78,36.78c-1.55.7-.22,2.73.18,3.74a33.49,33.49,0,0,0,2,4.6.91.91,0,0,0,1.22.45.93.93,0,0,0,.46-1.22h0q-.78-2.4-1.5-4.81C50.81,38.51,50.46,36,48.78,36.78Z" transform="translate(0.49 -0.02)"/><path class="cls-3" d="M54.8,33.6a1.12,1.12,0,0,0-1.58-.12,1,1,0,0,0-.31.44c-.5,1.14.36,2.81.74,3.92a21.7,21.7,0,0,0,1.89,4.57c.43.71,1.81.49,1.53-.46-.41-1.42-.9-2.82-1.26-4.26C55.45,36.45,55.61,34.62,54.8,33.6Z" transform="translate(0.49 -0.02)"/><path class="cls-3" d="M96.2,47.9c-3.26,1.48-7.37,6.81-5.36,10.49a1.14,1.14,0,0,0,1.56.43l.07,0a5.21,5.21,0,0,0,1,.87.14.14,0,0,0,0,.09C92.3,64.93,93,69.79,90.78,74.91c-.59,1.36-9.84,13-11.21,10.62a.39.39,0,0,0-.51-.15.37.37,0,0,0-.16.46c.1.31.19.63.29.94a.88.88,0,0,0,.77.74c4.69,1,10.5-6.85,12.54-10.18C95.22,72.9,97,65.77,95.76,60.47c4,.64,9.16-2.18,8.76-7.57a5.74,5.74,0,0,0-8.32-5ZM98.42,58c-2.47,1-4.1-.29-5-2.17.1-.4.22-.78.35-1.16a4.66,4.66,0,0,1,1.71.45c.15.06.23-.17.09-.24-.56-.26-1-.57-1.53-.85A7.59,7.59,0,0,1,96,51.38c2.1-1.9,4.5-1.93,5.67.85C102.66,54.84,100.74,57.13,98.42,58Z" transform="translate(0.49 -0.02)"/></svg>