<svg id="Layer_1" data-name="Layer 1" xmlns="http://www.w3.org/2000/svg" viewBox="0 0 89.89 125.06"><defs><style>.cls-1{fill:#e20613;}.cls-2{fill:#3c3c3b;}</style></defs><title>4_pic</title><path class="cls-1" d="M68.52,67l-2.35-.16a2.44,2.44,0,0,0-1,.16c-.85-1.18-1.69-2.36-2.49-3.58-1.2-1.83-4-.61-4.27,1.24A84.51,84.51,0,0,1,47.92,45.44c-1.1-2.9-5.41-.78-4.33,2.1.69,1.82,1.44,3.6,2.24,5.38-1.3-2.06-2.61-4.06-3.94-6.06s-4.68-.21-4.14,2A114,114,0,0,0,43.09,65a85.73,85.73,0,0,0-6-7.45c-1.43-1.58-4.85-.4-4.07,2,1,3,2.09,6,3.27,8.9a45.4,45.4,0,0,0-8.21-8,1.25,1.25,0,0,0-.72-.25c-.6-.52-1.21-1-1.85-1.48-1.81-1.33-4.59.87-3.4,2.91.23.41.45.82.65,1.24l-1.24.78h0a2.29,2.29,0,0,0-1.78,3.69A44.44,44.44,0,0,1,24.42,75c1.22,2.31,4.8.66,3.8-1.66a2.35,2.35,0,0,0,2.06-2.5,76.43,76.43,0,0,1,5,9.79c.77,1.75,1.48,3.52,2.15,5.3a45.52,45.52,0,0,0-5.94-6.77c-1.57-1.45-4.55-.54-4,1.93A80.19,80.19,0,0,0,30.31,91c-1.45-.9-2.94-1.74-4.5-2.51-1.79-.89-3.57,1.44-2.74,3a16.46,16.46,0,0,1,.8,1.89c-1.07-.9-2.13-1.82-3.13-2.81a1.72,1.72,0,0,0-3,1,29.31,29.31,0,0,0,.16,3.63,4.38,4.38,0,0,0-.91-.41c-.7-.2-1.28.76-.61,1.18.86.54,1.68,2.1,2.41,2.83a1.22,1.22,0,0,0,2.11-1c-.06-.73-.08-1.43-.07-2.13,1.71,1.68,3.5,3.27,5.08,5.08a2.06,2.06,0,0,0,2.91.14A2,2,0,0,0,29.47,99c-.25-1.2-.46-2.39-.7-3.58a61.31,61.31,0,0,1,5.39,4.11c1.83,1.57,4.26-.94,3.36-2.88s-1.81-4.15-2.59-6.26c2.73,3.89,5.19,8,8,11.82,1.31,1.79,4.66.26,4-1.92-1.74-5.58-3.4-11.63-5.52-17.51,3.78,6.54,7.48,13.12,12.68,18.66,1.36,1.45,4,.31,4-1.38l.33.57a2.37,2.37,0,0,0,4.27-2.07c-3.72-10.78-9-21-13.52-31.44,1.7,2.63,3.45,5.23,5.32,7.75,1.46,2,4.65.26,4.17-2h0q1,1.27,2.07,2.52a2.48,2.48,0,0,0,3.51.12,2.37,2.37,0,0,0,.49-.64l.27.4c1.38,2.15,5.55,1.38,4.67-1.55-.18-.58-.31-1.17-.44-1.76C71.41,71.11,71.38,67.19,68.52,67ZM44.59,75.8C48.54,82.33,52,89.17,55.7,95.86A202,202,0,0,1,44.59,75.8Z"/><path class="cls-2" d="M54.22,2.58a.34.34,0,0,0-.4-.26h0a.55.55,0,0,0-.24.18.4.4,0,0,0-.32.13,9.11,9.11,0,0,0-.72.92c-.8,1.09-1.59,2.18-2.4,3.26s-1.56,2.06-2.38,3c-.22.27-.48.52-.71.79a.73.73,0,0,0-.35.25c-.61.82-.14,2.14,1,1.63s1.69-1.79,2.3-2.64c1.1-1.52,2.14-3.08,3.15-4.66C53.71,4.44,54.49,3.49,54.22,2.58Z"/><path class="cls-2" d="M56.68,12.37c.73-1.19,4.54-7,2.66-8.14a.36.36,0,0,0-.44,0,4.16,4.16,0,0,0-.65,1.38,24.37,24.37,0,0,1-1.6,3.24,32.59,32.59,0,0,1-2,3.14,10.73,10.73,0,0,1-.78,1c-.11.11-.2.22-.3.34h0a.85.85,0,0,0-.57.51,1,1,0,0,0,.6,1.28,1,1,0,0,0,.63,0C55.39,14.86,56.08,13.35,56.68,12.37Z"/><path class="cls-2" d="M65.53,30.44c-.1-1-1.58-.9-1.82,0C61.94,36.84,54,38,48.56,36.57a13.87,13.87,0,0,1-6.34-4.16A17.87,17.87,0,0,1,39.91,29c-.11-1.14-.45-1.57-1-1.3,0-.34.07-.69.1-1a.77.77,0,0,0-.48-1,.85.85,0,0,0-.42,0h-.38a.82.82,0,0,0-.61,1v0c1.82,6.37,6.8,12.07,13.79,12.61C56.41,39.78,66.28,37.61,65.53,30.44Z"/><path class="cls-2" d="M50.22,25.15c-1.35-1.07,1.12-4.18,1.7-5.1a.6.6,0,0,0-.17-.83.59.59,0,0,0-.75.07c-1.36,1.21-5,6.85-1.19,7.25C50.58,26.62,50.69,25.56,50.22,25.15Z"/><path class="cls-2" d="M55.71,27.35a10.92,10.92,0,0,0,0-2.68,23.5,23.5,0,0,1,.35-3.34.71.71,0,0,0-1.37-.4,12.83,12.83,0,0,0-.73,3.4c-.11.92-.45,2.35,0,3.2a1,1,0,0,0,1.75-.18Z"/><path class="cls-2" d="M80.05,46.42c-2.06-.36-4-3.5-5.21-5-1-1.26-2.59-3.85-4.48-3.88A.43.43,0,0,0,70,38a.42.42,0,0,0,.27.37c.78.19,1.74,1.91,2.19,2.5,1.07,1.39,2.08,2.82,3.17,4.2s2.91,3.9,4.75,2.55a.74.74,0,0,0,0-1A.81.81,0,0,0,80.05,46.42Z"/><path class="cls-2" d="M83.58,38.86a50,50,0,0,0-4.18-4.67c-.48-.51-2.73-3.4-3.7-2.84-.36.21-.16.85.27.71-.26.08-.16,0,.08.33s.56.73.85,1.08q1.25,1.47,2.46,3c1,1.22,2,3,3.46,3.64C83.59,40.39,83.94,39.37,83.58,38.86Z"/><path class="cls-2" d="M26.77,29.79c-1.22-1.43-3.06.18-4.11,1s-1.95,1.68-2.88,2.56a12.16,12.16,0,0,0-1.15,1.12c-.16.22-.55.63-.3.48a.94.94,0,0,0-.23.77.82.82,0,0,0,.95.58c1.21-.14,2.34-2.15,3.07-2.94.5-.55,3.79-4.15,4.47-3.41a.12.12,0,1,0,.18-.16Z"/><path class="cls-2" d="M89.78,68.39a4.23,4.23,0,0,0-6.91-2.72,6.11,6.11,0,0,0-2.39,2.26,4.09,4.09,0,0,0-.5,2.9c-1.32-.22-2.64-.47-4-.73s-2.34-.48-3.52-.68a3.93,3.93,0,0,0-.48-.06,51.56,51.56,0,0,0-1.83-5.94,1.23,1.23,0,0,0-1.13-.92c-1.69,0-13.44.16-13.73-1.88-.61-4.2-.73-8.44-1.78-12.55A25.25,25.25,0,0,0,64,43.49a20.21,20.21,0,0,0,2,4.1c1.38,2.23,6.08,8.94,9.45,7.06a.84.84,0,0,0,.33-1.14.89.89,0,0,0-.28-.3c-.89-.68-2.13-.82-3.11-1.45A17.27,17.27,0,0,1,68.65,48c-.4-.49-2.51-4.15-3.36-5.55,11-9,15.55-26.38,2.24-37.31C64.62.3,56.68-.65,49.41.36h0A.29.29,0,0,0,49.07.3a2.2,2.2,0,0,0-.25.17c-4.8.74-9.23,2.31-11.64,4.15a25.79,25.79,0,0,0-8,30.24H29.1C27,36.18,25,37.57,23,39c-.85.6-1.66,1.26-2.45,1.93a.68.68,0,0,0-1,0,.54.54,0,0,0-.16.26c-.17.63-.85.74-.87,1.49a.9.9,0,0,0,.63.87l.32.12a.87.87,0,0,0,.87-.2c2.8-3,6.22-5.2,9.24-7.92a23.39,23.39,0,0,0,1.63,2.94,2.92,2.92,0,0,1-.24.37c-1.2,1.68-2.43,3.31-3.76,4.89a41.57,41.57,0,0,1-7.55,6.84c-1,.85.37,2.32,1.41,1.52a47.34,47.34,0,0,0,7.36-7,61.14,61.14,0,0,0,3.67-5.36,22.24,22.24,0,0,0,6.28,5.47c.58.34,1.17.65,1.76.93-1.89,1.46-1.21,6.6-1.32,8.55-.23,4.18-1.71,2.82-5.61,2.72a105.07,105.07,0,0,1-10.93-.63,1.18,1.18,0,0,0-1.17.85c-.56,2.06-1.52,4.46-2.22,6.9a.67.67,0,0,0-.2,0,5.63,5.63,0,0,1-3.61-1.45c-.75-2.8-3.78-5-6.67-4.28a1,1,0,0,0-.56.38,5.09,5.09,0,0,0-3,2C2.86,63.81,4.21,67,7,68.15c3.27,1.33,7.69,1.12,8.22-3.08a5.58,5.58,0,0,0,.52.32c.76.43,1.71.56,2.43,1a.8.8,0,0,0,.24.13,11.65,11.65,0,0,0,.1,6.44c1.14,3.09,6.93,2.39,10.62,2.19C24.25,82.63,18.78,89.72,14.3,97.47a1.22,1.22,0,0,0,.43,1.67,1.15,1.15,0,0,0,.57.17,91,91,0,0,1,12.2,1.55c-4.06,6.3-7.56,13-11.48,19.34H15c-2.77-6-9.75-14.68-13.71-8.64-4.9,7.48,5,10.36,12.16,10.87a5.2,5.2,0,0,1,.43,1.44c.07,1.06,1.51,1.71,2.12.63.39-.67.76-1.35,1.14-2l.88-.08c1.16-.13,1.09-1.51.32-2.07,3.54-6.38,7-12.83,10.51-19.22,13,2.48,26.16,6.12,39.07,1.92a1.24,1.24,0,0,0,.87-1.52,1,1,0,0,0-.08-.22A141.34,141.34,0,0,0,57.39,79c4.86-.23,10.45,1,14.3-2.43,1.12-1,1.11-3.29.68-5.71,1.19.42,2.39.78,3.61,1.08,1.07.27,3.4,1.25,5,1.21a5.94,5.94,0,0,0,5.27,2.61C89.43,75.31,90.22,70.92,89.78,68.39ZM7.61,66c-2.9-1.14-1.52-4.43.6-5.23a1,1,0,0,0,.42.11,4.47,4.47,0,0,1,3.15.94A3.76,3.76,0,0,1,13,64.56C13,67.48,9.34,66.68,7.61,66ZM2.48,114.15c1.17-5,6.83,1.12,9.7,5.84-4.82-.42-10.62-1.92-9.7-5.84Zm30.86-102c2.16-3.68,7.61-7,13.59-8.78a9.06,9.06,0,0,1-.61,1.1A25,25,0,0,1,41,10.25c-1,.81.37,2.27,1.33,1.45A30,30,0,0,0,47.7,5.33a18.4,18.4,0,0,0,1.52-2.47c6.18-1.37,12.56-.93,16.21,2.63a1.26,1.26,0,0,0,.41,1.41c.56.46,1.08.93,1.58,1.41.14.3.27.6.39.93a.49.49,0,0,0,.63.29.2.2,0,0,0,.08,0c13.39,15.07-3.3,39.72-23.15,35.79-15.51-3.07-19.25-20.85-12-33.11ZM55.07,76.74a1.21,1.21,0,0,0-.9,1.44,1.45,1.45,0,0,0,.11.29A153.79,153.79,0,0,1,66,101c-16.07,4.53-32.49-2.72-48.67-4,4.65-7.72,10.19-14.85,15-22.46a1.21,1.21,0,0,0-.42-1.66,1.27,1.27,0,0,0-.58-.17,69.41,69.41,0,0,0-7.9-.06c-5.26,0-2.25-6.84-1.54-9.32,1.07-3.8.71-4,4.71-3.71,4.28.31,8.57.09,12.85.43a1.1,1.1,0,0,0,1.12-1.06c.19-2.27-1.1-10.24.5-11.81a.62.62,0,0,0,.22-.48,21.53,21.53,0,0,0,9.93,1.69c1.28,4.79,1.41,9.81,2.13,14.7a1.16,1.16,0,0,0,1.12.92c4.07,0,8.07.6,12.12.9,1.25-.72,1.88-.46,1.88.77.41,1.4.69,2.85,1,4.28,1.75,9-8.63,6-14.4,6.85Zm31.27-3.33c-2,1.28-4.86-2.23-4.36-4.09a3.4,3.4,0,0,1,1.43-1.9c1.76-.54,3.54-1.28,4.19,1.1.4,1.5.18,4-1.26,4.91Z"/><path class="cls-2" d="M84.1,117.25c.34-4-4.42-4.84-7.15-3.85a16.45,16.45,0,0,0-8,7c-1.35-2.9-2.79-5.78-4.24-8.63-1.17-2.27-2.13-4.84-4.2-6.39a.45.45,0,0,0-.62.14v0c-.32.4.33.91.68.57-1.21,1.19,2.18,6.07,2.88,7.53,1.59,3.3,3.16,6.61,4.56,10,.41,1,1.8.65,2.09-.21,1.2-3.58,5.52-7.9,9.39-8.26,2.67-.25,2.18,3,1,4.27a11.09,11.09,0,0,1-2.64,1.92c-.53.32-4.81,2.38-5,1.17a1,1,0,0,0-1.25-.66,1,1,0,0,0-.66.66C69.59,128,83.6,123,84.1,117.25Z"/></svg>