<svg id="Layer_1" data-name="Layer 1" xmlns="http://www.w3.org/2000/svg" viewBox="0 0 54.86 46.58"><defs><style>.cls-1{fill:#683c11;}.cls-2{fill:#3c3c3b;}</style></defs><title>1_pic</title><path class="cls-1" d="M51.91,1.17c-.34-.07-2.15.33-1.12.35a1.63,1.63,0,0,0-1.23,2.72,1.58,1.58,0,0,0,0,1.87h0l-.45.19a1.58,1.58,0,0,0-.82,2.06c0,.11.1.22.14.33L48,9.16a1.56,1.56,0,0,0-.22,1.47c-1.63.15-3.26.28-4.89.51a1.64,1.64,0,0,0-.89.42,22.69,22.69,0,0,0-7.31-.1c-1.34.24-1.84,2.25-.59,2.87a38.15,38.15,0,0,0-4-.09c-1.53,0-1.63,2.35-.33,2.85l.2.07a13,13,0,0,0-2.14.25,1.5,1.5,0,0,0-1.19,1.74,1.45,1.45,0,0,0,.63,1c-1-.07-2-.1-3-.07-1.44.05-1.66,2.38-.32,2.79.77.23,1.53.48,2.3.73a35.67,35.67,0,0,0-4.85,0,1.18,1.18,0,0,0-.75.34,22.85,22.85,0,0,0-4.14-1.75,37.64,37.64,0,0,0,4.5-.2,1.4,1.4,0,0,0,1.15-1.62,1.42,1.42,0,0,0-.84-1.07,40.45,40.45,0,0,0-7.87-2.71c1.45-.13,2.89-.24,4.32-.42A1.45,1.45,0,0,0,19,14.4a1.48,1.48,0,0,0-.86-1.08,33,33,0,0,0-3.44-1.4,1.63,1.63,0,0,0-.56-2.23L14,9.63c-.31-.14-.61-.3-.91-.46a1.25,1.25,0,0,0-.72-1.62l-.06,0a3.57,3.57,0,0,0-3.17.17,1.42,1.42,0,0,0-.71,1.87,1.39,1.39,0,0,0,.51.59,10.66,10.66,0,0,1-1.57-.08c-1.58-.32-3.18-.6-4.76-.91-1.93-.38-2.15,2.53-.33,3a29.43,29.43,0,0,0,3.94.75c1.6.3,3.19.61,4.76,1a32.45,32.45,0,0,0-5.27,1,1.49,1.49,0,0,0,0,2.73c2.5.71,5,1.22,7.56,1.85a33.51,33.51,0,0,0-4.69.43,1.46,1.46,0,0,0-1.16,1.7,1.43,1.43,0,0,0,.84,1.05,41.72,41.72,0,0,0,5.36,1.59A40.41,40.41,0,0,0,7,25.33c-1.5.38-1.69,2.76.06,2.88a44.36,44.36,0,0,1,5.38.76c-2.25.25-4.5.53-6.73,1a1.37,1.37,0,0,0-1.15,1.56,1.35,1.35,0,0,0,1.15,1.15c1,.23,2,.43,3,.63-1,.14-1.94.33-2.89.56s-1.22,2,0,2.07c1.71.17,3.71.87,5.42.44.83-.21.95-.69.75-1.18,1.45-.18,2.9-.38,4.34-.62,1.1-.18,1.44-1.91.26-2.27-1-.29-1.95-.54-2.94-.76,2.27-.25,4.55-.47,6.81-.72a1.32,1.32,0,0,0,1.13-1.17,22.6,22.6,0,0,0,7.7,1.11.64.64,0,0,0,.63-.54c1.3.18,2.61.35,3.91.46a1.32,1.32,0,0,0,1.42-1.23,1.34,1.34,0,0,0-.78-1.31l-2.58-1c2.5.43,5,.95,7.5,1.32a1.39,1.39,0,0,0,1.51-1.28,1.41,1.41,0,0,0-.84-1.4L37.4,24.66A61.32,61.32,0,0,0,44,25.74a1.46,1.46,0,0,0,.7-2.8,50.09,50.09,0,0,0-5.14-2.13c2.51.41,5,.88,7.49,1.11a1.53,1.53,0,0,0,1.63-1.42,1.56,1.56,0,0,0-.16-.79c.93.16,1.87.3,2.81.41,1.79.22,2.23-2.2.74-2.94-.86-.42-1.72-.8-2.59-1.16l.44.05a1.54,1.54,0,0,0,1.71-1.37,1.59,1.59,0,0,0-.42-1.24h.17a1.59,1.59,0,0,0,.35-3l-.35-.32.13-.16a1.47,1.47,0,0,0,.27-1.33l1-.44a1.57,1.57,0,0,0,.93-1.67,2.25,2.25,0,0,0-.5-1,4.74,4.74,0,0,0,1-1,1.6,1.6,0,0,0-.3-2.17A3.76,3.76,0,0,0,51.91,1.17ZM20.69,27a1.5,1.5,0,0,0,1.21-.56c.91.27,1.82.55,2.72.85-1,0-2.05,0-3.07.09a1,1,0,0,0-.87.75c-1.4-.41-2.8-.81-4.2-1.18C17.87,26.93,19.28,27,20.69,27Z" transform="translate(0.02)"/><path class="cls-2" d="M49.56.61c-.5,3.19.8,6.74-1.4,9.48a.51.51,0,0,0-.13.3c-3.21-1-7.29-.52-9.85,0C32.85,11.39,26,14,22.94,18.86a37.58,37.58,0,0,0-4-5.93,66.55,66.55,0,0,0-8.42-9.18.76.76,0,0,0-1,.15.7.7,0,0,0-.14.36c0,2.23.39,4.4.55,6.61C6.89,10.39,4,9.29,1,8.54A.74.74,0,0,0,0,9a.72.72,0,0,0,.23.82C2,11.44,3,13.55,4.25,15.55a.41.41,0,0,0,0,.22,25.14,25.14,0,0,0,2.53,3.75c2.4,3.21-1,5.1-2,7.37a18.27,18.27,0,0,0-.93,2.42,1.34,1.34,0,0,0-.72,1.4,2.12,2.12,0,0,0,.31.74,5.83,5.83,0,0,0,.42,2.65c2,4.57,7.23,4.59,11.08,2.23,5.22-3.21,9.74-8.09,8.93-14.61a9.1,9.1,0,0,0-.39-1.62.56.56,0,0,0,.48-.3c4-6.58,20.22-12.58,26.36-6.27C55,18.29,45.55,24.79,42.16,27c-5.79,3.84-13.4,4.44-20.09,3.54-.57-.08-.65.77-.1.87a29.31,29.31,0,0,0,20.78-3.2c.32,1.43,1.72,2.31,2.8,3.24a5.14,5.14,0,0,1,.7.78c-2,.45-5,1.73-4.88,4.15.09,1.7,2.19,2.38,3.58,2.09,2.25-.47,3.68-3.25,3.19-5.39-.56-2.46-3.4-3.35-4.8-5.23l.34-.22a35.26,35.26,0,0,0,5.65-4.47.33.33,0,0,0-.06.35c1,2.36,5.32,4.38,4,7.37a1.76,1.76,0,0,1-2.33.89l-.13-.07c-1.38-.79,1-1.83,1.61-2,.78-.3.27-1.48-.51-1.19-1.34.51-3.49,1.68-2.66,3.46.63,1.34,2.49,1.56,3.71,1a3.46,3.46,0,0,0,1.49-4.66l-.06-.11a18.65,18.65,0,0,0-4.64-5.1.35.35,0,0,0-.41,0c2.45-2.51,4.17-5.56,3.09-8.86,0-.11-.09-.23-.14-.35,3.5-4.55,2.59-10.11-1.76-13.8a.67.67,0,0,0-.89.25A.69.69,0,0,0,49.56.61ZM5,30.16a5.62,5.62,0,0,1,1.16,0,1.37,1.37,0,0,1,.92,1,2.64,2.64,0,0,0-.8-.5,3.38,3.38,0,0,0-.45,0,.6.6,0,0,0-.66.21,2,2,0,0,0-.31.27A8.56,8.56,0,0,1,5,30.16ZM21.84,20.1C25,26.65,18.33,33,13.11,35.66c-2.21,1.14-4.86,1.13-6.56-.31a3.26,3.26,0,0,0,1-.69,4.23,4.23,0,0,0,.76-3.76,2.66,2.66,0,0,0-2.84-2.06h0A25.66,25.66,0,0,1,8.58,24.1c2.07-2.77-1-5.65-2.8-7.9a.72.72,0,0,0,0-.88c-1.07-1.62-1.89-3.26-3-4.76a44.46,44.46,0,0,0,7.79,1.89.74.74,0,0,0,.81-.68.43.43,0,0,0,0-.16c-.06-1.86-.39-3.67-.54-5.5C15.16,10.1,19.32,14.83,21.84,20.1ZM45.65,36.81c-.81.7-2.45.84-3-.29-.77-1.69,3.15-2.78,4.09-3.14a3.25,3.25,0,0,1-1.09,3.43ZM51.83,13a6,6,0,0,0-2.63-2.15C51.38,8.3,50.6,5.09,50.71,2c3.1,3.15,3.35,7.14,1.12,11Z" transform="translate(0.02)"/><path class="cls-2" d="M14,20.31a1.53,1.53,0,0,0-.48-.11h0a.62.62,0,0,0-.86.15l-.07.11-.15.06-.13.09-.23.07a.64.64,0,0,0-.32.84.71.71,0,0,0,.19.23l.26.15a1.44,1.44,0,0,0,.34,1.21,1.51,1.51,0,0,0,.86.65.55.55,0,0,0,.72-.29h0a5.72,5.72,0,0,0,.7-1.6,1.18,1.18,0,0,0-.13-1,1.33,1.33,0,0,0-.29-.29A1.91,1.91,0,0,0,14,20.31Z" transform="translate(0.02)"/><path class="cls-2" d="M27.69,33.3c1.43,3,7,8.63,2.33,11.25-1.26.71-3.71,1.09-4.16-.79-.57-2.39,3.44-3.07,4.93-3.21.89-.09.68-1.44-.2-1.36-2.5.23-5.8,1.12-6.16,4.07-.25,2,1.77,3.41,3.58,3.31,2.55-.14,5.5-2,5.2-4.91-.33-3.19-2.82-6.42-4.91-8.72C28,32.65,27.51,32.91,27.69,33.3Z" transform="translate(0.02)"/><path class="cls-2" d="M35.52,31.85c.68,1.23,2.32,3.06,3.13,4.8a.45.45,0,0,0-.54,0c-.69.47-1.79.7-2.54,1.11a4.33,4.33,0,0,0-1.94,1.87c-1.05,2.24,1.9,3,3.42,2.62,1.69-.44,4.07-2,3.3-4.06a21.88,21.88,0,0,0-4.48-6.54C35.73,31.47,35.4,31.63,35.52,31.85Zm2.25,8.69c-.7.4-1.89.86-2.66.4-1.19-.72.82-1.91,1.28-2.17.75-.41,2.1-.68,2.4-1.61a.28.28,0,0,0,0-.13C39.35,38.4,39.3,39.68,37.77,40.54Z" transform="translate(0.02)"/></svg>