<svg id="Layer_1" data-name="Layer 1" xmlns="http://www.w3.org/2000/svg" viewBox="0 0 104.13 134.49"><defs><style>.cls-1{fill:#3aa935;}.cls-2{fill:#3c3c3b;}</style></defs><title>2_pic</title><path class="cls-1" d="M80.35,72.39c-4.84-2.93-8.51-7.64-12.82-11.26A3.44,3.44,0,0,0,61.87,63c-1.34-1.29-2.7-2.55-4.11-3.77A3.26,3.26,0,0,0,52.6,63C50.8,61.05,49,59.16,47,57.36c-2.47-2.28-7,.78-4.85,3.74,1.11,1.54,2.21,3.09,3.28,4.64-1.27-1-2.58-2-4-3-2.2-1.5-4.55.68-4.42,2.89-1.84.08-3.53,2.15-2.27,3.93C37.94,74,41.14,78.47,44.27,83c1.81,2.57,3.58,5.17,5.24,7.85.57.92,3,3.49,2.94,4.56a1.09,1.09,0,0,0,1.14,1,1,1,0,0,0,.86-.49,5.73,5.73,0,0,0-.21-4.52c1.3,1.73,2.62,3.43,4,5s4.11.61,4.82-1.16L64,96.49c2.2,2.79,6.1-.75,4.67-3.59-.52-1-1.06-2.07-1.6-3.1.56.65,1.11,1.31,1.68,2,2.45,2.76,6.41-.75,4.88-3.77-1.67-3.3-3.45-6.54-5.25-9.77l2.24,2c2.5,2.15,6.3-.19,5.35-3.17.38.24.76.48,1.15.69C80.7,79.68,83.75,74.48,80.35,72.39Z"/><path class="cls-2" d="M103.46,91.4c-1.69-3.74-6.36-5-8.91-1.64-2.11,2.77-2.71,7.09-2.2,10.79-6.67-3-12.21-7.41-18-11.85A18.19,18.19,0,0,0,73.57,70a31.74,31.74,0,0,0-9.21-8.82c4.09-1.65,7.84-6.23,10.14-9.41,1.56-2.13,3.23-6.66,2.39-9.72,3.29-1.35,5.28-5,3.2-8.4a9,9,0,0,0-6.37-3.83.33.33,0,0,0-.26-.18A4.63,4.63,0,0,0,69,31a5.35,5.35,0,0,0-.89.89,1,1,0,0,0-.14.91c-1.25,3.73.81,9.4,5.57,9.8a4.52,4.52,0,0,1,.78,3.59c-.44,2.35-2.06,4.56-3.49,6.4a42.75,42.75,0,0,1-8,7.67A70.81,70.81,0,0,0,47.1,53.46,33.59,33.59,0,0,0,58.35,38.89c.12-.34.23-.69.33-1a6.74,6.74,0,0,0,6.53-7c0-.21,0-.43,0-.64-.33-3.92-3.91-7.28-7.71-6.45-4.26-9.4-14.66-16.6-24.72-14.48a1.38,1.38,0,0,0-.82.53,5.33,5.33,0,0,0-1.38-.11c.54-2,1.1-4,1.52-6.08.21-1,.61-2.36-.2-3.24A1.45,1.45,0,0,0,29.63.6a1.1,1.1,0,0,0,.18,1.55l0,0v.9a27.31,27.31,0,0,1-.5,3.5c-.2,1.14-.49,2.35-.68,3.56a27.1,27.1,0,0,0-6.1,2.59c-.19-2-.6-4-.83-6-.12-1.13.06-2.59-.85-3.44a.93.93,0,0,0-1.3,0l-.13.17c-.67,1.06-.08,2.46.15,3.56a25.14,25.14,0,0,0,1.74,6.38,86.39,86.39,0,0,0-8.1,5.73c-.3.23-.59.48-.88.72a16.76,16.76,0,0,0-2.92-3.48c-1.61-1.52-3.26-3-4.84-4.56C4.06,11.28,3.52,10.71,3,10.1a1,1,0,0,0-.39-1.77C1.38,8,0,8.33,0,9.85s1.84,2.91,2.81,3.8c1.72,1.59,3.55,3.07,5.31,4.61.73.64,1.44,1.3,2.15,2a7.58,7.58,0,0,0,.84.76C1.21,30.58,3,44.63,12.87,53.64c-.08.06-.18.09-.26.15a5.8,5.8,0,0,0-2,3.06,7.2,7.2,0,0,0,1.9,6.51,6,6,0,0,0,6,2A6,6,0,0,0,21.59,63a10.3,10.3,0,0,0,1.68-3.44,23.93,23.93,0,0,0,11.47,0A25.16,25.16,0,0,0,34.11,66C27.32,69.42,13,87.32,21,93.08A7.15,7.15,0,0,0,22.35,100,9,9,0,0,0,35,101.11a10,10,0,0,0,.75-.71c3.37-3.56,2-8.46-1.63-11.15a7.73,7.73,0,0,0-5.73-1.36A6.73,6.73,0,0,0,25,89.62a7.15,7.15,0,0,0-2.17,1c-4.25-6.53,5.73-17,11.35-22,1.21,11.75,8.37,25.57,18.06,29.72-.49,7.91.21,15.79.86,23.68-5.07-1.38-10.83,3.15-8.31,8.9,3.67,8.36,13.78.19,14-5.77.06-1.56-2.09-1.6-2.55-.31A25.07,25.07,0,0,1,55.05,128c-3.08,6.31-8.36-8.17-1.26-2.47.86.69,2.68.36,2.49-1.07q-.86-6.56-1.44-13.13c-.3-3.23.36-9.55-.42-12.22,4.09,1.1,8.55.45,13.16-2.75a21.65,21.65,0,0,0,5.28-5.18l.55,1.74c0,.18.28.18.27,0V90.67A56.84,56.84,0,0,0,94,104.44a.87.87,0,0,0,.32.06c1.11.63,3.63-.69,4.46-1.37C102.35,100.22,105.57,96,103.46,91.4ZM75.29,39.72A4.87,4.87,0,0,0,73.13,39a.77.77,0,0,0-.84.69c-2.08-.94-2.94-3.86-2.29-6.18a8.89,8.89,0,0,1,3.51-.82,6,6,0,0,1,3.7,1.85C79.35,36.67,77.6,39,75.29,39.72Zm-51,53.21a1.18,1.18,0,0,0,1.36.17,15.22,15.22,0,0,1,.7,2.89h0c-.07-1.08-.22-2.17-.25-3.25a7.53,7.53,0,0,1,2.47-1.86,4.76,4.76,0,0,1,3.55.61c2.5,1.35,3.5,4.17,1.91,6.59-2.15,3.28-6.64,3-9.28.62a5.46,5.46,0,0,1-1.87-3.8A2.94,2.94,0,0,1,23,94a1.16,1.16,0,0,0,1.23-1.09ZM60.63,27a5.11,5.11,0,0,1,2,3.36c.66,3-1.13,4.71-3.5,5.42a19.7,19.7,0,0,0-.72-9.24A3.46,3.46,0,0,1,60.63,27ZM19.53,61a3.76,3.76,0,0,1-1.67,1.63c-1.26.51-2.53-.11-3.55-1.14a4.87,4.87,0,0,1-1.42-4.06,4.42,4.42,0,0,1,1.18-2.21,2.68,2.68,0,0,0,.28-.3c.76.6,1.55,1.18,2.39,1.72a21.69,21.69,0,0,0,3.7,1.93A12.9,12.9,0,0,1,19.53,61Zm-1.27-7c-.62-.33-1.2-.7-1.77-1.08a.12.12,0,0,0-.08-.16.11.11,0,0,0-.08,0h-.08c-10.41-7.09-12-22.28-2.19-30.48.82-.69,9.32-6.63,14.41-9.51a.64.64,0,0,0,.72.55.63.63,0,0,0,.53-.46c.07-.29.15-.58.22-.87a9,9,0,0,1,1.79-.74,1.55,1.55,0,0,0,1.8,1c14.11-3,25,13.51,21.83,25.85-1.63,6.26-6,11.23-11.59,14.42a1.34,1.34,0,0,0-1.37.74C34.82,57.14,25.48,57.77,18.26,54Zm48.86,38.8a10.91,10.91,0,0,1-13,2.58.87.87,0,0,0-.73-.36,28.52,28.52,0,0,1-10-9C38,78.39,35.08,68.07,37.1,58.85a31.72,31.72,0,0,0,6.8-3.13c16.37,4.6,41.16,18.74,23.22,37.06Zm31.06,7a13.89,13.89,0,0,1-2.45,1.93h0c-.43-3.36-.11-13.55,4-10.24,3.18,2.63.62,6.1-1.55,8.3Z"/><path class="cls-2" d="M15.21,16.41C14.62,12.67,12.56,9,11,5.64a.85.85,0,0,0-1.16-.29.66.66,0,0,0-.17.12c-1,1.3.08,2.83.76,4A38.09,38.09,0,0,1,14,16.76a.64.64,0,1,0,1.24-.35Z"/><path class="cls-2" d="M49.35,28.79c-.58-1.14-2.17-.48-2.23.63-.38,7.39-4,14.48-11.64,16.73-4.19,1.24-8.65-.41-12.32-2.31a40.07,40.07,0,0,1-4-2.58c-1.77-1.19-2.47-1.2.38-.83a.68.68,0,0,0,.55.65.76.76,0,0,0,.38-1.47.71.71,0,0,0-.86.45c-1.16-.17-3.06-.46-3.23-.5a.36.36,0,0,0-.43.27.35.35,0,0,0,0,.25,19.69,19.69,0,0,0,23.37,7.78C45.24,45.54,52.53,35.12,49.35,28.79Z"/><path class="cls-2" d="M28.09,32.64l-.48.17-.11,0h0V32.8c-.08-.14-.16-.29-.23-.44a9.48,9.48,0,0,1-.37-1.06c-.28-.91-.51-3.71-1.67-4.09-.45-.39-.93.09-1,.66h0a5.58,5.58,0,0,0,.06,1.78,19.74,19.74,0,0,0,.57,3.25,3.84,3.84,0,0,0,1.49,2.47,2.15,2.15,0,0,0,2.86-1,2,2,0,0,0,.14-.41,1.06,1.06,0,0,0-.81-1.27A1,1,0,0,0,28.09,32.64Z"/><path class="cls-2" d="M34.35,28.64c-.5-1.05-1-2.11-1.46-3.18-.16-.38-.34-.76-.54-1.13a1.26,1.26,0,0,0-.44-.48h-.08a.58.58,0,0,0-.16-.19.77.77,0,0,0-1,.28.7.7,0,0,0-.12.34,3,3,0,0,0-.11.5,2.64,2.64,0,0,0,.13.68,26.07,26.07,0,0,0,1.07,3c.37,1,.76,2,1.15,3s.66,2.13,1.86,2.11C37.19,33.43,34.78,29.64,34.35,28.64Z"/></svg>