<svg id="Layer_1" data-name="Layer 1" xmlns="http://www.w3.org/2000/svg" xmlns:xlink="http://www.w3.org/1999/xlink" viewBox="0 0 100 100"><defs><style>.cls-1{fill:none;clip-rule:evenodd;}.cls-2{clip-path:url(#clip-path);}</style><clipPath id="clip-path" transform="translate(5 5)"><path class="cls-1" d="M19.5,14.34a4,4,0,0,1-4-4V4a4,4,0,0,1,8,0v6.34A4,4,0,0,1,19.5,14.34Zm51,0a4,4,0,0,1-4-4V4a4,4,0,0,1,8,0v6.34A4,4,0,0,1,70.5,14.34ZM85,82.13V28H5V82.13A2.86,2.86,0,0,0,7.87,85H82.13A2.87,2.87,0,0,0,85,82.13ZM82.13,5.59A7.87,7.87,0,0,1,90,13.46V82.13A7.87,7.87,0,0,1,82.13,90H7.87A7.87,7.87,0,0,1,0,82.13V13.46A7.87,7.87,0,0,1,7.87,5.59H11v4.75a8.5,8.5,0,0,0,17,0V5.59H62v4.75a8.5,8.5,0,1,0,17,0V5.59ZM68.32,68.79h7.81a1.48,1.48,0,0,1,1,.43,1.46,1.46,0,0,1,.43,1v4.89a1.47,1.47,0,0,1-1.47,1.47H68.32a1.47,1.47,0,0,1-1.47-1.47V70.26a1.46,1.46,0,0,1,.43-1A1.48,1.48,0,0,1,68.32,68.79Zm0-16.21h7.81a1.47,1.47,0,0,1,1.47,1.47V59a1.46,1.46,0,0,1-1.47,1.46H68.32A1.46,1.46,0,0,1,66.85,59v-4.9A1.47,1.47,0,0,1,68.32,52.58Zm0-16.2h7.81a1.44,1.44,0,0,1,1,.43,1.42,1.42,0,0,1,.43,1v4.9a1.47,1.47,0,0,1-1.47,1.47H68.32a1.48,1.48,0,0,1-1-.43,1.46,1.46,0,0,1-.43-1v-4.9A1.46,1.46,0,0,1,68.32,36.38ZM50.17,68.79H58a1.48,1.48,0,0,1,1,.43,1.46,1.46,0,0,1,.43,1v4.89A1.47,1.47,0,0,1,58,76.62H50.17a1.47,1.47,0,0,1-1.47-1.47V70.26A1.47,1.47,0,0,1,50.17,68.79Zm0-16.21H58A1.48,1.48,0,0,1,59,53a1.46,1.46,0,0,1,.43,1V59A1.46,1.46,0,0,1,58,60.41H50.17A1.46,1.46,0,0,1,48.7,59v-4.9A1.47,1.47,0,0,1,50.17,52.58Zm0-16.2H58a1.44,1.44,0,0,1,1,.43,1.42,1.42,0,0,1,.43,1v4.9A1.47,1.47,0,0,1,58,44.21H50.17a1.48,1.48,0,0,1-1-.43,1.46,1.46,0,0,1-.43-1v-4.9A1.46,1.46,0,0,1,50.17,36.38ZM32,68.79h7.81a1.47,1.47,0,0,1,1.47,1.47v4.89a1.47,1.47,0,0,1-1.47,1.47H32a1.47,1.47,0,0,1-1.47-1.47V70.26a1.46,1.46,0,0,1,.43-1A1.48,1.48,0,0,1,32,68.79Zm0-16.21h7.81a1.47,1.47,0,0,1,1.47,1.47V59a1.46,1.46,0,0,1-1.47,1.46H32A1.46,1.46,0,0,1,30.55,59v-4.9A1.47,1.47,0,0,1,32,52.58Zm0-16.2h7.81a1.46,1.46,0,0,1,1.47,1.46v4.9a1.47,1.47,0,0,1-1.47,1.47H32a1.47,1.47,0,0,1-1.47-1.47v-4.9A1.46,1.46,0,0,1,32,36.38ZM13.87,68.79h7.81a1.48,1.48,0,0,1,1,.43,1.46,1.46,0,0,1,.43,1v4.89a1.47,1.47,0,0,1-1.47,1.47H13.87a1.47,1.47,0,0,1-1.47-1.47V70.26a1.46,1.46,0,0,1,.43-1A1.48,1.48,0,0,1,13.87,68.79Zm0-16.21h7.81a1.47,1.47,0,0,1,1.47,1.47V59a1.46,1.46,0,0,1-1.47,1.46H13.87A1.46,1.46,0,0,1,12.4,59v-4.9A1.47,1.47,0,0,1,13.87,52.58Zm0-16.2h7.81a1.44,1.44,0,0,1,1,.43,1.42,1.42,0,0,1,.43,1v4.9a1.47,1.47,0,0,1-1.47,1.47H13.87a1.48,1.48,0,0,1-1-.43,1.46,1.46,0,0,1-.43-1v-4.9A1.46,1.46,0,0,1,13.87,36.38Z"/></clipPath></defs><title>calendar</title><g class="cls-2"><rect fill="#76c8eb" width="100" height="100"/></g></svg>