<svg id="Layer_1" data-name="Layer 1" xmlns="http://www.w3.org/2000/svg" xmlns:xlink="http://www.w3.org/1999/xlink" viewBox="0 0 100.13 100.12"><defs><style>.cls-1{fill:none;}.cls-2{clip-path:url(#clip-path);}</style><clipPath id="clip-path" transform="translate(4.06 4.06)"><path class="cls-1" d="M62.35,62.35a4.38,4.38,0,0,1-6.21,0L46,52.22,35.87,62.35a4.4,4.4,0,0,1-6.22-6.22L39.78,46,29.65,35.87a4.39,4.39,0,1,1,6.21-6.22L46,39.78,56.14,29.65a4.39,4.39,0,1,1,6.21,6.22L52.22,46,62.35,56.13A4.39,4.39,0,0,1,62.35,62.35ZM46,.94A45.06,45.06,0,1,0,91.06,46,45.11,45.11,0,0,0,46,.94Z"/></clipPath></defs><title>close</title><g class="cls-2"><rect fill="#959595" width="100.13" height="100.12"/></g></svg>