<svg id="Layer_1" data-name="Layer 1" xmlns="http://www.w3.org/2000/svg" viewBox="0 0 42.31 41.14"><defs><style>.cls-1{fill:#e20613;}.cls-2{fill:#3c3c3b;}</style></defs><title>3_pic</title><path class="cls-1" d="M41.37,20.29c-2.16-3.14-4.1-6.4-6.06-9.66-.62-1-1.41-2.1-2.18-3.18-.86-3.72-3.29-7.19-7.43-7C23.06.59,22,3.27,22.27,5.53a4.89,4.89,0,0,0-2.08,4.12c-.53-.42-1.07-.83-1.63-1.24-3.42-2.47-7.93,1.69-6.09,5.35C13.61,16,14.81,18.29,16,20.53c-3.38-1.72-7.57,1.15-5.83,5.3.22.54.41,1.09.59,1.64-1.2-.76-2.41-1.5-3.64-2.22-3.52-2-7.68,2.28-4.79,5.5A8.16,8.16,0,0,0,5.46,33c3.17,2.14,6.25,4.4,9.46,6.47s6.43-.87,6-4.12a48,48,0,0,1,4.61,4.75c3.21,3.86,8.37-.43,6.86-4.59-.25-.67-.52-1.32-.78-2,1.06,1.16,2.14,2.29,3.26,3.39,3.3,3.24,9.15-.21,7-4.65-.83-1.67-1.69-3.31-2.57-5A4.75,4.75,0,0,0,41.74,21,3.83,3.83,0,0,0,41.37,20.29Z" transform="translate(0 -0.45)"/><path class="cls-2" d="M26.79,2.4c-11-3.75-16.13,7.76-11.66,15.94C7,18.79-4.6,23.14,1.89,32.21c8.43,11.78,25,8.31,37.21,4.92a1.86,1.86,0,0,0,3-1.71C40.05,25.92,37.81,6.14,26.79,2.4Zm6,13.18c2.64,6.16,3.13,13,5.32,19.24-8.28,1.49-17,3-25.2.8-4-1.08-11.56-6.35-7.22-10.93,3.23-3.4,9.22-3.09,13.38-2.37a1.93,1.93,0,0,0,2-1.81,1.91,1.91,0,0,0-.46-1.37c-3.9-3.6-5.71-10-.2-13.25,6-3.57,10.56,5.65,12.29,9.69Z" transform="translate(0 -0.45)"/></svg>