<svg id="Layer_1" data-name="Layer 1" xmlns="http://www.w3.org/2000/svg" viewBox="0 0 35.98 39.52"><defs><style>.cls-1{fill:#009ee2;}.cls-2{fill:#3c3c3b;}</style></defs><title>4_pic</title><path class="cls-1" d="M33.44,27A52.1,52.1,0,0,0,31,11.47a2.82,2.82,0,0,0-3.16-1.85c-.18-.4-.34-.79-.53-1.19-1.12-2.36-4.75-1.12-4.74,1.28V11a34.54,34.54,0,0,0-1.9-4.21C19.44,4.62,16,5.66,16,8.07v3.46a24.1,24.1,0,0,0-2.9-5.47c-1.16-1.58-3.73-1.56-4.32.56-.16.58-.34,1.15-.52,1.72-.33-1.09-.67-2.18-1-3.28a2,2,0,0,0-3.9,1.08,67.1,67.1,0,0,0,3,10.76,2.29,2.29,0,0,0,4.48-.6,17.14,17.14,0,0,1,.69-3.16c1.47,3.58,2.36,7.45,4,11,.86,1.85,4.06,1.42,4.42-.58.17-.92.3-1.84.41-2.76.7,2.59,1.38,5.19,2.28,7.71A2.61,2.61,0,0,0,26,30.08a2.88,2.88,0,0,0,.78-.45c.17,2.43.35,4.85.61,7.27.34,3.29,5.51,3.36,5.2,0-.21-2.53-.36-5.07-.49-7.61A2.31,2.31,0,0,0,33.44,27Z" transform="translate(0 -3.25)"/><path class="cls-2" d="M30.46,8.68C24.89,2.34-1.22-.71.88,12.47a1.07,1.07,0,0,0,.22.47C0,13.42-.41,14.45.53,16.32c.28.55,1,.22,1-.29C2,11.52,13.72,17.3,15.35,18.16c7.25,3.83,11,16.14,5.51,22.59a1.23,1.23,0,0,0,1.19,2C37.35,39.23,39.87,19.41,30.46,8.68ZM24.69,39.25c3.69-8.26-1-19.52-9-23.58-1.2-.61-8.43-3.15-12.62-3.06a1,1,0,0,0,.11-.44c.2-6.32,8.4-6.33,13.08-6.16,5.52.2,10.53,1.75,13.93,6.28C36.54,20.84,34,34.59,24.69,39.25Z" transform="translate(0 -3.25)"/></svg>