<svg id="Layer_1" data-name="Layer 1" xmlns="http://www.w3.org/2000/svg" viewBox="0 0 73.62 62.88"><defs><style>.cls-1{fill:#f7ca24;}.cls-2{fill:#3c3c3b;}</style></defs><title>2_pic</title><path class="cls-1" d="M69.74,40.42a5.56,5.56,0,0,0-7-6.3,13.47,13.47,0,0,0-2.77,1,13.18,13.18,0,0,0-5.29-2.57c.07-.28.12-.56.19-.83,1-4.32-3.32-7-6.79-6.08a78.3,78.3,0,0,0,1.16-7.92,5.78,5.78,0,0,0-.89-3.58c2.7-5.88-6-10.21-9-4.46l-3,5.7a27.38,27.38,0,0,1-6.36,7.41,4.64,4.64,0,0,0-8-3.37c-1.81,1.77-3.75,3.24-5.52,5a11.31,11.31,0,0,0-3.73,1.84c-1.55,1-.89,3.86,1.12,3.67.69,2.23,3.5,3.72,5.63,2.17l.46-.32a5,5,0,0,0,5.84,3.84l.28-.07c-2.1,4.39-4.13,8.82-6,13.34-2.06,5,4.9,10.66,8.38,5.67l.77-1.14h0Q32,49.3,34.63,45c0,.66-.07,1.32-.06,2,0,5.4,7.69,6.62,10,2l.16-.3a5.36,5.36,0,0,0,6.12-1.24l3-3.38c.83.6,1.59,1.31,2.31,1.94a5.41,5.41,0,0,0,2.22,1.17,4.71,4.71,0,0,0,.61.47C64.44,51.3,69,45.29,69.74,40.42Z" transform="translate(0 -0.01)"/><path class="cls-2" d="M72.28,40.33C65,35.74,57.42,31.57,51,25.88c-6.86-6-8.75-15.55-10.38-24.07C40.19,0,37.18-.68,36.11.87,31.57,7.46,26.9,14,22.36,20.56A4.31,4.31,0,0,0,22,21c-6.22-1.9-12.55-3.39-18.83-5A2.67,2.67,0,0,0,.38,20c3,4.07,16.28,12.31,15.78,17.15-.77,7.5-8.26,14.77-10.79,21.88-.86,2.39,1.4,4.85,3.81,3.41C15.44,58.72,20.93,54,26.8,49.74,29.13,48,37.72,59.11,40.16,61c1.48,1.14,4.06.69,4.36-1.45.42-3-.9-13.84,2.26-13.64,8.11.52,16.33-.12,24.43-.57C74.05,45.17,74.35,41.67,72.28,40.33Zm-30.66,0a2.64,2.64,0,0,0-2.49,2.78h0c.26,3.48.59,6.87.57,10.29a104.38,104.38,0,0,1-8.16-9.78,2.7,2.7,0,0,0-3.67-.79c-4.53,2.86-8.71,6.16-13,9.34,3-5,6.14-10,6.72-15.79.46-4.43-4.44-8.74-9.18-12.54,2.94.76,5.85,1.58,8.75,2.47a2.68,2.68,0,0,0,1.73.52l.52.16c2.32.76,3.48-1.67,2.79-3.51q5.43-7.29,10.69-14.7c4.29,15.51,13,23.14,25.86,31.67a207.81,207.81,0,0,1-21.18-.16Z" transform="translate(0 -0.01)"/></svg>