<svg id="Layer_1" data-name="Layer 1" xmlns="http://www.w3.org/2000/svg" viewBox="0 0 45.48 46.72"><defs><style>.cls-1{fill:#ef66b2;}.cls-2{fill:#3c3c3b;}</style></defs><title>1_pic</title><path class="cls-1" d="M38.51,6.76a1.83,1.83,0,0,0-.36.26c-.32-.18-.63-.38-1-.56a3,3,0,0,0-3.51.46,1.7,1.7,0,0,0-.19.19L33.05,7a2.9,2.9,0,0,0-3.42,1.75c-1.7-.38-3.72.74-3.77,2.54-.44-.7-.88-1.39-1.35-2.06a3,3,0,0,0-4.16-.81,2.9,2.9,0,0,0-1.13,1.41C18.1,8,16.94,6.09,15.7,4.27a2.54,2.54,0,0,0-4.39,2.57A56.81,56.81,0,0,1,15.61,20l-.2.24a27.42,27.42,0,0,0-4.92-4,2.5,2.5,0,0,0-3.41.93,2.58,2.58,0,0,0-.33,1.21,3.46,3.46,0,0,1-.06.79v-.06a2,2,0,0,0-3.36,2A24.8,24.8,0,0,0,6.8,26.85c1.39,1.72,3.76.13,3.92-1.62.07-.77.19-1.53.33-2.29.58.54,1.13,1.11,1.65,1.7A2.73,2.73,0,0,0,12.58,26c.5,3,1.16,6,1.73,8.93a37.11,37.11,0,0,1-2.6-2.72c-1.75-2-4.55.56-3.51,2.71,1.29,2.66.93,6.21,1.26,9.11.08.7,1.13,1,1.32.18.41-1.73,1-3.23,1.34-4.71,1.3,1.25,2.65,2.46,3.92,3.74a2.53,2.53,0,0,0,4.27-1.77,27.76,27.76,0,0,0,0-3.16,2.72,2.72,0,0,0,4.46-2.69,4.22,4.22,0,0,0-.17-.86,3.28,3.28,0,0,0,2.61-.36c.64,1.12,1.28,2.23,2,3.33,1.55,2.56,6.06.89,5-2.1-.1-.27-.2-.53-.29-.8C35.54,35,37.25,34,37,32.06c-.14-1.09-.29-2.17-.46-3.25a3,3,0,0,0,2.11-3.5c-.76-3.67-1.61-7.3-2.43-10.9a2.9,2.9,0,0,0,1.43-.77c.69.51,1.36,1,2,1.63,1.74,1.64,5.14.61,5-2.06S42.63,4.28,38.51,6.76Z" transform="translate(0)"/><path class="cls-2" d="M44.23,5.26c-5-5.62-13.21.38-16.94,5.52C23.82,5.28,17.65-2.5,11.05.78c-6.36,3.16-2.49,9.21,2,13.39C8.23,13,2.79,12.44.87,15.91c-3.11,5.61,2.68,9,7.81,9.89-5.3,6-7,16,1.4,20,7,3.42,12.16-3.28,14.9-10,8.63,9.62,24.86-13.47,10.76-17.43C41.44,15.49,48.35,10,44.23,5.26ZM40,12.53a22.49,22.49,0,0,1-3.79,2.87A17.33,17.33,0,0,1,30,17.92c-1.46.28-1.11,2.61.35,2.57C48.43,20,32.94,42.9,26.13,32.77a29.35,29.35,0,0,0,1-4.34c.17-1.1-1.46-1.61-1.71-.47-.16.76-.35,1.52-.56,2.29-.11-.3-.22-.58-.32-.9A1.31,1.31,0,0,0,22,30,18.47,18.47,0,0,0,23.65,34a19.39,19.39,0,0,1-6.49,9c-5,3.57-10.19-1.59-10.35-6.54-.13-4,2.57-8.24,5.62-10.59.92-.71.79-2.53-.67-2.45a13.06,13.06,0,0,1-6.62-1.29c.32-2,.65-4,1-5.95A16.73,16.73,0,0,1,9,16.2c3.37.19,6.74,1.33,10,2.19,1.34.36,2.25-1.63,1-2.28A25.94,25.94,0,0,1,15.2,13a19.33,19.33,0,0,1-3.4-3.71Q14.8,0,19.24,5a32.46,32.46,0,0,1,7,8.81,1.29,1.29,0,0,0,1.77.43,1.36,1.36,0,0,0,.43-.43,18.47,18.47,0,0,1,9.66-8q6.34,3.39,1.82,6.7Z" transform="translate(0)"/></svg>