<svg id="Layer_1" data-name="Layer 1" xmlns="http://www.w3.org/2000/svg" viewBox="0 0 256.52 93.12"><defs><style>.cls-1{fill:#ef66b2;}.cls-2{fill:#3c3c3b;}.cls-3{fill:#f7ca24;}.cls-4{fill:#e20613;}.cls-5{fill:#009ee2;}</style></defs><title>top_pic</title><path class="cls-1" d="M42.28,53.12a1.83,1.83,0,0,0-.36.26c-.32-.18-.63-.38-1-.56a3,3,0,0,0-3.51.46,1.7,1.7,0,0,0-.19.19l-.4-.11a2.9,2.9,0,0,0-3.42,1.75c-1.7-.38-3.72.74-3.77,2.54-.44-.7-.88-1.39-1.35-2.06a3,3,0,0,0-5.29.6c-1.12-1.88-2.28-3.74-3.52-5.56a2.54,2.54,0,0,0-4.39,2.57,56.77,56.77,0,0,1,4.3,13.14l-.2.24a27.25,27.25,0,0,0-4.92-4,2.5,2.5,0,0,0-3.74,2.14c0,.27,0,.53-.06.79l0-.06a2,2,0,0,0-3.36,2,24.8,24.8,0,0,0,3.47,5.76c1.39,1.72,3.76.13,3.92-1.62.07-.77.19-1.53.33-2.29.58.54,1.13,1.11,1.65,1.7a2.7,2.7,0,0,0-.12,1.33c.5,3,1.16,6,1.73,8.93a37.11,37.11,0,0,1-2.6-2.72c-1.75-2-4.55.56-3.51,2.71,1.29,2.66.93,6.21,1.26,9.11.08.7,1.13,1,1.32.18.41-1.73.95-3.23,1.34-4.71,1.3,1.25,2.65,2.46,3.92,3.74a2.53,2.53,0,0,0,4.27-1.77,27.77,27.77,0,0,0,0-3.16,2.72,2.72,0,0,0,4.46-2.69c0-.29-.11-.58-.17-.86a3.27,3.27,0,0,0,2.61-.36c.64,1.12,1.28,2.23,2,3.33,1.55,2.56,6.06.89,5-2.1-.1-.27-.2-.53-.29-.8,1.62.15,3.33-.82,3.09-2.74-.14-1.09-.29-2.17-.46-3.25a3,3,0,0,0,2.11-3.5C41.67,68,40.82,64.37,40,60.77A2.93,2.93,0,0,0,41.43,60a25.16,25.16,0,0,1,2,1.63c1.74,1.64,5.14.61,5-2.06S46.4,50.64,42.28,53.12Z" transform="translate(-3.77)"/><path class="cls-2" d="M48,51.62C43,46,34.79,52,31.06,57.14c-3.47-5.5-9.64-13.28-16.24-10-6.36,3.16-2.49,9.21,2,13.39C12,59.38,6.56,58.8,4.64,62.27c-3.11,5.61,2.68,9,7.81,9.89-5.3,6-7,16,1.4,20,7,3.42,12.16-3.28,14.9-10,8.63,9.62,24.86-13.47,10.76-17.43C45.21,61.85,52.12,56.33,48,51.62Zm-4.27,7.27a22.09,22.09,0,0,1-3.79,2.87,17.33,17.33,0,0,1-6.22,2.52c-1.46.28-1.11,2.61.35,2.57,18.13-.53,2.64,22.41-4.17,12.28a29.49,29.49,0,0,0,1-4.34c.17-1.1-1.46-1.61-1.71-.47-.16.76-.35,1.52-.56,2.29-.11-.3-.22-.58-.32-.9-.49-1.61-3-.93-2.53.69a18.57,18.57,0,0,0,1.64,3.92,19.38,19.38,0,0,1-6.49,9c-5,3.57-10.19-1.59-10.35-6.54-.13-4,2.57-8.24,5.62-10.59.92-.71.79-2.53-.67-2.45a13.1,13.1,0,0,1-6.62-1.29c.32-2,.65-4,1-5.95a16.75,16.75,0,0,1,2.83.06c3.37.19,6.74,1.33,10,2.19,1.34.36,2.25-1.63,1-2.28a25.92,25.92,0,0,1-4.77-3.12,19.3,19.3,0,0,1-3.4-3.71q3-9.26,7.44-4.26a32.38,32.38,0,0,1,7,8.81,1.29,1.29,0,0,0,2.2,0,18.45,18.45,0,0,1,9.66-8Q48.21,55.58,43.69,58.89Z" transform="translate(-3.77)"/><path class="cls-3" d="M135.46,40.42c.64-4.26-3-7.27-7.05-6.3a13.63,13.63,0,0,0-2.77,1,13.13,13.13,0,0,0-5.29-2.57c.07-.28.12-.56.19-.83,1-4.32-3.32-7-6.79-6.08a78.72,78.72,0,0,0,1.16-7.92,5.75,5.75,0,0,0-.89-3.58c2.7-5.88-6-10.21-9-4.46l-3,5.7a27.43,27.43,0,0,1-6.36,7.41,4.64,4.64,0,0,0-8-3.37c-1.81,1.77-3.75,3.24-5.52,5a11.32,11.32,0,0,0-3.73,1.84c-1.55,1.05-.89,3.86,1.12,3.67.69,2.23,3.5,3.72,5.63,2.17l.46-.32a4.94,4.94,0,0,0,6.12,3.77c-2.1,4.39-4.13,8.82-6,13.34-2.06,5,4.9,10.66,8.38,5.67l.77-1.14h0q2.83-4.12,5.46-8.38c0,.66-.07,1.32-.06,2,0,5.4,7.69,6.62,10,2l.16-.3a5.36,5.36,0,0,0,6.12-1.24l3.05-3.38c.83.6,1.59,1.31,2.31,1.94a5.42,5.42,0,0,0,2.22,1.17,4.92,4.92,0,0,0,.61.47C130.16,51.3,134.73,45.29,135.46,40.42Z" transform="translate(-3.77)"/><path class="cls-2" d="M138,40.33c-7.24-4.59-14.86-8.76-21.31-14.45-6.86-6-8.75-15.55-10.38-24.07C105.91,0,102.9-.68,101.83.87,97.29,7.46,92.62,14,88.08,20.56a4.49,4.49,0,0,0-.39.46c-6.22-1.9-12.55-3.39-18.83-5a2.67,2.67,0,0,0-2.76,4c3,4.07,16.28,12.31,15.78,17.15-.77,7.5-8.26,14.77-10.79,21.88-.86,2.39,1.4,4.85,3.81,3.41C81.16,58.72,86.65,54,92.52,49.74,94.85,48,103.44,59.11,105.88,61c1.48,1.14,4.06.69,4.36-1.45.42-3-.9-13.84,2.26-13.64,8.11.52,16.33-.12,24.43-.57C139.77,45.17,140.07,41.67,138,40.33Zm-30.66,0a2.64,2.64,0,0,0-2.49,2.79c.26,3.48.59,6.87.57,10.29a104.63,104.63,0,0,1-8.16-9.78,2.7,2.7,0,0,0-3.67-.79c-4.53,2.86-8.71,6.16-13,9.34,3-5,6.14-10,6.72-15.79.46-4.43-4.44-8.74-9.18-12.54,2.94.76,5.85,1.58,8.75,2.47a2.68,2.68,0,0,0,1.73.52l.52.16c2.32.76,3.48-1.67,2.79-3.51q5.43-7.29,10.69-14.7c4.29,15.51,13,23.14,25.86,31.67A207.11,207.11,0,0,1,107.29,40.3Z" transform="translate(-3.77)"/><path class="cls-4" d="M198,31.53c-2.16-3.14-4.1-6.4-6.06-9.66-.62-1-1.41-2.1-2.18-3.18-.86-3.72-3.29-7.19-7.43-7-2.64.14-3.69,2.82-3.43,5.08a4.87,4.87,0,0,0-2.08,4.12c-.53-.42-1.07-.83-1.63-1.24-3.42-2.47-7.93,1.69-6.09,5.35,1.14,2.28,2.34,4.53,3.55,6.77-3.38-1.72-7.57,1.15-5.83,5.3.22.54.41,1.09.59,1.64-1.2-.76-2.41-1.5-3.64-2.22-3.52-2-7.68,2.28-4.79,5.5a8.07,8.07,0,0,0,3.11,2.22c3.17,2.14,6.25,4.4,9.46,6.47s6.43-.87,6-4.12a48.11,48.11,0,0,1,4.61,4.75c3.21,3.86,8.37-.43,6.86-4.59-.25-.67-.52-1.32-.78-2,1.06,1.16,2.14,2.29,3.26,3.39,3.3,3.24,9.15-.21,6.95-4.65-.83-1.67-1.69-3.31-2.57-5A4.75,4.75,0,0,0,198,31.53Z" transform="translate(-3.77)"/><path class="cls-2" d="M183.42,13.64c-11-3.75-16.13,7.76-11.66,15.94-8.11.45-19.73,4.8-13.24,13.87,8.43,11.78,25,8.31,37.21,4.92a1.86,1.86,0,0,0,3-1.71C196.68,37.16,194.44,17.38,183.42,13.64Zm6,13.18c2.64,6.16,3.13,13,5.32,19.24-8.28,1.49-17,3-25.2.8-4-1.08-11.56-6.35-7.22-10.93,3.23-3.4,9.22-3.09,13.38-2.37a1.93,1.93,0,0,0,1.58-3.18c-3.9-3.6-5.71-10-.2-13.25C183.05,13.56,187.64,22.78,189.37,26.82Z" transform="translate(-3.77)"/><path class="cls-5" d="M257.75,42.06a52.15,52.15,0,0,0-2.49-15.52,2.83,2.83,0,0,0-3.16-1.85c-.18-.4-.34-.79-.53-1.19-1.12-2.36-4.75-1.12-4.74,1.28V26.1a35.25,35.25,0,0,0-1.9-4.21c-1.18-2.2-4.62-1.16-4.62,1.25,0,1.15,0,2.31,0,3.46a24.34,24.34,0,0,0-2.9-5.47c-1.16-1.58-3.73-1.56-4.32.56-.16.58-.34,1.15-.52,1.72-.33-1.09-.67-2.18-1-3.28a2,2,0,0,0-3.9,1.08,66.94,66.94,0,0,0,3,10.76,2.29,2.29,0,0,0,4.48-.6,16.52,16.52,0,0,1,.69-3.16c1.47,3.58,2.36,7.45,4,11,.86,1.85,4.06,1.42,4.42-.58.17-.92.3-1.84.41-2.76.7,2.59,1.38,5.19,2.28,7.71a2.6,2.6,0,0,0,4.11,1.12c.17,2.43.35,4.85.61,7.27.34,3.29,5.51,3.36,5.2,0-.21-2.53-.36-5.07-.49-7.61A2.3,2.3,0,0,0,257.75,42.06Z" transform="translate(-3.77)"/><path class="cls-2" d="M254.77,23.75c-5.57-6.34-31.68-9.39-29.58,3.79a1,1,0,0,0,.22.47c-1.13.48-1.51,1.51-.57,3.38.28.55,1,.22,1-.29.46-4.51,12.19,1.27,13.82,2.13,7.25,3.83,11,16.14,5.51,22.59a1.23,1.23,0,0,0,1.19,2C261.66,54.3,264.18,34.48,254.77,23.75ZM249,54.32c3.69-8.26-1-19.52-9-23.58-1.2-.61-8.43-3.15-12.62-3.06a.9.9,0,0,0,.11-.44c.2-6.32,8.4-6.33,13.08-6.16,5.52.2,10.53,1.75,13.93,6.28C260.85,35.91,258.32,49.66,249,54.32Z" transform="translate(-3.77)"/></svg>