<svg id="footter" xmlns="http://www.w3.org/2000/svg" width="1920" height="621.53" viewBox="0 0 1920 621.53">
  <defs>
    <style>
      .cls-1 {
        fill: #e1c62b;
      }

      .cls-1, .cls-2 {
        fill-rule: evenodd;
      }

      .cls-2 {
        fill: #e86b55;
      }
    </style>
  </defs>
  <path id="_1" data-name="1" class="cls-1" d="M1970.92,1931.19s-22.67-15.91-34.22-23.24q-17.355-10.935-35.06-20.75a802.028,802.028,0,0,0-146.23-62.35,878.39,878.39,0,0,0-152.74-33.74,850.074,850.074,0,0,0-155.95-5.93q-39.075,2.16-77.9,8.15a765.75,765.75,0,0,0-76.86,16.12,715.786,715.786,0,0,0-74.84,24.39c-6.1,2.44-12.23,4.8-18.25,7.42l-9.06,3.87-8.98,4.06-4.49,2.04-4.18,2.04-8.29,4.09c-5.52,2.74-11.07,5.41-16.56,8.22C855.539,2009.96,432.156,2670.04,127,1982c-13.048-29.47-50.614-132.91-75.147-209.88-0.933-2.92-2.742-8.66-2.742-8.66L49,2370l1920,15Z" transform="translate(-49 -1763.47)"/>
  <path id="bg" class="cls-2" d="M1970.01,2081.59a546.586,546.586,0,0,0-65.02-55.4q-16.86-12.255-34.17-23.24-17.325-10.92-35-20.75a800.26,800.26,0,0,0-146-62.35,875.778,875.778,0,0,0-152.5-33.74,847.435,847.435,0,0,0-155.71-5.93q-39,2.16-77.77,8.15a763.468,763.468,0,0,0-76.74,16.12,713.72,713.72,0,0,0-74.72,24.39c-6.09,2.44-12.21,4.8-18.22,7.42l-9.05,3.87-8.97,4.06-4.47,2.04-4.18,2.04-8.28,4.09c-5.51,2.74-11.05,5.41-16.53,8.22-43.9,22.31-86.9,46.58-128.387,72.85q-31.106,19.695-61.148,40.53c-19.983,13.88-39.577,28.06-58.835,42.26-38.554,28.4-75.6,56.99-112.968,82.63-37.361,25.69-75.355,48.2-115.792,65.9a656.267,656.267,0,0,1-62.22,23.46,567.04,567.04,0,0,1-64.44,16.7c-43.36,8.47-87.624,11.18-130.591,4.99a287.685,287.685,0,0,1-62.7-16.42,266.25,266.25,0,0,1-57.344-31.07c-35.9-25.44-65.843-60.21-89.536-99.35-23.681-39.26-41.541-82.63-55.268-127.38C69.738,1990.85,53.146,1944.73,46,1898c2.553,47.2,2,487,2,487H1968.97Z" transform="translate(-49 -1763.47)"/>
</svg>
