<?xml version="1.0" encoding="utf-8"?>
<!-- Generator: Adobe Illustrator 23.0.1, SVG Export Plug-In . SVG Version: 6.00 Build 0)  -->
<svg version="1.1" id="Layer_1" xmlns="http://www.w3.org/2000/svg" xmlns:xlink="http://www.w3.org/1999/xlink" x="0px" y="0px"
	 viewBox="0 0 45.4 43.6" style="enable-background:new 0 0 45.4 43.6;" xml:space="preserve">
<style type="text/css">
	.st0{fill:#E20613;}
	.st1{fill:#3C3C3B;}
</style>
<g>
	<path class="st0" d="M33.9,36c1.2,0,2.5-0.6,3.1-1.8c1.8-3.2,2.9-6.3,3.4-9.9c2-5.7,3.9-11.3,4.9-17.3c0.6-3.8-5.2-6.6-6.7-2.5
		c-0.4,1.1-0.8,2.2-1.3,3.3c-0.7-3.1-4.9-3.8-6.6-0.9c-0.9,1.5-1.8,3.1-2.5,4.7c-1.2-2.1-4.5-2.9-5.9-0.1c-1,2-1.9,4-2.9,6
		c-0.5-2.5-3.2-3.1-5.2-1.9c0-0.7,0-1.5-0.1-2.2c-0.1-2.4-2.3-3.6-4.3-3.2c0.3-1.4,0.5-2.7,0.8-4.1C11.2,3,6.4,2,6.1,5
		c-1.7,5.7-3.7,11.4-4.7,17.3c-0.6,3.5,4.1,5.5,5.9,2.2c0-0.1,0.1-0.1,0.1-0.2c-0.1,1.7-0.1,3.3-0.3,5c-0.4,3.9,3.8,5.4,5.9,3
		c0,0.2,0,0.4,0,0.6c-0.1,1.7,1.1,2.8,2.6,3.1c-0.1,0.3-0.2,0.7-0.3,1c-0.8,3.2,3.8,6,5.9,3.2c2-2.6,3.6-5.3,5.1-8.2
		c-0.4,1.6-0.7,3.1-0.9,4.7c-0.6,4,4.5,6.1,6.7,2.5C32.7,38.3,33.3,37.1,33.9,36z"/>
	<path class="st1" d="M37.2,31.8c3.9-7.7,8-16.5,7.3-25.3c-0.4-5.4-4.8-7.3-9.4-5.7c-5.9,2-10.4,7.9-13.1,13.8
		C19.9,8.5,17,2.4,10.3,0.4c-9.3-2.8-11,9-10.1,15c1.1,7.3,7.9,13,13,17.8c3,2.8,7.7,8.4,12.2,9.1c0,0.6,0.3,1.1,1,1.2
		C31.9,44.2,35.3,35.6,37.2,31.8z M26.4,41c-0.3,0.1-0.5,0.2-0.6,0.4c-2.1-4.9-9.6-9.4-13.1-12.9c-3.3-3.3-7.2-7.1-8.9-11.6
		C3.2,15,3,13.1,2.9,11.1C9,3.9,13.4,3.2,16.1,9c2.1,3.2,3.1,7.2,4.2,10.8c0.5,1.6,2.6,1.4,3-0.1c1.8-6,5.3-11.1,10.4-14.7
		c8.6-6.1,8,6.9,6.3,11.9C38.1,22.7,33.2,39.4,26.4,41z"/>
</g>
</svg>
