<svg xmlns="http://www.w3.org/2000/svg" width="1920" height="546.06" viewBox="0 0 1920 546.06">
  <defs>
    <style>
      .cls-1 {
        fill: #e1c62b;
      }

      .cls-1, .cls-2 {
        fill-rule: evenodd;
      }

      .cls-2 {
        fill: #fff;
      }
    </style>
  </defs>
  <path id="bg" class="cls-1" d="M1970.01,1259.59a546.586,546.586,0,0,0-65.02-55.4q-16.86-12.255-34.17-23.24-17.325-10.92-35-20.75a800.26,800.26,0,0,0-146-62.35,875.778,875.778,0,0,0-152.5-33.74,847.435,847.435,0,0,0-155.71-5.93q-39,2.16-77.77,8.15a763.468,763.468,0,0,0-76.74,16.12,713.72,713.72,0,0,0-74.72,24.39c-6.09,2.44-12.21,4.8-18.22,7.42l-9.05,3.87-8.97,4.06-4.47,2.04-4.18,2.04-8.28,4.09c-5.51,2.74-11.05,5.41-16.53,8.22-43.9,22.31-86.9,46.58-128.387,72.85q-31.106,19.695-61.148,40.53c-19.983,13.88-39.577,28.06-58.835,42.26-30.655,22.58-60.357,45.28-90.025,66.52,10.791-9.67,21.392-18.65,31.715-25.74,37.427-25.64,65.933-55.38,104.549-83.78,19.287-14.2,38.913-28.38,58.927-42.26q30.063-20.79,61.244-40.53c41.56-26.27,84.62-50.54,128.59-72.85,5.49-2.81,11.04-5.48,16.56-8.22l8.29-4.09,4.18-2.04,4.49-2.04,8.98-4.06,9.06-3.87c6.02-2.62,12.15-4.98,18.25-7.42a715.786,715.786,0,0,1,74.84-24.39,765.75,765.75,0,0,1,76.86-16.12q38.76-5.94,77.9-8.15a850.074,850.074,0,0,1,155.95,5.93,878.39,878.39,0,0,1,152.74,33.74,802.028,802.028,0,0,1,146.23,62.35q17.7,9.855,35.06,20.75,17.325,10.995,34.22,23.24c5.3,3.86,15.79,11.89,15.79,11.89ZM47.284,1135.66c1.346,101.82,2.229,298.25,2.564,383.36L48,1519s0.557-343.8-2-391C46.378,1130.47,46.81,1133.03,47.284,1135.66Z" transform="translate(-49 -1013.94)"/>
  <path id="bg_copy" data-name="bg copy" class="cls-2" d="M1970.01,1259.59a546.586,546.586,0,0,0-65.02-55.4q-16.86-12.255-34.17-23.24-17.325-10.92-35-20.75a800.26,800.26,0,0,0-146-62.35,875.778,875.778,0,0,0-152.5-33.74,847.435,847.435,0,0,0-155.71-5.93q-39,2.16-77.77,8.15a763.468,763.468,0,0,0-76.74,16.12,713.72,713.72,0,0,0-74.72,24.39c-6.09,2.44-12.21,4.8-18.22,7.42l-9.05,3.87-8.97,4.06-4.47,2.04-4.18,2.04-8.28,4.09c-5.51,2.74-11.05,5.41-16.53,8.22-43.9,22.31-86.9,46.58-128.387,72.85q-31.106,19.695-61.148,40.53c-19.983,13.88-39.577,28.06-58.835,42.26-38.554,28.4-75.6,56.99-112.968,82.63-37.361,25.69-75.355,48.2-115.792,65.9a656.267,656.267,0,0,1-62.22,23.46,567.04,567.04,0,0,1-64.44,16.7c-43.36,8.47-87.624,11.19-130.591,4.99a287.685,287.685,0,0,1-62.7-16.42,266.25,266.25,0,0,1-57.344-31.07c-35.9-25.44-65.843-60.21-89.536-99.35-23.681-39.26-41.541-82.63-55.268-127.38C69.738,1168.85,53.146,1122.73,46,1076c2.553,47.2,4,484,4,484H1968.97Z" transform="translate(-49 -1013.94)"/>
</svg>
