<svg xmlns="http://www.w3.org/2000/svg" width="1920" height="794.25" viewBox="0 0 1920 794.25">
  <defs>
    <style>
      .cls-1 {
        fill: #fff;
      }

      .cls-1, .cls-2, .cls-3 {
        fill-rule: evenodd;
      }

      .cls-2 {
        fill: #e1c62b;
      }

      .cls-3 {
        fill: #ea4548;
      }
    </style>
  </defs>
  <path id="Rectangle_1_copy_4" data-name="Rectangle 1 copy 4" class="cls-1" d="M1952.7,361.949q-17.355-10.926-35.06-20.75a802.247,802.247,0,0,0-146.23-62.352,879.22,879.22,0,0,0-152.74-33.741,850.514,850.514,0,0,0-155.95-5.925q-39.075,2.164-77.9,8.152a762.97,762.97,0,0,0-76.86,16.119,715.287,715.287,0,0,0-74.84,24.385c-6.1,2.443-12.23,4.8-18.25,7.426l-9.06,3.869-8.98,4.062-4.49,2.036-4.18,2.043-8.29,4.086c-5.52,2.744-11.07,5.41-16.56,8.218C871.539,463.959,448.156,1124.04,143,436c-17.42-39.344-78.535-210.523-94-274.533V1H1968V371.975Q1960.4,366.847,1952.7,361.949Z" transform="translate(-49 -1)"/>
  <path id="Rectangle_1_copy_8" data-name="Rectangle 1 copy 8" class="cls-2" d="M46,147c7.157,46.734,78.02,246.132,97,289,305.156,688.04,728.539,27.959,1020.31-116.423,5.49-2.808,11.04-5.474,16.56-8.218l8.29-4.086,4.18-2.043,4.49-2.036,8.98-4.062,9.06-3.869c6.02-2.627,12.15-4.983,18.25-7.426a715.287,715.287,0,0,1,74.84-24.385,762.97,762.97,0,0,1,76.86-16.119q38.76-5.948,77.9-8.152a850.514,850.514,0,0,1,155.95,5.925,879.22,879.22,0,0,1,152.74,33.741A802.247,802.247,0,0,1,1917.64,341.2q17.7,9.849,35.06,20.75c5.17,3.281,15.46,9.908,15.42,10.089,2.4-10.389.92,191.554,0.92,191.554a546.73,546.73,0,0,0-65.12-55.4q-16.89-12.257-34.22-23.242-17.355-10.926-35.06-20.75a802.247,802.247,0,0,0-146.23-62.352,879.22,879.22,0,0,0-152.74-33.741,850.514,850.514,0,0,0-155.95-5.925q-39.075,2.165-77.9,8.151a763.251,763.251,0,0,0-76.86,16.12,715.287,715.287,0,0,0-74.84,24.385c-6.1,2.443-12.23,4.8-18.25,7.426l-9.06,3.869-8.98,4.062-4.49,2.036-4.18,2.043-8.29,4.086c-5.52,2.744-11.07,5.41-16.56,8.218-43.97,22.316-87.032,46.585-128.589,72.853q-31.155,19.693-61.245,40.53c-20.014,13.883-39.64,28.055-58.927,42.262-38.616,28.4-75.72,56.985-113.147,82.627-37.42,25.693-75.474,48.2-115.975,65.9a655.472,655.472,0,0,1-62.318,23.461,567.225,567.225,0,0,1-64.542,16.7c-43.429,8.477-87.762,11.189-130.8,5a288.519,288.519,0,0,1-62.795-16.427,266.26,266.26,0,0,1-57.435-31.066c-35.953-25.439-65.946-60.207-89.677-99.351C111.145,605.8,93.257,562.431,79.508,517.675A975.578,975.578,0,0,1,47.977,379.819" transform="translate(-49 -1)"/>
  <path id="Rectangle_1_copy_5" data-name="Rectangle 1 copy 5" class="cls-3" d="M1969.04,563.592a546.73,546.73,0,0,0-65.12-55.4q-16.89-12.257-34.22-23.242-17.355-10.926-35.06-20.75a802.247,802.247,0,0,0-146.23-62.352,879.22,879.22,0,0,0-152.74-33.741,850.514,850.514,0,0,0-155.95-5.925q-39.075,2.165-77.9,8.151a763.251,763.251,0,0,0-76.86,16.12,715.287,715.287,0,0,0-74.84,24.385c-6.1,2.443-12.23,4.8-18.25,7.426l-9.06,3.869-8.98,4.062-4.49,2.036-4.18,2.043-8.29,4.086c-5.52,2.744-11.07,5.41-16.56,8.218-43.97,22.316-87.032,46.585-128.589,72.853q-31.155,19.693-61.245,40.53c-20.014,13.883-39.64,28.055-58.927,42.262-38.616,28.4-75.72,56.985-113.147,82.627-37.42,25.693-75.474,48.2-115.975,65.9a655.472,655.472,0,0,1-62.318,23.461,567.225,567.225,0,0,1-64.542,16.7c-43.429,8.477-87.762,11.189-130.8,5a288.519,288.519,0,0,1-62.795-16.427,266.26,266.26,0,0,1-57.435-31.066c-35.953-25.439-65.946-60.207-89.677-99.351C111.145,605.8,93.257,562.431,79.508,517.675A976.066,976.066,0,0,1,49.042,386.368C48.9,288.349,48.582,220.744,48,210c7.157,46.734,66.769,219.852,80.508,264.675,13.748,44.756,31.637,88.128,55.355,127.383,23.731,39.144,53.724,73.912,89.677,99.351a266.26,266.26,0,0,0,57.435,31.066A288.519,288.519,0,0,0,393.77,748.9c43.035,6.193,87.368,3.481,130.8-5a567.225,567.225,0,0,0,64.542-16.7,655.472,655.472,0,0,0,62.318-23.461c40.5-17.695,78.555-40.2,115.975-65.9,37.427-25.642,74.531-54.226,113.147-82.627,19.287-14.207,38.913-28.379,58.927-42.262q30.063-20.792,61.244-40.53c41.56-26.268,84.62-50.537,128.59-72.853,5.49-2.808,11.04-5.474,16.56-8.218l8.29-4.086,4.18-2.043,4.49-2.036,8.98-4.062,9.06-3.869c6.02-2.627,12.15-4.983,18.25-7.426a715.287,715.287,0,0,1,74.84-24.385,763.251,763.251,0,0,1,76.86-16.12q38.76-5.946,77.9-8.151a850.514,850.514,0,0,1,155.95,5.925,879.312,879.312,0,0,1,152.74,33.741A802.247,802.247,0,0,1,1883.64,421.2q17.7,9.849,35.06,20.75,17.325,11,34.22,23.242,7.455,5.42,14.8,11.125c1.27,0.983.79,2.969,0.79,2.969Z" transform="translate(-49 -1)"/>
</svg>
