<?xml version="1.0" encoding="utf-8"?>
<!-- Generator: Adobe Illustrator 23.0.1, SVG Export Plug-In . SVG Version: 6.00 Build 0)  -->
<svg version="1.1" id="Isolation_Mode" xmlns="http://www.w3.org/2000/svg" xmlns:xlink="http://www.w3.org/1999/xlink" x="0px"
	 y="0px" viewBox="0 0 214.5 84.9" style="enable-background:new 0 0 214.5 84.9;" xml:space="preserve">
<style type="text/css">
	.st0{fill:#3C3C3B;}
	.st1{fill:#C10000;}
	.st2{fill:#2EB4FF;}
	.st3{fill:#E2C700;}
	.st4{fill:#008E00;}
</style>
<g>
	<g>
		<path class="st0" d="M97,21.2V10.8h2.6V19h4.2v-8.2h2.6V19h1.5v4.7h-2.4v-2.5H97z"/>
		<path class="st0" d="M113,16c0-1.6,0.5-2.9,1.5-3.9c1-1,2.3-1.5,3.8-1.5c1.4,0,2.6,0.5,3.4,1.4c0.8,0.9,1.2,2.1,1.2,3.5
			c0,0.2,0,0.6-0.1,1h-7.2c0.1,0.9,0.4,1.6,1,2c0.6,0.5,1.3,0.7,2.1,0.7c1,0,2-0.4,3-1.1l1,1.9c-0.5,0.5-1.2,0.8-1.9,1.1
			c-0.8,0.3-1.5,0.4-2.3,0.4c-1.7,0-3-0.5-4.1-1.6C113.6,18.8,113,17.5,113,16z M115.8,14.7h4.6c0-0.7-0.2-1.2-0.6-1.6
			c-0.4-0.4-0.9-0.6-1.5-0.6c-0.7,0-1.2,0.2-1.7,0.6C116.2,13.5,115.9,14,115.8,14.7z"/>
		<path class="st0" d="M129.2,21.2V10.8h2.6v4h4.5v-4h2.6v10.4h-2.6V17h-4.5v4.2H129.2z"/>
		<path class="st0" d="M148.2,21.2V13h-3.4v-2.2h9.5V13h-3.5v8.2H148.2z"/>
		<path class="st0" d="M160,25.3V10.8h2.4v0.8l0,0.7h0c0.3-0.6,0.8-1,1.4-1.3c0.6-0.3,1.2-0.5,2-0.5c1.4,0,2.5,0.5,3.4,1.5
			c0.8,1,1.3,2.3,1.3,3.9c0,1.6-0.4,3-1.3,4c-0.9,1-2,1.5-3.4,1.5c-1.2,0-2.2-0.5-3-1.5h0c0,0.2,0.1,0.5,0.1,0.9v4.4H160z
			 M162.6,16.1c0,0.9,0.2,1.6,0.7,2.3c0.5,0.6,1.1,1,1.9,1c0.7,0,1.4-0.3,1.9-0.9c0.5-0.6,0.7-1.4,0.7-2.4c0-1-0.2-1.8-0.7-2.4
			c-0.5-0.6-1.1-0.9-1.9-0.9c-0.8,0-1.4,0.3-1.9,0.8C162.8,14.1,162.6,15,162.6,16.1z"/>
		<path class="st0" d="M97,49.8V35.3h2.4v0.8l0,0.7h0c0.3-0.6,0.8-1,1.4-1.3c0.6-0.3,1.2-0.5,2-0.5c1.4,0,2.5,0.5,3.4,1.5
			c0.8,1,1.3,2.3,1.3,3.9c0,1.6-0.4,3-1.3,4s-2,1.5-3.4,1.5c-1.2,0-2.2-0.5-3-1.5h0c0,0.2,0.1,0.5,0.1,0.9v4.4H97z M99.5,40.6
			c0,0.9,0.2,1.6,0.7,2.3s1.1,1,1.9,1c0.7,0,1.4-0.3,1.9-0.9c0.5-0.6,0.7-1.4,0.7-2.4c0-1-0.2-1.8-0.7-2.4c-0.5-0.6-1.1-0.9-1.9-0.9
			c-0.8,0-1.4,0.3-1.9,0.8C99.7,38.7,99.5,39.5,99.5,40.6z"/>
		<path class="st0" d="M114.6,44.4c-1.1-1-1.7-2.3-1.7-3.9c0-1.6,0.6-2.9,1.7-3.9c1.1-1,2.5-1.5,4-1.5c1.6,0,3,0.5,4.1,1.5
			c1.1,1,1.7,2.3,1.7,3.9c0,1.6-0.6,2.9-1.7,3.9c-1.1,1-2.5,1.5-4.1,1.5C117.1,46,115.7,45.5,114.6,44.4z M115.6,40.5
			c0,1,0.3,1.7,0.9,2.3c0.6,0.6,1.3,0.9,2.2,0.9c0.9,0,1.6-0.3,2.2-0.9c0.6-0.6,0.9-1.4,0.9-2.3c0-0.9-0.3-1.7-0.9-2.3
			c-0.6-0.6-1.3-0.9-2.2-0.9c-0.9,0-1.6,0.3-2.2,0.9C115.9,38.8,115.6,39.6,115.6,40.5z"/>
		<path class="st0" d="M129.5,44.4l1.1-1.7c0.8,0.8,1.7,1.2,2.6,1.2c0.6,0,1-0.1,1.3-0.4c0.3-0.3,0.5-0.6,0.5-1
			c0-0.9-0.6-1.3-1.7-1.3H132v-1.8h1.1c1.1,0,1.6-0.4,1.6-1.2c0-0.8-0.5-1.2-1.6-1.2c-0.8,0-1.7,0.3-2.5,0.9l-0.8-1.7
			c1-0.8,2.3-1.2,3.8-1.2c1.1,0,1.9,0.3,2.6,0.8c0.7,0.5,1,1.2,1,2.1c0,1.1-0.5,1.9-1.4,2.4v0c1.2,0.4,1.8,1.2,1.8,2.4
			c0,1-0.4,1.8-1.2,2.4c-0.8,0.6-1.8,0.9-2.9,0.9C131.9,46,130.5,45.5,129.5,44.4z"/>
		<path class="st0" d="M143.8,45.7V35.3h4.8c1.1,0,1.9,0.2,2.6,0.7c0.6,0.5,0.9,1.1,0.9,2c0,0.5-0.1,0.9-0.4,1.4
			c-0.2,0.4-0.6,0.7-1,0.9v0c0.6,0.2,1.1,0.4,1.4,0.9c0.3,0.4,0.5,0.9,0.5,1.5c0,1-0.4,1.7-1.1,2.3c-0.7,0.5-1.7,0.8-2.8,0.8H143.8z
			 M146.4,39.6h1.7c0.5,0,0.8-0.1,1.1-0.4c0.2-0.3,0.4-0.6,0.4-1c0-0.8-0.5-1.2-1.5-1.2h-1.7V39.6z M146.4,44h1.9
			c0.6,0,1-0.1,1.3-0.4c0.3-0.3,0.4-0.6,0.4-1c0-0.4-0.1-0.8-0.4-1c-0.3-0.3-0.7-0.4-1.3-0.4h-1.9V44z"/>
		<path class="st0" d="M158.9,45.7V35.3h2.5v5.6c0,0.5,0,0.9-0.1,1.2h0c0.1-0.1,0.3-0.5,0.8-1.2l3.9-5.6h2.5v10.4h-2.5v-5.6
			c0-0.3,0-0.7,0.1-1.2h0c0,0.1-0.3,0.5-0.8,1.2l-3.9,5.6H158.9z"/>
		<path class="st0" d="M177.8,45.7v-8.2h-3.4v-2.2h9.5v2.2h-3.5v8.2H177.8z"/>
		<path class="st0" d="M189.7,45.7V35.3h2.6v4h1.3l2.5-4h2.9l-3.3,5v0l3.7,5.4h-3l-2.7-4.2h-1.3v4.2H189.7z"/>
		<path class="st0" d="M204.7,47.4c0.4,0.3,0.8,0.4,1.1,0.4c0.8,0,1.4-0.4,1.8-1.3l0.4-0.9l-4.4-10.3h2.9l2.2,6l0.4,1.4h0
			c0.1-0.5,0.2-1,0.3-1.4l2-6h2.8l-4.6,12c-0.3,0.9-0.8,1.6-1.5,2c-0.7,0.4-1.4,0.7-2.2,0.7c-0.4,0-0.7-0.1-1.1-0.2
			c-0.4-0.1-0.6-0.2-0.8-0.3l-0.3-0.2L204.7,47.4z"/>
		<path class="st0" d="M95.8,68.2h1.3c0.9-1.4,1.4-3.4,1.4-6.2v-2.2h7.7v8.3h1.5v4.5h-2.4v-2.5h-7.1v2.5h-2.4V68.2z M99.7,68.2h3.9
			v-6.3H101v0.5C101,64.9,100.6,66.8,99.7,68.2z"/>
		<path class="st0" d="M113.6,58.1v-2.3h2.6v2.3H113.6z M113.6,70.3V59.8h2.6v10.4H113.6z"/>
		<path class="st0" d="M125.5,70.3V62h-3.4v-2.2h9.5V62h-3.5v8.2H125.5z"/>
		<path class="st0" d="M136.5,65c0-1.6,0.5-2.9,1.5-3.9c1-1,2.3-1.5,3.8-1.5c1.4,0,2.6,0.5,3.4,1.4c0.8,0.9,1.2,2.1,1.2,3.5
			c0,0.2,0,0.6-0.1,1h-7.2c0.1,0.9,0.4,1.6,1,2c0.6,0.5,1.3,0.7,2.1,0.7c1,0,2-0.4,3-1.1l1,1.9c-0.5,0.5-1.2,0.8-1.9,1.1
			c-0.8,0.3-1.5,0.4-2.3,0.4c-1.7,0-3-0.5-4.1-1.6C137,67.9,136.5,66.6,136.5,65z M139.2,63.8h4.6c0-0.7-0.2-1.2-0.6-1.6
			c-0.4-0.4-0.9-0.6-1.5-0.6c-0.7,0-1.2,0.2-1.7,0.6S139.4,63.1,139.2,63.8z"/>
		<path class="st0" d="M152.7,70.3V59.8h2.5v5.6c0,0.5,0,0.9-0.1,1.2h0c0.1-0.1,0.3-0.5,0.8-1.2l3.9-5.6h2.5v10.4h-2.5v-5.6
			c0-0.3,0-0.7,0.1-1.2h0c0,0.1-0.3,0.5-0.8,1.2l-3.9,5.6H152.7z M159.9,58.1c-0.7,0.5-1.4,0.8-2.4,0.8c-0.9,0-1.7-0.3-2.4-0.8
			c-0.7-0.5-1-1.2-1-2.1v-0.3h2V56c0,0.4,0.1,0.7,0.4,1c0.3,0.2,0.6,0.3,1,0.3c0.4,0,0.7-0.1,1-0.3c0.3-0.2,0.4-0.5,0.4-1v-0.2h2V56
			C160.8,56.9,160.5,57.6,159.9,58.1z"/>
	</g>
	<g>
		<path class="st1" d="M2.9,1.2l1.2,39.5l38.2-1.2L41,0L2.9,1.2z M34.2,8.8l-2.7,0.1L24,34.2l-2.2,0.1L12.9,9.4l-2.7,0.1l-0.1-2.8
			l9.1-0.3l0.1,2.8l-2.7,0.1l6.2,17.8L28.1,9l-3,0.1L25,6.3L34.1,6L34.2,8.8z"/>
		<path class="st2" d="M45.7,0.1L41,39.3L79,43.8l4.6-39.2L45.7,0.1z M68,30.9c-0.4,3.5-2.9,5-7.4,4.5c-4.3-0.5-6.3-2.4-5.9-5.6
			l0.7-6l5.3,0.6l-0.7,6.1c-0.1,0.6,0.3,0.9,1,1c0.7,0.1,1.1-0.2,1.2-0.8l0.4-3.1c0.1-1-0.4-2.2-1.5-3.6c-2.2-2.7-3.5-4.5-4-5.4
			c-0.5-0.9-0.7-1.8-0.6-2.8l0.4-3c0.4-3.4,2.9-4.9,7.3-4.4c4,0.5,5.8,2.3,5.5,5.4l-0.5,4.6l-5.3-0.6l0.6-4.9
			c0.1-0.5-0.2-0.8-0.8-0.9c-0.7-0.1-1.1,0.4-1.2,1.4l-0.1,1.7c-0.1,1,0.4,2.2,1.6,3.7c2.2,2.6,3.5,4.4,4.1,5.4
			c0.6,1,0.8,2.1,0.6,3.3L68,30.9z"/>
		<path class="st3" d="M7.4,38.7L0,77.5l37.5,7.2l7.4-38.8L7.4,38.7z M26.3,73.3c-0.2,0.1-0.4,0.2-0.7,0.1l-10.4-2
			c-0.3-0.1-0.5-0.2-0.6-0.4s-0.2-0.4-0.1-0.7l3.8-19.6c0.1-0.3,0.2-0.5,0.4-0.6c0.2-0.1,0.5-0.2,0.7-0.1c0.3,0.1,0.5,0.2,0.6,0.4
			c0.1,0.2,0.2,0.5,0.1,0.7l-3.6,18.6l9.5,1.8c0.3,0,0.4,0.2,0.6,0.4c0.1,0.2,0.2,0.5,0.1,0.7C26.7,73,26.5,73.2,26.3,73.3z"/>
		<path class="st4" d="M38.4,47.4l12.5,37.5l36.2-12.1L74.6,35.3L38.4,47.4z M72.2,70.9c-3.7,1.2-7-4.5-9-9.4l-1.6,0.8l1.1,9.5
			c0.2,1.6-0.9,2.6-2.1,3c-0.7,0.2-1.4,0.3-1.8,0.1l-2.4-24.4l-0.2,0.1c-2.9,1-3.4,2.9-2.9,4.5c0.2,0.7,0.7,1.3,1.3,1.6
			c-0.4,0.4-0.8,0.6-1.3,0.8c-1.6,0.5-3.1-0.6-3.6-2.2c-0.7-2,0.1-4.8,3.9-6.1c2.7-0.9,5.8-0.4,7-1.6c0.4,0.1,0.6,0.4,0.7,0.7
			c0.2,0.6,0,1.4-0.7,1.6L60.3,50l1.2,10.5l0.7-0.5c3.6-4.1,3.3-9.5,2.8-13.4c0.3-0.3,0.7-0.5,1.1-0.6c1.1-0.4,2.4,0,2.8,1.2
			c1,3-0.3,7-2.9,11c2.1,4.7,4.9,9.9,7.3,9.1c0.9-0.3,1.6-1.4,2-2.4c0.4,0,0.6,0.3,0.7,0.6C76.3,66.4,75.3,69.9,72.2,70.9z"/>
	</g>
</g>
</svg>
