<svg id="Isolation_Mode" data-name="Isolation Mode" xmlns="http://www.w3.org/2000/svg" viewBox="0 0 435.03 105.26"><defs><style>.cls-1{fill:#979797;}</style></defs><title>logo_footter</title><path class="cls-1" d="M62.8,36.33l-.88-29.1L0,9.1,1.94,73.19l61.91-1.87-.19-6.27-8.25-2.3ZM46.46,21.6,34.24,62.78l-3.53.11L16.27,22.51,12,22.64l-.13-4.47,14.75-.44.13,4.46-4.43.14,10,28.83,8.62-29.4L36,21.91l-.13-4.46L50.67,17l.13,4.46Z"/><path class="cls-1" d="M72.67,1,62.8,36.33,55.41,62.75l8.25,2.3,51.41,14.37,10-35.66-2.6-28.86Zm36.8,31.66L97.79,29.4l-1.54,5.49,8.17,2.28L101.31,48.3,93.14,46l-1.53,5.46,11.69,3.27-3.11,11.13-25-7,12.4-44.35,25,7Z"/><path class="cls-1" d="M184.77,16.39l-1-10.89-61.7,5.56.35,3.84L125,43.76l2.81,31.16,61.69-5.56-2-22.14L179.1,18ZM157.6,62.17q-10.59.94-11.3-6.86l-.88-9.83L154,44.7l.89,9.89c.09,1,.73,1.42,1.92,1.31s1.69-.64,1.6-1.62L158,49.17q-.21-2.36-3.62-5.22a87.51,87.51,0,0,1-8.23-7.2,7.38,7.38,0,0,1-1.87-4.28l-.43-4.84Q143,19.24,154,18.25q9.81-.88,10.5,6.75l.67,7.46-8.6.77-.71-7.93q-.12-1.29-1.56-1.17c-1.12.11-1.61,1-1.46,2.65l.43,2.78q.22,2.4,3.7,5.3a72.44,72.44,0,0,1,8.26,7.26,8.57,8.57,0,0,1,2.07,5l.5,5.5Q168.59,61.18,157.6,62.17Z"/><path class="cls-1" d="M316.08,14.94l.07-.4L255.31,2.9,248.9,36.39l7.53,26L243.94,66,304.1,77.52l6.33-33-8.3-24.88ZM286.61,58.07a1.48,1.48,0,0,1-1.74,1.18L267.93,56a1.53,1.53,0,0,1-1-.64,1.42,1.42,0,0,1-.22-1.12l6.08-31.8a1.59,1.59,0,0,1,.67-1A1.59,1.59,0,0,1,275.9,23l-5.79,30.25,15.34,2.94a1.39,1.39,0,0,1,.95.65A1.53,1.53,0,0,1,286.61,58.07Z"/><path class="cls-1" d="M360.9,0,316.08,14.94l-13.95,4.65,8.3,24.88,12,36,50.21-16.74V35.18ZM357,57.77c-5.95,2-11.31-7.34-14.64-15.27l-2.52,1.24,1.76,15.48a4.44,4.44,0,0,1-3.35,4.8,5.05,5.05,0,0,1-3,.24l-3.94-39.62-.26.08c-4.72,1.58-5.55,4.79-4.74,7.22a5,5,0,0,0,2,2.66,5.44,5.44,0,0,1-2.05,1.27c-2.65.88-5-.94-5.84-3.53-1.09-3.26.15-7.82,6.27-9.86,4.3-1.43,9.46-.62,11.28-2.61A1.59,1.59,0,0,1,339.24,21a2,2,0,0,1-1.14,2.62l-.46.16,1.93,17,1.11-.83c5.8-6.6,5.28-15.41,4.57-21.68A4.32,4.32,0,0,1,347,17.23c1.71-.57,4,0,4.61,1.91,1.63,4.87-.55,11.3-4.76,17.83,3.4,7.62,7.94,16.06,11.78,14.78,1.4-.46,2.66-2.21,3.18-3.93a1.3,1.3,0,0,1,1.17.93C363.58,50.46,362,56.12,357,57.77Z"/><polygon class="cls-1" points="403.36 26.78 396.81 45.04 410.02 45.04 403.36 26.78"/><path class="cls-1" d="M434.57,72.27V8.15H372.62V72.27Zm-51.19-15.1c.2-.65.53-1.54,1-2.69l11.31-28.73,1.16-3a15.7,15.7,0,0,1,1.45-2.88,6,6,0,0,1,2-1.86,7.26,7.26,0,0,1,6.22,0,6.15,6.15,0,0,1,2,1.83,12.59,12.59,0,0,1,1.3,2.4c.35.85.8,2,1.34,3.42l11.56,28.55A14.47,14.47,0,0,1,424.12,59a3.91,3.91,0,0,1-1.29,2.82,4.21,4.21,0,0,1-3.09,1.28,4,4,0,0,1-1.81-.37,4,4,0,0,1-1.27-1,9.48,9.48,0,0,1-1.1-2c-.39-.9-.73-1.69-1-2.37l-2.11-5.55h-18l-2.11,5.67a19.77,19.77,0,0,1-2.11,4.48,3.37,3.37,0,0,1-2.87,1.16,4.2,4.2,0,0,1-3-1.23,3.78,3.78,0,0,1-1.3-2.81A6.29,6.29,0,0,1,383.38,57.17Z"/><path class="cls-1" d="M248.9,36.39,238.6.8,184.77,16.39,179.1,18l8.45,29.19,9.38,32.4,47-13.62,12.49-3.61ZM235.21,57.47l-22.73,6.58c-2.59.86-2.3-1.1-5.46-11.08-1.92-6.63-5.82-30.29-4.38-30.71l19.51-5.65c.59-.17,2.33-.83,2.62.16.11.39-1.05,8.24-1.7,8.43-.84.24-3-1.66-7.85-.25-3.41,1-6.44,4.06-5.06,8.82.3,1,1,2.76,2.4,2.36,1.58-.46,4.42-3.8,8.58-5,.6-.17,2.29-.44,2.53.4,0,.05-.42,8.92-1,9.09s-2.66-.3-4.59.26c-2.52.73-5.66,3.62-4.24,8.52,1.15,4,4.06,6.23,8.22,5,4.9-1.42,7-5.56,8.16-5.91.74-.21,6.48,7.2,6.63,7.69C237.1,57.14,235.8,57.3,235.21,57.47Z"/><polygon class="cls-1" points="8.77 94.65 7.13 94.65 7.13 100.76 3.66 100.76 3.66 94.65 2.02 94.65 2.02 102.19 7.96 102.19 7.96 104.11 9.6 104.11 9.6 100.76 8.77 100.76 8.77 94.65"/><path class="cls-1" d="M29.14,94.46a3.59,3.59,0,0,0-2.74,1.15,3.91,3.91,0,0,0-1.09,2.8,3.83,3.83,0,0,0,1.12,2.87,3.88,3.88,0,0,0,2.83,1.1,4.23,4.23,0,0,0,3.06-1.09l-.74-1.08a2.86,2.86,0,0,1-1,.61,3.46,3.46,0,0,1-1.17.22,2.36,2.36,0,0,1-1.67-.6A2.28,2.28,0,0,1,27,99h5.83v-.39a4.29,4.29,0,0,0-1-2.95A3.42,3.42,0,0,0,29.14,94.46ZM27,97.8a2.35,2.35,0,0,1,.61-1.39,2.24,2.24,0,0,1,3.07,0,2.18,2.18,0,0,1,.57,1.39Z"/><polygon class="cls-1" points="54.43 97.62 50.96 97.62 50.96 94.65 49.32 94.65 49.32 102.19 50.96 102.19 50.96 99.05 54.43 99.05 54.43 102.19 56.07 102.19 56.07 94.65 54.43 94.65 54.43 97.62"/><polygon class="cls-1" points="72.25 96.09 74.41 96.09 74.41 102.19 76.05 102.19 76.05 96.09 78.22 96.09 78.22 94.65 72.25 94.65 72.25 96.09"/><path class="cls-1" d="M98.46,94.46A2.87,2.87,0,0,0,96,95.68v-1H94.4v10.42H96v-3.92a2.89,2.89,0,0,0,2.42,1.23,3,3,0,0,0,2.41-1.07,5,5,0,0,0,0-5.79A3.06,3.06,0,0,0,98.46,94.46Zm1.06,5.77a1.91,1.91,0,0,1-1.54.7,2.26,2.26,0,0,1-1.11-.3,2.28,2.28,0,0,1-.83-.72v-3a2.28,2.28,0,0,1,.83-.72,2.26,2.26,0,0,1,1.11-.3,1.91,1.91,0,0,1,1.54.7,2.69,2.69,0,0,1,.58,1.8A2.76,2.76,0,0,1,99.52,100.23Z"/><path class="cls-1" d="M141.18,94.46a2.87,2.87,0,0,0-2.42,1.22v-1h-1.64v10.42h1.64v-3.92a2.89,2.89,0,0,0,2.42,1.23,3.07,3.07,0,0,0,2.42-1.07,5,5,0,0,0,0-5.79A3.09,3.09,0,0,0,141.18,94.46Zm1.06,5.77a1.91,1.91,0,0,1-1.54.7,2.26,2.26,0,0,1-1.11-.3,2.28,2.28,0,0,1-.83-.72v-3a2.28,2.28,0,0,1,.83-.72,2.26,2.26,0,0,1,1.11-.3,1.91,1.91,0,0,1,1.54.7,2.69,2.69,0,0,1,.58,1.8A2.76,2.76,0,0,1,142.24,100.23Z"/><path class="cls-1" d="M164.39,94.46a3.67,3.67,0,0,0-2.81,1.14,4.27,4.27,0,0,0,0,5.63,3.64,3.64,0,0,0,2.81,1.15,3.68,3.68,0,0,0,2.83-1.14,4.28,4.28,0,0,0,0-5.64A3.68,3.68,0,0,0,164.39,94.46Zm1.6,5.74a2.1,2.1,0,0,1-3.18,0,3,3,0,0,1,0-3.56,2.1,2.1,0,0,1,3.18,0,3,3,0,0,1,0,3.56Z"/><path class="cls-1" d="M190.38,98.87a2.92,2.92,0,0,0-1.48-.53,2.82,2.82,0,0,0,1.4-.61,1.5,1.5,0,0,0,.6-1.21,1.68,1.68,0,0,0-1-1.5,5.18,5.18,0,0,0-2.63-.54,4.23,4.23,0,0,0-3.16,1.23l.82,1a3.28,3.28,0,0,1,2.42-.91,2.74,2.74,0,0,1,1.29.27c.35.18.52.4.52.67a.82.82,0,0,1-.49.74,3.12,3.12,0,0,1-1.35.25h-1.61V99h1.61c1.32,0,2,.33,2,1a.83.83,0,0,1-.49.74,2.71,2.71,0,0,1-1.35.28,3.94,3.94,0,0,1-2.71-.92l-.76,1a4.72,4.72,0,0,0,3.47,1.22,4.78,4.78,0,0,0,2.6-.62,1.88,1.88,0,0,0,1-1.61A1.48,1.48,0,0,0,190.38,98.87Z"/><path class="cls-1" d="M213,98.3a1.71,1.71,0,0,0,.91-.6,1.76,1.76,0,0,0,.36-1.11,1.81,1.81,0,0,0-.59-1.39,2.32,2.32,0,0,0-1.64-.55h-4.52v7.54h4.63a2.37,2.37,0,0,0,1.68-.57,1.94,1.94,0,0,0,.6-1.47,1.88,1.88,0,0,0-.41-1.18A1.79,1.79,0,0,0,213,98.3Zm-3.84-2.21h2.59a.86.86,0,0,1,.62.21.75.75,0,0,1,.23.57.71.71,0,0,1-.23.54.86.86,0,0,1-.62.21h-2.59Zm3.33,4.44a1,1,0,0,1-.69.23h-2.64V99.05h2.64a1,1,0,0,1,.69.25.82.82,0,0,1,.25.61A.79.79,0,0,1,212.52,100.53Z"/><polygon class="cls-1" points="232.97 99.73 232.97 94.65 231.33 94.65 231.33 102.19 232.9 102.19 236.43 96.98 236.43 102.19 238.07 102.19 238.07 94.65 236.43 94.65 232.97 99.73"/><polygon class="cls-1" points="254.26 96.09 256.41 96.09 256.41 102.19 258.05 102.19 258.05 96.09 260.22 96.09 260.22 94.65 254.26 94.65 254.26 96.09"/><polygon class="cls-1" points="283.4 94.65 281.37 94.65 278.05 98.29 278.05 94.65 276.41 94.65 276.41 102.19 278.05 102.19 278.05 100.16 279.09 99.08 281.4 102.19 283.47 102.19 280.26 98.07 283.4 94.65"/><path class="cls-1" d="M302.32,100.3l-2.2-5.65h-1.75l3.09,7.64-.37.86a1.07,1.07,0,0,1-1.08.65,1.61,1.61,0,0,1-.63-.12l-.25,1.47a3.68,3.68,0,0,0,.92.11,2.61,2.61,0,0,0,2.6-1.71l3.64-8.9h-1.77Z"/><path class="cls-1" d="M347.76,94.65h-5.83l-.45,3.67a5.83,5.83,0,0,1-.45,1.9,1.17,1.17,0,0,1-.8.61v3.28h1.64v-1.92H347v1.92h1.64v-3.35h-.83Zm-1.64,6.11h-4a3.34,3.34,0,0,0,1-2.25l.27-2.42h2.73Z"/><path class="cls-1" d="M365.58,91.7a1,1,0,0,0-.71.29,1,1,0,1,0,1.43,0A1,1,0,0,0,365.58,91.7Z"/><rect class="cls-1" x="364.77" y="94.65" width="1.64" height="7.54"/><polygon class="cls-1" points="382.59 96.09 384.75 96.09 384.75 102.19 386.39 102.19 386.39 96.09 388.56 96.09 388.56 94.65 382.59 94.65 382.59 96.09"/><path class="cls-1" d="M408.1,94.46a3.59,3.59,0,0,0-2.74,1.15,3.91,3.91,0,0,0-1.09,2.8,3.8,3.8,0,0,0,4,4,4.23,4.23,0,0,0,3.06-1.09l-.75-1.08a2.77,2.77,0,0,1-1,.61,3.45,3.45,0,0,1-1.16.22,2.33,2.33,0,0,1-1.67-.6A2.25,2.25,0,0,1,406,99h5.83v-.39a4.29,4.29,0,0,0-1-2.95A3.46,3.46,0,0,0,408.1,94.46ZM406,97.8a2.28,2.28,0,0,1,.6-1.39,2.24,2.24,0,0,1,3.07,0,2.18,2.18,0,0,1,.57,1.39Z"/><polygon class="cls-1" points="433.39 94.65 429.92 99.73 429.92 94.65 428.28 94.65 428.28 102.19 429.86 102.19 433.39 96.98 433.39 102.19 435.03 102.19 435.03 94.65 433.39 94.65"/><path class="cls-1" d="M431.66,92.88a2.34,2.34,0,0,1-2-1l-.75.63a3.29,3.29,0,0,0,2.75,1.37,3.24,3.24,0,0,0,2.73-1.37l-.75-.63A2.3,2.3,0,0,1,431.66,92.88Z"/></svg>