<svg id="Layer_1" data-name="Layer 1" xmlns="http://www.w3.org/2000/svg" xmlns:xlink="http://www.w3.org/1999/xlink" viewBox="0 0 90 90"><defs><style>.cls-1{fill:none;}.cls-2{clip-path:url(#clip-path);}</style><clipPath id="clip-path" transform="translate(5 5)"><path class="cls-1" d="M40,50A10,10,0,1,1,50,40,10,10,0,0,1,40,50Zm0-30a20,20,0,0,0,0,40H60A20.06,20.06,0,0,0,80,40,40,40,0,1,0,40,80H80V70H40A30,30,0,1,1,70,40,10,10,0,0,1,60,50H57.2A19.84,19.84,0,0,0,40,20Z"/></clipPath></defs><title>mail</title><g class="cls-2"><rect fill="#e2c700" width="90" height="90"/></g></svg>