<svg id="Layer_1" data-name="Layer 1" xmlns="http://www.w3.org/2000/svg" xmlns:xlink="http://www.w3.org/1999/xlink" viewBox="0 0 104.98 104.88"><defs><style>.cls-1{fill:none;clip-rule:evenodd;}.cls-2{clip-path:url(#clip-path);}</style><clipPath id="clip-path" transform="translate(4.42 4.37)"><path class="cls-1" d="M86.4,91.1a9.74,9.74,0,0,1-8.7,4.4A64.61,64.61,0,0,1,66.6,94C52.8,90.4,38.5,81.8,26.4,69.7S5.7,43.3,2.1,29.5a74.84,74.84,0,0,1-1.5-11A9.59,9.59,0,0,1,4.9,9.9L17.2,1.7a6.35,6.35,0,0,1,9.2,2.4l10,19.3a6.47,6.47,0,0,1-1.7,8l-9,7A70,70,0,0,0,39.3,57,71.59,71.59,0,0,0,57.6,70.4l7.1-9.1a6.35,6.35,0,0,1,8-1.7l19.4,10a6.35,6.35,0,0,1,2.4,9.2Z"/></clipPath></defs><title>phone</title><g class="cls-2"><rect fill="#76c8eb" width="104.98" height="104.88"/></g></svg>