<?xml version="1.0" encoding="utf-8"?>
<!-- Generator: Adobe Illustrator 23.0.1, SVG Export Plug-In . SVG Version: 6.00 Build 0)  -->
<svg version="1.1" id="Layer_1" xmlns="http://www.w3.org/2000/svg" xmlns:xlink="http://www.w3.org/1999/xlink" x="0px" y="0px"
	 viewBox="0 0 81 70" style="enable-background:new 0 0 81 70;" xml:space="preserve">
<style type="text/css">
	.st0{fill-rule:evenodd;clip-rule:evenodd;fill:#009EE2;}
	.st1{fill:#3C3C3B;}
</style>
<title>Group 4</title>
<desc>Created with Sketch.</desc>
<g id="Page-1">
	<g id="Group-4">
		<path id="Path" class="st0" d="M79,63.3c-3.4-4.7-7.1-9.2-11.2-13.4c4,1.4,7.6-4.2,4.4-7.5c-7.1-7.3-14.1-14.6-21-22
			c0.3-0.4,0.5-0.8,0.7-1.2c0.2-0.6,0.3-1.3,0.2-1.9c1,0.2,2.1,0.4,3.2,0.5c1.5,0.2,2.9-0.5,3.6-1.8c3.3-0.4,4.9-5.1,1.6-7.6
			c-3-2.3-4.7-4.7-8.5-5.4c-3.1-0.6-6,1.9-5.7,4.8c-1.3,0.5-2.3,1.6-2.8,2.9c-0.2,0.5-0.4,0.9-0.5,1.4l-0.2-0.1
			c-4.7-0.9-7.3,4-4.4,7.6l0.2,0.2c-0.8-0.4-1.5-0.9-2.3-1.3c-2-1.1-4.5-0.6-5.9,1.2c-1.4,1.8-1.3,4.3,0.3,6c2.3,2.6,4.7,5,7.2,7.5
			C28,26.7,18,20.5,7,15.8C2.7,14-2,18.9,1.7,22.7C8.6,29.6,15.4,36.6,22,43.8c-1-0.4-2-0.9-3-1.4c-3.6-2-8,3.1-4.5,5.9
			c4,3.2,6.3,7.6,8.8,11.9c-3.4-0.2-6.9-0.7-10.3-1.4c-2.9-0.7-4.1,3.8-1.2,4.4c5.4,1.7,11.2,2,16.7,3.7c1.2,0.3,2.4-0.1,3.1-1.1
			c0.7-0.9,0.8-2.2,0.2-3.3c-1.7-2.8-3.1-5.7-4.5-8.5c2.1,0.8,4.1,1.7,6,2.8c3.3,2,8.1-2.2,5.6-5.6c-3.7-5.2-7.8-10-12-14.8
			c15.9,10.1,30.6,22.2,46,32.9C76.5,71.8,81.6,66.9,79,63.3z"/>
		<path id="Shape" class="st1" d="M56,29.2c5.5-8,8.4-19.5,0.5-25C42.2-5.8,33,9.4,30.4,22.8C21.7,15.3,9,7.1,1.4,19.7
			c-4.6,7.6,5.3,14,14.2,17.4c-7.1,4.7-8.8,16.4-2.8,24.2c7.6,9.7,20.5,1.4,27-6.9c4.8,13.9,24.6,18.2,35.3,6.5
			C88.6,45.7,72.3,27.7,56,29.2z M70.4,59.2c-9.2,10.2-27,1.4-27.3-11c-0.1-2.6-3.5-2.8-4.4-0.6c-1.9,4.8-4.9,7.8-9.2,10.6
			c-17,11.1-21.3-20.1-6.3-18.9c0.8,0.1,1.5,0.3,2.3,0.3c2.5,0.2,3-3.8,0.6-4.3c-1.1-0.2-2.1-0.4-3.2-0.4c-3.3-0.5-6.5-1.6-9.4-3.2
			C10.8,30.4-1,21.7,10.9,18.4c8.6-2.4,13.4,3.6,18.8,8.3c-0.2,1.8-0.2,3.6-0.1,5.4c0.2,2.8,4.6,2.8,4.4,0c0-0.8-0.1-1.5-0.1-2.4
			c0.6,0.3,1.3,0.1,1.7-0.5c0.4-0.5,0.3-1.3-0.1-1.8l-1.4-1.4c0.8-10.2,5.4-22,17.4-19.8c12.6,2.3,1.1,21.9-4.7,26.1
			c-0.2,0.2-0.5,0.3-0.7,0.5c-0.7,0.4-1.1,1.1-1.1,1.9c0,0.8,0.4,1.5,1.1,1.9s1.5,0.4,2.2,0c0.6-0.3,1.2-0.7,1.7-1.1
			C65.3,26.9,83.6,44.7,70.4,59.2z"/>
	</g>
</g>
</svg>
