<svg id="Layer_1" data-name="Layer 1" xmlns="http://www.w3.org/2000/svg" viewBox="0 0 485.07 159.24"><defs><style>.cls-1{fill:#f7ca24;}.cls-2{fill:#3c3c3b;}.cls-3{fill:#9a5ea2;}.cls-4{fill:#009ee2;}.cls-5{fill:#ef66b2;}</style></defs><title>top_pic</title><path class="cls-1" d="M51.63,132.08a2.56,2.56,0,0,0-4.8-.29,3,3,0,0,0-3.31,1.44l-.14.29c-1.29-.71-2.58-1.44-3.92-2.08a2.66,2.66,0,0,0-3.12.42c-1.87-3.79-4-7.46-6.12-11.09a3.19,3.19,0,0,0,2.85-4A17.22,17.22,0,0,0,30,109.7c-2.14-2.71-5.56.35-5.14,3a2.77,2.77,0,0,0,.2.75c0,.09.08.16.11.25l-.32-.11c-2.77-1.1-4.82,2.45-3.6,4.68.41.76.84,1.51,1.27,2.27a3.23,3.23,0,0,0-2.34,4.81l.12.2a42.53,42.53,0,0,0-4.74-2.62c-2.52-1.19-5.34.85-4.8,3.41a35,35,0,0,0-4.32-2.19l0,0h0c-.24-.11-.47-.22-.72-.32-3.31-1.3-5.09,3.77-2.32,5.52A21.49,21.49,0,0,1,8.2,133.5a2.33,2.33,0,0,0-1.12,2.28c.11,1.1.32,2.18.53,3.26-1.55-.3-3-.15-4,1.46s-1.57,6,.52,7c1.08.55,2.8.05,3.05-1.22a2.77,2.77,0,0,0,.18-.48,12.67,12.67,0,0,0,.47-1.35c.84.3,1.76.84,2.34,1a2.76,2.76,0,0,0,3.47-2.65c0-.17,0-.34,0-.51,1.94,1,4.64-.71,4.16-2.93,4.17,4.16,8,8.78,12.1,12.67,2.45,2.34,6.94-.78,4.85-3.74-2.25-3.16-4.66-6.19-7.08-9.2l1.14.94a3.34,3.34,0,0,0,4.72-.31c1.65,1.13,3.59,0,4.34-1.77.23.28.44.56.6.79a1.92,1.92,0,0,0,3.06.29c.71.44,1.42.89,2.14,1.3,1.52.87,4.06.17,4.36-1.77,0-.18.07-.35.11-.53C50.91,137.81,52.6,135.58,51.63,132.08Z" transform="translate(0 0.7)"/><path class="cls-2" d="M56.53,135c-5.72-2.57-11.22-4.84-17.49-5.57-4.72-.55-5.56-24-6-27.35a1.54,1.54,0,0,0-2.85-.77c-3.42,4.77-4.69,11-7,16.33-4.33,10-14.67,1-21.45-.93-.93-.27-2.08.69-1.69,1.68,2.46,6.29,6.06,11.75,9.89,17.29.74,1.08,2.5.09,1.77-1-3-4.56-5.89-9-7.94-14,5.53,2.83,14,8.33,18.5,3.88C27,119.77,28,112.75,30.61,106.8a244.25,244.25,0,0,0,4.15,24.6,1.56,1.56,0,0,0,1.49,1.13,34.59,34.59,0,0,1,13.73,3c-6,.92-11.86,2.18-17.86,2.81a1.57,1.57,0,0,0-1.5,2,80.21,80.21,0,0,1,3.64,12.91C29.91,148.73,25.42,142,20,140.92c-5.2-1-10.3,4.76-14.74,8.63A59.24,59.24,0,0,1,11,138.25c1-1.68-1.6-3.21-2.64-1.54C5.14,141.92,2.27,147,1.09,153a1.56,1.56,0,0,0,2.27,1.74c5.67-3.08,12.6-13.84,19-8.71,4.68,3.77,8.22,8.75,13.13,12.26A1.56,1.56,0,0,0,37.8,157c-.34-5.54-1.86-10.62-3.61-15.83,7.22-.91,14.3-2.59,21.55-3.29C57.1,137.72,58.08,135.66,56.53,135Z" transform="translate(0 0.7)"/><path class="cls-3" d="M184.23,67.36a22.71,22.71,0,0,0-5.51-4.08,2.83,2.83,0,0,0-2.61,0,42.42,42.42,0,0,1-4.63-2.75,3.28,3.28,0,0,0-5,3.77c-1.2-.83-2.38-1.66-3.55-2.52-2.65-2-5.47.76-4.74,3.41-1.6-1.1-3.23-2.18-4.89-3.2-2.88-1.77-6.61,1.42-4.33,4.37a28.43,28.43,0,0,1,2.82,4.61c-.59-.32-1.17-.66-1.73-1-1.94-1.28-4.82,0-5,2.09a28.62,28.62,0,0,0-5.31-2.19c-2.71-.78-5.56,2-3.53,4.62.59.74,1.16,1.5,1.74,2.26-2.47-1.59-5-3.1-7.58-4.51s-5.33,2.37-3.47,4.54c1.63,1.89,3.24,3.75,4.75,5.67a89.74,89.74,0,0,0-7.56-5.72c-2.75-1.82-6.42,1.46-4.19,4.23L120,81c-2.37-1.5-4.77-3-7.24-4.29s-5.39,2.39-3.47,4.53a23.79,23.79,0,0,1,3.37,5,58.39,58.39,0,0,0-10-4.94c-2.69-1-5.38,2.12-3.46,4.53A25.45,25.45,0,0,1,101,88.45c-2.15-.89-4.31-1.8-6.39-2.88-2.66-1.38-5.24,2.32-3.44,4.51a42.64,42.64,0,0,1,2.72,3.82c-1.23-.44-2.47-.87-3.71-1.28A2.94,2.94,0,0,0,86.7,97.1l2.88,4.15c-1.45-.61-2.91-1.21-4.35-1.86a2.07,2.07,0,0,0-2,3.54c2.64,1.92,5,4.13,7.69,6a1.37,1.37,0,0,0,2.17-.67,22.79,22.79,0,0,1,3.72,2.87c2.31,2.24,5.12-1.38,3.67-3.7-1.34-2.16-2.72-4.29-4.12-6.41,1.36.53,2.7,1.08,4,1.68,2.63,1.2,5.21-2.22,3.39-4.43a36.71,36.71,0,0,1-2.43-3.39c2,.81,4,1.65,5.85,2.64,2.66,1.38,5.14-2.29,3.41-4.47A23.82,23.82,0,0,1,109.08,91c2.68,1.54,5.29,3.2,8,4.83,2.43,1.47,5.6-.57,4.47-3.47-.6-1.53-1.18-3.06-1.79-4.57,4.13,2.7,8.2,5.52,12.36,8.18A3.13,3.13,0,0,0,136.8,94c.93.67,1.86,1.33,2.81,2a3,3,0,0,0,4.47-3.47,35.17,35.17,0,0,0-2.91-6.67c2.13,1.58,4.22,3.19,6.31,4.8s6-.82,4.48-3.48c-1.05-1.83-2.15-3.63-3.28-5.41,1.13.94,2.23,1.94,3.32,3,2.65,2.5,5.94-1.57,4.21-4.24-.22-.33-.41-.66-.62-1l1.75.79c3.08,1.43,5.19-2.35,3.66-4.78-.3-.49-.59-1-.86-1.47,2,1.48,4,3,6.05,4.52,2.62,2,6-1.23,4.49-3.9.9.64,1.81,1.28,2.69,1.94,2.91,2.17,6.45-1.54,4.38-4.42q-.44-.61-.81-1.26c1.35.67,2.7,1.34,4,2.06C184.45,74.87,186.84,69.68,184.23,67.36Z" transform="translate(0 0.7)"/><path class="cls-2" d="M172.32,57.81c-8.18-1.69-16.39.42-24.16,3.27-2.36-5.49-4.27-13.63-8.67-17.37-6.32-5.38-16.13.75-22.13,3.78-7,3.56-16,5.48-20.77,12.13-4.13,5.71.92,13,5,18.07C90.14,82,78.48,89,79.77,101.38c1.17,11.31,21.2,20.78,27.31,8.7.33-.66-.61-1.39-1.15-.88-5.37,5-11.84,3.77-17.45-.14-8.06-5.63-6.16-14.81.32-20.5,4.17-3.65,9.4-6.22,14.88-8.25a.78.78,0,0,0,1.37-.49c4.92-1.74,10-3.1,14.63-4.45,4.3-1.26,8.46-2.8,12.58-4.42a3.25,3.25,0,0,0,.44,0,1.27,1.27,0,0,0,.85-.55c5.7-2.28,11.35-4.69,17.19-6.78,7.13-2.56,15.41-4.66,22.79-1.93,10.29,3.8,7.36,14.17.71,19a10.55,10.55,0,0,0-7-5.39,8.55,8.55,0,0,0-7.31,1.79c-4.57.65-6.22,6.09-5.41,11.22a1,1,0,0,0-.59-.07c-3,.64-6,2.71-8.88,3.84a79.44,79.44,0,0,0-7.52,3.22A79.84,79.84,0,0,0,130,99.25,13.93,13.93,0,0,0,128.18,96c-1.5-1.89-4.9-4.39-7.38-3.22a1.24,1.24,0,0,0-.49.41c-4.79-.26-9.12,2.56-10.92,7.79-2.46,7.13,2.41,13.63,9.56,14.53a10.55,10.55,0,0,0,12.26-10.87,14.77,14.77,0,0,0-.44-3.19,4.38,4.38,0,0,1,.45-.21c2.73-1.15,5.4-2.48,8.07-3.77a86.43,86.43,0,0,1,8.21-3.16c2.38-.87,5.9-1.74,7.46-3.93,1.18,4,3.9,7.28,7.95,7.35,6.35.11,12.94-7.34,12.34-13.72C185.53,77.53,187.22,60.88,172.32,57.81Zm-30.58,5.77c-3.13,1.27-6.21,2.49-9.3,3.68-.35-.38-.72-.74-1-1.12-1.88-2.22-3.68-4.5-5.44-6.82-.58-.76-6.75-8.8-6.95-8.35a.37.37,0,0,0-.64-.36c-1.39,2,2.79,6.79,3.77,8.24,1.86,2.72,3.78,5.41,5.77,8,.35.45.75,1.05,1.2,1.65-4.8,1.8-9.64,3.48-14.69,5-3.12.92-6.9,2-10.8,3.41-3.75-6.88-8.78-14.64,1-20.18,4.42-2.5,9.45-4,14-6.31,6.91-3.44,16.72-9.69,21.59.62,1.74,3.69,3.21,7.48,4.94,11.17Zm-21.51,48.89c-5.76,0-9.14-4.52-8-10,1-4.79,4.94-6.93,9.2-7,1.27.68,2.74.92,3.88,2.05a10.17,10.17,0,0,1,2.66,5.73C128.78,108.43,125.48,112.52,120.23,112.47ZM162,94.62c-4-1.11-6-7.51-4.76-11.93a1.33,1.33,0,0,0,2-.3c1.85-2.65,4.18-4.52,7.56-3.94a6.74,6.74,0,0,1,4.74,3.87q-.28.14-.57.24c-1.94.75-.72,3.67,1.21,3C171.72,89.88,166.28,95.8,162,94.62Z" transform="translate(0 0.7)"/><path class="cls-4" d="M312.58,32c2.57-4.25-3.83-9.46-7-5.41-.6.78-1.68,1.34-1.06,1.29-2.54.2-4.92,2.27-4.71,4.89A4.7,4.7,0,0,0,293,38.06a20.3,20.3,0,0,1,.54,4.4c-1.33-1.08-2.66-2.17-3.95-3.35-3.4-3.1-9.12-.11-7.84,4.57,0,.19.09.39.14.58-2.59-3.45-8.9-2.71-8.75,2.39.07,2.32.28,4.63.57,6.92A59.51,59.51,0,0,0,269.85,49c-3.42-3.66-8.48.25-7.73,4.5.17.94.36,1.88.54,2.82-.42-.56-.83-1.13-1.26-1.68-3.14-4-8.36.51-7.67,4.47.44,2.54,1,5.07,1.48,7.6a61.49,61.49,0,0,0-6.49-6.42c-3.2-2.7-9.16-.25-7.59,4.42l1.66,5c-1.65-2.25-3.26-4.55-4.88-6.88A4.22,4.22,0,0,0,230.62,67a48.57,48.57,0,0,1,2.34,5.9l-3.54-2.55c-3-2.2-6.42-5.35-10-6.68-2.64-1-4.11,2.56-2.53,4.35l.08.09a2.16,2.16,0,0,0,1.1.69c2.7,1.58,5.25,4.53,7.53,6.49a152.15,152.15,0,0,1,11.57,10.55c2.19,2.31,5.26.92,6.19-1.49a80.2,80.2,0,0,0,7.47,7.51c3.12,2.73,8.73.19,7.33-4.27-.25-.8-.52-1.59-.77-2.38l1,1.64c2.3,3.8,8.64,2.34,8.53-2.31-.07-2.45-.28-4.88-.59-7.3q1.71,2.66,3.34,5.37c2.64,4.39,9.68,1.52,8.28-3.49q-.83-2.89-1.62-5.8c.55.78,1.12,1.55,1.7,2.31,3.19,4.16,9.35,1.79,8.43-3.55-.66-3.81-1.49-7.59-2.21-11.38l.73.92c3.13,4.21,9.76,1.82,8.58-3.62-.3-1.39-.53-2.79-.73-4.2a19.76,19.76,0,0,1,2,2.2c3,3.85,10.44,1.87,8.57-3.61a17.06,17.06,0,0,1-.81-4.57c.78.5,1.56,1,2.36,1.42a4.71,4.71,0,0,0,6.4-6.4c-1.19-2.31-1.31-4.82-1.56-7.33A12.8,12.8,0,0,0,312.58,32Z" transform="translate(0 0.7)"/><path class="cls-2" d="M313.81,20.73c-20.24.28-37.69,15.62-53.39,26.66l-1.42,1a.34.34,0,0,0-.2-.29c-3.91-2.06-7.42-7.54-10.34-12.67,8.78-2.66,16.85-10,25.24-13.89a2.22,2.22,0,0,0,0-3.8C259.24,10.93,244.77,4.08,229.47-.6a2.17,2.17,0,0,0-2.65,2.65c2.36,11.2,10,22,16.18,31.42,2.07,3.16,9.48,16.55,15,15.59-10.17,7-20.71,13-33.22,14.51-4.65.56-10.27-1.48-14.57,1a2,2,0,0,0-1,2c-.48-.12-1-.25-1.42-.35a1.32,1.32,0,0,0-1,2.41c20.57,14.91,42.56,32.24,67.69,17.19,23-13.76,36.34-36.47,41.43-62.26A2.22,2.22,0,0,0,313.81,20.73ZM232,4.78c12.15,4.06,23.8,9.37,35.39,14.82-7.22,3.33-15.57,7.34-20.76,12.59-.88-1.58-1.68-3-2.41-4.21C239.91,21,234.65,12.94,232,4.78Zm46.34,73.13C265.22,88,252.22,90.48,237,83.63a110.37,110.37,0,0,1-12.74-7.34q-3.19-2-6.37-4.11c-1-.64-4.86-2.15-6-3h0a1.54,1.54,0,0,0,1.81-.58l.32,0c.26,0,.35-.21.31-.42a4.16,4.16,0,0,0,1.13-.29c1.48,0,2.95,0,4.42,0a44.94,44.94,0,0,0,9.19-.42c9.48-1.82,17.41-5.9,25.59-10.93,17.37-10.66,35-29.43,56.36-31.24C306.29,46.69,296.08,64.31,278.36,77.91Z" transform="translate(0 0.7)"/><path class="cls-5" d="M389.55,33.67a50,50,0,0,0-2.68-10.52c-1.52-4.66-7.37-3.29-7.91.82-2.63-1.43-6.38,1.48-5.88,4.89q.45,3,.8,6L371,28.15c-1.52-3.56-7.76-1.82-7.35,2,.35,3.18.77,6.37,1.2,9.56-.34-.69-.68-1.38-1.05-2.05-1.72-3.12-7.53-1.94-7.07,1.91.59,5,1.35,9.91,1.91,14.87a59.86,59.86,0,0,0-3.84-5.61c-1.95-2.53-6.19-.35-6.1,2.53a109.7,109.7,0,0,0,1.39,12.52,23.93,23.93,0,0,0-6-4.1,2.56,2.56,0,0,0-3.72,2.86,28.15,28.15,0,0,0,2.65,8.14c.59,1.18,2.37.34,2.06-.87a11.65,11.65,0,0,1-.3-3.16,32.94,32.94,0,0,1,7,9.82c1.46,3,6.05,1.44,6.07-1.64,0-2.06-.11-4.1-.3-6.13q.92,2.35,1.73,4.75a3.71,3.71,0,0,0,7.25-1,66.38,66.38,0,0,0,.27-7.71c.22.54.43,1.09.66,1.64,1.53,3.68,7.45,3.58,7.39-1,0-3.2-.21-6.37-.47-9.54l.39.91c1.72,4,6.94,1.38,7.31-2a77.37,77.37,0,0,0,.43-9.11c2.55,1,5.88-1.7,5.39-4.91a42.23,42.23,0,0,1-.4-4.33A2.73,2.73,0,0,0,389.55,33.67Z" transform="translate(0 0.7)"/><path class="cls-2" d="M384.21,50.07c-.58,7.12-7.23,15-11.06,20.74-1.2,1.79-2.45,3.54-3.71,5.29-2.05,2.82-1.88,2.33-5.2,1.23a119.34,119.34,0,0,1-19.7-8.07l-.06,0c.81-2.72,4.41-8.3,4.7-8.86,2.53-4.82,4.73-9.8,7.24-14.63a35.58,35.58,0,0,1,6.32-8.57c7,4.54,14.11,9.15,22.29,11.22a1.88,1.88,0,0,0,2.35-1.79,182.88,182.88,0,0,0-.69-26.27,1.88,1.88,0,0,0-2.79-1.6C375.57,23.49,364.18,28,358.37,36c-7.54,10.46-11.84,23-18,34.26a1.07,1.07,0,0,0,1.46,1.46l2-.56c6.81,5.46,16,7.87,24,11a1.68,1.68,0,0,0,1.71-.46A147.32,147.32,0,0,0,382.2,63.32c1.84-3,7.44-10.6,4.25-14.18C385.63,48.21,384.3,49,384.21,50.07Zm-1-26.68a179.45,179.45,0,0,1,.55,20.74C377.12,42,371.54,38,365.42,34.68,370.7,30.19,377,26.86,383.2,23.39Z" transform="translate(0 0.7)"/><path class="cls-2" d="M368.51,52.48a5.82,5.82,0,0,0-4.24-.09,1,1,0,0,0-1.38-.43c-4.85,2.63-7,10.22-4.4,15,3.32,6.22,12.41.59,14.85-3.53C376,59,372.74,54.18,368.51,52.48Zm2,9.32c-1.32,2.67-8,7.36-9.76,2.94a8.06,8.06,0,0,1-.25-4.88,6.52,6.52,0,0,0,.31.91,1.26,1.26,0,0,0,2.42,0c.63-2.48.49-6.08,4-5.1C369.88,56.39,371.77,59.25,370.51,61.8Z" transform="translate(0 0.7)"/><path class="cls-4" d="M484,97.63a130.44,130.44,0,0,0-11.16-13.37c4,1.35,7.58-4.19,4.38-7.47-7.09-7.26-14.11-14.56-21-22a5.73,5.73,0,0,0,.66-1.23,4.5,4.5,0,0,0,.24-1.94c1,.21,2.09.41,3.16.54a3.43,3.43,0,0,0,3.56-1.81c3.29-.39,4.91-5.1,1.57-7.64-3-2.26-4.73-4.67-8.54-5.38-3.12-.58-6,1.89-5.67,4.84a4.84,4.84,0,0,0-2.81,2.92,6.38,6.38,0,0,0-.45,1.42l-.24-.05c-4.69-.91-7.3,4-4.44,7.62l.21.25c-.77-.44-1.54-.89-2.33-1.31a4.6,4.6,0,0,0-5.55,7.2c2.31,2.57,4.71,5,7.15,7.48C433,61,423,54.82,412,50.13c-4.31-1.84-9.05,3.08-5.29,6.85,6.91,6.93,13.73,13.9,20.26,21.14a30.84,30.84,0,0,1-3-1.41c-3.59-1.95-8,3.11-4.53,5.87,4,3.21,6.31,7.57,8.83,11.85A79.3,79.3,0,0,1,418,93.05c-2.88-.67-4.08,3.83-1.21,4.41,5.45,1.73,11.22,2,16.66,3.72a3,3,0,0,0,3.36-4.36c-1.72-2.76-3.09-5.67-4.54-8.51a34.9,34.9,0,0,1,6,2.84c3.35,2,8.11-2.2,5.62-5.63-3.74-5.15-7.77-10-12-14.76,15.87,10.12,30.56,22.2,46,32.9C481.54,106.12,486.57,101.19,484,97.63Z" transform="translate(0 0.7)"/><path class="cls-2" d="M461,63.45c5.52-8,8.4-19.5.51-25-14.29-10-23.5,5.26-26.14,18.64-8.65-7.47-21.4-15.67-29-3.12-4.64,7.63,5.34,14,14.2,17.38-7.13,4.7-8.84,16.42-2.75,24.18,7.61,9.7,20.49,1.42,26.95-6.93,4.85,13.88,24.59,18.21,35.27,6.45C493.64,80,477.27,62,461,63.45ZM475.36,93.5c-9.22,10.15-27,1.41-27.33-11-.08-2.64-3.46-2.84-4.36-.59-1.9,4.76-4.93,7.83-9.16,10.6-17,11.13-21.3-20.14-6.26-18.92a22.3,22.3,0,0,0,2.28.33c2.48.16,3-3.79.58-4.32a16.78,16.78,0,0,0-3.21-.38,28.85,28.85,0,0,1-9.4-3.16C415.83,64.73,404,56,415.91,52.72c8.65-2.4,13.38,3.62,18.83,8.29a31.6,31.6,0,0,0-.12,5.36c.21,2.81,4.61,2.83,4.4,0,0-.75-.08-1.54-.09-2.35a1.4,1.4,0,0,0,1.58-2.24l-1.45-1.37c.78-10.18,5.38-22,17.36-19.78,12.62,2.31,1.07,21.88-4.71,26.06-.24.15-.49.29-.73.47A2.21,2.21,0,0,0,453.21,71a15.2,15.2,0,0,0,1.74-1.1C470.27,61.18,488.59,79,475.36,93.5Z" transform="translate(0 0.7)"/></svg>