<?xml version="1.0" encoding="utf-8"?>
<!-- Generator: Adobe Illustrator 23.0.1, SVG Export Plug-In . SVG Version: 6.00 Build 0)  -->
<svg version="1.1" id="Layer_1" xmlns="http://www.w3.org/2000/svg" xmlns:xlink="http://www.w3.org/1999/xlink" x="0px" y="0px"
	 viewBox="0 0 58 59" style="enable-background:new 0 0 58 59;" xml:space="preserve">
<style type="text/css">
	.st0{fill-rule:evenodd;clip-rule:evenodd;fill:#F7CA24;}
	.st1{fill-rule:evenodd;clip-rule:evenodd;fill:#3C3C3B;}
</style>
<title>Group</title>
<desc>Created with Sketch.</desc>
<g id="Page-1">
	<g id="Group" transform="translate(-1.000000, 0.000000)">
		<path id="Path" class="st0" d="M52.6,31.8c-0.3-1-1.2-1.8-2.3-1.8s-2.1,0.5-2.5,1.5c-1.3-0.3-2.7,0.3-3.3,1.4l-0.1,0.3
			c-1.3-0.7-2.6-1.4-3.9-2.1c-1-0.6-2.3-0.4-3.1,0.4c-1.9-3.8-4-7.5-6.1-11.1c0.9-0.1,1.8-0.6,2.4-1.3c0.6-0.8,0.7-1.8,0.5-2.7
			c-0.5-2.6-1.5-5-3.1-7.1c-2.1-2.7-5.6,0.4-5.1,3c0,0.3,0.1,0.5,0.2,0.8c0,0.1,0.1,0.2,0.1,0.2l-0.3-0.1c-2.8-1.1-4.8,2.4-3.6,4.7
			c0.4,0.8,0.8,1.5,1.3,2.3c-1.1,0.2-2,0.8-2.4,1.8c-0.5,1-0.4,2.1,0.1,3l0.1,0.2c-1.5-1-3.1-1.8-4.7-2.6c-2.5-1.2-5.3,0.9-4.8,3.4
			c-1.4-0.8-2.8-1.6-4.3-2.2c-0.2-0.1-0.5-0.2-0.7-0.3c-3.3-1.3-5.1,3.8-2.3,5.5c1.8,1.1,3.4,2.5,4.8,4.2c-0.8,0.5-1.2,1.4-1.1,2.3
			c0.1,1.1,0.3,2.2,0.5,3.3c-1.5-0.3-3-0.2-4,1.5s-1.6,6,0.5,7c1.1,0.5,2.8,0,3.1-1.2c0.1-0.2,0.1-0.3,0.2-0.5
			c0.2-0.4,0.3-0.9,0.5-1.3c0.8,0.3,1.8,0.8,2.3,1c0.8,0.2,1.7,0,2.4-0.5c0.7-0.5,1.1-1.3,1.1-2.2c0-0.2,0-0.3,0-0.5
			c1.9,1,4.6-0.7,4.2-2.9c4.2,4.2,8,8.8,12.1,12.7c2.4,2.3,6.9-0.8,4.9-3.7c-2.2-3.2-4.7-6.2-7.1-9.2l1.1,0.9
			c0.7,0.6,1.5,0.9,2.4,0.8c0.9-0.1,1.7-0.5,2.3-1.1c1.7,1.1,3.6,0,4.3-1.8c0.2,0.3,0.4,0.6,0.6,0.8c0.3,0.5,0.9,0.9,1.5,0.9
			c0.6,0.1,1.2-0.2,1.6-0.6c0.7,0.4,1.4,0.9,2.1,1.3c1.5,0.9,4.1,0.2,4.4-1.8c0-0.2,0.1-0.3,0.1-0.5C51.9,37.5,53.6,35.3,52.6,31.8z
			"/>
		<path class="st1" d="M57.5,34.7c-5.7-2.6-11.2-4.8-17.5-5.6c-4.7-0.5-5.6-24-6-27.3c0-0.7-0.5-1.3-1.1-1.4
			c-0.7-0.2-1.4,0.1-1.7,0.7c-3.4,4.8-4.7,11-7,16.3c-4.3,10-14.7,1-21.5-0.9c-0.9-0.3-2.1,0.7-1.7,1.7c2.5,6.3,6.1,11.8,9.9,17.3
			c0.7,1.1,2.5,0.1,1.8-1c-3-4.6-5.9-9-7.9-14c5.5,2.8,14,8.3,18.5,3.9C28,19.5,29,12.5,31.6,6.5c1,8.3,2.3,16.5,4.1,24.6
			c0.2,0.7,0.8,1.1,1.5,1.1c4.7,0,9.4,1.1,13.7,3c-6,0.9-11.9,2.2-17.9,2.8c-0.5,0-1,0.2-1.2,0.6c-0.3,0.4-0.4,0.9-0.3,1.4
			c1.6,4.2,2.8,8.5,3.6,12.9c-4.3-4.5-8.8-11.2-14.3-12.3c-5.2-1-10.3,4.8-14.7,8.6c1.5-4,3.4-7.7,5.7-11.3c1-1.7-1.6-3.2-2.6-1.5
			c-3.2,5.2-6.1,10.3-7.3,16.3c-0.1,0.6,0.1,1.2,0.6,1.6s1.2,0.4,1.7,0.1c5.7-3.1,12.6-13.8,19-8.7c4.7,3.8,8.2,8.8,13.1,12.3
			c0.5,0.3,1,0.3,1.5,0c0.5-0.3,0.8-0.7,0.8-1.3c-0.3-5.5-1.9-10.6-3.6-15.8c7.2-0.9,14.3-2.6,21.6-3.3
			C58.1,37.4,59.1,35.4,57.5,34.7z"/>
	</g>
</g>
</svg>
