<?xml version="1.0" encoding="utf-8"?>
<!-- Generator: Adobe Illustrator 23.0.1, SVG Export Plug-In . SVG Version: 6.00 Build 0)  -->
<svg version="1.1" id="Layer_1" xmlns="http://www.w3.org/2000/svg" xmlns:xlink="http://www.w3.org/1999/xlink" x="0px" y="0px"
	 viewBox="0 0 50 64" style="enable-background:new 0 0 50 64;" xml:space="preserve">
<style type="text/css">
	.st0{fill-rule:evenodd;clip-rule:evenodd;fill:#EF66B2;}
	.st1{fill:#3C3C3B;}
</style>
<title>Group 3</title>
<desc>Created with Sketch.</desc>
<g id="Page-1">
	<g id="Group-3">
		<path id="Path" class="st0" d="M49.5,15.4c-0.5-3.6-1.4-7.1-2.7-10.5c-1.5-4.7-7.4-3.3-7.9,0.8c-2.6-1.4-6.4,1.5-5.9,4.9
			c0.3,2,0.6,4,0.8,6L31,9.9c-1.5-3.6-7.8-1.8-7.4,2c0.4,3.2,0.8,6.4,1.2,9.6c-0.3-0.7-0.7-1.4-1.1-2c-1.7-3.1-7.5-1.9-7.1,1.9
			c0.6,5,1.4,9.9,1.9,14.9c-1.2-1.9-2.5-3.8-3.8-5.6c-1.9-2.5-6.2-0.4-6.1,2.5c0.2,4.2,0.7,8.4,1.4,12.5c-1.8-1.7-3.8-3-6-4.1
			c-0.9-0.5-2-0.4-2.8,0.2s-1.2,1.7-0.9,2.6c0.5,2.8,1.4,5.6,2.7,8.1c0.6,1.2,2.4,0.3,2.1-0.9c-0.2-1-0.3-2.1-0.3-3.2
			c2.9,2.8,5.3,6.1,7,9.8c1.5,3,6.1,1.4,6.1-1.6c0-2.1-0.1-4.1-0.3-6.1c0.6,1.6,1.2,3.2,1.7,4.8c0.5,1.7,2.3,2.8,4,2.6
			s3.2-1.8,3.2-3.6c0.2-2.6,0.3-5.1,0.3-7.7c0.2,0.5,0.4,1.1,0.7,1.6c1.5,3.7,7.5,3.6,7.4-1c0-3.2-0.2-6.4-0.5-9.5l0.4,0.9
			c1.7,4,6.9,1.4,7.3-2c0.3-3,0.5-6.1,0.4-9.1c2.6,1,5.9-1.7,5.4-4.9c-0.2-1.4-0.3-2.9-0.4-4.3C48.8,17.9,49.6,16.7,49.5,15.4z"/>
		<path id="Shape" class="st1" d="M44.2,31.8c-0.6,7.1-7.2,15-11.1,20.7c-1.2,1.8-2.5,3.5-3.7,5.3c-2.1,2.8-1.9,2.3-5.2,1.2
			c-6.8-2.1-13.4-4.8-19.7-8.1H4.5c0.8-2.7,4.4-8.3,4.7-8.9c2.5-4.8,4.7-9.8,7.2-14.6c1.7-3.2,3.8-6,6.3-8.6
			c7,4.5,14.1,9.1,22.3,11.2c0.6,0.1,1.2,0,1.6-0.3c0.5-0.3,0.7-0.9,0.7-1.5c0.4-8.8,0.2-17.5-0.7-26.3c0-0.7-0.4-1.3-0.9-1.6
			s-1.3-0.3-1.8,0c-8.3,4.7-19.7,9.2-25.5,17.2c-7.5,10.5-11.8,23-18,34.3c-0.2,0.4-0.2,0.9,0.2,1.3c0.3,0.3,0.9,0.4,1.3,0.2l2-0.6
			c6.8,5.5,16,7.9,24,11c0.6,0.2,1.3,0,1.7-0.5c4.7-5.8,8.9-11.9,12.7-18.4c1.8-3,7.4-10.6,4.2-14.2C45.6,29.9,44.3,30.7,44.2,31.8z
			 M43.2,5.1c0.6,6.9,0.8,13.8,0.5,20.7c-6.6-2.1-12.2-6.1-18.3-9.5C30.7,11.9,37,8.6,43.2,5.1L43.2,5.1z"/>
		<path class="st1" d="M28.5,34.2c-1.4-0.6-2.9-0.6-4.2-0.1c-0.1-0.2-0.3-0.4-0.6-0.5c-0.3-0.1-0.5-0.1-0.8,0.1
			c-4.8,2.6-7,10.2-4.4,15c3.3,6.2,12.4,0.6,14.9-3.5C36,40.7,32.7,35.9,28.5,34.2z M30.5,43.5c-1.3,2.7-8,7.4-9.8,2.9
			c-0.6-1.6-0.7-3.3-0.2-4.9c0.1,0.3,0.2,0.6,0.3,0.9c0.2,0.5,0.6,0.9,1.2,0.9s1.1-0.4,1.2-0.9c0.6-2.5,0.5-6.1,4-5.1
			C29.9,38.1,31.8,41,30.5,43.5z"/>
	</g>
</g>
</svg>
