<?xml version="1.0" encoding="utf-8"?>
<!-- Generator: Adobe Illustrator 23.0.1, SVG Export Plug-In . SVG Version: 6.00 Build 0)  -->
<svg version="1.1" id="Layer_1" xmlns="http://www.w3.org/2000/svg" xmlns:xlink="http://www.w3.org/1999/xlink" x="0px" y="0px"
	 viewBox="0 0 110 94" style="enable-background:new 0 0 110 94;" xml:space="preserve">
<style type="text/css">
	.st0{fill-rule:evenodd;clip-rule:evenodd;fill:#009EE2;}
	.st1{fill:#3C3C3B;}
</style>
<title>Group 2</title>
<desc>Created with Sketch.</desc>
<g id="Page-1">
	<g id="Group-2">
		<path id="Path" class="st0" d="M106.6,32.7c2.6-4.2-3.8-9.5-7-5.4c-0.6,0.8-1.7,1.3-1.1,1.3c-2.5,0.2-4.9,2.3-4.7,4.9
			c-1.6-0.9-3.7-0.7-5.1,0.4c-1.5,1.1-2.1,3.1-1.7,4.9c0.3,1.4,0.5,2.9,0.5,4.4c-1.3-1.1-2.7-2.2-4-3.3c-3.4-3.1-9.1-0.1-7.8,4.6
			c0,0.2,0.1,0.4,0.1,0.6c-2.6-3.5-8.9-2.7-8.8,2.4c0.1,2.3,0.3,4.6,0.6,6.9c-1.2-1.6-2.5-3.1-3.9-4.6c-3.4-3.7-8.5,0.2-7.7,4.5
			c0.2,0.9,0.4,1.9,0.5,2.8c-0.4-0.6-0.8-1.1-1.3-1.7c-3.1-4-8.4,0.5-7.7,4.5c0.4,2.5,1,5.1,1.5,7.6c-2-2.3-4.2-4.4-6.5-6.4
			c-3.2-2.7-9.2-0.2-7.6,4.4l1.7,5c-1.7-2.2-3.3-4.6-4.9-6.9c-1.3-1.8-3.7-2.3-5.5-1.2c-1.9,1.1-2.6,3.4-1.8,5.4
			c0.9,1.9,1.7,3.9,2.3,5.9l-3.5-2.5c-3-2.2-6.4-5.4-10-6.7c-2.6-1-4.1,2.6-2.5,4.3l0.1,0.1c0.3,0.3,0.7,0.6,1.1,0.7
			c2.7,1.6,5.2,4.5,7.5,6.5c4,3.3,7.9,6.8,11.6,10.6c2.2,2.3,5.3,0.9,6.2-1.5c2.3,2.7,4.8,5.2,7.5,7.5c3.1,2.7,8.7,0.2,7.3-4.3
			c-0.2-0.8-0.5-1.6-0.8-2.4l1,1.6c2.3,3.8,8.6,2.3,8.5-2.3c-0.1-2.4-0.3-4.9-0.6-7.3c1.1,1.8,2.3,3.6,3.3,5.4
			c2.6,4.4,9.7,1.5,8.3-3.5c-0.6-1.9-1.1-3.9-1.6-5.8c0.5,0.8,1.1,1.6,1.7,2.3c3.2,4.2,9.3,1.8,8.4-3.6c-0.7-3.8-1.5-7.6-2.2-11.4
			l0.7,0.9c3.1,4.2,9.8,1.8,8.6-3.6c-0.3-1.4-0.5-2.8-0.7-4.2c0.7,0.7,1.4,1.4,2,2.2c3,3.8,10.4,1.9,8.6-3.6c-0.5-1.5-0.7-3-0.8-4.6
			c0.8,0.5,1.6,1,2.4,1.4c1.8,1,4.1,0.7,5.6-0.8c1.5-1.5,1.8-3.8,0.8-5.6c-1.2-2.3-1.3-4.8-1.6-7.3C104.9,35.2,105.9,34,106.6,32.7z
			"/>
		<path id="Shape" class="st1" d="M107.8,21.4c-20.2,0.3-37.7,15.6-53.4,26.7l-1.4,1c0-0.1-0.1-0.2-0.2-0.3
			c-3.9-2.1-7.4-7.5-10.3-12.7c8.8-2.7,16.9-10,25.2-13.9c0.7-0.4,1.1-1.1,1.1-1.9s-0.4-1.5-1.1-1.9C53.2,11.6,38.8,4.8,23.5,0.1
			c-0.7-0.2-1.5,0-2.1,0.6c-0.5,0.5-0.8,1.3-0.6,2.1c2.4,11.2,10,22,16.2,31.4c2.1,3.2,9.5,16.6,15,15.6c-10.2,7-20.7,13-33.2,14.5
			c-4.7,0.6-10.3-1.5-14.6,1c-0.7,0.4-1.1,1.2-1,2c-0.5-0.1-1-0.2-1.4-0.3c-0.6-0.2-1.3,0.2-1.5,0.8s0,1.3,0.5,1.6
			c20.6,14.9,42.6,32.2,67.7,17.2c23-13.8,36.3-36.5,41.4-62.3c0.2-0.7,0.1-1.4-0.4-1.9C109.1,21.8,108.5,21.4,107.8,21.4z M26,5.5
			c12.2,4.1,23.8,9.4,35.4,14.8c-7.2,3.3-15.6,7.3-20.8,12.6c-0.9-1.6-1.7-3-2.4-4.2C33.9,21.7,28.6,13.6,26,5.5z M72.3,78.6
			C59.2,88.7,46.2,91.2,31,84.3c-4.4-2.2-8.7-4.6-12.7-7.3c-2.1-1.3-4.2-2.7-6.4-4.1c-1-0.6-4.9-2.1-6-3c0.7,0.2,1.4,0,1.8-0.6H8
			c0.3,0,0.3-0.2,0.3-0.4c0.4,0,0.8-0.1,1.1-0.3c1.5,0,2.9,0,4.4,0c3.1,0.2,6.1,0,9.2-0.4c9.5-1.8,17.4-5.9,25.6-10.9
			C66,46.6,83.7,27.8,105,26C100.3,47.4,90.1,65,72.3,78.6L72.3,78.6z"/>
	</g>
</g>
</svg>
