<?xml version="1.0" encoding="utf-8"?>
<!-- Generator: Adobe Illustrator 23.0.1, SVG Export Plug-In . SVG Version: 6.00 Build 0)  -->
<svg version="1.1" id="Layer_1" xmlns="http://www.w3.org/2000/svg" xmlns:xlink="http://www.w3.org/1999/xlink" x="0px" y="0px"
	 viewBox="0 0 107 75" style="enable-background:new 0 0 107 75;" xml:space="preserve">
<style type="text/css">
	.st0{fill-rule:evenodd;clip-rule:evenodd;fill:#9A5EA2;}
	.st1{fill:#3C3C3B;}
</style>
<title>Group</title>
<desc>Created with Sketch.</desc>
<g id="Page-1">
	<g id="Group">
		<path id="Path" class="st0" d="M105.2,26.1c-1.6-1.6-3.5-3-5.5-4.1c-0.8-0.4-1.8-0.4-2.6,0c-1.6-0.8-3.1-1.7-4.6-2.8
			c-1.2-0.8-2.7-0.8-3.9,0c-1.1,0.9-1.6,2.4-1.1,3.7c-1.2-0.8-2.4-1.7-3.6-2.5c-2.7-2-5.5,0.8-4.7,3.4c-1.6-1.1-3.2-2.2-4.9-3.2
			c-2.9-1.8-6.6,1.4-4.3,4.4c1.1,1.4,2,3,2.8,4.6c-0.6-0.3-1.2-0.7-1.7-1c-1.9-1.3-4.8,0-5,2.1c-1.7-0.9-3.5-1.6-5.3-2.2
			c-2.7-0.8-5.6,2-3.5,4.6c0.6,0.7,1.2,1.5,1.7,2.3c-2.5-1.6-5-3.1-7.6-4.5c-2.6-1.4-5.3,2.4-3.5,4.5c1.6,1.9,3.2,3.8,4.8,5.7
			c-2.4-2-4.9-3.9-7.6-5.7c-2.8-1.8-6.4,1.5-4.2,4.2l0.1,0c-2.4-1.5-4.8-3-7.2-4.3c-2.5-1.3-5.4,2.4-3.5,4.5c1.3,1.5,2.5,3.2,3.4,5
			c-3.2-2-6.5-3.6-10-4.9c-2.7-1-5.4,2.1-3.5,4.5c0.7,0.8,1.3,1.7,1.8,2.6c-2.1-0.9-4.3-1.8-6.4-2.9c-2.7-1.4-5.2,2.3-3.4,4.5
			c1,1.2,1.9,2.5,2.7,3.8c-1.2-0.4-2.5-0.9-3.7-1.3c-1.2-0.5-2.6-0.1-3.5,0.9s-0.8,2.5,0,3.6l2.9,4.2c-1.4-0.6-2.9-1.2-4.3-1.9
			c-0.9-0.3-2,0.1-2.5,0.9c-0.5,0.9-0.3,2,0.5,2.6c2.6,1.9,5,4.1,7.7,6c0.4,0.3,0.8,0.4,1.3,0.2c0.4-0.1,0.8-0.5,0.9-0.9
			c1.3,0.8,2.6,1.8,3.7,2.9c2.3,2.2,5.1-1.4,3.7-3.7c-1.3-2.2-2.7-4.3-4.1-6.4c1.4,0.5,2.7,1.1,4,1.7c2.6,1.2,5.2-2.2,3.4-4.4
			c-0.9-1.1-1.7-2.2-2.4-3.4c2,0.8,4,1.6,5.9,2.6c2.7,1.4,5.1-2.3,3.4-4.5c-0.5-0.7-1-1.3-1.5-2c2.7,1.5,5.3,3.2,8,4.8
			c2.4,1.5,5.6-0.6,4.5-3.5c-0.6-1.5-1.2-3.1-1.8-4.6c4.1,2.7,8.2,5.5,12.4,8.2c0.9,0.5,1.9,0.6,2.8,0.2c0.9-0.4,1.6-1.2,1.8-2.2
			c0.9,0.7,1.9,1.3,2.8,2c1.1,0.7,2.5,0.6,3.5-0.2c1-0.8,1.4-2.1,1-3.3c-0.7-2.3-1.7-4.6-2.9-6.7c2.1,1.6,4.2,3.2,6.3,4.8
			c2.1,1.6,6-0.8,4.5-3.5c-1-1.8-2.2-3.6-3.3-5.4c1.1,0.9,2.2,1.9,3.3,3c2.7,2.5,5.9-1.6,4.2-4.2c-0.2-0.3-0.4-0.7-0.6-1l1.8,0.8
			c3.1,1.4,5.2-2.4,3.7-4.8c-0.3-0.5-0.6-1-0.9-1.5c2,1.5,4,3,6.1,4.5c2.6,2,6-1.2,4.5-3.9c0.9,0.6,1.8,1.3,2.7,1.9
			c2.9,2.2,6.4-1.5,4.4-4.4c-0.3-0.4-0.6-0.8-0.8-1.3c1.3,0.7,2.7,1.3,4,2.1C105.4,33.6,107.8,28.4,105.2,26.1z"/>
		<path id="Shape" class="st1" d="M93.3,16.5c-8.2-1.7-16.4,0.4-24.2,3.3c-2.4-5.5-4.3-13.6-8.7-17.4C54.2-3,44.4,3.2,38.4,6.2
			c-7,3.6-16,5.5-20.8,12.1c-4.1,5.7,0.9,13,5,18.1C11.1,40.7-0.5,47.7,0.8,60.1C1.9,71.4,22,80.9,28.1,68.8
			c0.3-0.7-0.6-1.4-1.1-0.9c-5.4,5-11.8,3.8-17.5-0.1C1.4,62.1,3.3,53,9.8,47.3C14,43.6,19.2,41,24.7,39c0.2,0.2,0.5,0.3,0.9,0.2
			s0.5-0.4,0.5-0.7c4.9-1.7,10-3.1,14.6-4.5c4.3-1.3,8.5-2.8,12.6-4.4c0.1,0,0.3,0,0.4,0c0.3-0.1,0.7-0.3,0.8-0.5
			c5.7-2.3,11.4-4.7,17.2-6.8c7.1-2.6,15.4-4.7,22.8-1.9c10.3,3.8,7.4,14.2,0.7,19c-1.4-2.7-4-4.7-7-5.4c-2.6-0.6-5.3,0.1-7.3,1.8
			c-4.6,0.6-6.2,6.1-5.4,11.2c-0.2-0.1-0.4-0.1-0.6-0.1c-3,0.6-6,2.7-8.9,3.8c-2.6,0.9-5.1,2-7.5,3.2c-2.6,1.2-5.1,2.5-7.5,4
			c-0.5-1.2-1.1-2.3-1.8-3.2c-1.5-1.9-4.9-4.4-7.4-3.2c-0.2,0.1-0.4,0.2-0.5,0.4c-4.8-0.3-9.1,2.6-10.9,7.8
			c-2.5,7.1,2.4,13.6,9.6,14.5c3.1,0.5,6.3-0.4,8.7-2.5c2.4-2.1,3.7-5.2,3.5-8.4c0-1.1-0.2-2.1-0.4-3.2c0.1-0.1,0.3-0.1,0.5-0.2
			c2.7-1.1,5.4-2.5,8.1-3.8c2.7-1.2,5.4-2.2,8.2-3.2c2.4-0.9,5.9-1.7,7.5-3.9c1.2,4,3.9,7.3,8,7.3c6.3,0.1,12.9-7.3,12.3-13.7
			C106.5,36.2,108.2,19.6,93.3,16.5z M62.7,22.3c-3.1,1.3-6.2,2.5-9.3,3.7c-0.3-0.4-0.7-0.7-1-1.1c-1.9-2.2-3.7-4.5-5.4-6.8
			c-0.6-0.8-6.8-8.8-7-8.3c0.1-0.2,0-0.4-0.2-0.5s-0.4,0-0.5,0.1c-1.4,2,2.8,6.8,3.8,8.2c1.9,2.7,3.8,5.4,5.8,8
			c0.3,0.5,0.8,1.1,1.2,1.7c-4.8,1.8-9.6,3.5-14.7,5c-3.1,0.9-6.9,2-10.8,3.4c-3.8-6.9-8.8-14.6,1-20.2c4.4-2.5,9.5-4,14-6.3
			c6.9-3.4,16.7-9.7,21.6,0.6c1.7,3.7,3.2,7.5,4.9,11.2L62.7,22.3z M41.2,71.2c-5.8,0-9.1-4.5-8-10c1-4.8,4.9-6.9,9.2-7
			c1.3,0.7,2.7,0.9,3.9,2.1c1.5,1.6,2.4,3.6,2.7,5.7C49.8,67.1,46.5,71.2,41.2,71.2z M83,53.3c-4-1.1-6-7.5-4.8-11.9
			c0.3,0.3,0.7,0.4,1.1,0.3c0.4-0.1,0.7-0.3,0.9-0.6c1.8-2.7,4.2-4.5,7.6-3.9c2.1,0.5,3.9,1.9,4.7,3.9c-0.2,0.1-0.4,0.2-0.6,0.2
			c-1.9,0.8-0.7,3.7,1.2,3C92.7,48.6,87.3,54.5,83,53.3z"/>
	</g>
</g>
</svg>
