<?xml version="1.0" encoding="UTF-8"?>
<svg width="1924px" height="833px" viewBox="0 0 1924 833" version="1.1" xmlns="http://www.w3.org/2000/svg" xmlns:xlink="http://www.w3.org/1999/xlink">
    <!-- Generator: Sketch 52.1 (67048) - http://www.bohemiancoding.com/sketch -->
    <title>top</title>
    <desc>Created with Sketch.</desc>
    <g id="Page-1" stroke="none" stroke-width="1" fill="none" fill-rule="evenodd">
        <g id="top">
            <path d="M1906.7,399.949 C1895.13,392.665 1883.44333,385.748333 1871.64,379.199 C1825.08117,353.625002 1776.09742,332.738488 1725.41,316.847 C1675.60025,301.084337 1624.48468,289.792661 1572.67,283.106 C1520.9781,276.355832 1468.77506,274.372485 1416.72,277.181 C1390.67,278.624333 1364.70333,281.341333 1338.82,285.332 C1312.94036,289.382856 1287.28641,294.76331 1261.96,301.452 C1236.58467,308.200526 1211.60018,316.341182 1187.12,325.837 C1181.02,328.28 1174.89,330.637 1168.87,333.263 L1159.81,337.132 L1150.83,341.194 L1146.34,343.23 L1142.16,345.273 L1133.87,349.359 C1128.35,352.103 1122.8,354.769 1117.31,357.577 C825.539,501.959 402.156,1162.04 97,474 C79.58,434.656 18.465,263.477 3,199.467 L3,0 L1923,0 L1923,410.643 C1917.6,406.988333 1912.16667,403.423667 1906.7,399.949 Z" id="top-2" fill="#FFFFFF"></path>
            <path d="M1922.93,515.255 C1922.93,515.255 1912.3,507.101 1906.92,503.191 C1895.66,495.019667 1884.25333,487.272333 1872.7,479.949 C1861.13,472.665 1849.44333,465.748333 1837.64,459.199 C1791.08117,433.625002 1742.09742,412.738488 1691.41,396.847 C1641.60013,381.084809 1590.4846,369.793142 1538.67,363.106 C1486.97814,356.355336 1434.77506,354.371987 1382.72,357.181 C1356.67,358.624333 1330.70333,361.341333 1304.82,365.332 C1278.94036,369.382856 1253.28641,374.76331 1227.96,381.452 C1202.58467,388.200526 1177.60018,396.341182 1153.12,405.837 C1147.02,408.28 1140.89,410.637 1134.87,413.263 L1125.81,417.132 L1116.83,421.194 L1112.34,423.23 L1108.16,425.273 L1099.87,429.359 C1094.35,432.103 1088.8,434.769 1083.31,437.577 C1039.34,459.893 996.28,484.162 954.72,510.43 C933.950667,523.558667 913.536,537.068667 893.476,550.96 C873.462,564.842 853.836,579.015 834.549,593.222 C795.933,621.622 758.829,650.207 721.402,675.849 C683.982,701.542 645.928,724.049 605.427,741.749 C585.065231,750.620088 564.265732,758.450523 543.109,765.21 C521.941023,772.037246 500.389809,777.613541 478.567,781.91 C435.138,790.387 390.805,793.099 347.767,786.91 C326.284076,783.813757 305.219142,778.303228 284.972,770.483 C264.625088,762.522998 245.335108,752.089246 227.537,739.417 C191.584,713.978 161.591,679.21 137.86,640.066 C114.142,600.811 96.253,557.439 82.505,512.683 C68.769,467.852 9.157,294.733 2,248 C18.7990132,558.13678 0,185 0,185 C0,185 78.02,431.132 97,474 C402.156,1162.04 825.539,501.959 1117.31,357.577 C1122.8,354.769 1128.35,352.103 1133.87,349.359 L1142.16,345.273 L1146.34,343.23 L1150.83,341.194 L1159.81,337.132 L1168.87,333.263 C1174.89,330.636 1181.02,328.28 1187.12,325.837 C1211.60018,316.341182 1236.58467,308.200526 1261.96,301.452 C1287.28641,294.76331 1312.94036,289.382856 1338.82,285.332 C1364.66,281.368 1390.62667,278.651 1416.72,277.181 C1468.77506,274.372485 1520.9781,276.355832 1572.67,283.106 C1624.48468,289.792661 1675.60025,301.084337 1725.41,316.847 C1776.09746,332.738808 1825.08121,353.625658 1871.64,379.2 C1883.44,385.766 1895.12667,392.682667 1906.7,399.95 C1912.13,403.398 1922.9,410.566 1922.9,410.566 L1922.93,515.255 Z" id="_1" fill="#4F55DC"></path>
            <path d="M1923.04,600.592 C1902.81273,580.453806 1881.0395,561.930518 1857.92,545.192 C1846.66,537.020667 1835.25333,529.273333 1823.7,521.95 C1812.13,514.666 1800.44333,507.749333 1788.64,501.2 C1742.08117,475.626002 1693.09742,454.739488 1642.41,438.848 C1592.60025,423.085337 1541.48468,411.793661 1489.67,405.107 C1437.9781,398.356832 1385.77506,396.373485 1333.72,399.182 C1307.67,400.624 1281.70333,403.341 1255.82,407.333 C1229.94036,411.383856 1204.28641,416.76431 1178.96,423.453 C1153.58467,430.201526 1128.60018,438.342182 1104.12,447.838 C1098.02,450.281 1091.89,452.638 1085.87,455.264 L1076.81,459.133 L1067.83,463.195 L1063.34,465.231 L1059.16,467.274 L1050.87,471.36 C1045.35,474.104 1039.8,476.77 1034.31,479.578 C990.34,501.894 947.278,526.163 905.721,552.431 C884.951,565.559667 864.536,579.069667 844.476,592.961 C824.462,606.844 804.836,621.016 785.549,635.223 C746.933,663.623 709.829,692.208 672.402,717.85 C634.982,743.543 596.928,766.05 556.427,783.75 C536.065388,792.621184 515.265868,800.451294 494.109,807.21 C472.941155,814.037701 451.389914,819.614003 429.567,823.91 C386.138,832.387 341.805,835.099 298.767,828.91 C277.284076,825.813757 256.219142,820.303228 235.972,812.483 C215.625088,804.522998 196.335108,794.089246 178.537,781.417 C142.584,755.978 112.591,721.21 88.86,682.066 C65.145,642.8 47.257,599.431 33.508,554.675 C20.3389325,511.660362 10.1593314,467.786769 3.042,423.368 C2.9,325.349 2.582,257.744 2,247 C9.157,293.733 68.769,466.852 82.508,511.675 C96.256,556.431 114.145,599.803 137.863,639.058 C161.594,678.202 191.587,712.97 227.54,738.409 C245.338108,751.081246 264.628088,761.514998 284.975,769.475 C305.222224,777.294545 326.287155,782.804402 347.77,785.9 C390.805,792.093 435.138,789.381 478.57,780.9 C500.392809,776.603541 521.944023,771.027246 543.112,764.2 C564.268732,757.440523 585.068231,749.610088 605.43,740.739 C645.93,723.044 683.985,700.539 721.405,674.839 C758.832,649.197 795.936,620.613 834.552,592.212 C853.839,578.005 873.465,563.832 893.479,549.95 C913.521,536.088667 933.935667,522.578667 954.723,509.42 C996.283,483.152 1039.343,458.883 1083.313,436.567 C1088.803,433.759 1094.353,431.093 1099.873,428.349 L1108.163,424.263 L1112.343,422.22 L1116.833,420.184 L1125.813,416.122 L1134.873,412.253 C1140.893,409.626 1147.023,407.27 1153.123,404.827 C1177.60318,395.331182 1202.58767,387.190526 1227.963,380.442 C1253.28941,373.75331 1278.94336,368.372856 1304.823,364.322 C1330.663,360.358 1356.62967,357.641 1382.723,356.171 C1434.77806,353.361987 1486.98114,355.345336 1538.673,362.096 C1590.4876,368.783142 1641.60313,380.074809 1691.413,395.837 C1742.0998,411.732196 1791.08256,432.622397 1837.64,458.2 C1849.44,464.766 1861.12667,471.682667 1872.7,478.95 C1884.25,486.283333 1895.65667,494.030667 1906.92,502.192 C1902.08,498.671 1911.33,503.182 1922.88,513.899 C1924.67,515.557 1923.04,600.592 1923.04,600.592 Z" id="_2" fill="#7056DF"></path>
        </g>
    </g>
</svg>