<svg id="Layer_1" data-name="Layer 1" xmlns="http://www.w3.org/2000/svg" viewBox="0 0 91.32 68.66"><defs><style>.cls-1{fill:#9a5ea2;}.cls-2{fill:#3c3c3b;}</style></defs><title>1_pic</title><path class="cls-1" d="M90.23,35a9.34,9.34,0,0,0-.46-2.51c-.81-3.76-2.1-7.4-2.64-11.22-.62-4.31-6.3-3.49-7.1.24-.14.66-.28,1.33-.41,2-.12-2.09-.25-4.18-.44-6.26-.37-3.92-5.76-3.54-6.78-.27-.15-2.59-.38-5.17-.76-7.75-.46-3.1-5.46-3.89-6.36-.64A150.08,150.08,0,0,0,61.7,27.07c-.42-8-.61-16.11-1.34-24.13C60-.63,54.11-.45,54.05,3.16V8.64a40.35,40.35,0,0,0-1.79-5.27C51,.22,47,1.58,46.38,4.37A99.22,99.22,0,0,0,44.59,14.8a31.28,31.28,0,0,0-2.68-5.33c-1.78-2.79-5.47-.28-5.28,2.36,0,.66.1,1.33.16,2a14.8,14.8,0,0,0-1.31-1.43c-1.31-1.3-4.28-1.57-4.84.76-.25,1-.46,2-.67,3.06a50.7,50.7,0,0,0-1.86-5,2.73,2.73,0,0,0-5.17.85c-.06.64-.12,1.28-.19,1.92-.22-1.52-.48-3-.8-4.55-.6-2.89-5.38-3-5.41.19,0,5.31,0,10.62-.26,15.92-.23-.38-.45-.78-.67-1.18a2.51,2.51,0,0,0-4.76.77,23.55,23.55,0,0,1-.79,3.42,19.28,19.28,0,0,1-2.63-4.32C6.86,22.83,4.85,23.58,5,25c.16,1.58,0,6.44,2.13,7.26a.8.8,0,0,0,.59,0c.44.86.88,1.72,1.24,2.61,1,2.33,4.15,1.47,4.51-.74a21.63,21.63,0,0,1,.65-2.61A15.74,15.74,0,0,1,15.66,35c.8,2.64,4.73,2.92,5.08-.17.06-.56.11-1.12.17-1.67a2.84,2.84,0,0,0,2.49-.45,146.85,146.85,0,0,1-2.76,16.68A62,62,0,0,0,19.41,43c-.57-2.26-4.14-3.16-4.94-.5-1.58,5.27-3.11,13.66-.35,18.77a1.6,1.6,0,0,0,1.94.76c0,.94.07,1.88.1,2.83.09,3,4.29,4.55,5.54,1.3S24,59.62,25,56.29c0,1.51.07,3,.13,4.53.13,3.06,5.16,3.49,6,.6s1.44-5.52,2.09-8.3c.12,2.29.25,4.58.44,6.87.27,3.39,5.21,3.55,6.33.64.53-1.37,1-2.75,1.44-4.13,1.71.9,4.37.31,5.12-1.72.36-1,.72-1.94,1.08-3a2.57,2.57,0,0,0,1.32-2.16,3,3,0,0,0,5.46-.3,53.06,53.06,0,0,0,2.36-6.5c.26,2.11.57,4.23.94,6.33.51,2.92,5.14,3.74,6,.61s1.65-6.37,2.28-9.6c0,3.45.1,6.9.39,10.34s5.3,3.63,6.4.64a65.15,65.15,0,0,0,2-6.68c.81,3.2,5.46,4.07,6.72.63a74.25,74.25,0,0,0,2.2-7.32C85.59,40.37,90.4,38.88,90.23,35ZM37.74,31.3a3.74,3.74,0,0,0-4.06-2.09q.33-4.16,1-8.25A32.8,32.8,0,0,1,37.74,31.3ZM27.12,28.48a3.29,3.29,0,0,0-2,.34c.48-1.56.92-3.11,1.3-4.68.28,1.43.5,2.88.7,4.34Z" transform="translate(0)"/><path class="cls-2" d="M91.22,33C93.71,8.67,50.14-13,35.85,9.36c-4.16-12-36.68-8-24.31,8.73C5.61,17.37.12,20.08,0,27.57c-.14,9,8.31,11.57,15.79,11.29-8.7,9.19-8.79,23,5.05,28.51,12.52,5,26-5.36,30-17.29,3.42,5.86,11,7.33,18.5,5.63C80.2,53.21,90.06,44.37,91.22,33ZM52,43.05c-.11-1.72-3-1.62-3,.1-.15,12.37-11.18,22.52-23.49,22.07-17.43-.63-14.41-19.84-4-27.3a1.53,1.53,0,0,0-1.2-2.68C13.74,36.7,4.85,36.68,3.16,28.52s7.3-8.53,12.47-6.15c1.68.78,2.57-1.55,1.43-2.62C-1.74,2,41.78-2,33.06,18.22c-.3.7.81,1.33,1.2.65a15.1,15.1,0,0,0,2.06-6A1.59,1.59,0,0,0,37.77,12c12.08-22.61,50.92-.1,50.49,20.65C87.85,48.89,53.3,64.48,52,43.05Z" transform="translate(0)"/></svg>