<svg id="Layer_1" data-name="Layer 1" xmlns="http://www.w3.org/2000/svg" viewBox="0 0 28.88 25.15"><defs><style>.cls-1{fill:#ef66b2;}.cls-2{fill:#3c3c3b;}</style></defs><title>2_pic</title><path class="cls-1" d="M7.36-.65A23.4,23.4,0,0,0,2.29,0,1.9,1.9,0,0,0,.71,2.18,1.88,1.88,0,0,0,2.22,3.74c-.82,1.15.33,3.07,1.95,3H7l-3.31,1c-1.75.5-1.3,3.52.5,3.55H8.76l-1,.38c-1.55.62-1.33,3.41.49,3.41,2.35,0,4.71-.06,7.06,0a24.59,24.59,0,0,0-2.84,1.47c-1.3.77-.52,2.87.83,3a53.3,53.3,0,0,0,5.93.07A11.21,11.21,0,0,0,17,22.17a1.2,1.2,0,0,0,1.13,1.9,13.38,13.38,0,0,0,4-.77c.58-.2.29-1.09-.29-1a5.38,5.38,0,0,1-1.5,0,15.28,15.28,0,0,1,5-2.71c1.49-.51,1-2.75-.42-2.94-1-.12-1.92-.18-2.89-.21.77-.19,1.55-.37,2.33-.53a1.75,1.75,0,0,0,0-3.45c-1.19-.25-2.39-.44-3.59-.57l.81-.21c1.81-.51,2.1-3.28,0-3.52-1.5-.16-3-.26-4.49-.32l.45-.14c2-.57,1-3.16-.51-3.53a38.13,38.13,0,0,0-4.23-.72A2.08,2.08,0,0,0,11.56.78a2.12,2.12,0,0,0-.79-.13c-.67,0-1.34,0-2-.06A1.29,1.29,0,0,0,7.45-.66Z" transform="translate(0 0.66)"/><path class="cls-2" d="M14.72,2.79C18,3.47,21.34,7,23.79,9.15c.76.67,1.51,1.33,2.25,2,1.21,1.13,1,1,.28,2.5a56.84,56.84,0,0,1-4.91,8.75h0a26.84,26.84,0,0,1-3.87-2.71c-2.11-1.46-4.31-2.78-6.42-4.23A16.57,16.57,0,0,1,7.47,12C10,9,12.56,6,14,2.24a.88.88,0,0,0-.49-1.14L13.3,1A88,88,0,0,0,1-.15a.9.9,0,0,0-1,.8.87.87,0,0,0,.07.42C1.81,5.23,3.24,10.81,6.68,14c4.45,4.13,10.06,6.86,15,10.4a.5.5,0,0,0,.76-.6c-.05-.32-.1-.64-.14-1,2.94-2.88,4.59-7,6.52-10.58a.81.81,0,0,0-.11-.82,70.56,70.56,0,0,0-7.87-7c-1.32-1-4.54-4.08-6.39-2.8a.62.62,0,0,0,.27,1.2ZM2.19,1.73a86.09,86.09,0,0,1,9.73.93c-1.4,3-3.57,5.36-5.47,8A50.79,50.79,0,0,1,2.19,1.73Z" transform="translate(0 0.66)"/><path class="cls-2" d="M15,10.27a2.69,2.69,0,0,0-.29,2,.49.49,0,0,0-.29.62h0a5.66,5.66,0,0,0,6.77,2.92c3.1-1.2,1-5.77-.79-7.15S16,8.44,15,10.27Zm4.47-.4c1.17.77,3,4.15.81,4.73a3.73,3.73,0,0,1-2.29-.16l.44-.09c.52-.15.74-.9.14-1.13-1.12-.44-2.82-.58-2.15-2.19a2.14,2.14,0,0,1,2.75-1.29,1.94,1.94,0,0,1,.3.13Z" transform="translate(0 0.66)"/></svg>