<svg id="Layer_1" data-name="Layer 1" xmlns="http://www.w3.org/2000/svg" viewBox="0 0 194.12 211.79"><defs><style>.cls-1{fill:#f7ca24;}.cls-2{fill:#e20613;}.cls-3{fill:#3c3c3b;}</style></defs><title>3_pic</title><path class="cls-1" d="M127.08,108a3.17,3.17,0,0,0,1.82-3.48c-.3-1.64-.5-3.31-.69-5a3,3,0,0,0,.82-1.66c.27-2-1.12-3.89-2-5.61-.08-.14-.16-.26-.24-.38a3.15,3.15,0,0,0,1.79-3.65c-.3-1.36-.59-2.72-.91-4.06a3.24,3.24,0,0,0,.12-1.69,18.87,18.87,0,0,0-3-7.52h0c-.16-.23-.32-.46-.49-.68a2.66,2.66,0,0,0-3.69-.73l-.23.17a35.28,35.28,0,0,0-2.67-3.42,3.36,3.36,0,0,0-4.76,0,3.45,3.45,0,0,0-.45.56c-.33-.66-.67-1.31-1-2-1.45-2.75-4.81-1.72-5.66.62-1.6-2.49-3.29-4.93-5.14-7.28s-6.39,0-5.36,2.93c1.1,3.12,2.25,6.23,3.41,9.33a102.61,102.61,0,0,0-8.67-12.42c-2.12-2.62-5.62.1-5.21,2.84.26,1.72.58,3.42.94,5.11-.7-1.22-1.4-2.43-2.13-3.63-1.42-2.35-5.08-1.58-5.55.73-.64-1.64-1.26-3.29-1.9-4.93-1-2.57-5.68-2.76-5.36.58a208.86,208.86,0,0,0,3.7,23.46c-1.44-4.59-2.89-9.16-4.44-13.69-.94-2.73-4.74-2.28-5.15.09-2-.9-5,.43-4,3a14,14,0,0,1,.88,4.24,1.8,1.8,0,0,0-.19-.2,2.71,2.71,0,0,0-3.83.06,2.77,2.77,0,0,0-.76,1.74,18.67,18.67,0,0,1-.23,2.36c-1.18-2.15-4.9-.5-4.26,2,1.21,4.62,2.13,9.38,4.55,13.54a1.39,1.39,0,0,0,2.55-1c-.37-1.27-.68-2.53-1-3.8a2.78,2.78,0,0,0,2.39-2.5c.12-1.33.31-2.64.5-4,.12.2.26.39.37.59a2.76,2.76,0,0,0,5.13-1.2c.06-1,.14-2.08.21-3.11.24.24.49.46.73.68,2.88,10.52,5.92,21,8.47,31.61A84.82,84.82,0,0,0,70,103.39c-1.53-2.39-5.76-1.09-4.85,1.89.2.65.41,1.3.61,2-.23-.35-.46-.71-.7-1.06C63.5,104,59.71,105.11,60.4,108c.16.68.35,1.35.52,2A57,57,0,0,0,56,102.77c-1.74-2.17-4.47.46-3.6,2.62,2.7,6.77,5.54,13.45,7.75,20.41a1.32,1.32,0,0,0,1.59,1,1.3,1.3,0,0,0,1-1.59h0l-.57-2.61c1.51,3.36,3,6.74,4.64,10,1.34,2.67,4.77.79,4.48-1.74a5,5,0,0,0-.08-.54c.67,1.49,1.36,3,2.09,4.44,1.37,2.71,5.24.91,4.75-1.85a2.73,2.73,0,0,0-.1-.48,50.74,50.74,0,0,0,2.84,4.49c1.76,2.43,5.41,1.18,4.92-1.92q-.62-3.9-1.38-7.77,2.31,4.5,5,9c1.54,2.44,6,1.09,5-1.94-5.06-14.8-10-29.82-13.53-45.12,6.2,16.48,12.3,33,18.87,49.32,1.24,3.08,5.93,1,5.25-2-2.14-9.54-4.82-18.92-7.71-28.24,3.59,8.65,7.13,17.33,11,25.82,1.46,3.17,6.21,1.06,5.51-2.14-3.94-18-13-34.33-18.77-51.7,8.28,14.63,13.7,31.14,20,46.46,1.42,3.45,6.24,1,5.72-2.24-.26-1.63-.57-3.26-.89-4.88a2.74,2.74,0,0,0,4.56-2.55c-.06-.36-.11-.71-.16-1.07a3.13,3.13,0,0,0,3.42-2.81,3.18,3.18,0,0,0,0-.87C127.37,110.78,127.19,109.4,127.08,108ZM115.15,90.92l.7,1.38c1.61,3.06,5.57,1.48,6-1.45.06-.38.1-.77.13-1.15.18.31.35.62.53.92a3.85,3.85,0,0,0,.38.52,3.2,3.2,0,0,0-1.59,3.38c.26,1.38.45,2.76.62,4.14a3.17,3.17,0,0,0-1.73,3.45c.08.39.13.79.2,1.18a2.89,2.89,0,0,0-2.68,1.17c-.11-.19-.21-.37-.33-.55a2.19,2.19,0,0,0-1.84-1.11c-1.17-3.76-2.44-7.5-3.77-11.23A3.46,3.46,0,0,0,115.15,90.92Z" transform="translate(0 0)"/><path class="cls-1" d="M163,180a72.41,72.41,0,0,1-14.59-7.57A71.19,71.19,0,0,1,135.47,161c-4.11-4.59-6.49-9.72-9.54-15-1.11-1.91-4.81-1.45-4.55,1.1,1,10.38,9.66,19.83,17,26.54a81.06,81.06,0,0,0,12.71,9.4c3,1.84,10,6.64,13.61,4.65C168.88,185.41,166.26,181.24,163,180Z" transform="translate(0 0)"/><path class="cls-1" d="M118.17,207.06a31.24,31.24,0,0,0-1.78-5.5,3.16,3.16,0,0,0-1.67-1.72c-3.09-6.78-5.63-13.8-8.07-20.85-3-8.52-5.35-17.59-9.25-25.73-.83-1.74-3.4-.58-3,1.19,1.87,9.24,4.87,18.48,7.44,27.56,2.68,9.43,5.86,18.64,9.44,27.75C112.88,213.93,118.86,211,118.17,207.06Z" transform="translate(0 0)"/><path class="cls-1" d="M77.41,152.84c-4.81,1-6.74,5.14-8.45,9.47a67.85,67.85,0,0,0-3.37,11.85,2.53,2.53,0,0,0-.79,1.94c0,1,.11,1.91.06,2.86-.23,4.13,6.47,5.36,7.28,1.19,1.49-7.57,1.14-18.37,6.87-24.38a1.74,1.74,0,0,0-1.6-2.93Z" transform="translate(0 0)"/><path class="cls-1" d="M55.26,139.88a.89.89,0,0,0-.46-1.18.84.84,0,0,0-.38-.08,2.27,2.27,0,0,0-1.18-.39c-1.28,0-2.49.92-3.48,1.6a68.8,68.8,0,0,0-8.42,7.59c-2.9,2.81-11.67,9.06-8,13.83a3,3,0,0,0,2.87.84,3,3,0,0,0,1.42-.82c-.3.3-.37.28.56-.27a9.14,9.14,0,0,0,2.46-2.79c1.74-2.35,3.69-4.55,5.59-6.76s4.09-4.7,6.24-7a23.47,23.47,0,0,0,2.07-2.5,4.13,4.13,0,0,0,.63-1.12C55.4,140,55.38,139.82,55.26,139.88Z" transform="translate(0 0)"/><path class="cls-1" d="M40.22,116.47C35.89,117,31.85,119.14,28,121c-4.56,2.21-9.7,4.49-13.79,7.5-2.34,1.72-8.12,2.85-9.71,6.63-.73,1.74.64,3.66,2.24,4.21a3.19,3.19,0,0,0,2.46-.19c-.73.43,1-.43,1.34-.61.81-.44,1.57-1,2.36-1.43,1.68-1,3.42-2,5-3.12,7.51-5.37,16-9.15,23.64-14.19a1.82,1.82,0,0,0-1.29-3.34Z" transform="translate(0 0)"/><path class="cls-1" d="M41.87,88.65c-5,1.23-9.63,2.31-14.86,2.24-4,0-8-.63-12-.72-2.19-.06-4.38,0-6.57-.07l-3-.06c-.45,0-3.14.26-1.92.27h0a7.12,7.12,0,0,0-.92.07A3.4,3.4,0,0,0,0,93.61H0a3.38,3.38,0,0,0,1.62,3c4.07,1.92,9.22.71,13.58.57,9.67-.31,20.38,1.19,28.56-5.14C45.42,90.8,43.73,88.19,41.87,88.65Z" transform="translate(0 0)"/><path class="cls-1" d="M57.73,59.34c-4.83-6.49-9.65-12-12.94-19.56a37.8,37.8,0,0,1-3-12.29c-.28-4,1.56-7.4,1.62-11.23a2.84,2.84,0,0,0-2.83-2.85,2.88,2.88,0,0,0-1.91.73c-6.59,5.22-3.1,18.38-.59,24.73C41.3,47,47.36,58,55.63,61.87a1.67,1.67,0,0,0,2.1-2.53Z" transform="translate(0 0)"/><path class="cls-1" d="M82.83,20.72a2.72,2.72,0,0,0-3-1.32c-4.26,1.32-3.9,7.87-4.27,11.5-.59,5.88-1,12.44.28,18.26.53,2.34,4,1.86,4.09-.45.29-5.05.41-10,1.09-15.06a57.13,57.13,0,0,1,1.55-7.44C83.08,24.26,83.94,22.65,82.83,20.72Z" transform="translate(0 0)"/><path class="cls-1" d="M140.8,3.64c-.11-4.46-6.87-5.16-7.25-.21a68.21,68.21,0,0,1-7.18,26,70.15,70.15,0,0,1-7,10.77c-2.51,3.29-5.93,6.11-8.16,9.58a2.69,2.69,0,0,0-.07,2.66c0,.07.07.13.1.19a2.59,2.59,0,0,0,3.53,1,2.25,2.25,0,0,0,.47-.34l.6-.67c.13.09.5-.23,1.13-1,1.15-1,2.2-2.06,3.26-3.12a63.82,63.82,0,0,0,4.45-5,77.77,77.77,0,0,0,8-11.78c4.77-8.67,7.2-18.31,8.14-28.11Z" transform="translate(0 0)"/><path class="cls-1" d="M153.08,43.22c-2.19.54-3.72,2.92-5.09,4.54a67.94,67.94,0,0,0-6,8.11,20.3,20.3,0,0,0-3.14,8.36c-.15,1.3,1.1,4.12,2.84,3.23,2.17-1.12,2.5-3.89,3.62-5.92a45.3,45.3,0,0,1,6.41-8.43c1.61-1.75,4.4-3.56,5.11-5.91a3.17,3.17,0,0,0-2.15-3.93A3.21,3.21,0,0,0,153.08,43.22Z" transform="translate(0 0)"/><path class="cls-1" d="M193.28,81.91a1.55,1.55,0,0,1-.73-.35,1.85,1.85,0,0,0-.42-.11l.36.07h0l-.9-.67c-1.37-1-3.78-.95-5.44-1.18q-7.18-1-14.39-1.79c-5.44-.6-10.88-1.11-16.34-1.4-3.58-.19-7.9-.55-11.33.68a2.79,2.79,0,0,0-1.9,1.91h0a1.65,1.65,0,0,0,.4,2.31,1.09,1.09,0,0,0,.23.14,2.49,2.49,0,0,0,1.82.83c9-.29,18.06,1.13,26.93,2.41,4.48.65,9,1.36,13.41,2.1,1.65.27,3.56.87,5.21.59a8.61,8.61,0,0,0,1.23-.34l.29-.08a9,9,0,0,1-1.22-.15C193.56,87.35,195.23,83.36,193.28,81.91Z" transform="translate(0 0)"/><path class="cls-1" d="M193.28,81.91c.12,0-.1-.23-.79-.39h.06A2.14,2.14,0,0,1,193.28,81.91Z" transform="translate(0 0)"/><path class="cls-1" d="M191.7,87C193,87.08,192.7,86.74,191.7,87Z" transform="translate(0 0)"/><path class="cls-1" d="M180.59,115.49c-1.84-1-3.77-1-5.77-1.44a92.34,92.34,0,0,1-9.18-2.78c-6-2-12-5.34-18.18-6.55-2.27-.44-4,2.61-1.77,3.9,5.35,3.06,11.42,5.15,17,7.66,4.16,1.86,12.26,6.72,17,4.9C182,120.3,183.25,116.93,180.59,115.49Z" transform="translate(0 0)"/><path class="cls-2" d="M73.16,94.86c.36.48,0-1,0-1.2a4.21,4.21,0,0,0-1.31-3.15,2.68,2.68,0,0,0-3.59-.18,3,3,0,0,0-3.62.7.77.77,0,0,0-.07-.16c-1.18-2.84-5.18-.88-4.7,1.85h-.06q.34,1.82.75,3.63c0,1.45-.18,3-.1,4.28a1.56,1.56,0,0,0,1.47,1.61.27.27,0,0,0,0,.19c.84,3.47,5.62,2.65,6-.64a18.08,18.08,0,0,1,.38-2.18,8.48,8.48,0,0,0,2.35.75C73.87,100.85,74.63,96.8,73.16,94.86Z" transform="translate(0 0)"/><path class="cls-2" d="M124.7,94.79c-.68-1.75-2.85-3.24-4.64-2.44a3.35,3.35,0,0,0-5.73,1.87c-1.78-1.36-4.39.25-4.11,2.74.15,1.31.85,3.87,2.22,4.74.71,1.29,1.47,2.57,2.22,3.85a3.07,3.07,0,0,0,5.72-1.38v-.46a3.47,3.47,0,0,0,1.06-.29c1.57,1.26,4.35.23,4.28-2A19.43,19.43,0,0,0,124.7,94.79Z" transform="translate(0 0)"/><path class="cls-3" d="M132.75,92.1c-3.93-28.33-29.5-37.25-55.17-35.1a1.38,1.38,0,0,0-.7,2.53C60.08,68.34,48.31,87.7,51.24,107c3.44,22.67,26.27,38.86,48.82,34.05C121.08,136.57,135.62,112.82,132.75,92.1Zm-31.54,45.57c-21.77,7.14-45-11.25-47.24-32.89-1.92-18.86,10.78-36.38,26.83-45,21.55.85,42.37,4,48.4,28.8C134.18,109.07,120.85,131.22,101.21,137.67Z" transform="translate(0 0)"/><path class="cls-3" d="M119.84,109.51a1.21,1.21,0,0,0-2.37.26c-2,27-53.37,24.22-51.69-1.4a.78.78,0,0,0-.81-.76.79.79,0,0,0-.72.51c-4,14,13.13,21.72,24.34,23.58C100.71,133.71,123.57,125.37,119.84,109.51Z" transform="translate(0 0)"/><path class="cls-3" d="M83.2,93.63c-.15-.95-.1-3.94-.79-5.36a.56.56,0,0,0-.15-.63.84.84,0,0,0-.8-.29,1.09,1.09,0,0,0-.37.19l-.12.13a1,1,0,0,0-.53.58c-.6,1.75,0,4.23.2,6,.16,1.45-.1,4.77,1,5.88a1.37,1.37,0,0,0,1.94,0,1.12,1.12,0,0,0,.19-.24C84.67,98.66,83.42,95,83.2,93.63Z" transform="translate(0 0)"/><path class="cls-3" d="M98.36,95.1c0-2,.07-4,0-6a.91.91,0,0,0-1.82,0c-.21,2-.26,4-.37,6-.06,1.21-.69,3.4.23,4.33a1,1,0,0,0,.65.3h.23a1,1,0,0,0,.66-.27C98.88,98.53,98.36,96.31,98.36,95.1Z" transform="translate(0 0)"/><path class="cls-3" d="M124.35,94.87A4.47,4.47,0,0,0,118.73,92a4.74,4.74,0,0,0-1.23.62.64.64,0,0,0-.89-.73,6.54,6.54,0,0,0-2.87,7.34c.88,3.43,4.76,4,7.62,2.85S125.18,97.51,124.35,94.87ZM120.23,100c-4.56,2.31-5.83-4-3.33-6.74a1.19,1.19,0,0,0,1,1.36,1.28,1.28,0,0,0,.39,0c1.61-.41,3.2-1,3.85,1.07A3.62,3.62,0,0,1,120.23,100Z" transform="translate(0 0)"/><path class="cls-3" d="M70.17,95.2c-.93-2.3-4.29-2.7-6.35-2.08a4.87,4.87,0,0,0-3.27,3.44,3.29,3.29,0,0,0-.47,3.49,4.51,4.51,0,0,0,4.37,2.31C67.67,102.22,71.55,98.6,70.17,95.2Zm-4.25,4.65a3.38,3.38,0,0,1-3.5,0,.88.88,0,0,0,.27-.52c.16-1.66-.27-3.15,1.51-4a3.82,3.82,0,0,1,3.71.4C69.24,97,67.08,99.16,65.92,99.85Z" transform="translate(0 0)"/><path class="cls-3" d="M57.86,138.93c-4.07.51-7,4.42-9.27,7.49-2.1,2.86-6.31,8.7-5.52,12.53a1,1,0,0,0,1.85.29,19.12,19.12,0,0,0,1.2-3.61,36,36,0,0,1,3.15-6.45c2-3.42,5-7.7,8.87-9.11a.59.59,0,0,0-.28-1.14Z" transform="translate(0 0)"/><path class="cls-3" d="M42,117.38c-7.93,5.9-16.49,10.56-24.71,16a1.27,1.27,0,0,0,1.22,2.23h0a18.45,18.45,0,0,1,1.86-.74A.91.91,0,0,0,21,134c7.55-4.74,15.89-9.11,21.81-15.75a.6.6,0,0,0-.82-.87Z" transform="translate(0 0)"/><path class="cls-3" d="M43.18,93.21a36.18,36.18,0,0,0-9.64,0c-2.74.26-5.85.35-8.38,1.49-.9.4-.46,1.73.43,1.78,2.69.13,5.51-.76,8.18-1.14,3.12-.45,6.27-.55,9.38-1a.59.59,0,0,0,.42-.72A.58.58,0,0,0,43.18,93.21Z" transform="translate(0 0)"/><path class="cls-3" d="M58.42,60.65c-8.89-10.74-12-23.59-12.56-37.3A1,1,0,0,0,44,23.3C43.2,36.3,47,53,57.33,61.68a.75.75,0,0,0,1.09-1Z" transform="translate(0 0)"/><path class="cls-3" d="M82.61,30.2a1,1,0,0,0-1.89-.58c-2.23,5.55-1.58,12.11-.33,17.82.24,1.07,1.72.63,1.61-.4A52.88,52.88,0,0,1,82.61,30.2Z" transform="translate(0 0)"/><path class="cls-3" d="M134.68,11.47c-.25-1.17-2.22-1-2.13.23.68,9.09-2.5,16.7-7,24.47-3.32,5.77-8.67,11.16-10.9,17.44a.51.51,0,0,0,.83.51c5.8-5.61,10.39-13.87,14.29-20.87C133.42,26.72,136.31,19,134.68,11.47Z" transform="translate(0 0)"/><path class="cls-3" d="M152.26,51.19c-5.51,2.72-10,9.14-13.31,14.1-.36.55.48,1.25.9.74,2-2.43,3.9-4.9,6.06-7.19s4.89-4.14,7.39-6.23C154.08,51.94,153.13,50.77,152.26,51.19Z" transform="translate(0 0)"/><path class="cls-3" d="M186.22,84.84c-6.89-2.86-15-3.8-22.37-4.42-5.37-.45-13.6-1-18,2.89a.53.53,0,0,0,0,.75.51.51,0,0,0,.48.14c13.75-3.26,25.7-.27,39.23,2.72a1.09,1.09,0,0,0,.65-2.08Z" transform="translate(0 0)"/><path class="cls-3" d="M170.08,114.47c-1.42-1.2-3.59-1.54-5.32-2.14-2.82-1-5.64-2-8.48-2.85-1.56-.49-7.31-3.15-8.85-1.51-.39.42.08,1.14.61.84s3,.76,3.51.92c2,.62,4.07,1.36,6.09,2.08,2.19.78,4.36,1.6,6.53,2.42,1.61.61,3.49,1.77,5.23,1.76C170.13,116,170.73,115,170.08,114.47Z" transform="translate(0 0)"/><path class="cls-3" d="M155.47,179c-3.48-4.27-10.78-6.74-15.34-9.82-7.6-5.14-13.69-11.64-15.71-20.79-.15-.71-1.36-.61-1.3.14.65,8.11,6.08,14.34,12,19.38,5.19,4.38,12.79,10.6,19.41,12.53a.88.88,0,0,0,.89-1.44Z" transform="translate(0 0)"/><path class="cls-3" d="M110.21,188.25c-3.55-11.07-4.57-22.76-8.32-33.76-.27-.81-1.54-.53-1.31.33,2.62,10.14,3.66,20.61,6.44,30.7,1.78,6.45,5.82,14.09,5.3,20.91-.08,1.1,1.5,1.27,1.85.3C116.08,201.39,111.82,193.27,110.21,188.25Z" transform="translate(0 0)"/><path class="cls-3" d="M74,156.37a.81.81,0,0,0-1.54-.47c-1.73,4.73-4.63,13.08-2.2,18a.94.94,0,0,0,1.28.36.91.91,0,0,0,.48-.78c.24-2.54-.18-5.12.08-7.71A57.78,57.78,0,0,1,74,156.37Z" transform="translate(0 0)"/></svg>