<svg id="Layer_1" data-name="Layer 1" xmlns="http://www.w3.org/2000/svg" viewBox="0 0 96.98 102.68"><defs><style>.cls-1{fill:#f7ca24;}.cls-2{fill:#3aa935;}.cls-3{fill:#3c3c3b;}</style></defs><title>4_pic</title><path class="cls-1" d="M-17,42.92c.12,0-.1-.23-.79-.39h.06A2.15,2.15,0,0,1-17,42.92Z" transform="translate(17.8)"/><path class="cls-1" d="M-18.59,48C-17.32,48.09-17.59,47.75-18.59,48Z" transform="translate(17.8)"/><path class="cls-1" d="M50.59,25.44h-.22a3.39,3.39,0,0,0-1.76.08,3.67,3.67,0,0,0-1.71.84c-2.3-1-5.19.86-4.77,3.32A3.81,3.81,0,0,0,38,31.56l-.21-.12c-2.7-1.41-6.37,2-4.2,4.67,2.63,3.2,6,5.66,8.79,8.69,2.27,2.43,5.66-.73,4.56-3.42a3.79,3.79,0,0,0,.3-.4c1.83,1.6,4.75,1,5.48-1,2.24-.35,4.08-2.6,2.29-4.91a11.8,11.8,0,0,1-2-3.47,3.91,3.91,0,0,0,1.4-1.74,3.14,3.14,0,0,0-3.84-4.42Z" transform="translate(17.8)"/><path class="cls-2" d="M31.52,71.64c-1.72-3.94-6.3-5.59-9-8.84-2.11-2.58-6.28-.89-5.37,2.55a1.82,1.82,0,0,0,.1.45,37.13,37.13,0,0,1-5-3.73c-2.09-1.94-5,0-4.94,2.35-1.12-.84-2.22-1.71-3.26-2.66C2.43,60.26-.83,62,.2,64.25A31.3,31.3,0,0,0,5.87,72,1.48,1.48,0,0,0,8,72a1.58,1.58,0,0,0,.36-.56,36.71,36.71,0,0,1,3.88,3.5c1.94,2.06,4.61,0,4.56-2.33a26.24,26.24,0,0,1,2.79,2.26,3,3,0,0,0,4.92-2,15.41,15.41,0,0,0,3.38,1.85C29.7,75.4,32.54,74,31.52,71.64Z" transform="translate(17.8)"/><path class="cls-2" d="M57.68,70.89c-1.13-3.46-6.1-6.11-8.32-2-.33-.2-.64-.41-1-.6a3.14,3.14,0,0,0-4,4.49c.26.38.49.76.72,1.14-1.43-.66-2.86-1.3-4.27-2a3,3,0,0,0-2.74.13A2.32,2.32,0,0,0,35,74.89a19,19,0,0,0,6.11,9.29c2.32,2,6.09-1,4.18-3.59v-.08a24.41,24.41,0,0,1,3.85,2.34c2.32,1.76,5.84-.11,4.89-3.16-.09-.31-.19-.61-.28-.92A3.1,3.1,0,0,0,56,75.61a8.91,8.91,0,0,0-.1-1,2.88,2.88,0,0,0,1.79-3.67Z" transform="translate(17.8)"/><path class="cls-3" d="M58.47,20.73c4.59-6.79,5.59-16.91-3.1-20.17C47.52-2.38,42.23,6.9,40.6,15,35.35,6.3,23.94.91,16,9.27c-11.1,11.62,8.16,24,18.95,21.17,1.2-.32.58-2-.58-1.8-8.72,1.64-23.42-6.8-16.08-17.3,7.14-10.23,20.79,2.91,22,10.89a.79.79,0,0,0,.07.4c.36,1.67,3.21,1.18,3-.51a2.57,2.57,0,0,0-.07-.4h0C42,15.72,46.49.41,55.69,3.87c8.26,3.1.73,16.49-3.86,19.3a1,1,0,0,0-.26.23A11.71,11.71,0,0,0,49,22.28a1.44,1.44,0,0,0-1.78,1.81c-6.07-.69-10.68,3.31-12.66,8.23-9.09-2.67-22.64,9-17.7,18.49A14.6,14.6,0,0,0,30.94,58.6c-2.08,5.08-2.67,11.25-2.89,16.53h0A7.1,7.1,0,0,0,27.4,74a68,68,0,0,0-6.17-7.47c-3.3-3.55-9.4-9.86-14.87-7.47C0,61.78,2.19,70.32,6.91,73.39,12.64,77.11,21.1,78.77,28,78.14v1.07c-.09,5.18,0,20.47,5.33,23.33a1.3,1.3,0,0,0,1.74-.58,1.45,1.45,0,0,0,.11-.29l.06-.4a1.18,1.18,0,0,0-.94-1.38,1.15,1.15,0,0,0-1.06.33c1.47-1.59,1.53-.1.59-3.06-.55-1.73-1-3.51-1.43-5.26a51.63,51.63,0,0,1-1.32-10.64c5.76,2.31,13,3.4,18.81,2.12,7.5-1.63,9.69-8.3,6-14.94-4.92-8.93-20.06.44-24.94,7.39,0-6.19.84-12.47,3.33-18a10.56,10.56,0,0,0,5.44-4.61c2.69,6.38,8.91,10.69,16.41,9.6,8.84-1.28,8-8.91,5.24-15.34C69,50.2,78,44.66,79.05,35.3,80.56,21.54,68.79,18.36,58.47,20.73ZM11.79,72.59c-2.8-1.09-6-3-6.45-6.23-.34-2.7,1.56-5.25,4.3-4.74,4.78.9,9.09,6.18,12.17,9.61,1.15,1.28,2.27,2.61,3.38,3.94A40.1,40.1,0,0,1,11.79,72.59Zm40.86-3.53c2.42,2.13,2.76,7.11.72,9.47-1.81,2.1-5.51,2.17-8,2.22a35.81,35.81,0,0,1-13-2.29,34.43,34.43,0,0,1,5.87-6.13c3.55-2.65,10.31-6.89,14.43-3.27ZM38.28,47.3a12.3,12.3,0,0,1-.73,3.16,13.81,13.81,0,0,0-5,4.81c-3.18,1-7.16.18-10.51-2.36C13.33,46.3,25.2,32.19,33.66,35.12c-.85,4.51.52,9.17,4.91,11.45A1.15,1.15,0,0,0,38.28,47.3ZM36.61,34.67C38,29.4,43.19,25.92,48.44,26a.73.73,0,0,0,.65-.36c9.15,3.69,4.2,18.79-4.85,19.22-5.84.28-9-5-7.63-10.18ZM54.86,60c-7.44,1.08-13-5.56-13.6-12.37h0a15.78,15.78,0,0,0,1.94.36c5.13.55,9.17-2.29,11.5-6.28a1.31,1.31,0,0,0,.26,1c3.58,4.8,10,15.87-.1,17.34Zm2.63-19a1.55,1.55,0,0,0-2.16-.34l-.15.14c2.46-5,2.43-11.3-1.15-15.29,6.86-3.39,17-5.37,21,3.24C80.31,39.93,65.41,52,57.49,40.92Z" transform="translate(17.8)"/></svg>