<svg id="Layer_1" data-name="Layer 1" xmlns="http://www.w3.org/2000/svg" viewBox="0 0 114.97 86.42"><defs><style>.cls-1{fill:#009ee2;}.cls-2{fill:#3c3c3b;}</style></defs><title>5_pic</title><path class="cls-1" d="M22.55,16A34.85,34.85,0,0,0,20.87,5.54a1.91,1.91,0,0,0-2.13-1.25c-.12-.26-.23-.53-.36-.8-.75-1.59-3.2-.75-3.2.87v.88A25,25,0,0,0,13.89,2.4a1.68,1.68,0,0,0-3.11.85V5.59a16,16,0,0,0-2-3.7,1.61,1.61,0,0,0-2.91.38c-.11.39-.23.78-.35,1.16C5.29,2.7,5.07,2,4.83,1.22A1.36,1.36,0,0,0,3.07.42,1.37,1.37,0,0,0,2.2,2,46.92,46.92,0,0,0,4.26,9.21a1.55,1.55,0,0,0,3-.41,11.89,11.89,0,0,1,.46-2.13c1,2.41,1.6,5,2.69,7.39a1.65,1.65,0,0,0,3-.39q.18-.93.27-1.86c.48,1.75.94,3.5,1.54,5.2a1.75,1.75,0,0,0,2.25,1.06,1.62,1.62,0,0,0,.53-.3c.11,1.63.23,3.27.41,4.91.23,2.22,3.71,2.26,3.51,0-.15-1.72-.25-3.43-.34-5.14A1.55,1.55,0,0,0,22.55,16Z"/><path class="cls-2" d="M20.54,3.66C16.78-.62-.83-2.67.59,6.22a.71.71,0,0,0,.14.32c-.76.32-1,1-.38,2.27.18.38.67.15.71-.19.3-3,8.22.85,9.32,1.44C15.27,12.64,17.79,21,14.1,25.3a.83.83,0,0,0,.8,1.37C25.19,24.29,26.89,10.9,20.54,3.66ZM16.62,24.29C19.1,18.71,16,11.11,10.53,8.38,9.73,8,4.85,6.25,2,6.31A.6.6,0,0,0,2.1,6c.13-4.27,5.66-4.28,8.82-4.16C14.65,2,18,3,20.32,6.1,24.64,11.87,23,21.14,16.62,24.29Z"/><path class="cls-1" d="M110.15,49.63c3-2.88-1-8.51-4.5-5.92-.66.5-1.66.71-1.14.81-2.11-.39-4.49.77-4.9,2.94a3.94,3.94,0,0,0-6.68,2.75,17.11,17.11,0,0,1-.53,3.7c-.84-1.17-1.68-2.35-2.47-3.58-2.08-3.27-7.38-2.09-7.36,2v.5c-1.34-3.36-6.62-4.14-7.62,0-.45,1.9-.79,3.82-1.06,5.74C73.26,57,72.57,55.51,71.78,54c-2-3.71-6.93-1.65-7.25,2-.07.8-.13,1.6-.19,2.41-.22-.55-.42-1.1-.65-1.64-1.67-4-6.89-1.42-7.21,1.94-.2,2.16-.33,4.33-.46,6.49a51.48,51.48,0,0,0-3.86-6.62c-2-2.9-7.38-2.21-7.13,1.92.09,1.46.18,2.92.26,4.38-.84-2.19-1.64-4.41-2.44-6.65A3.55,3.55,0,0,0,36,60.06a39.59,39.59,0,0,1,.6,5.31c-.77-1-1.54-1.9-2.31-2.85-2-2.46-4-5.75-6.64-7.61-1.93-1.37-3.9,1.18-3,3V58a2,2,0,0,0,.75.8c1.84,1.87,3.27,4.82,4.69,6.91a126.17,126.17,0,0,1,7.07,11.1c1.27,2.35,4.07,1.89,5.35.14a67.86,67.86,0,0,0,4.41,7.73c1.93,2.9,7.05,2.07,6.89-1.85,0-.7-.07-1.4-.11-2.1.16.51.32,1,.47,1.55,1,3.59,6.5,3.8,7.42,0a59.29,59.29,0,0,0,1.13-6.06q.8,2.53,1.53,5.1c1.18,4.13,7.53,3.35,7.48-1V75.27c.28.75.57,1.5.87,2.24,1.68,4.07,7.2,3.5,7.62-1,.3-3.24.46-6.48.7-9.72.13.3.27.6.39.91,1.62,4.1,7.52,3.62,7.76-1,.06-1.2.18-2.39.33-3.58a17.16,17.16,0,0,1,1.13,2.22c1.57,3.78,8.06,3.81,7.74-1a14.51,14.51,0,0,1,.33-4.05,20.88,20.88,0,0,0,1.6,1.67,4,4,0,0,0,6.6-3.79c-.46-2.14,0-4.2.34-6.29A10.92,10.92,0,0,0,110.15,49.63Z"/><path class="cls-2" d="M113.62,40.72c-16.48-4.21-34,4.42-49.16,9.93l-1.36.49a.3.3,0,0,0-.1-.28c-2.73-2.53-4.37-7.75-5.62-12.55,7.71-.24,15.86-4.4,23.53-5.74a1.86,1.86,0,0,0,1.28-2.3,1.76,1.76,0,0,0-.45-.78C71.5,20.81,61.26,12.09,49.87,4.93a1.84,1.84,0,0,0-2.5.7,1.93,1.93,0,0,0-.24.87c-.53,9.6,3.32,20.07,6.25,29,1,3,4.06,15.51,8.75,15.94-9.78,3.43-19.65,6-30.13,4.48-3.89-.56-8-3.44-12-2.4a1.73,1.73,0,0,0-1.22,1.39c-.36-.2-.71-.41-1.07-.6A1.11,1.11,0,0,0,16.35,56C29.77,72.65,43.82,91.53,67.51,84.83c21.63-6.09,37.48-21.54,47.21-41.4a1.85,1.85,0,0,0-1.1-2.71ZM50.76,9.85A275.15,275.15,0,0,1,76.22,29.63C69.63,30.75,62,32.18,56.62,35.3c-.36-1.47-.7-2.83-1-4C53.62,24.7,51.11,17.05,50.76,9.85ZM72.33,79.34c-12.87,5.31-24,4.48-34.82-4.42a94.65,94.65,0,0,1-8.72-8.74q-2.14-2.36-4.27-4.74c-.66-.73-3.47-2.81-4.18-3.76h0a1.31,1.31,0,0,0,1.59-.08l.26.09c.2.08.33-.1.34-.28a3.35,3.35,0,0,0,1,0c1.21.3,2.4.62,3.59,1a36.92,36.92,0,0,0,7.55,1.67c8.09.6,15.42-1,23.16-3.25,16.43-4.85,34.88-16.2,52.57-13C101.83,60.14,89.68,72.2,72.33,79.34Z"/></svg>