<svg id="Layer_1" data-name="Layer 1" xmlns="http://www.w3.org/2000/svg" viewBox="0 0 85.74 50.87"><defs><style>.cls-1{fill:#9a5ea2;}.cls-2{fill:#3c3c3b;}</style></defs><title>6_pic</title><path class="cls-1" d="M85.51,35.06a17.85,17.85,0,0,0-2.69-4.6A2.28,2.28,0,0,0,81,29.63a30.14,30.14,0,0,1-2.47-3.38,2.54,2.54,0,0,0-4.71,1.16c-.6-1-1.2-1.91-1.77-2.89a2.38,2.38,0,0,0-4.43,1C66.78,24.24,66,23,65.08,21.73c-1.51-2.15-5.16-1-4.43,1.79a24.4,24.4,0,0,1,.6,4.16c-.33-.41-.64-.82-.93-1.26a2.57,2.57,0,0,0-3.57-.7,2.51,2.51,0,0,0-.66.64A23.59,23.59,0,0,0,53,23.17c-1.7-1.39-4.6-.24-3.93,2.22.19.71.36,1.43.54,2.15q-1.92-2.85-4-5.55c-1.45-1.82-4.54.06-3.87,2.18.58,1.85,1.16,3.67,1.65,5.5a72.16,72.16,0,0,0-3.64-6.4c-1.41-2.14-5-.93-4.3,1.74v.07c-1.23-1.8-2.5-3.57-3.86-5.28S27,19.86,27.69,22a19.41,19.41,0,0,1,.88,4.59A48.63,48.63,0,0,0,22.92,20c-1.63-1.53-4.5-.13-3.87,2.17a23.31,23.31,0,0,1,.5,2.46c-1.27-1.3-2.53-2.61-3.69-4-1.48-1.8-4.45,0-3.84,2.16.32,1.18.58,2.36.78,3.56-.75-.69-1.5-1.37-2.27-2a2.28,2.28,0,0,0-3.79,2.08l.78,3.85c-.85-.88-1.7-1.76-2.53-2.67a1.61,1.61,0,0,0-2.55,1.91c1.3,2.18,2.34,4.49,3.64,6.68a1.06,1.06,0,0,0,1.43.45,1,1,0,0,0,.32-.26,17.8,17.8,0,0,1,1.78,3.19c1,2.31,4.08.58,3.76-1.52s-.63-3.9-1-5.84c.81.79,1.6,1.59,2.36,2.43a2.25,2.25,0,0,0,3.18,0,2.28,2.28,0,0,0,.6-2.15,24,24,0,0,1-.69-3.16C19,30.51,20.13,31.71,21.19,33c1.48,1.8,4.38-.06,3.81-2.15a16.48,16.48,0,0,1-.41-2c1.44,1.92,2.8,3.91,4.21,5.89a2.27,2.27,0,0,0,3.14.78,2.31,2.31,0,0,0,1.11-1.89c.05-1.27.1-2.55.13-3.81,2.12,3.2,4.16,6.45,6.32,9.63a2.41,2.41,0,0,0,3.36.7,2.47,2.47,0,0,0,.64-.61c.45.77.91,1.52,1.4,2.27a2.29,2.29,0,0,0,3.16.77,2.34,2.34,0,0,0,1.1-1.88,28.17,28.17,0,0,0,0-5.66l3,5.37c1,1.79,4.53,1.25,4.26-1.12-.18-1.63-.42-3.25-.68-4.87.52,1,1,2.07,1.46,3.14,1.13,2.6,4.72.7,4.31-1.74-.06-.3-.09-.6-.14-.9.34.37.68.73,1,1.11,1.76,2,4.42-.09,4.08-2.3-.07-.44-.12-.88-.17-1.31,1,1.68,2,3.37,2.94,5.09a2.36,2.36,0,0,0,3.24.83,2.39,2.39,0,0,0,1.16-2.24c.45.73.9,1.46,1.33,2.21a2.45,2.45,0,0,0,4.49-1.82,7.26,7.26,0,0,1-.19-1.15c.76.9,1.51,1.79,2.24,2.71C83.36,40.49,86.66,37.52,85.51,35.06Z"/><path class="cls-2" d="M79.93,24.6c-5.33-3.72-11.84-4.72-18.27-5.07,0-4.65,1.13-11-.86-15.08C57.94-1.33,49,.05,43.8.37c-6.1.39-13.08-1-18.56,2.3-4.7,2.81-3.32,9.55-2,14.43-9.5-.4-20,1-22.85,10.25C-2.24,35.78,9.17,48.7,17.24,41.94a.59.59,0,0,0,0-.83.61.61,0,0,0-.57-.17c-5.38,2-9.62-.93-12.43-5.45C.26,29,4.41,23,10.78,21A37,37,0,0,1,24,19.6a.6.6,0,0,0,.77.39.66.66,0,0,0,.36-.32c4.06.27,8.09.86,11.82,1.31,3.46.42,6.9.6,10.35.7a1.43,1.43,0,0,0,.3.16,1,1,0,0,0,.78-.13c4.77.12,9.54.13,14.36.42,5.87.36,12.44,1.41,16.87,5.62,6.15,5.85.92,12.38-5.33,13.85a8.29,8.29,0,0,0-3.36-6,6.77,6.77,0,0,0-5.77-1C61.66,33.67,58.81,37,57.82,41a.9.9,0,0,0-.4-.23c-2.33-.46-5.13.09-7.53,0a61.14,61.14,0,0,0-6.35,0A61.93,61.93,0,0,0,37,41.2a10.73,10.73,0,0,0-.34-2.87c-.49-1.8-2.15-4.63-4.28-4.55a1.11,1.11,0,0,0-.48.13,8.42,8.42,0,0,0-10.16,2.24c-4,4.35-2.49,10.45,2.34,13.32A8.21,8.21,0,0,0,35.43,47a8,8,0,0,0,.75-1.49,12.55,12.55,0,0,0,.66-2.42h.39c2.3,0,4.62-.11,6.92-.22a68.22,68.22,0,0,1,6.84.26c2,.11,4.75.57,6.54-.51-.38,3.19.55,6.4,3.42,7.69,4.5,2,11.5-1.28,13-6C83.32,42.73,89.63,31.35,79.93,24.6ZM56.31,19.35c-2.63-.06-5.2-.13-7.77-.23-.14-.38-.29-.75-.4-1.12-.67-2.16-1.25-4.34-1.8-6.54-.18-.72-2.12-8.35-2.41-8.1a.29.29,0,0,0,0-.4.3.3,0,0,0-.3,0c-1.61,1-.09,5.7.17,7,.49,2.52,1,5,1.66,7.51.11.43.21,1,.35,1.55-4-.19-8-.47-12-1-2.52-.29-5.55-.66-8.76-.87C24.44,11,23.23,4,31.9,3c3.92-.43,8,0,11.94-.21,6-.34,14.92-1.79,15.24,7.07.11,3.17,0,6.32.1,9.49ZM25.94,47.66c-4.1-1.81-5.14-6-2.66-9.6,2.17-3.13,5.65-3.44,8.72-2.17.69.87,1.67,1.49,2.14,2.65a8,8,0,0,1,.14,4.92C33.29,47.4,29.68,49.3,25.94,47.66Zm35.32,0c-2.53-2-2-7.2.26-10a1,1,0,0,0,1.31.51.88.88,0,0,0,.21-.12c2.14-1.32,4.38-1.94,6.61-.49a5.29,5.29,0,0,1,2.2,4.22h-.48c-1.62-.07-1.64,2.4-.06,2.52-1.65,3-7.35,5.57-10.05,3.41Z"/></svg>