<svg id="Layer_1" data-name="Layer 1" xmlns="http://www.w3.org/2000/svg" viewBox="0 0 28.57 30.3"><defs><style>.cls-1{fill:#f7ca24;}.cls-2{fill:#3c3c3b;}</style></defs><title>7_pic</title><path class="cls-1" d="M28.39,5.64c.36-2-2.41-3.53-3.53-1.49-.1.19-.19.39-.28.59a2,2,0,0,0-1.93,2v.42A2,2,0,0,0,20,8.19a2,2,0,0,0-.1,1.24,2.7,2.7,0,0,0,.08.41l-.09-.11c-1.25-1.57-3.93.11-3.32,1.92q.45,1.3.87,2.61c-.56-1-1-2.14-1.45-3.14-1.27-3.07-2.23-6.26-3.68-9.25-.77-1.57-2.74-1-3.28.34L8.9,1.94c-1-1.59-3.74-.6-3.13,1.32A73.46,73.46,0,0,1,8,12.13a2.41,2.41,0,0,0-.12.66v1.08A1.6,1.6,0,0,0,5.67,14a1.67,1.67,0,0,0-.4,1,7.34,7.34,0,0,1-.12,1,1.3,1.3,0,0,0-1.81-.3,1.31,1.31,0,0,0-.51,1.36,9.58,9.58,0,0,0,1.6,3.15c.2.38.4.76.58,1.15.78,1.63,3,.4,2.73-1.15a5.08,5.08,0,0,1,0-1.65,14.26,14.26,0,0,1,1,1.21,2.34,2.34,0,0,0,.38.39c.16,1.75.25,3.52.28,5.3a9.2,9.2,0,0,0,0,1.05v.2h0v.49c.32,2.1,3.63,1.54,3.62-.49V24.29a2.64,2.64,0,0,1,.12-.78A1.83,1.83,0,0,0,15.23,22a1.1,1.1,0,0,0,0-.26V21.1a1.75,1.75,0,0,0,1.11-1.6h0a11,11,0,0,0,3.92,2.82A2,2,0,0,0,23,21.4a2,2,0,0,0,.16-1.26c-.08-.39-.16-.78-.25-1.17,1.31,1.1,3.73-.46,3.08-2.18a29.84,29.84,0,0,1-1-3.12,1.85,1.85,0,0,0,1.63-1.9v-.95A1.63,1.63,0,0,0,28.3,9.28a2.22,2.22,0,0,0,0-.37c-.06-.63-.16-1.23-.2-1.74a2,2,0,0,0,.12-.48C28.27,6.34,28.33,6,28.39,5.64Z" transform="translate(0 0.07)"/><path class="cls-2" d="M27.84,5.93c-.74-1.87-2.43-3.87-4.67-3.49-2.49.42-4.1,2.81-5.23,5.18C16.68,3.52,13.12-.64,8.87,0c-2.68.41-4,3.79-4.08,6.1a7.58,7.58,0,0,0,1.7,4.56C4.1,11,1.85,12.66.63,15.8c-.82,2.08-1.1,4.81.76,6.44s4.8,1,7.26,0c-1.3,2.78-1.56,6.18,1.69,7.62,4.54,2,5.31-4.41,5.26-8.06,3.09,1.75,7.06,2.25,9.82-.42,2.16-2.08.76-4-1.19-5.4C28.1,14.82,29.6,10.35,27.84,5.93Zm-6.78,8.48a.88.88,0,0,0-.47,1.69c2.26.71,6,2.81,2.54,4.85-2.61,1.54-5.92.05-8-1.56a.88.88,0,0,0-1.19.31.86.86,0,0,0-.12.44c.15,1.44.72,9.66-2.81,8.1-3.18-1.41-.74-5.88.72-7.48a.86.86,0,0,0,0-1.24.88.88,0,0,0-1.07-.14c-2.07,1.08-5.56,3-7.93,1.64-1.6-.91-.87-3.58-.31-4.87C3.68,13.15,5.82,12,8,12.39a16.64,16.64,0,0,0,2.58,2,.77.77,0,0,0,1-.15,9.44,9.44,0,0,1,1,1c.36.4,1-.12.73-.56A8,8,0,0,0,9,10.9a11,11,0,0,1-2.2-3.35C5.56,4.55,8,.55,11.36,2c3,1.32,5.3,5.49,5.28,8.69a.88.88,0,0,0,1.71.23C19.68,7.6,24,.36,26.35,7.06,27.87,11.23,25.8,15.32,21.06,14.41Z" transform="translate(0 0.07)"/></svg>