<svg id="Layer_1" data-name="Layer 1" xmlns="http://www.w3.org/2000/svg" viewBox="0 0 644.3 260.25"><defs><style>.cls-1{fill:#9a5ea2;}.cls-2{fill:#3c3c3b;}.cls-3{fill:#ef66b2;}.cls-4{fill:#f7ca24;}.cls-5{fill:#e20613;}.cls-6{fill:#3aa935;}.cls-7{fill:#009ee2;}</style></defs><title>top_pic</title><path class="cls-1" d="M90.23,226.67a9.47,9.47,0,0,0-.46-2.51c-.81-3.76-2.1-7.4-2.64-11.22-.62-4.31-6.3-3.49-7.1.24-.14.66-.28,1.33-.41,2-.12-2.09-.25-4.18-.44-6.26-.37-3.92-5.76-3.54-6.78-.27-.15-2.59-.38-5.17-.76-7.75-.46-3.1-5.46-3.89-6.36-.64a150.08,150.08,0,0,0-3.58,18.44c-.42-8-.61-16.11-1.34-24.13-.33-3.57-6.25-3.39-6.31.22,0,1.81,0,3.64,0,5.48A40.58,40.58,0,0,0,52.26,195c-1.31-3.15-5.25-1.79-5.88,1a101,101,0,0,0-1.79,10.43,31.29,31.29,0,0,0-2.68-5.33c-1.78-2.79-5.47-.28-5.28,2.36,0,.66.1,1.33.16,2-.41-.49-.84-1-1.31-1.43-1.31-1.3-4.28-1.57-4.84.76-.25,1-.46,2-.67,3.06-.54-1.7-1.15-3.38-1.86-5a2.73,2.73,0,0,0-5.17.85c-.06.64-.12,1.28-.19,1.92-.22-1.52-.48-3-.8-4.55-.6-2.89-5.38-3-5.41.19,0,5.31,0,10.62-.26,15.92-.23-.38-.45-.78-.67-1.18a2.51,2.51,0,0,0-4.76.77,23,23,0,0,1-.79,3.42,19.45,19.45,0,0,1-2.63-4.32c-.57-1.41-2.58-.66-2.44.74.16,1.58,0,6.44,2.13,7.26a.84.84,0,0,0,.59.05c.44.86.88,1.72,1.24,2.61,1,2.33,4.15,1.47,4.51-.74a20.74,20.74,0,0,1,.65-2.61,15.74,15.74,0,0,1,1.55,3.42c.8,2.64,4.73,2.92,5.08-.17.06-.56.11-1.12.17-1.67a2.84,2.84,0,0,0,2.49-.45,146.11,146.11,0,0,1-2.76,16.68,62.57,62.57,0,0,0-1.23-6.33c-.57-2.26-4.14-3.16-4.94-.5-1.58,5.27-3.11,13.66-.35,18.77a1.6,1.6,0,0,0,1.94.76c0,.94.07,1.88.1,2.83.09,3.05,4.29,4.55,5.54,1.3s2.33-6.57,3.29-9.9c0,1.51.07,3,.13,4.53.13,3.06,5.16,3.49,6,.6s1.44-5.52,2.09-8.3c.12,2.29.25,4.58.44,6.87.27,3.39,5.21,3.55,6.33.64.53-1.37,1-2.75,1.44-4.13,1.71.9,4.37.31,5.12-1.72.36-.95.72-1.94,1.08-2.95a2.55,2.55,0,0,0,1.32-2.16A3,3,0,0,0,54.4,241a53.82,53.82,0,0,0,2.36-6.5c.26,2.11.57,4.23.94,6.33.51,2.92,5.14,3.74,6,.61s1.65-6.37,2.28-9.6c0,3.45.1,6.9.39,10.34s5.3,3.63,6.4.64a64.21,64.21,0,0,0,2.05-6.68c.81,3.2,5.46,4.07,6.72.63a75.91,75.91,0,0,0,2.2-7.32C85.59,232,90.4,230.51,90.23,226.67Zm-52.49-3.74a3.75,3.75,0,0,0-4.06-2.09c.22-2.77.55-5.52,1-8.25A32.84,32.84,0,0,1,37.74,222.93Zm-10.62-2.82a3.25,3.25,0,0,0-2,.34c.48-1.56.92-3.11,1.3-4.68C26.7,217.2,26.92,218.65,27.12,220.11Z"/><path class="cls-2" d="M91.22,224.62c2.49-24.32-41.08-46-55.37-23.63-4.16-12.05-36.68-8-24.31,8.73C5.61,209,.12,211.71,0,219.2c-.14,9,8.31,11.57,15.79,11.29C7.09,239.68,7,253.44,20.84,259c12.52,5,26-5.36,30-17.29,3.42,5.86,11,7.33,18.5,5.63C80.2,244.84,90.06,236,91.22,224.62ZM52,234.68c-.11-1.72-3-1.62-3,.1-.15,12.37-11.18,22.52-23.49,22.07-17.43-.63-14.41-19.84-4-27.3a1.53,1.53,0,0,0-1.2-2.68c-6.57,1.46-15.46,1.44-17.15-6.72s7.3-8.53,12.47-6.15c1.68.78,2.57-1.55,1.43-2.62-18.8-17.78,24.72-21.76,16-1.53-.3.7.81,1.33,1.2.65a15.07,15.07,0,0,0,2.06-6,1.59,1.59,0,0,0,1.45-.84c12.08-22.61,50.92-.1,50.49,20.65C87.85,240.52,53.3,256.11,52,234.68Z"/><path class="cls-3" d="M117.76,198.91a23.56,23.56,0,0,0-5.07.65,1.9,1.9,0,0,0-.07,3.74c-.82,1.15.33,3.07,1.95,3,1,0,1.91,0,2.86,0l-3.31,1c-1.75.5-1.3,3.52.5,3.55,1.51,0,3,0,4.54,0l-1,.38c-1.55.62-1.33,3.41.49,3.41,2.35,0,4.71-.06,7.06,0a27.3,27.3,0,0,0-2.84,1.47c-1.3.77-.52,2.87.83,3a53.33,53.33,0,0,0,5.93.07,11.46,11.46,0,0,0-2.26,2.55,1.21,1.21,0,0,0,1.13,1.9,13.06,13.06,0,0,0,4-.77c.58-.2.29-1.09-.29-1a5.79,5.79,0,0,1-1.5,0,15.43,15.43,0,0,1,5-2.71c1.49-.51,1-2.75-.42-2.94-1-.12-1.92-.18-2.89-.21.77-.19,1.55-.37,2.33-.53a1.75,1.75,0,0,0,0-3.45,33.91,33.91,0,0,0-3.59-.57l.81-.21c1.81-.51,2.1-3.28,0-3.52-1.5-.16-3-.26-4.49-.32l.45-.14c2-.57,1-3.16-.51-3.53a35.93,35.93,0,0,0-4.23-.72,2.07,2.07,0,0,0-2-2.8,20.05,20.05,0,0,1-2-.06A1.28,1.28,0,0,0,117.76,198.91Z"/><path class="cls-2" d="M125.12,202.35c3.3.68,6.62,4.24,9.07,6.36q1.14,1,2.25,2c1.21,1.13,1,1,.28,2.5a56,56,0,0,1-4.91,8.75,0,0,0,0,1,0,0,27.41,27.41,0,0,1-3.87-2.71c-2.11-1.46-4.31-2.78-6.42-4.23a16.66,16.66,0,0,1-3.65-3.44c2.53-3,5.09-6.07,6.53-9.78a.88.88,0,0,0-.7-1.2,87.69,87.69,0,0,0-12.32-1.19.89.89,0,0,0-.91,1.22c1.74,4.16,3.17,9.74,6.61,12.92,4.45,4.13,10.06,6.86,15,10.4a.5.5,0,0,0,.76-.6c-.05-.32-.1-.64-.14-1,2.94-2.88,4.59-7,6.52-10.58a.79.79,0,0,0-.11-.82,70.76,70.76,0,0,0-7.87-7c-1.32-1-4.54-4.08-6.39-2.8A.62.62,0,0,0,125.12,202.35Zm-12.53-1.06a85.65,85.65,0,0,1,9.73.93c-1.4,3-3.57,5.36-5.47,8A52,52,0,0,1,112.59,201.29Z"/><path class="cls-2" d="M125.35,209.83a2.72,2.72,0,0,0-.29,2,.48.48,0,0,0-.28.62,5.66,5.66,0,0,0,6.77,2.92c3.1-1.2,1-5.77-.79-7.15S126.39,208,125.35,209.83Zm4.47-.4c1.17.77,3,4.15.81,4.73a3.74,3.74,0,0,1-2.29-.16l.44-.09c.52-.15.74-.9.14-1.13-1.12-.44-2.82-.58-2.15-2.19A2.15,2.15,0,0,1,129.82,209.43Z"/><path class="cls-4" d="M191,108a3.17,3.17,0,0,0,1.82-3.48c-.3-1.64-.5-3.31-.69-5a3,3,0,0,0,.82-1.66c.27-2-1.12-3.89-2-5.61-.08-.14-.16-.26-.24-.38a3.16,3.16,0,0,0,1.79-3.65c-.3-1.36-.59-2.72-.91-4.06a3.36,3.36,0,0,0,.12-1.69,18.91,18.91,0,0,0-3-7.52v0h0c-.16-.23-.32-.46-.49-.68a2.66,2.66,0,0,0-3.92-.56,34.61,34.61,0,0,0-2.67-3.42,3.37,3.37,0,0,0-5.21.61c-.33-.66-.67-1.31-1-2-1.45-2.75-4.81-1.72-5.66.62-1.6-2.49-3.29-4.93-5.14-7.28s-6.39,0-5.36,2.93c1.1,3.12,2.25,6.23,3.41,9.33A103.17,103.17,0,0,0,154,62.08c-2.12-2.62-5.62.1-5.21,2.84.26,1.72.58,3.42.94,5.11-.7-1.22-1.4-2.43-2.13-3.63-1.42-2.35-5.08-1.58-5.55.73-.64-1.64-1.26-3.29-1.9-4.93-1-2.57-5.68-2.76-5.36.58a207.43,207.43,0,0,0,3.7,23.46c-1.44-4.59-2.89-9.16-4.44-13.69-.94-2.73-4.74-2.28-5.15.09-2-.9-5,.43-4,3a14.14,14.14,0,0,1,.88,4.24,1.8,1.8,0,0,0-.19-.2A2.71,2.71,0,0,0,121,81.48c0,.79-.13,1.58-.23,2.36-1.18-2.15-4.9-.5-4.26,2,1.21,4.62,2.13,9.38,4.55,13.54.77,1.32,3,.55,2.55-1-.37-1.27-.68-2.53-1-3.8A2.79,2.79,0,0,0,125,92.08c.12-1.33.31-2.64.5-4,.12.2.26.39.37.59A2.76,2.76,0,0,0,131,87.47c.06-1,.14-2.08.21-3.11.24.24.49.46.73.68,2.88,10.52,5.92,21,8.47,31.61a85.69,85.69,0,0,0-6.5-13.26c-1.53-2.39-5.76-1.09-4.85,1.89.2.65.41,1.3.61,2-.23-.35-.46-.71-.7-1.06-1.55-2.27-5.34-1.11-4.65,1.82.16.68.35,1.35.52,2a57.79,57.79,0,0,0-4.94-7.27c-1.74-2.17-4.47.46-3.6,2.62,2.7,6.77,5.54,13.45,7.75,20.41a1.31,1.31,0,0,0,2.55-.63l-.57-2.61c1.51,3.36,3,6.74,4.64,10,1.34,2.67,4.77.79,4.48-1.74,0-.18-.06-.36-.08-.54.67,1.49,1.36,3,2.09,4.44,1.37,2.71,5.24.91,4.75-1.85,0-.16-.07-.32-.1-.48a49.09,49.09,0,0,0,2.84,4.49c1.76,2.43,5.41,1.18,4.92-1.92q-.62-3.9-1.38-7.77c1.54,3,3.2,6,5,9,1.54,2.44,6,1.09,5-1.94-5.06-14.8-10-29.82-13.53-45.12,6.2,16.48,12.3,33,18.87,49.32,1.24,3.08,5.93,1,5.25-2-2.14-9.54-4.82-18.92-7.71-28.24,3.59,8.65,7.13,17.33,11,25.82,1.46,3.17,6.21,1.06,5.51-2.14-3.94-18-13-34.33-18.77-51.7,8.28,14.63,13.7,31.14,20,46.46,1.42,3.45,6.24,1,5.72-2.24-.26-1.63-.57-3.26-.89-4.88a2.74,2.74,0,0,0,4.56-2.55c-.06-.36-.11-.71-.16-1.07a3.13,3.13,0,0,0,3.38-3.68C191.29,110.78,191.11,109.4,191,108ZM179.07,90.92l.7,1.38c1.61,3.06,5.57,1.48,6-1.45.06-.38.1-.77.13-1.15.18.31.35.62.53.92a3.68,3.68,0,0,0,.38.52,3.19,3.19,0,0,0-1.59,3.38c.26,1.38.45,2.76.62,4.14a3.17,3.17,0,0,0-1.73,3.45c.08.39.13.79.2,1.18a2.89,2.89,0,0,0-2.68,1.17c-.11-.19-.21-.37-.33-.55a2.2,2.2,0,0,0-1.84-1.11c-1.17-3.76-2.44-7.5-3.77-11.23A3.45,3.45,0,0,0,179.07,90.92Z"/><path class="cls-4" d="M226.88,180a72.67,72.67,0,0,1-14.59-7.57A71.19,71.19,0,0,1,199.39,161c-4.11-4.59-6.49-9.72-9.54-15-1.11-1.91-4.81-1.45-4.55,1.1,1,10.38,9.66,19.83,17,26.54a81.06,81.06,0,0,0,12.71,9.4c3,1.84,10,6.64,13.61,4.65C232.8,185.41,230.18,181.24,226.88,180Z"/><path class="cls-4" d="M182.09,207.06a31.51,31.51,0,0,0-1.78-5.5,3.16,3.16,0,0,0-1.67-1.72c-3.09-6.78-5.63-13.8-8.07-20.85-2.95-8.52-5.35-17.59-9.25-25.73-.83-1.74-3.4-.58-3,1.19,1.87,9.24,4.87,18.48,7.44,27.56,2.68,9.43,5.86,18.64,9.44,27.75C176.8,213.93,182.78,211,182.09,207.06Z"/><path class="cls-4" d="M141.33,152.84c-4.81,1-6.74,5.14-8.45,9.47a67.12,67.12,0,0,0-3.37,11.85,2.54,2.54,0,0,0-.79,1.94c0,1,.11,1.91.06,2.86-.23,4.13,6.47,5.36,7.28,1.19,1.49-7.57,1.14-18.37,6.87-24.38A1.74,1.74,0,0,0,141.33,152.84Z"/><path class="cls-4" d="M119.18,139.88a.9.9,0,0,0-.84-1.26,2.24,2.24,0,0,0-1.18-.39c-1.28,0-2.49.92-3.48,1.6-3.07,2.12-5.76,5-8.42,7.59-2.9,2.81-11.67,9.06-8,13.83a2.94,2.94,0,0,0,2.87.84,3,3,0,0,0,1.42-.82c-.3.3-.37.28.56-.27a9.16,9.16,0,0,0,2.46-2.79c1.74-2.35,3.69-4.55,5.59-6.76s4.09-4.7,6.24-7a25,25,0,0,0,2.07-2.5,4,4,0,0,0,.63-1.12C119.32,140,119.3,139.82,119.18,139.88Z"/><path class="cls-4" d="M104.14,116.47c-4.33.51-8.37,2.67-12.25,4.54-4.56,2.21-9.7,4.49-13.79,7.5-2.34,1.72-8.12,2.85-9.71,6.63-.73,1.74.64,3.66,2.24,4.21a3.16,3.16,0,0,0,2.46-.19c-.73.43,1-.43,1.34-.61.81-.44,1.57-1,2.36-1.43,1.68-1,3.42-2,5-3.12,7.51-5.37,16-9.15,23.64-14.19A1.82,1.82,0,0,0,104.14,116.47Z"/><path class="cls-4" d="M105.79,88.65c-5,1.23-9.63,2.31-14.86,2.24-4,0-8-.63-12-.72-2.19-.06-4.38,0-6.57-.07l-3-.06c-.45,0-3.14.26-1.92.27h0a7.7,7.7,0,0,0-.92.07,3.4,3.4,0,0,0-2.6,3.23.06.06,0,0,0,0,0,3.35,3.35,0,0,0,1.62,3c4.07,1.92,9.22.71,13.58.57,9.67-.31,20.38,1.19,28.56-5.14C109.34,90.8,107.65,88.19,105.79,88.65Z"/><path class="cls-4" d="M121.65,59.34c-4.83-6.49-9.65-12-12.94-19.56a37.68,37.68,0,0,1-3-12.29c-.28-4,1.56-7.4,1.62-11.23a2.84,2.84,0,0,0-4.74-2.12C96,19.36,99.49,32.52,102,38.87c3.22,8.09,9.28,19.08,17.55,23A1.67,1.67,0,0,0,121.65,59.34Z"/><path class="cls-4" d="M146.75,20.72a2.73,2.73,0,0,0-3-1.32c-4.26,1.32-3.9,7.87-4.27,11.5-.59,5.88-1,12.44.28,18.26.53,2.34,4,1.86,4.09-.45.29-5.05.41-10,1.09-15.06a57.13,57.13,0,0,1,1.55-7.44C147,24.26,147.86,22.65,146.75,20.72Z"/><path class="cls-4" d="M204.72,3.64c-.11-4.46-6.87-5.16-7.25-.21a68.39,68.39,0,0,1-7.18,26,70.91,70.91,0,0,1-6.95,10.77c-2.51,3.29-5.93,6.11-8.16,9.58a2.69,2.69,0,0,0-.07,2.66c0,.07.07.13.1.19a2.59,2.59,0,0,0,4,.63l.6-.67c.13.09.5-.23,1.13-1,1.15-1,2.2-2.06,3.26-3.12a63.46,63.46,0,0,0,4.45-5,77.65,77.65,0,0,0,8-11.78c4.77-8.67,7.2-18.31,8.14-28.11Z"/><path class="cls-4" d="M217,43.22c-2.19.54-3.72,2.92-5.09,4.54a67.78,67.78,0,0,0-6,8.11,20.26,20.26,0,0,0-3.14,8.36c-.15,1.3,1.1,4.12,2.84,3.23,2.17-1.12,2.5-3.89,3.62-5.92a44.56,44.56,0,0,1,6.41-8.43c1.61-1.75,4.4-3.56,5.11-5.91A3.17,3.17,0,0,0,217,43.22Z"/><path class="cls-4" d="M257.2,81.91a1.53,1.53,0,0,1-.73-.35,2,2,0,0,0-.42-.11l.36.07h0l-.9-.67c-1.37-1-3.78-.95-5.44-1.18q-7.19-1-14.39-1.79c-5.44-.6-10.88-1.11-16.34-1.4-3.58-.19-7.9-.55-11.33.68a2.77,2.77,0,0,0-1.9,1.91v0a1.66,1.66,0,0,0,.63,2.45,2.47,2.47,0,0,0,1.82.83c9-.29,18.06,1.13,26.93,2.41,4.48.65,9,1.36,13.41,2.1,1.65.27,3.56.87,5.21.59a8.61,8.61,0,0,0,1.23-.34l.29-.08c-.31,0-.71-.07-1.22-.15C257.48,87.35,259.15,83.36,257.2,81.91Z"/><path class="cls-4" d="M257.2,81.91c.12,0-.1-.23-.79-.39l.06,0A2.25,2.25,0,0,1,257.2,81.91Z"/><path class="cls-4" d="M255.62,87c1.27.08,1-.26,0,0Z"/><path class="cls-4" d="M244.51,115.49c-1.84-1-3.77-1-5.77-1.44a91.54,91.54,0,0,1-9.18-2.78c-6-2-12-5.34-18.18-6.55-2.27-.44-4,2.61-1.77,3.9,5.35,3.06,11.42,5.15,17,7.66,4.16,1.86,12.26,6.72,17,4.9C245.88,120.3,247.17,116.93,244.51,115.49Z"/><path class="cls-5" d="M137.08,94.86c.36.48,0-1,0-1.2a4.21,4.21,0,0,0-1.31-3.15,2.69,2.69,0,0,0-3.59-.18,3,3,0,0,0-3.62.7,1.11,1.11,0,0,0-.07-.16c-1.18-2.84-5.18-.88-4.7,1.85h-.06q.34,1.81.75,3.63c0,1.45-.18,3-.1,4.28a1.56,1.56,0,0,0,1.47,1.61c0,.06,0,.13.05.19.84,3.47,5.62,2.65,6-.64a17.42,17.42,0,0,1,.38-2.18,8.38,8.38,0,0,0,2.35.75C137.79,100.85,138.55,96.8,137.08,94.86Z"/><path class="cls-5" d="M188.62,94.79c-.68-1.75-2.85-3.24-4.64-2.44a3.35,3.35,0,0,0-5.73,1.87c-1.78-1.36-4.39.25-4.11,2.74.15,1.31.85,3.87,2.22,4.74.71,1.29,1.47,2.57,2.22,3.85a3.07,3.07,0,0,0,5.72-1.38c0-.15,0-.31,0-.46a3.64,3.64,0,0,0,1.06-.29c1.57,1.26,4.35.23,4.28-2A19.64,19.64,0,0,0,188.62,94.79Z"/><path class="cls-2" d="M196.67,92.1C192.74,63.77,167.17,54.85,141.5,57a1.38,1.38,0,0,0-.7,2.53C124,68.34,112.23,87.7,115.16,107c3.44,22.67,26.27,38.86,48.82,34.05C185,136.57,199.54,112.82,196.67,92.1Zm-31.54,45.57c-21.77,7.14-45-11.25-47.24-32.89-1.92-18.86,10.78-36.38,26.83-45,21.55.85,42.37,4.05,48.4,28.8C198.1,109.07,184.77,131.22,165.13,137.67Z"/><path class="cls-2" d="M183.76,109.51a1.21,1.21,0,0,0-2.37.26c-2,27-53.37,24.22-51.69-1.4a.79.79,0,0,0-1.53-.25c-4,14,13.13,21.72,24.34,23.58C164.63,133.71,187.49,125.37,183.76,109.51Z"/><path class="cls-2" d="M147.12,93.63c-.15-.95-.1-3.94-.79-5.36a.57.57,0,0,0-.15-.63.84.84,0,0,0-.8-.29,1.09,1.09,0,0,0-.37.19l-.12.13a1,1,0,0,0-.53.58c-.6,1.75,0,4.23.2,6,.16,1.45-.1,4.77,1,5.88a1.37,1.37,0,0,0,2.13-.22C148.59,98.66,147.34,95,147.12,93.63Z"/><path class="cls-2" d="M162.28,95.1c0-2,.07-4,0-6a.91.91,0,0,0-1.82,0c-.21,2-.26,4-.37,6-.06,1.21-.69,3.4.23,4.33a1,1,0,0,0,.65.3l.11,0h.12a1,1,0,0,0,.66-.27C162.8,98.53,162.28,96.31,162.28,95.1Z"/><path class="cls-2" d="M188.27,94.87a4.47,4.47,0,0,0-6.85-2.27c.15-.45-.4-1-.89-.73a6.54,6.54,0,0,0-2.87,7.34c.88,3.43,4.76,4,7.62,2.85C188,101,189.1,97.51,188.27,94.87ZM184.15,100c-4.56,2.31-5.83-4-3.33-6.74a1.18,1.18,0,0,0,1.36,1.36c1.61-.41,3.2-1,3.85,1.07A3.63,3.63,0,0,1,184.15,100Z"/><path class="cls-2" d="M134.09,95.2c-.93-2.3-4.29-2.7-6.35-2.08a4.88,4.88,0,0,0-3.27,3.44,3.28,3.28,0,0,0-.47,3.49,4.49,4.49,0,0,0,4.37,2.31C131.59,102.22,135.47,98.6,134.09,95.2Zm-4.25,4.65a3.38,3.38,0,0,1-3.5,0,.88.88,0,0,0,.27-.52c.16-1.66-.27-3.15,1.51-4a3.8,3.8,0,0,1,3.71.4C133.16,97,131,99.16,129.84,99.85Z"/><path class="cls-2" d="M121.78,138.93c-4.07.51-7,4.42-9.27,7.49-2.1,2.86-6.31,8.7-5.52,12.53a1,1,0,0,0,1.85.29,19.36,19.36,0,0,0,1.2-3.61,35.32,35.32,0,0,1,3.15-6.45c2-3.42,5-7.7,8.87-9.11A.59.59,0,0,0,121.78,138.93Z"/><path class="cls-2" d="M105.87,117.38c-7.93,5.9-16.49,10.56-24.71,16a1.27,1.27,0,0,0,1.22,2.23,16.75,16.75,0,0,1,1.86-.74.91.91,0,0,0,.64-.87c7.55-4.74,15.89-9.11,21.81-15.75A.6.6,0,0,0,105.87,117.38Z"/><path class="cls-2" d="M107.1,93.21a36.18,36.18,0,0,0-9.64,0c-2.74.26-5.85.35-8.38,1.49-.9.4-.46,1.73.43,1.78,2.69.13,5.51-.76,8.18-1.14,3.12-.45,6.27-.55,9.38-1A.59.59,0,0,0,107.1,93.21Z"/><path class="cls-2" d="M122.34,60.65c-8.89-10.74-12-23.59-12.56-37.3a1,1,0,0,0-1.9-.05c-.76,13,3,29.68,13.37,38.38A.75.75,0,0,0,122.34,60.65Z"/><path class="cls-2" d="M146.53,30.2a1,1,0,0,0-1.89-.58c-2.23,5.55-1.58,12.11-.33,17.82.24,1.07,1.72.63,1.61-.4A52.59,52.59,0,0,1,146.53,30.2Z"/><path class="cls-2" d="M198.6,11.47c-.25-1.17-2.22-1-2.13.23.68,9.09-2.5,16.7-7,24.47-3.32,5.77-8.67,11.16-10.9,17.44a.51.51,0,0,0,.83.51c5.8-5.61,10.39-13.87,14.29-20.87C197.34,26.72,200.23,19,198.6,11.47Z"/><path class="cls-2" d="M216.18,51.19c-5.51,2.72-10,9.14-13.31,14.1-.36.55.48,1.25.9.74,2-2.43,3.9-4.9,6.06-7.19s4.89-4.14,7.39-6.23C218,51.94,217.05,50.77,216.18,51.19Z"/><path class="cls-2" d="M250.14,84.84c-6.89-2.86-15-3.8-22.37-4.42-5.37-.45-13.6-1-18,2.89a.53.53,0,0,0,.49.89c13.75-3.26,25.7-.27,39.23,2.72A1.09,1.09,0,0,0,250.14,84.84Z"/><path class="cls-2" d="M234,114.47c-1.42-1.2-3.59-1.54-5.32-2.14-2.82-1-5.64-2-8.48-2.85-1.56-.49-7.31-3.15-8.85-1.51-.39.42.08,1.14.61.84s3,.76,3.51.92c2,.62,4.07,1.36,6.09,2.08,2.19.78,4.36,1.6,6.53,2.42,1.61.61,3.49,1.77,5.23,1.76C234.05,116,234.65,115,234,114.47Z"/><path class="cls-2" d="M219.39,179c-3.48-4.27-10.78-6.74-15.34-9.82-7.6-5.14-13.69-11.64-15.71-20.79-.15-.71-1.36-.61-1.3.14.65,8.11,6.08,14.34,12.05,19.38,5.19,4.38,12.79,10.6,19.41,12.53A.88.88,0,0,0,219.39,179Z"/><path class="cls-2" d="M174.13,188.25c-3.55-11.07-4.57-22.76-8.32-33.76-.27-.81-1.54-.53-1.31.33,2.62,10.14,3.66,20.61,6.44,30.7,1.78,6.45,5.82,14.09,5.3,20.91-.08,1.1,1.5,1.27,1.85.3C180,201.39,175.74,193.27,174.13,188.25Z"/><path class="cls-2" d="M137.91,156.37a.81.81,0,0,0-1.54-.47c-1.73,4.73-4.63,13.08-2.2,18a.94.94,0,0,0,1.76-.42c.24-2.54-.18-5.12.08-7.71A57.43,57.43,0,0,1,137.91,156.37Z"/><path class="cls-4" d="M324.8,64.43l-.22,0a3.39,3.39,0,0,0-1.76.08,3.77,3.77,0,0,0-1.71.84c-2.3-1-5.19.86-4.77,3.32a3.81,3.81,0,0,0-4.11,1.88l-.21-.12c-2.7-1.41-6.37,2-4.2,4.67,2.63,3.2,6,5.66,8.79,8.69,2.27,2.43,5.66-.73,4.56-3.42a3.79,3.79,0,0,0,.3-.4c1.83,1.6,4.75,1,5.48-1,2.24-.35,4.08-2.6,2.29-4.91a11.87,11.87,0,0,1-2-3.47,3.86,3.86,0,0,0,1.4-1.74A3.14,3.14,0,0,0,324.8,64.43Z"/><path class="cls-6" d="M305.73,110.63c-1.72-3.94-6.3-5.59-9-8.84-2.11-2.58-6.28-.89-5.37,2.55,0,.15.06.3.1.45a36.91,36.91,0,0,1-5-3.73c-2.09-1.94-5,0-4.94,2.35-1.12-.84-2.22-1.71-3.26-2.66-1.62-1.5-4.88.25-3.85,2.49,1.41,3,3.43,5.25,5.67,7.72a1.47,1.47,0,0,0,2.44-.53,36.71,36.71,0,0,1,3.88,3.5c1.94,2.06,4.61,0,4.56-2.33a27.28,27.28,0,0,1,2.79,2.26,3,3,0,0,0,4.92-2,15.26,15.26,0,0,0,3.38,1.85C303.91,114.39,306.75,113,305.73,110.63Z"/><path class="cls-6" d="M331.89,109.88c-1.13-3.46-6.1-6.11-8.32-2-.33-.2-.64-.41-1-.6a3.14,3.14,0,0,0-4,4.49c.26.38.49.76.72,1.14-1.43-.66-2.86-1.3-4.27-2a3,3,0,0,0-2.74.13,2.33,2.33,0,0,0-3.09,2.84,19,19,0,0,0,6.11,9.29c2.32,2,6.09-1,4.18-3.59a.56.56,0,0,1,0-.08,24.25,24.25,0,0,1,3.85,2.34c2.32,1.76,5.84-.11,4.89-3.16-.09-.31-.19-.61-.28-.92a3.09,3.09,0,0,0,2.27-3.16c0-.33-.06-.65-.1-1A2.89,2.89,0,0,0,331.89,109.88Z"/><path class="cls-2" d="M332.68,59.72c4.59-6.79,5.59-16.91-3.1-20.17-7.85-2.94-13.14,6.34-14.77,14.4-5.25-8.66-16.66-14.05-24.64-5.69-11.1,11.62,8.16,24,18.95,21.17,1.2-.32.58-2-.58-1.8-8.72,1.64-23.42-6.8-16.08-17.3,7.14-10.23,20.79,2.91,22,10.89,0,.14,0,.27.07.4.36,1.67,3.21,1.18,3-.51,0-.14-.05-.27-.07-.4h0c-1.3-6,3.24-21.31,12.44-17.85,8.26,3.1.73,16.49-3.86,19.3a1.19,1.19,0,0,0-.26.23,12,12,0,0,0-2.57-1.12c-1.26-.38-2,.79-1.78,1.81-6.07-.69-10.68,3.31-12.66,8.23-9.09-2.67-22.64,9-17.7,18.49a14.59,14.59,0,0,0,14.08,7.79c-2.08,5.08-2.67,11.25-2.89,16.53h0a7.68,7.68,0,0,0-.65-1.18,67.78,67.78,0,0,0-6.17-7.47c-3.3-3.55-9.4-9.86-14.87-7.47-6.32,2.77-4.17,11.31.55,14.38,5.73,3.72,14.19,5.38,21.08,4.75,0,.36,0,.73,0,1.07-.09,5.18-.05,20.47,5.33,23.33a1.3,1.3,0,0,0,1.85-.87l.06-.4a1.18,1.18,0,0,0-2-1.05c1.47-1.59,1.53-.1.59-3.06-.55-1.73-1-3.51-1.43-5.26a52.23,52.23,0,0,1-1.32-10.64c5.76,2.31,13,3.4,18.81,2.12,7.5-1.63,9.69-8.3,6-14.94-4.92-8.93-20.06.44-24.94,7.39.05-6.19.84-12.47,3.33-18a10.46,10.46,0,0,0,5.44-4.61c2.69,6.38,8.91,10.69,16.41,9.6,8.84-1.28,8-8.91,5.24-15.34,7.6,2.72,16.6-2.82,17.69-12.18C354.77,60.53,343,57.35,332.68,59.72ZM286,111.58c-2.8-1.09-6-3-6.45-6.23-.34-2.7,1.56-5.25,4.3-4.74,4.78.9,9.09,6.18,12.17,9.61,1.15,1.28,2.27,2.61,3.38,3.94A40.11,40.11,0,0,1,286,111.58Zm40.86-3.53c2.42,2.13,2.76,7.11.72,9.47-1.81,2.1-5.51,2.17-8,2.22a35.56,35.56,0,0,1-13-2.29,34.84,34.84,0,0,1,5.87-6.13C316,108.67,322.76,104.43,326.88,108.05ZM312.49,86.29a12.12,12.12,0,0,1-.73,3.16,14,14,0,0,0-5,4.81c-3.18,1-7.16.18-10.51-2.36-8.71-6.61,3.16-20.72,11.62-17.79-.85,4.51.52,9.17,4.91,11.45A1.21,1.21,0,0,0,312.49,86.29Zm-1.67-12.63c1.35-5.27,6.58-8.75,11.83-8.68a.71.71,0,0,0,.65-.36c9.15,3.69,4.2,18.79-4.85,19.22C312.61,84.12,309.5,78.82,310.82,73.66Zm18.25,25.28c-7.44,1.08-13-5.56-13.6-12.37v0a15.91,15.91,0,0,0,1.94.36c5.13.55,9.17-2.29,11.5-6.28a1.32,1.32,0,0,0,.26.95C332.75,86.4,339.15,97.47,329.07,98.94Zm2.63-19a1.54,1.54,0,0,0-2.31-.2c2.46-4.95,2.43-11.3-1.15-15.29,6.86-3.39,17.05-5.37,21.05,3.24C354.52,78.92,339.62,91,331.7,79.91Z"/><path class="cls-7" d="M386.56,50.72a35.17,35.17,0,0,0-1.68-10.47A1.92,1.92,0,0,0,382.75,39c-.12-.26-.23-.53-.36-.8-.75-1.59-3.2-.75-3.2.87,0,.29,0,.59,0,.88a24.82,24.82,0,0,0-1.29-2.84,1.68,1.68,0,0,0-3.11.85c0,.78,0,1.56,0,2.34a16.22,16.22,0,0,0-2-3.7,1.61,1.61,0,0,0-2.91.38c-.11.39-.23.78-.35,1.16-.23-.73-.45-1.47-.69-2.21a1.37,1.37,0,0,0-2.63.73,46.14,46.14,0,0,0,2.06,7.26,1.55,1.55,0,0,0,3-.41,11.25,11.25,0,0,1,.46-2.13c1,2.41,1.6,5,2.69,7.39a1.65,1.65,0,0,0,3-.39q.17-.93.27-1.86c.48,1.75.94,3.5,1.54,5.2a1.76,1.76,0,0,0,2.78.76c.11,1.63.23,3.27.41,4.91.23,2.22,3.71,2.26,3.51,0-.15-1.72-.25-3.43-.34-5.14A1.56,1.56,0,0,0,386.56,50.72Z"/><path class="cls-2" d="M384.55,38.37c-3.76-4.28-21.37-6.33-19.95,2.56a.67.67,0,0,0,.14.32c-.76.32-1,1-.38,2.27.18.38.67.15.71-.19.3-3,8.22.85,9.32,1.44,4.89,2.58,7.41,10.89,3.72,15.24a.83.83,0,0,0,.8,1.37C389.2,59,390.9,45.61,384.55,38.37ZM380.63,59c2.48-5.58-.65-13.18-6.09-15.91-.8-.41-5.68-2.13-8.51-2.07a.7.7,0,0,0,.08-.29c.13-4.27,5.66-4.28,8.82-4.16,3.73.14,7.11,1.18,9.4,4.24C388.65,46.58,387,55.85,380.63,59Z"/><path class="cls-7" d="M474.16,84.34c3-2.88-1-8.51-4.5-5.92-.66.5-1.66.71-1.14.81-2.11-.39-4.49.77-4.9,2.94a3.94,3.94,0,0,0-6.68,2.75,17.85,17.85,0,0,1-.53,3.7c-.84-1.17-1.68-2.35-2.47-3.58-2.08-3.27-7.38-2.09-7.36,2,0,.17,0,.34,0,.5-1.34-3.36-6.62-4.14-7.62,0-.45,1.9-.79,3.82-1.06,5.74-.63-1.54-1.32-3.06-2.11-4.55-2-3.71-6.93-1.65-7.25,2-.07.8-.13,1.6-.19,2.41-.22-.55-.42-1.1-.65-1.64-1.67-4-6.89-1.42-7.21,1.94-.2,2.16-.33,4.33-.46,6.49a51.67,51.67,0,0,0-3.86-6.62c-2-2.9-7.38-2.21-7.13,1.92.09,1.46.18,2.92.26,4.38-.84-2.19-1.64-4.41-2.44-6.65A3.55,3.55,0,0,0,400,94.77a40,40,0,0,1,.6,5.31c-.77-1-1.54-1.9-2.31-2.85-2-2.46-4-5.75-6.64-7.61-1.93-1.37-3.9,1.18-3,3l0,.1a1.94,1.94,0,0,0,.75.8c1.84,1.87,3.27,4.82,4.69,6.91a130.09,130.09,0,0,1,7.07,11.1c1.27,2.35,4.07,1.89,5.35.14a67.42,67.42,0,0,0,4.41,7.73c1.93,2.9,7.05,2.07,6.89-1.85,0-.7-.07-1.4-.11-2.1.16.51.32,1,.47,1.55,1,3.59,6.5,3.8,7.42,0a60.33,60.33,0,0,0,1.13-6.06q.79,2.53,1.53,5.1c1.18,4.13,7.53,3.35,7.48-1,0-1.69,0-3.37,0-5.06.28.75.57,1.5.87,2.24,1.68,4.07,7.2,3.5,7.62-1,.3-3.24.46-6.48.7-9.72.13.3.27.6.39.91,1.62,4.1,7.52,3.62,7.76-1,.06-1.2.18-2.39.33-3.58a18.52,18.52,0,0,1,1.13,2.22c1.57,3.78,8.06,3.81,7.74-1A14.58,14.58,0,0,1,462.6,95c.52.57,1,1.14,1.6,1.67a4,4,0,0,0,6.6-3.79c-.46-2.14,0-4.2.34-6.29A11,11,0,0,0,474.16,84.34Z"/><path class="cls-2" d="M477.63,75.43c-16.48-4.21-34,4.42-49.16,9.93l-1.36.49a.31.31,0,0,0-.1-.28c-2.73-2.53-4.37-7.75-5.62-12.55,7.71-.24,15.86-4.4,23.53-5.74a1.86,1.86,0,0,0,.83-3.08c-10.24-8.68-20.48-17.4-31.87-24.56a1.84,1.84,0,0,0-2.74,1.57c-.53,9.6,3.32,20.07,6.25,29,1,3,4.06,15.51,8.75,15.94-9.78,3.43-19.65,6-30.13,4.48-3.89-.56-8-3.44-12-2.4a1.71,1.71,0,0,0-1.22,1.39c-.36-.2-.71-.41-1.07-.6a1.11,1.11,0,0,0-1.36,1.73c13.42,16.61,27.47,35.49,51.16,28.79C453.15,113.45,469,98,478.73,78.14A1.86,1.86,0,0,0,477.63,75.43ZM414.77,44.56a276.5,276.5,0,0,1,25.46,19.78c-6.59,1.12-14.24,2.55-19.6,5.67-.36-1.47-.7-2.83-1-4C417.63,59.41,415.12,51.76,414.77,44.56Zm21.57,69.49c-12.87,5.31-24,4.48-34.82-4.42a93.42,93.42,0,0,1-8.72-8.74q-2.15-2.36-4.27-4.74c-.66-.73-3.47-2.81-4.18-3.76h0a1.31,1.31,0,0,0,1.59-.08l.26.09c.2.08.33-.1.34-.28a3.42,3.42,0,0,0,1,0c1.21.3,2.4.62,3.59,1a37.15,37.15,0,0,0,7.55,1.67c8.09.6,15.42-1,23.16-3.25,16.43-4.85,34.88-16.2,52.57-13C465.84,94.85,453.69,106.91,436.34,114.05Z"/><path class="cls-1" d="M585.77,80.46a17.4,17.4,0,0,0-2.69-4.6,2.22,2.22,0,0,0-1.85-.83,31.44,31.44,0,0,1-2.47-3.38,2.54,2.54,0,0,0-4.71,1.16c-.6-1-1.2-1.91-1.77-2.89a2.38,2.38,0,0,0-4.43,1c-.81-1.28-1.64-2.55-2.51-3.79-1.51-2.15-5.16-1-4.43,1.79a23.18,23.18,0,0,1,.6,4.16c-.33-.41-.64-.82-.93-1.26a2.57,2.57,0,0,0-4.23-.06,22.43,22.43,0,0,0-3.13-3.19c-1.7-1.39-4.6-.24-3.93,2.22.19.71.36,1.43.54,2.15q-1.91-2.85-4-5.55c-1.45-1.82-4.54.06-3.87,2.18.58,1.85,1.16,3.67,1.65,5.5a69.75,69.75,0,0,0-3.64-6.4c-1.41-2.14-5-.93-4.3,1.74a.19.19,0,0,1,0,.07c-1.23-1.8-2.5-3.57-3.86-5.28s-4.58.06-3.86,2.17a18.89,18.89,0,0,1,.88,4.59,47.15,47.15,0,0,0-5.65-6.6c-1.63-1.53-4.5-.13-3.87,2.17a21,21,0,0,1,.5,2.46c-1.27-1.3-2.53-2.61-3.69-4-1.48-1.8-4.45,0-3.84,2.16a33.21,33.21,0,0,1,.78,3.56c-.75-.69-1.5-1.37-2.27-2A2.28,2.28,0,0,0,507,71.79l.78,3.85c-.85-.88-1.7-1.76-2.53-2.67a1.61,1.61,0,0,0-2.55,1.91c1.3,2.18,2.34,4.49,3.64,6.68a1.06,1.06,0,0,0,1.75.19,16.82,16.82,0,0,1,1.78,3.19c1,2.31,4.08.58,3.76-1.52s-.63-3.9-1-5.84c.81.79,1.6,1.59,2.36,2.43a2.25,2.25,0,0,0,3.78-2.13,28.23,28.23,0,0,1-.69-3.16c1.16,1.19,2.31,2.39,3.37,3.68,1.48,1.8,4.38-.06,3.81-2.15a19.14,19.14,0,0,1-.41-2c1.44,1.92,2.8,3.91,4.21,5.89a2.29,2.29,0,0,0,4.25-1.11c.05-1.27.1-2.55.13-3.81,2.12,3.2,4.16,6.45,6.32,9.63a2.43,2.43,0,0,0,4,.09c.45.77.91,1.52,1.4,2.27a2.3,2.3,0,0,0,4.26-1.11,28.15,28.15,0,0,0,0-5.66c1,1.78,2,3.58,3,5.37s4.53,1.25,4.26-1.12c-.18-1.63-.42-3.25-.68-4.87.52,1,1,2.07,1.46,3.14,1.13,2.6,4.72.7,4.31-1.74-.06-.3-.09-.6-.14-.9.34.37.68.73,1,1.11,1.76,2,4.42-.09,4.08-2.3-.07-.44-.12-.88-.17-1.31,1,1.68,2,3.37,2.94,5.09a2.37,2.37,0,0,0,4.4-1.41c.45.73.9,1.46,1.33,2.21a2.45,2.45,0,0,0,4.49-1.82,8.9,8.9,0,0,1-.19-1.15c.76.9,1.51,1.79,2.24,2.71C583.62,85.89,586.92,82.92,585.77,80.46Z"/><path class="cls-2" d="M580.19,70c-5.33-3.72-11.84-4.72-18.27-5.07,0-4.65,1.13-11-.86-15.08-2.86-5.78-11.76-4.4-17-4.08-6.1.39-13.08-1-18.56,2.3-4.7,2.81-3.32,9.55-2,14.43-9.5-.4-20,1-22.85,10.25-2.63,8.43,8.78,21.35,16.85,14.59a.59.59,0,0,0-.55-1c-5.38,2-9.62-.93-12.43-5.45-4-6.49.15-12.47,6.52-14.54A36.82,36.82,0,0,1,524.24,65a.61.61,0,0,0,1.13.07c4.06.27,8.09.86,11.82,1.31,3.46.42,6.9.6,10.35.7a2.85,2.85,0,0,0,.3.16,1,1,0,0,0,.78-.13c4.77.12,9.54.13,14.36.42,5.87.36,12.44,1.41,16.87,5.62C586,79,580.77,85.53,574.52,87a8.25,8.25,0,0,0-3.36-6,6.71,6.71,0,0,0-5.77-1c-3.47-.93-6.32,2.44-7.31,6.36a.81.81,0,0,0-.4-.23c-2.33-.46-5.13.09-7.53,0a58.48,58.48,0,0,0-6.35,0,59.91,59.91,0,0,0-6.54.47,10.39,10.39,0,0,0-.34-2.87c-.49-1.8-2.15-4.63-4.28-4.55a1,1,0,0,0-.48.13A8.42,8.42,0,0,0,522,81.55C518,85.9,519.51,92,524.34,94.87a8.22,8.22,0,0,0,12.1-4,11.59,11.59,0,0,0,.66-2.42h.39c2.3,0,4.62-.11,6.92-.22s4.52.14,6.84.26c2,.11,4.75.57,6.54-.51-.38,3.19.55,6.4,3.42,7.69,4.5,2,11.5-1.28,13-6C583.58,88.13,589.89,76.75,580.19,70Zm-23.62-5.25c-2.63-.06-5.2-.13-7.77-.23-.14-.38-.29-.75-.4-1.12-.67-2.16-1.25-4.34-1.8-6.54-.18-.72-2.12-8.35-2.41-8.1a.29.29,0,0,0-.34-.45c-1.61,1-.09,5.7.17,7q.74,3.78,1.66,7.51c.11.43.21,1,.35,1.55-4-.19-8-.47-12-1-2.52-.29-5.55-.66-8.76-.87-.57-6.07-1.78-13.15,6.89-14.12,3.92-.43,8,0,11.94-.21,6-.34,14.92-1.79,15.24,7.07.11,3.17,0,6.32.1,9.49ZM526.2,93.06c-4.1-1.81-5.14-6-2.66-9.6,2.17-3.13,5.65-3.44,8.72-2.17.69.87,1.67,1.49,2.14,2.65a8,8,0,0,1,.14,4.92C533.55,92.8,529.94,94.7,526.2,93.06Zm35.32,0c-2.53-2-2-7.2.26-10a1,1,0,0,0,1.52.39c2.14-1.32,4.38-1.94,6.61-.49a5.25,5.25,0,0,1,2.2,4.22h-.48c-1.62-.07-1.64,2.4-.06,2.52C569.92,92.71,564.22,95.27,561.52,93.11Z"/><path class="cls-4" d="M644.12,54.82c.36-2-2.41-3.53-3.53-1.49a6.23,6.23,0,0,0-.28.59,2,2,0,0,0-1.93,1.95v.42a2,2,0,0,0-2.71,2.32c0,.14.06.28.08.41l-.09-.11c-1.25-1.57-3.93.11-3.32,1.92q.45,1.31.87,2.61c-.56-1-1-2.14-1.45-3.14-1.27-3.07-2.23-6.26-3.68-9.25-.77-1.57-2.74-1-3.28.34l-.17-.27c-1-1.59-3.74-.6-3.13,1.32a74,74,0,0,1,2.27,8.87,2,2,0,0,0-.12.66l0,1.08A1.6,1.6,0,0,0,621,64.19c0,.33-.07.64-.12,1a1.3,1.3,0,0,0-2.32,1.06,9.48,9.48,0,0,0,1.6,3.15c.2.38.4.76.58,1.15.78,1.63,3,.4,2.73-1.15a5.08,5.08,0,0,1,0-1.65,14.71,14.71,0,0,1,1,1.21,2.35,2.35,0,0,0,.38.39c.16,1.75.25,3.52.28,5.3a9.34,9.34,0,0,0,0,1.05v.2h0c0,.16,0,.32,0,.49.32,2.1,3.63,1.54,3.62-.49,0-.81,0-1.62,0-2.43q0-.39.12-.78a1.83,1.83,0,0,0,2.11-1.79c0-.21,0-.41,0-.62a1.75,1.75,0,0,0,1.11-1.6v0a11,11,0,0,0,3.92,2.82,2,2,0,0,0,2.84-2.18c-.08-.39-.16-.78-.25-1.17,1.31,1.1,3.73-.46,3.08-2.18-.39-1-.72-2.07-1-3.12a1.86,1.86,0,0,0,1.63-1.9V60A1.63,1.63,0,0,0,644,58.09c-.06-.63-.16-1.23-.2-1.74a1.88,1.88,0,0,0,.12-.48C644,55.52,644.06,55.17,644.12,54.82Z"/><path class="cls-2" d="M643.57,55.11c-.74-1.87-2.43-3.87-4.67-3.49-2.49.42-4.1,2.81-5.23,5.18-1.26-4.1-4.82-8.26-9.07-7.62-2.68.41-4,3.79-4.08,6.1a7.51,7.51,0,0,0,1.7,4.56c-2.39.29-4.64,2-5.86,5.14-.82,2.08-1.1,4.81.76,6.44s4.8,1,7.26,0c-1.3,2.78-1.56,6.18,1.69,7.62,4.54,2,5.31-4.41,5.26-8.06,3.09,1.75,7.06,2.25,9.82-.42,2.16-2.08.76-4-1.19-5.4C643.83,64,645.33,59.53,643.57,55.11Zm-6.78,8.48a.88.88,0,0,0-.47,1.69c2.26.71,6,2.81,2.54,4.85-2.61,1.54-5.92.05-8.05-1.56a.87.87,0,0,0-1.31.75c.15,1.44.72,9.66-2.81,8.1-3.18-1.41-.74-5.88.72-7.48a.88.88,0,0,0-1.07-1.38c-2.07,1.08-5.56,3-7.93,1.64-1.6-.91-.87-3.58-.31-4.87,1.31-3,3.45-4.12,5.67-3.76a16,16,0,0,0,2.58,2,.77.77,0,0,0,1-.15,10.29,10.29,0,0,1,1,1c.36.4,1-.12.73-.56a7.94,7.94,0,0,0-4.37-3.78,10.77,10.77,0,0,1-2.2-3.35c-1.22-3,1.24-7,4.58-5.56,3,1.32,5.3,5.49,5.28,8.69,0,1,1.36,1.09,1.71.23,1.33-3.31,5.66-10.55,8-3.85C643.6,60.41,641.53,64.5,636.79,63.59Z"/></svg>